<svg xmlns="http://www.w3.org/2000/svg" xmlns:xlink="http://www.w3.org/1999/xlink" width="70" height="70" viewBox="0 0 70 70">
  <defs>
    <clipPath id="clip-path">
      <rect id="Rectangle_401149" data-name="Rectangle 401149" width="46" height="48" transform="translate(275.75 971.833)" fill="#fff" stroke="#707070" stroke-width="1"/>
    </clipPath>
    <clipPath id="clip-path-2">
      <rect id="Rectangle_401153" data-name="Rectangle 401153" width="41.471" height="41.659" fill="#6a4d23"/>
    </clipPath>
  </defs>
  <g id="Group_1100313" data-name="Group 1100313" transform="translate(-610 -6501)">
    <g id="Group_1100281" data-name="Group 1100281">
      <g id="Group_1099487" data-name="Group 1099487" transform="translate(341 5543)">
        <circle id="Ellipse_5614" data-name="Ellipse 5614" cx="35" cy="35" r="35" transform="translate(269 958)" fill="#fff"/>
      </g>
      <g id="Mask_Group_1098693" data-name="Mask Group 1098693" transform="translate(346.25 5540.167)" clip-path="url(#clip-path)">
        <g id="Group_1099502" data-name="Group 1099502" transform="translate(277.75 974.833)">
          <g id="Group_1099501" data-name="Group 1099501" clip-path="url(#clip-path-2)">
            <path id="Path_873648" data-name="Path 873648" d="M8.509,52.844v6.087H0V30.792H25.569V58.941H18.261v-6.1Zm-1.2-14.732V34.425c-.763,0-1.506,0-2.248,0-.146,0-.222.019-.221.2.01,1.105.006,2.211.009,3.316a1.529,1.529,0,0,0,.02.173Zm.008,8.572c-.791,0-1.558,0-2.325,0-.177,0-.142.126-.142.227,0,1.09,0,2.181,0,3.271,0,.164.049.213.211.211.479-.008.958,0,1.438,0h.822Zm4.864,1.844h.008c0-.537,0-1.073,0-1.61,0-.169-.051-.234-.228-.232q-.991.009-1.982-.007c-.191,0-.258.057-.256.256q.012,1.622,0,3.244c0,.171.065.211.218.21.661-.006,1.321-.013,1.982,0,.219,0,.263-.083.26-.276-.009-.528,0-1.057,0-1.585M7.307,44.244V40.552c-.748,0-1.475.008-2.2,0-.208,0-.268.053-.266.261.011,1.066.006,2.132.007,3.2,0,.072.009.143.015.237ZM9.729,42.4h0c0,.537.005,1.074,0,1.61,0,.169.048.237.224.235.685-.008,1.371,0,2.056-.017a.243.243,0,0,0,.169-.166q.019-1.672.008-3.344a.244.244,0,0,0-.166-.171c-.685-.014-1.371-.008-2.056-.015-.168,0-.233.059-.23.232.008.545,0,1.09,0,1.635m.055-7.965c-.021.04-.035.054-.035.069-.007,1.139-.011,2.278-.021,3.416,0,.173.079.2.231.2.669-.011,1.337-.019,2.006-.007.174,0,.216-.049.215-.2q-.005-1.647,0-3.293c0-.145-.048-.182-.187-.18-.619.006-1.238,0-1.857,0H9.783m4.833,3.687c.78,0,1.539,0,2.3,0,.168,0,.154-.1.154-.215q-.008-1.633-.014-3.267c0-.071-.006-.141-.01-.218-.754,0-1.487,0-2.221,0-.176,0-.243.035-.241.232.013,1.072.009,2.145.012,3.218,0,.08.014.159.022.252m2.436,2.429c-.752,0-1.471.011-2.189-.006-.252-.006-.278.1-.275.308.011.975.009,1.951.01,2.926,0,.45,0,.46.445.466.666.009,1.332,0,2.009,0Zm0,9.832V46.693c-.773,0-1.523,0-2.272,0-.167,0-.191.08-.191.213,0,1.105,0,2.211.005,3.316a.223.223,0,0,0,.146.16c.766.01,1.532.007,2.312.007m2.457-.013H21.93c0-.253,0-.491,0-.728,0-.907.006-1.815.017-2.722,0-.2-.066-.247-.261-.243q-.953.02-1.906,0c-.209,0-.289.036-.286.266.012,1.089,0,2.178.005,3.266,0,.048.008.1.013.162m2.413-9.83c-.781,0-1.522,0-2.263.008a.24.24,0,0,0-.158.172c-.01,1.114,0,2.228-.009,3.342,0,.143.05.193.189.182.107-.008.215,0,.322,0h1.92Zm-2.414-6.1c0,1.192,0,2.355.007,3.518,0,.05.1.14.154.141.594.012,1.189.01,1.783.012h.461V34.443Z" transform="translate(0 -24.656)" fill="#6a4d23"/>
            <path id="Path_873649" data-name="Path 873649" d="M154.1,110.527H140.66v-.818q0-11.554,0-23.107c0-.576,0-.577.589-.577q6.287.005,12.574.007c.216,0,.279.052.279.274q-.009,12,0,24v.222m-2.417-20.8h-2.464a1.126,1.126,0,0,0-.019.138c0,1.122,0,2.244,0,3.366,0,.156.072.17.2.168.677-.008,1.353-.008,2.03-.013.079,0,.158-.01.258-.017ZM149.248,95.8a.383.383,0,0,0-.034.082c-.006,1.155-.014,2.31-.008,3.464,0,.053.117.152.18.152.693,0,1.386-.009,2.079-.009.143,0,.206-.032.206-.191,0-1.113.008-2.227,0-3.34a.219.219,0,0,0-.152-.151c-.758-.01-1.517-.007-2.275-.007m2.427,6.156H149.24c-.015.026-.03.04-.03.055q-.006,1.735-.01,3.471c0,.135.065.161.187.16.7-.008,1.406-.009,2.108-.014a1.157,1.157,0,0,0,.18-.032Zm-7.353-.012c0,1.2,0,2.375.006,3.554a.189.189,0,0,0,.132.129c.757.008,1.515.006,2.275.006v-3.689Zm2.433-12.242c-.782,0-1.525,0-2.268,0-.133,0-.172.055-.172.177.005,1.106.01,2.213.009,3.319,0,.164.078.189.214.188.512,0,1.024,0,1.536,0h.681Zm-.008,6.117h-2.419c0,1.184,0,2.347,0,3.511,0,.163.109.157.22.156l1.438,0h.761Z" transform="translate(-112.632 -68.884)" fill="#6a4d23"/>
            <path id="Path_873650" data-name="Path 873650" d="M18.4,0H37.913c.007.165.021.327.021.488-.005.984-.02,1.967-.016,2.95,0,.2-.067.234-.244.233-1.224-.006-2.447,0-3.671,0H18.9c-.5,0-.5,0-.5-.492q0-1.438,0-2.876V0" transform="translate(-14.73)" fill="#6a4d23"/>
            <path id="Path_873651" data-name="Path 873651" d="M59.988,153.685v11c-.07,0-.141.013-.213.014-1.455,0-2.911,0-4.366.006-.222,0-.275-.064-.275-.28q0-5.257-.008-10.515c0-.154.023-.246.214-.245,1.5,0,2.993,0,4.489,0a1.383,1.383,0,0,1,.158.02" transform="translate(-44.143 -123.046)" fill="#6a4d23"/>
            <rect id="Rectangle_401152" data-name="Rectangle 401152" width="8.496" height="4.86" transform="translate(0.003 36.775)" fill="#6a4d23"/>
            <path id="Path_873652" data-name="Path 873652" d="M98.876,184.458v4.871H91.54v-.407c0-1.4.006-2.793,0-4.19,0-.222.073-.291.279-.29.785,0,1.571,0,2.356,0q2.257,0,4.514.007c.056,0,.112.006.191.011" transform="translate(-73.297 -147.69)" fill="#6a4d23"/>
            <path id="Path_873653" data-name="Path 873653" d="M159.071,58.975c0-.179,0-.35,0-.521,0-.951,0-1.9-.015-2.852,0-.184.041-.266.247-.265q4.626.018,9.253.018c.217,0,.279.058.277.278-.012,1.107-.005,2.213-.005,3.342Z" transform="translate(-127.363 -44.311)" fill="#6a4d23"/>
          </g>
        </g>
      </g>
    </g>
  </g>
</svg>
