<svg xmlns="http://www.w3.org/2000/svg" xmlns:xlink="http://www.w3.org/1999/xlink" width="70" height="70" viewBox="0 0 70 70">
  <defs>
    <clipPath id="clip-path">
      <rect id="Rectangle_401151" data-name="Rectangle 401151" width="46" height="48" transform="translate(275.75 971.833)" fill="#fff" stroke="#707070" stroke-width="1"/>
    </clipPath>
    <clipPath id="clip-path-2">
      <rect id="Rectangle_401154" data-name="Rectangle 401154" width="43.432" height="39.573" fill="#6a4d23"/>
    </clipPath>
  </defs>
  <g id="Group_1100312" data-name="Group 1100312" transform="translate(-300 -6501)">
    <g id="Group_1100282" data-name="Group 1100282">
      <g id="Group_1099486" data-name="Group 1099486" transform="translate(31 5543)">
        <circle id="Ellipse_5614" data-name="Ellipse 5614" cx="35" cy="35" r="35" transform="translate(269 958)" fill="#fff"/>
      </g>
      <g id="Mask_Group_1098694" data-name="Mask Group 1098694" transform="translate(36.25 5540.167)" clip-path="url(#clip-path)">
        <g id="Group_1099500" data-name="Group 1099500" transform="translate(277.083 974.26)">
          <g id="Group_1099504" data-name="Group 1099504" transform="translate(0 -0.427)">
            <g id="Group_1099503" data-name="Group 1099503" clip-path="url(#clip-path-2)">
              <path id="Path_873654" data-name="Path 873654" d="M17.206,104.358c.6-.141,1.176-.263,1.742-.409a.677.677,0,0,0,.525-.751q-.011-2.571,0-5.143A.72.72,0,0,0,19,97.322a4.532,4.532,0,0,0-1.8-.4c-.006-.088-.016-.172-.017-.257,0-.759.01-1.517-.007-2.276a.386.386,0,0,1,.291-.431q2.291-.9,4.573-1.83c.812-.327,1.616-.673,2.434-.985a.846.846,0,0,1,.561,0c2.278.9,4.549,1.81,6.821,2.722.473.19.471.2.471.695q0,7.005,0,14.01v.439c-.166-.066-.3-.117-.429-.17q-2.283-.926-4.564-1.854c-.692-.282-1.385-.562-2.072-.856a1.19,1.19,0,0,0-.99-.005c-2.207.914-4.422,1.812-6.634,2.715-.134.055-.27.106-.435.17Z" transform="translate(-13.094 -69.438)" fill="#6a4d23"/>
              <path id="Path_873655" data-name="Path 873655" d="M100.869,108.948c-2.232-.911-4.413-1.786-6.578-2.7a2.063,2.063,0,0,0-1.744-.029c-2.052.878-4.127,1.7-6.193,2.549-.153.063-.309.119-.508.194V108.6q0-7.1-.006-14.193a.457.457,0,0,1,.337-.513q3.443-1.363,6.874-2.759a.806.806,0,0,1,.652,0q2.473,1.009,4.951,2,.958.385,1.924.753a.476.476,0,0,1,.348.532c-.026.729-.02,1.458-.008,2.188,0,.234-.049.326-.3.336a3.227,3.227,0,0,0-1.654.48c-.129.083-.192.268-.284.408a.112.112,0,0,0-.009.058q0,2.734,0,5.467a.531.531,0,0,0,.371.515,3.754,3.754,0,0,0,1.63.356c.186-.008.259.044.257.248-.014,1.38-.015,2.759-.023,4.139,0,.1-.02.206-.035.339" transform="translate(-65.43 -69.41)" fill="#6a4d23"/>
              <path id="Path_873656" data-name="Path 873656" d="M63.93,12.107a6.054,6.054,0,1,1,6.058-6.1,6.069,6.069,0,0,1-6.058,6.1" transform="translate(-44.141 -0.001)" fill="#6a4d23"/>
              <path id="Path_873657" data-name="Path 873657" d="M70.226,66.591V63.221c0-.141-.017-.275.2-.274,1.813.009,3.627.011,5.441.015a3.586,3.586,0,0,0,.413,0c.26-.029.334.069.328.331q-.039,1.522-.035,3.045,0,1.789.037,3.577a.388.388,0,0,1-.292.433c-.934.366-1.86.754-2.794,1.12a.588.588,0,0,1-.392,0c-.871-.338-1.734-.7-2.6-1.037a.405.405,0,0,1-.3-.439c.009-1.133,0-2.267,0-3.4Z" transform="translate(-53.529 -47.98)" fill="#6a4d23"/>
              <path id="Path_873658" data-name="Path 873658" d="M146.576,51.6q0-2.009,0-4.019c0-.079,0-.158.006-.236.032-.742.184-.886.932-.887q3.369,0,6.738,0a1.883,1.883,0,0,1,.525.058.519.519,0,0,1,.232.855,1.183,1.183,0,0,1-.2.173q-3.413,2.437-6.832,4.866a.484.484,0,0,0-.223.464c.01,1.034.007,2.068.007,3.1a.614.614,0,0,1-.362.649.525.525,0,0,1-.771-.419,8.3,8.3,0,0,1-.058-1.031c-.007-1.192,0-2.384,0-3.575h.008" transform="translate(-111.719 -35.409)" fill="#6a4d23"/>
              <path id="Path_873659" data-name="Path 873659" d="M102.9,39.729c.221-.2.45-.4.662-.614a5.765,5.765,0,0,0,1.259-1.911.318.318,0,0,1,.343-.24c1.37.008,2.739,0,4.109.006a.829.829,0,0,1,.938.948c0,.3,0,.591,0,.886,0,.7-.3,1-1.011,1-1.074,0-2.148,0-3.222,0h-3.031Z" transform="translate(-78.433 -28.175)" fill="#6a4d23"/>
              <path id="Path_873660" data-name="Path 873660" d="M40.421,39.818h-.343q-2.957,0-5.914,0a2.254,2.254,0,0,1-.468-.047.651.651,0,0,1-.585-.674c-.019-.462-.018-.927,0-1.389a.715.715,0,0,1,.746-.723c1.439-.012,2.878-.008,4.317,0a.319.319,0,0,1,.233.164,7.153,7.153,0,0,0,2.015,2.669" transform="translate(-25.228 -28.185)" fill="#6a4d23"/>
              <path id="Path_873661" data-name="Path 873661" d="M101.8,69.825v-.863q0-2.849,0-5.7c0-.133-.014-.263.182-.262.834,0,1.669,0,2.523,0,.01.12.024.205.023.291,0,1.693-.011,3.386-.005,5.078a.436.436,0,0,1-.339.49c-.627.227-1.237.5-1.855.756-.144.059-.289.114-.529.208" transform="translate(-77.595 -48.022)" fill="#6a4d23"/>
              <path id="Path_873662" data-name="Path 873662" d="M56.686,69.92l-.772-.306c-.539-.213-1.073-.441-1.619-.632-.264-.092-.27-.278-.271-.488q0-2.009,0-4.018v-1.4h2.662Z" transform="translate(-41.179 -48.077)" fill="#6a4d23"/>
              <path id="Path_873663" data-name="Path 873663" d="M34.976,70.235c0-.16,0-.283,0-.406,0-.64,0-1.28-.009-1.92a4.536,4.536,0,0,1,2.911-4.01c.136-.047.274-.09.452-.148v.36c0,1.457-.01,2.915,0,4.372,0,.3-.05.447-.371.563-.914.329-1.8.723-2.705,1.09-.079.032-.16.057-.28.1" transform="translate(-26.653 -48.593)" fill="#6a4d23"/>
              <path id="Path_873664" data-name="Path 873664" d="M121.279,70.489c-.087-.028-.179-.053-.267-.087-.879-.343-1.756-.69-2.636-1.029-.159-.061-.262-.117-.26-.325.014-1.556.013-3.112.018-4.668,0-.068.009-.135.015-.229a1,1,0,0,1,.2.032,4.236,4.236,0,0,1,2.919,3.761c.072.829.012,1.669.012,2.545" transform="translate(-90.031 -48.898)" fill="#6a4d23"/>
              <path id="Path_873665" data-name="Path 873665" d="M144.559,123.113c0-.651.01-1.3-.005-1.952a.331.331,0,0,1,.276-.375,2.475,2.475,0,0,1,3.043,1.89,2.45,2.45,0,0,1-2.784,2.939c-.462-.062-.528-.136-.529-.609,0-.631,0-1.262,0-1.892" transform="translate(-110.184 -91.992)" fill="#6a4d23"/>
              <path id="Path_873666" data-name="Path 873666" d="M11.076,123.1c0,.689,0,1.377,0,2.066,0,.227-.088.326-.316.374a2.513,2.513,0,0,1-3.01-2.079,2.564,2.564,0,0,1,2.415-2.823c.029,0,.059,0,.088,0,.763.027.848.118.842.869,0,.531,0,1.063,0,1.594h-.021" transform="translate(-5.893 -91.953)" fill="#6a4d23"/>
              <path id="Path_873667" data-name="Path 873667" d="M0,57.756a2.945,2.945,0,0,1,1.953-2.939,2.775,2.775,0,0,1,3.111.961,2.659,2.659,0,0,1-.192,3.629c-.611.669-1.272,1.292-1.92,1.925a.261.261,0,0,1-.255-.01c-.641-.627-1.287-1.251-1.9-1.9A2.76,2.76,0,0,1,0,57.756m4.928-.317a2.134,2.134,0,0,0-2.193-2.131A2.14,2.14,0,0,0,.717,57.44,2.065,2.065,0,0,0,2.846,59.5a2.026,2.026,0,0,0,2.082-2.065" transform="translate(0 -41.672)" fill="#6a4d23"/>
              <path id="Path_873668" data-name="Path 873668" d="M9.852,63.294a.906.906,0,0,1-.9.9A.942.942,0,0,1,8.02,63.3a.961.961,0,0,1,.918-.937.926.926,0,0,1,.915.927" transform="translate(-6.113 -47.538)" fill="#6a4d23"/>
            </g>
          </g>
        </g>
      </g>
    </g>
  </g>
</svg>
