<svg xmlns="http://www.w3.org/2000/svg" xmlns:xlink="http://www.w3.org/1999/xlink" width="68" height="69" viewBox="0 0 68 69">
  <defs>
    <clipPath id="clip-path">
      <rect id="Rectangle_401997" data-name="Rectangle 401997" width="63.333" height="56.916" fill="none"/>
    </clipPath>
  </defs>
  <g id="Group_1100314" data-name="Group 1100314" transform="translate(-922 -1296)">
    <g id="Group_1099380" data-name="Group 1099380" transform="translate(921.941 1296.339)">
      <rect id="Rectangle_401104" data-name="Rectangle 401104" width="68" height="69" transform="translate(0.059 -0.339)" fill="none"/>
      <g id="Group_1099853" data-name="Group 1099853" transform="translate(2.059 5.662)">
        <g id="Group_1099852" data-name="Group 1099852" clip-path="url(#clip-path)">
          <path id="Path_876690" data-name="Path 876690" d="M66.165,85.017c.114.218-.041.406-.073.607-.041.252-.107.5-.163.749a5.176,5.176,0,0,1-.3.769,5.162,5.162,0,0,0-.366.8c-.218.631-.4,1.273-.56,1.923a15.783,15.783,0,0,0-.315,2.225,11.786,11.786,0,0,0,.045,1.6,4.082,4.082,0,0,0,.1.917,13.438,13.438,0,0,0,.583,2.242,1.4,1.4,0,0,1,.082.21,10.482,10.482,0,0,0,.881,2.066,15.773,15.773,0,0,0,1.538,2.306c.09.116.257.208.214.4-.664,0-1.328,0-1.992.008a1.263,1.263,0,0,0-.918.314,17.2,17.2,0,0,0-1.381,1.384,8.684,8.684,0,0,0-1.377,2.557,7.031,7.031,0,0,0-.322,1.464,12.175,12.175,0,0,0-.082,1.712,2.725,2.725,0,0,0,.048.646,4.173,4.173,0,0,0,.226,1.225,8.293,8.293,0,0,0,.583,2.469c.176.534.381,1.061.6,1.581.321.748.669,1.482,1.03,2.21.293.591.642,1.151.968,1.723.474.831,1,1.628,1.551,2.409a1.542,1.542,0,0,1,.245.4c-.286.311-.68.485-.985.771q-1.2,0-2.4,0l-12.753,0a1.105,1.105,0,0,0-.178-.172,12.312,12.312,0,0,1-1.96-1.626,14.206,14.206,0,0,1-1.882-2.3,15.055,15.055,0,0,1-1.138-1.955,10.316,10.316,0,0,1-.713-1.728c-.123-.436-.294-.855-.41-1.3a19.973,19.973,0,0,1-.436-2.206.323.323,0,0,0-.1-.218c0-.473-.069-.941-.115-1.411a7.6,7.6,0,0,1-.051-1.169c.035-.606.038-1.214.124-1.816a.761.761,0,0,0,.043-.126c.085-.544.142-1.093.257-1.63a18.685,18.685,0,0,1,1.04-3.365,16.821,16.821,0,0,1,1.891-3.342c.677-.937,1.527-1.725,2.24-2.633A11.971,11.971,0,0,0,51.216,92.8a.76.76,0,0,0,.063-.4c.075-.244.164-.484.224-.732a7.769,7.769,0,0,0,.132-2.133,1.7,1.7,0,0,0-.173-.892.272.272,0,0,0,.032-.3,6.643,6.643,0,0,1-.3-1.366.746.746,0,0,0-.034-.154,12.268,12.268,0,0,1-.422-1.813c.081-.086.186-.047.279-.047q6.333,0,12.666,0c.7,0,1.406,0,2.109,0a1.134,1.134,0,0,1,.378.052" transform="translate(-35.906 -69.503)" fill="#ffc162"/>
          <path id="Path_876691" data-name="Path 876691" d="M148.617,232.995a1.538,1.538,0,0,0-.245-.4c-.552-.78-1.077-1.577-1.551-2.408-.327-.572-.675-1.132-.968-1.723-.361-.728-.709-1.462-1.03-2.21-.223-.52-.428-1.047-.6-1.581a8.307,8.307,0,0,1-.583-2.469,1.99,1.99,0,0,0,1.04-.259c.706-.329,1.325-.812,2.034-1.135a.853.853,0,0,1,.777,0c.527.25,1.006.578,1.5.874a3.5,3.5,0,0,0,1.059.5,3.355,3.355,0,0,0,2.477-.409c.534-.324,1.058-.668,1.623-.942a.921.921,0,0,1,.9.01c.52.276,1.021.581,1.52.892a3.107,3.107,0,0,0,.984.444,3.4,3.4,0,0,0,2.519-.43,17.843,17.843,0,0,1,1.607-.921.923.923,0,0,1,.86,0c.669.319,1.272.748,1.925,1.095a2.918,2.918,0,0,0,2.667.039c.729-.315,1.36-.81,2.076-1.153a.834.834,0,0,1,.777,0c.546.261,1.049.6,1.573.894a3.631,3.631,0,0,0,1.357.537,3.522,3.522,0,0,0,2.377-.617,11.1,11.1,0,0,1,1.05-.622,1.317,1.317,0,0,1,.761-.253,1.016,1.016,0,0,1-.039.312c-.136.359-.236.73-.358,1.093a22.811,22.811,0,0,1-1.069,2.514,31.869,31.869,0,0,1-2.041,3.625q-1.027,1.582-2.195,3.065c-.64.81-1.325,1.58-2.04,2.325a2.128,2.128,0,0,1-1.631.675q-8.332-.013-16.664,0c-.317,0-.635.01-.952-.006a.628.628,0,0,0-.4.049c-.3-.4-.605-.79-.9-1.192a1,1,0,0,0-.2-.211" transform="translate(-117.504 -180.562)" fill="#b57e5e"/>
          <path id="Path_876692" data-name="Path 876692" d="M159.946,106.306c.043-.193-.124-.286-.214-.4a15.776,15.776,0,0,1-1.538-2.306,10.507,10.507,0,0,1-.881-2.066,1.373,1.373,0,0,0-.082-.21,13.437,13.437,0,0,1-.583-2.242,4.094,4.094,0,0,1-.1-.917,11.786,11.786,0,0,1-.045-1.6,15.782,15.782,0,0,1,.315-2.225c.162-.651.343-1.292.56-1.923a5.162,5.162,0,0,1,.367-.8,5.175,5.175,0,0,0,.3-.769.152.152,0,0,0,.18-.059.87.87,0,0,1,1.123-.274,8.236,8.236,0,0,0,1.153.31c.345.06.662.207,1,.291a3.863,3.863,0,0,0,1.038.143c-.013.1.008.165.135.181a5.016,5.016,0,0,1,.669.123c1.011.266,2.022.53,3.028.815.906.256,1.817.489,2.727.728,1.383.362,2.759.75,4.141,1.116.676.179,1.351.363,2.028.539q.883.229,1.764.483c.989.284,1.987.541,2.984.8.443.114.894.2,1.341.3a1.251,1.251,0,0,0,.476.2c.454.108.9.236,1.352.361a2.281,2.281,0,0,0,.8.11c.129.2.36.218.555.262,1.147.257,2.276.582,3.411.884a.9.9,0,0,1,.764.994,11.406,11.406,0,0,1-.3,2.349,12.639,12.639,0,0,1-1.9,4.513c-.061.092-.152.171-.157.295q-2.108,0-4.215,0h-21.44c-.249,0-.5,0-.748,0M179,98.714a.961.961,0,0,0-.188-.483.861.861,0,0,0-1.435-.117,2.434,2.434,0,0,0-.377,1,.7.7,0,0,0,.054.56.9.9,0,0,0,.75.546.807.807,0,0,0,.819-.383A4.376,4.376,0,0,0,179,98.714m-11.5-3.7a.781.781,0,0,0-.853.662c-.037.137-.085.272-.134.406a1,1,0,0,0,.112.964.787.787,0,0,0,.751.359.874.874,0,0,0,.818-.575c.079-.218.112-.453.194-.67a.881.881,0,0,0-.888-1.146m6.833,4.268a.83.83,0,0,0,.794-.414,3.015,3.015,0,0,0,.3-.939.868.868,0,0,0-.736-1.048.979.979,0,0,0-1.069.728,2.972,2.972,0,0,1-.12.476c-.141.45.215,1.247.835,1.2m10.767.4a.809.809,0,0,0-.82.5,1.919,1.919,0,0,0-.142.451,1.488,1.488,0,0,0-.027.949.781.781,0,0,0,.71.5.8.8,0,0,0,.856-.412,3.527,3.527,0,0,0,.295-.851.909.909,0,0,0-.872-1.142m-14.253-1.357a.831.831,0,0,0,.873-.636q.1-.311.179-.629a.907.907,0,0,0-.683-1.122.852.852,0,0,0-1.059.695,2.76,2.76,0,0,1-.193.624.453.453,0,0,0-.032.243.9.9,0,0,0,.916.826m10.614,2.856a.851.851,0,0,0,.514-.23,2.082,2.082,0,0,0,.476-1.072.855.855,0,0,0-.036-.593,1.069,1.069,0,0,0-.921-.551.913.913,0,0,0-.816.759,2.891,2.891,0,0,1-.127.478.946.946,0,0,0,.909,1.21M163.949,96.47a.933.933,0,0,0,.721-.56,2.792,2.792,0,0,0,.211-.857.923.923,0,0,0-.778-1.027.956.956,0,0,0-.967.654c-.054.211-.105.423-.165.632a.933.933,0,0,0,.978,1.158m-2.6-2.277c.04-.768-.358-1.02-.672-1.075a.87.87,0,0,0-1.053.686c-.049.174-.114.343-.172.514a.957.957,0,0,0,.538,1.142.928.928,0,0,0,1.128-.417,2.541,2.541,0,0,0,.231-.85" transform="translate(-128.018 -73.974)" fill="#e3a873"/>
          <path id="Path_876693" data-name="Path 876693" d="M148.191,177.726c.249,0,.5,0,.748,0h21.44q2.108,0,4.215,0l.944,0a.333.333,0,0,1,.233.053,1.158,1.158,0,0,0,.021.291,9.633,9.633,0,0,1,.5,1.655,12.891,12.891,0,0,1,.193,1.381,10.037,10.037,0,0,1-.08,1.893,3.378,3.378,0,0,0-.095.713,2.915,2.915,0,0,0-1.838.317,13.528,13.528,0,0,0-1.488.858,1.492,1.492,0,0,1-1.722.016,17.247,17.247,0,0,0-1.627-.891,2.764,2.764,0,0,0-1.506-.327,3.788,3.788,0,0,0-1.445.492c-.406.231-.808.471-1.207.713a1.483,1.483,0,0,1-1.665.039c-.225-.138-.452-.273-.683-.4a6.3,6.3,0,0,0-1.818-.786,2.105,2.105,0,0,0-.693-.064,5.143,5.143,0,0,0-.909.262,9.058,9.058,0,0,0-1.723.941,1.516,1.516,0,0,1-1.665.063c-.28-.163-.557-.332-.842-.483a6.392,6.392,0,0,0-1.652-.722,2.526,2.526,0,0,0-1.33.081,9.656,9.656,0,0,0-1.98,1.035,1.472,1.472,0,0,1-1.54.173c-.53-.287-1.049-.593-1.581-.879a3.063,3.063,0,0,0-2.86-.154c-.5.227-.961.535-1.444.8a1.9,1.9,0,0,1-.978.367,12.144,12.144,0,0,1,.083-1.711,7.017,7.017,0,0,1,.322-1.464,8.687,8.687,0,0,1,1.377-2.557,17.2,17.2,0,0,1,1.381-1.383,1.262,1.262,0,0,1,.918-.314c.664-.007,1.328-.006,1.992-.008" transform="translate(-116.262 -145.394)" fill="#b57e5e"/>
          <path id="Path_876694" data-name="Path 876694" d="M177.038,234.515a.627.627,0,0,1,.4-.049c.317.015.635.005.952.005q8.332,0,16.664,0a2.128,2.128,0,0,0,1.631-.675c.715-.745,1.4-1.515,2.04-2.325q1.17-1.48,2.195-3.065a31.874,31.874,0,0,0,2.041-3.625,22.8,22.8,0,0,0,1.069-2.514c.123-.363.222-.734.358-1.093a1.011,1.011,0,0,0,.039-.312.8.8,0,0,1,.5.11c.567.256,1.054.65,1.608.926a2.889,2.889,0,0,0,1.38.456,3.255,3.255,0,0,1-.151.8c-.226.781-.418,1.572-.706,2.334a28.311,28.311,0,0,1-2.016,4.259c-.343.589-.65,1.2-1.042,1.759-.287.407-.554.828-.85,1.229-.463.625-.917,1.257-1.4,1.867-.35.443-.717.873-1.087,1.3s-.771.856-1.181,1.262a1.322,1.322,0,0,1-.934.384c-3.569.085-7.137.021-10.706.036-2.229.009-4.458,0-6.687,0a4.933,4.933,0,0,1-1.262-.083,1.206,1.206,0,0,1-.44-.253,8.246,8.246,0,0,1-.9-.917c-.53-.586-1.051-1.179-1.523-1.813" transform="translate(-144.831 -180.679)" fill="#96695b"/>
          <path id="Path_876695" data-name="Path 876695" d="M15.556,104.52a1.7,1.7,0,0,1,.173.892,7.762,7.762,0,0,1-.132,2.132c-.059.248-.148.488-.223.732-.462-.06-.923-.153-1.387-.174a13.775,13.775,0,0,0-4.785.537,9.047,9.047,0,0,0-3.307,1.77,6.151,6.151,0,0,0-2.162,4.106,7.273,7.273,0,0,0,.924,4.2,12.28,12.28,0,0,0,3.458,3.962c-.086.6-.09,1.211-.124,1.816a7.573,7.573,0,0,0,.051,1.169c.046.47.111.938.115,1.411a1.078,1.078,0,0,1-.212-.074,17.974,17.974,0,0,1-5.6-5.073,12.667,12.667,0,0,1-2.087-4.683,8.915,8.915,0,0,1-.25-2.222,10.9,10.9,0,0,1,.5-2.957,9.8,9.8,0,0,1,2.906-4.354A11.969,11.969,0,0,1,6.862,105.6a14.315,14.315,0,0,1,2.009-.683,14.216,14.216,0,0,1,2.2-.428,18.358,18.358,0,0,1,2.756-.1,15.951,15.951,0,0,1,1.732.134" transform="translate(0 -85.378)" fill="#ff8a57"/>
          <path id="Path_876696" data-name="Path 876696" d="M208.535,76.379c-.447-.1-.9-.184-1.341-.3-1-.257-1.994-.514-2.984-.8q-.879-.252-1.764-.483c-.677-.176-1.352-.36-2.028-.539-1.382-.366-2.758-.754-4.141-1.116-.91-.238-1.821-.472-2.727-.728-1.006-.285-2.017-.548-3.028-.815a5.05,5.05,0,0,0-.669-.123c-.128-.016-.148-.077-.135-.181a5.968,5.968,0,0,0,1.406-.373,3.68,3.68,0,0,1,.558-.111c.926-.247,1.851-.5,2.777-.751,1.029-.276,2.063-.534,3.088-.825.783-.223,1.572-.428,2.358-.64.642-.173,1.286-.35,1.933-.507.879-.214,1.746-.476,2.619-.712,1.006-.272,2.008-.558,3.02-.8.7-.171,1.389-.419,2.1-.548.031.093.058.187.093.278a9.849,9.849,0,0,1,.431,1.115,10.174,10.174,0,0,1,.394,3.561,11.7,11.7,0,0,1-1.312,4.371c-.2.357-.425.691-.654,1.026" transform="translate(-155.202 -54.017)" fill="#b57e5e"/>
          <path id="Path_876697" data-name="Path 876697" d="M179.315,213.814a2.888,2.888,0,0,1-1.38-.456c-.554-.276-1.041-.67-1.608-.926a.8.8,0,0,0-.5-.11,1.318,1.318,0,0,0-.761.253,11.1,11.1,0,0,0-1.05.621,3.52,3.52,0,0,1-2.377.617,3.629,3.629,0,0,1-1.357-.537c-.524-.3-1.027-.633-1.573-.894a.835.835,0,0,0-.777,0c-.716.343-1.347.838-2.076,1.153a2.918,2.918,0,0,1-2.667-.039c-.653-.346-1.257-.776-1.925-1.095a.922.922,0,0,0-.86,0,17.909,17.909,0,0,0-1.607.921,3.4,3.4,0,0,1-2.519.43,3.115,3.115,0,0,1-.984-.444c-.5-.311-1-.616-1.52-.892a.921.921,0,0,0-.9-.01c-.565.274-1.089.618-1.623.942a3.355,3.355,0,0,1-2.477.409,3.488,3.488,0,0,1-1.059-.5c-.5-.3-.977-.625-1.5-.874a.852.852,0,0,0-.777,0c-.71.323-1.329.806-2.034,1.135a1.992,1.992,0,0,1-1.04.259,4.166,4.166,0,0,1-.225-1.225,2.726,2.726,0,0,1-.048-.646,1.9,1.9,0,0,0,.978-.367c.483-.263.94-.571,1.444-.8a3.064,3.064,0,0,1,2.86.155c.531.286,1.051.593,1.581.879a1.472,1.472,0,0,0,1.54-.173,9.655,9.655,0,0,1,1.98-1.035,2.526,2.526,0,0,1,1.33-.081,6.387,6.387,0,0,1,1.652.722c.286.151.563.32.842.483a1.516,1.516,0,0,0,1.665-.063,9.057,9.057,0,0,1,1.723-.941,5.112,5.112,0,0,1,.909-.262,2.106,2.106,0,0,1,.693.064,6.3,6.3,0,0,1,1.818.786c.232.126.459.261.683.4a1.483,1.483,0,0,0,1.665-.039c.4-.243.8-.482,1.207-.713a3.789,3.789,0,0,1,1.445-.492,2.764,2.764,0,0,1,1.506.327,17.247,17.247,0,0,1,1.627.891,1.493,1.493,0,0,0,1.722-.016,13.52,13.52,0,0,1,1.488-.858,2.914,2.914,0,0,1,1.838-.317,10.4,10.4,0,0,1,2.2,1.037,2.423,2.423,0,0,0,1.028.435c-.025.633-.12,1.259-.2,1.887" transform="translate(-116.229 -172.133)" fill="#e3a873"/>
          <path id="Path_876698" data-name="Path 876698" d="M88.39,68.264a1.134,1.134,0,0,0-.378-.052c-.7,0-1.406,0-2.109,0q-6.333,0-12.666,0c-.093,0-.2-.038-.279.047a2.735,2.735,0,0,1-1.151-.416,1.865,1.865,0,0,1,.127-3.078,2.043,2.043,0,0,1,1.03-.273c.279-.014.558-.01.837-.014.083,0,.166.013.249.013l13.559,0a9.272,9.272,0,0,1,1.171.043,1.859,1.859,0,0,1,1.293,2.722,1.762,1.762,0,0,1-1.424.955,1.393,1.393,0,0,0-.26.053" transform="translate(-58.13 -52.749)" fill="#ff8a57"/>
          <path id="Path_876699" data-name="Path 876699" d="M82.307,292.442l12.753,0q1.2,0,2.4,0-.006,1.3-.011,2.607a.954.954,0,0,1-1.063,1.067q-6.473,0-12.946,0A1.019,1.019,0,0,1,82.313,295c-.006-.854,0-1.708-.006-2.562" transform="translate(-67.334 -239.238)" fill="#ff8a57"/>
          <path id="Path_876700" data-name="Path 876700" d="M99.952,42.13l-13.559,0c-.083,0-.166-.008-.249-.013a4.694,4.694,0,0,1,.1-.893,5.036,5.036,0,0,1,.851-1.589,5.181,5.181,0,0,1,1.523-1.275,7.309,7.309,0,0,1,2.6-.946c.185-.029.368-.065.552-.1a.935.935,0,0,0,.222-.021,8.976,8.976,0,0,1,1.288-.15,7.8,7.8,0,0,1,1.018.137,7.863,7.863,0,0,0,1.1.219,4.879,4.879,0,0,1,.853.283,7.2,7.2,0,0,1,1.135.542,5.36,5.36,0,0,1,2.287,2.444,4.579,4.579,0,0,1,.237,1.187.375.375,0,0,0,.046.171" transform="translate(-70.473 -30.389)" fill="#ffc162"/>
          <path id="Path_876701" data-name="Path 876701" d="M293.164,73.69c.228-.335.458-.669.654-1.026a11.7,11.7,0,0,0,1.312-4.371,10.174,10.174,0,0,0-.394-3.561,9.844,9.844,0,0,0-.431-1.115c-.035-.091-.062-.185-.093-.278a1.83,1.83,0,0,1,.8-.234c.375-.065.717-.235,1.087-.318a1.129,1.129,0,0,1,.581-.014c.167.054.28.228.383.38.147.216.194.492.423.665.057.043-.033.165.015.264a8.834,8.834,0,0,1,.687,2.648,8.007,8.007,0,0,1-.13,2.792,11.256,11.256,0,0,1-.905,2.708,12.45,12.45,0,0,1-1.36,2.132,2.287,2.287,0,0,1-.8-.11c-.449-.125-.9-.253-1.352-.361a1.25,1.25,0,0,1-.476-.2" transform="translate(-239.831 -51.328)" fill="#96695b"/>
          <path id="Path_876702" data-name="Path 876702" d="M115.476,6.9a7.806,7.806,0,0,0-1.018-.137,8.968,8.968,0,0,0-1.288.15.936.936,0,0,1-.222.021.035.035,0,0,1,.012-.022l-.029-.06a5.87,5.87,0,0,1-.462-1.161c-.046-.442-.259-.837-.324-1.272a4.668,4.668,0,0,1-.077-.642c0-.6-.062-1.2-.008-1.809a2.97,2.97,0,0,1,.22-.853A1.934,1.934,0,0,1,114.485.019a1.967,1.967,0,0,1,1.005.292,2.079,2.079,0,0,1,.836,1.539,10.656,10.656,0,0,1-.025,2.068,11.856,11.856,0,0,1-.522,2.274c-.069.247-.243.451-.3.7" transform="translate(-91.655 0.001)" fill="#ff8a57"/>
          <path id="Path_876703" data-name="Path 876703" d="M330.889,185.385a2.425,2.425,0,0,1-1.028-.435,10.385,10.385,0,0,0-2.2-1.037,3.375,3.375,0,0,1,.095-.713,10.008,10.008,0,0,0,.08-1.894,12.89,12.89,0,0,0-.192-1.381,9.627,9.627,0,0,0-.5-1.655,1.143,1.143,0,0,1-.021-.291.534.534,0,0,1,.462.135,8.051,8.051,0,0,1,2.777,3.6,9.572,9.572,0,0,1,.5,2.1,4.9,4.9,0,0,1,.031,1.567" transform="translate(-267.607 -145.591)" fill="#96695b"/>
          <path id="Path_876704" data-name="Path 876704" d="M116.952,37.639l.029.06-.029-.06" transform="translate(-95.676 -30.792)" fill="#ffc162"/>
          <path id="Path_876705" data-name="Path 876705" d="M271.093,131.8a4.374,4.374,0,0,1-.377,1.122.807.807,0,0,1-.819.383.9.9,0,0,1-.75-.546.7.7,0,0,1-.054-.56,2.434,2.434,0,0,1,.377-1,.861.861,0,0,1,1.436.117.964.964,0,0,1,.188.483" transform="translate(-220.109 -107.062)" fill="#b57e5e"/>
          <path id="Path_876706" data-name="Path 876706" d="M212.246,115.6a.881.881,0,0,1,.888,1.146c-.082.217-.114.452-.193.67a.874.874,0,0,1-.818.575.787.787,0,0,1-.751-.359,1,1,0,0,1-.112-.964c.048-.134.1-.269.134-.406a.781.781,0,0,1,.853-.662" transform="translate(-172.767 -94.561)" fill="#b57e5e"/>
          <path id="Path_876707" data-name="Path 876707" d="M250.677,128.271c-.621.049-.977-.747-.836-1.2a2.974,2.974,0,0,0,.12-.476.979.979,0,0,1,1.069-.728.868.868,0,0,1,.736,1.048,3.02,3.02,0,0,1-.3.939.829.829,0,0,1-.794.414" transform="translate(-204.365 -102.961)" fill="#b57e5e"/>
          <path id="Path_876708" data-name="Path 876708" d="M308.989,141.311a.909.909,0,0,1,.872,1.142,3.533,3.533,0,0,1-.295.851.8.8,0,0,1-.856.411.78.78,0,0,1-.71-.5,1.487,1.487,0,0,1,.027-.949,1.918,1.918,0,0,1,.142-.45.808.808,0,0,1,.82-.5" transform="translate(-251.91 -115.599)" fill="#b57e5e"/>
          <path id="Path_876709" data-name="Path 876709" d="M231.277,123.025a.9.9,0,0,1-.916-.826.455.455,0,0,1,.032-.243,2.758,2.758,0,0,0,.193-.624.852.852,0,0,1,1.059-.694.907.907,0,0,1,.683,1.122c-.053.211-.112.422-.179.629a.832.832,0,0,1-.873.636" transform="translate(-188.451 -98.671)" fill="#b57e5e"/>
          <path id="Path_876710" data-name="Path 876710" d="M289.428,138.559a.946.946,0,0,1-.909-1.21,2.872,2.872,0,0,0,.127-.478.913.913,0,0,1,.816-.759,1.069,1.069,0,0,1,.921.551.854.854,0,0,1,.036.593,2.082,2.082,0,0,1-.476,1.072.852.852,0,0,1-.514.23" transform="translate(-235.987 -111.348)" fill="#b57e5e"/>
          <path id="Path_876711" data-name="Path 876711" d="M192.958,112.618a.933.933,0,0,1-.977-1.158c.06-.209.111-.421.165-.632a.956.956,0,0,1,.966-.654.923.923,0,0,1,.778,1.027,2.792,2.792,0,0,1-.211.857.933.933,0,0,1-.721.56" transform="translate(-157.027 -90.122)" fill="#b57e5e"/>
          <path id="Path_876712" data-name="Path 876712" d="M174.468,106.222a2.541,2.541,0,0,1-.231.85.928.928,0,0,1-1.128.417.957.957,0,0,1-.538-1.142c.058-.171.123-.34.172-.514a.87.87,0,0,1,1.053-.686c.314.055.712.307.672,1.075" transform="translate(-141.142 -86.003)" fill="#b57e5e"/>
        </g>
      </g>
    </g>
  </g>
</svg>
