<svg xmlns="http://www.w3.org/2000/svg" xmlns:xlink="http://www.w3.org/1999/xlink" width="139" height="139" viewBox="0 0 139 139">
  <defs>
    <clipPath id="clip-path">
      <rect id="Rectangle_400938" data-name="Rectangle 400938" width="139" height="139" transform="translate(-0.043 -0.043)" fill="none"/>
    </clipPath>
    <clipPath id="clip-path-2">
      <rect id="Rectangle_401073" data-name="Rectangle 401073" width="105.872" height="47.68" fill="#7d3a1b"/>
    </clipPath>
    <clipPath id="clip-path-3">
      <rect id="Rectangle_401187" data-name="Rectangle 401187" width="78" height="66.614" fill="#6a4d23"/>
    </clipPath>
  </defs>
  <g id="Group_1100313" data-name="Group 1100313" transform="translate(-731 -4198.881)">
    <g id="Group_1100275" data-name="Group 1100275">
      <g id="Group_1099574" data-name="Group 1099574" transform="translate(466.043 -1085.076)">
        <g id="Group_1099379" data-name="Group 1099379" transform="translate(265 5284)">
          <rect id="Rectangle_401103" data-name="Rectangle 401103" width="139" height="139" transform="translate(-0.043 -0.043)" fill="none"/>
          <g id="Group_1099348" data-name="Group 1099348" transform="translate(0)">
            <g id="Group_1099282" data-name="Group 1099282">
              <g id="Group_1099281" data-name="Group 1099281" clip-path="url(#clip-path-2)">
                <path id="Path_873375" data-name="Path 873375" d="M85.879,10.449c-4.752,0-7.21-2.33-9.379-4.386C74.371,4.047,72.538,2.3,68.7,2.3s-5.668,1.742-7.8,3.758c-2.17,2.056-4.624,4.386-9.379,4.386s-7.21-2.33-9.379-4.386C40.018,4.047,38.184,2.3,34.349,2.3s-5.668,1.742-7.794,3.758c-2.17,2.056-4.627,4.386-9.379,4.386S9.963,8.119,7.794,6.063C5.668,4.047,3.835,2.3,0,2.3V0C4.752,0,7.21,2.334,9.379,4.386c2.129,2.02,3.963,3.758,7.8,3.758s5.668-1.738,7.794-3.755C27.136,2.334,29.6,0,34.349,0s7.213,2.334,9.379,4.386c2.129,2.02,3.963,3.758,7.8,3.758s5.668-1.738,7.8-3.758C61.489,2.334,63.951,0,68.7,0s7.213,2.334,9.379,4.386c2.129,2.02,3.963,3.758,7.8,3.758s5.668-1.738,7.8-3.758C95.843,2.334,98.3,0,103.056,0V2.3c-3.835,0-5.668,1.742-7.8,3.758-2.169,2.056-4.627,4.386-9.379,4.386" transform="translate(2.816 37.231)" fill="#7d3a1b"/>
                <path id="Path_873376" data-name="Path 873376" d="M85.879,10.449c-4.752,0-7.213-2.33-9.379-4.39C74.371,4.043,72.538,2.3,68.7,2.3s-5.668,1.738-7.8,3.755c-2.166,2.06-4.624,4.39-9.379,4.39s-7.213-2.33-9.379-4.39C40.018,4.043,38.184,2.3,34.349,2.3s-5.668,1.742-7.794,3.755c-2.17,2.06-4.627,4.39-9.379,4.39s-7.213-2.33-9.383-4.39C5.668,4.043,3.835,2.3,0,2.3V0C4.752,0,7.213,2.33,9.379,4.386c2.129,2.02,3.963,3.758,7.8,3.758s5.668-1.738,7.794-3.758C27.136,2.33,29.6,0,34.349,0s7.213,2.33,9.383,4.386c2.126,2.02,3.959,3.758,7.794,3.758s5.668-1.738,7.8-3.758C61.489,2.33,63.951,0,68.7,0s7.213,2.33,9.379,4.386c2.129,2.02,3.963,3.758,7.8,3.758s5.668-1.738,7.8-3.758C95.846,2.33,98.3,0,103.059,0V2.3c-3.835,0-5.672,1.742-7.8,3.755-2.169,2.06-4.628,4.39-9.379,4.39" transform="translate(1.877 24.821)" fill="#7d3a1b"/>
                <path id="Path_873377" data-name="Path 873377" d="M85.879,10.449c-4.752,0-7.213-2.33-9.379-4.39C74.371,4.043,72.538,2.3,68.7,2.3s-5.668,1.738-7.8,3.755c-2.166,2.06-4.627,4.39-9.379,4.39s-7.213-2.33-9.379-4.39C40.018,4.043,38.184,2.3,34.349,2.3s-5.668,1.742-7.794,3.755c-2.169,2.06-4.627,4.39-9.379,4.39s-7.213-2.33-9.383-4.39C5.668,4.043,3.835,2.3,0,2.3V0C4.752,0,7.213,2.33,9.379,4.386c2.126,2.02,3.963,3.758,7.8,3.758s5.668-1.738,7.794-3.758C27.136,2.33,29.6,0,34.349,0s7.213,2.33,9.383,4.386c2.126,2.02,3.959,3.758,7.794,3.758s5.668-1.738,7.8-3.758C61.489,2.33,63.951,0,68.7,0s7.213,2.33,9.379,4.386c2.129,2.02,3.963,3.758,7.8,3.758s5.668-1.738,7.8-3.758C95.846,2.33,98.3,0,103.059,0V2.3c-3.835,0-5.672,1.742-7.8,3.755-2.169,2.06-4.627,4.39-9.379,4.39" transform="translate(0.939 12.41)" fill="#7d3a1b"/>
                <path id="Path_873378" data-name="Path 873378" d="M85.879,10.445c-4.752,0-7.21-2.33-9.379-4.386C74.371,4.043,72.538,2.3,68.7,2.3s-5.668,1.738-7.794,3.755c-2.169,2.056-4.627,4.386-9.383,4.386s-7.21-2.33-9.379-4.386C40.018,4.043,38.184,2.3,34.349,2.3s-5.668,1.738-7.794,3.751c-2.166,2.06-4.627,4.39-9.379,4.39S9.963,8.115,7.794,6.059C5.668,4.043,3.835,2.3,0,2.3V0C4.752,0,7.213,2.33,9.379,4.386c2.129,2.016,3.963,3.755,7.8,3.755S22.845,6.4,24.971,4.386C27.14,2.33,29.6,0,34.349,0s7.21,2.33,9.383,4.386c2.126,2.016,3.959,3.755,7.794,3.755s5.668-1.738,7.8-3.755C61.493,2.33,63.951,0,68.7,0s7.21,2.33,9.379,4.386c2.129,2.016,3.963,3.755,7.8,3.755s5.668-1.738,7.8-3.755C95.846,2.33,98.3,0,103.059,0V2.3c-3.839,0-5.672,1.738-7.8,3.755-2.169,2.056-4.627,4.386-9.379,4.386" transform="translate(0 0.004)" fill="#7d3a1b"/>
              </g>
            </g>
          </g>
          <path id="Path_873425" data-name="Path 873425" d="M57.977,0A57.977,57.977,0,1,1,0,57.977,57.977,57.977,0,0,1,57.977,0Z" transform="translate(17.221 20.665)" fill="#efb499"/>
          <circle id="Ellipse_11503" data-name="Ellipse 11503" cx="60.5" cy="60.5" r="60.5" transform="translate(8.957 8.957)" fill="#fff"/>
        </g>
      </g>
      <g id="Group_1099575" data-name="Group 1099575" transform="translate(413 -2195.119)">
        <g id="Group_1099389" data-name="Group 1099389" transform="translate(347.893 6422.863)">
          <rect id="Rectangle_401104" data-name="Rectangle 401104" width="78" height="79" transform="translate(0.107 0.256)" fill="none"/>
        </g>
        <g id="Group_1099581" data-name="Group 1099581" transform="translate(348 6429.119)">
          <g id="Group_1099580" data-name="Group 1099580" clip-path="url(#clip-path-3)">
            <path id="Path_873785" data-name="Path 873785" d="M43.656,115.748H46.4c-.455-1.11-.9-2.193-1.342-3.273q-1.6-3.865-3.2-7.728c-.349-.841-.7-1.682-1.041-2.526a.293.293,0,0,0-.32-.2q-8.5.014-16.992.021-10.816,0-21.631,0a4.91,4.91,0,0,1-1.079-.1,1.061,1.061,0,0,1-.78-1.041A1.084,1.084,0,0,1,.758,99.82a2.825,2.825,0,0,1,.657-.1c.257-.017.517,0,.809,0v-.358q0-5.477,0-10.953a1.253,1.253,0,0,1,.521-1.056.929.929,0,0,1,1.042-.155,1.1,1.1,0,0,1,.733.969c.009,1.061.01,2.123.015,3.185,0,.092,0,.184,0,.313.218-.058.415-.128.619-.164a2.762,2.762,0,0,1,2.4.784,3.828,3.828,0,0,1,1.312,2.75c.058,1.441.046,2.885.065,4.328,0,.109,0,.218,0,.343H11.8c0-.177,0-.349,0-.522.006-1.2-.049-2.406.032-3.6A4.366,4.366,0,0,1,15.36,91.53a4.378,4.378,0,0,1,4.55,2.309,4.128,4.128,0,0,1,.438,1.825c-.013,1.276,0,2.552,0,3.828V99.7c.1.008.182.021.262.021.829,0,1.658-.016,2.487-.005.222,0,.283-.054.283-.278,0-1.248-.016-2.5.03-3.743a4.259,4.259,0,0,1,4.123-4.225A4.115,4.115,0,0,1,31.285,93.5a3.878,3.878,0,0,1,.636,2.11c.009,1.229.011,2.458.016,3.688,0,.128,0,.256,0,.4h3.81c-.064-.175-.111-.322-.171-.464q-1.044-2.48-2.09-4.959a1.141,1.141,0,1,1,2.048-1q1.3,3.1,2.575,6.206a.332.332,0,0,0,.368.25c.857-.018,1.714-.023,2.571-.028a1.425,1.425,0,0,1,1.639,1.087q1.093,2.656,2.185,5.312,1.91,4.626,3.825,9.25c.168.406.169.393.614.391,1.518-.009,3.037,0,4.555-.011a1.329,1.329,0,0,1,1.318.928q1.648,3.964,3.3,7.926,1.675,4.014,3.353,8.027a1.179,1.179,0,0,1-1.086,1.553,2.476,2.476,0,0,1-.252.007l-36.611,0q-11.095,0-22.19,0a3.14,3.14,0,0,1-.906-.118,1.124,1.124,0,0,1-.785-1.176,1.077,1.077,0,0,1,1.064-.993c.369-.025.742,0,1.152,0V131.5q0-5.491,0-10.981a1.205,1.205,0,0,1,.833-1.166,1.089,1.089,0,0,1,1.255.426,1.132,1.132,0,0,1,.2.59c.022,1.052.015,2.1.017,3.157,0,.08,0,.16,0,.254a.609.609,0,0,0,.135-.014,3.094,3.094,0,0,1,3.672,1.62,5.315,5.315,0,0,1,.593,2.525c.009,1.294,0,2.588,0,3.916h3.257v-.336c0-1.155-.007-2.31,0-3.465a1.168,1.168,0,1,1,2.328-.135c.006,1.2,0,2.4,0,3.6v.334h3.919c0-.121,0-.238,0-.356,0-1.22-.014-2.441.013-3.66a1.96,1.96,0,0,0-1.672-1.905c-.156-.024-.315-.038-.47-.068a1.084,1.084,0,0,1-.931-1.268,1.153,1.153,0,0,1,1.329-.979,4.36,4.36,0,0,1,3.261,1.862,4.466,4.466,0,0,1,.81,2.54c.006,1.266,0,2.532,0,3.832h2.579c0-.106,0-.214,0-.321.011-1.257-.025-2.517.044-3.771a4.255,4.255,0,0,1,8.507.178c0,1.22,0,2.44,0,3.66,0,.159-.008.293.222.291.922-.011,1.844-.008,2.767-.012a1.485,1.485,0,0,0,.187-.028v-.533c0-1.071,0-2.142,0-3.213a4.269,4.269,0,0,1,8.283-1.626,6.463,6.463,0,0,1,.285,2.091q.006,1.537,0,3.074c0,.151.01.252.2.25.81-.01,1.621-.012,2.431-.019a.872.872,0,0,0,.137-.03c0-.118,0-.235,0-.353,0-1.127-.01-2.254.005-3.381a4.424,4.424,0,0,1,1.087-3.03,4.058,4.058,0,0,1,3.119-1.461,4.232,4.232,0,0,1,3.919,2.471,4.631,4.631,0,0,1,.434,2.085c.01,1.071,0,2.142,0,3.213v.482h4.065c-.582-1.393-1.154-2.762-1.727-4.131q-1.98-4.733-3.967-9.463a.347.347,0,0,0-.267-.153c-1.127-.008-2.254,0-3.382,0H1.669c-.168,0-.335,0-.5-.011a1.194,1.194,0,0,1-1.159-1.135,1.156,1.156,0,0,1,1-1.165c.392-.057.794-.047,1.221-.068v-.329q0-5.547,0-11.093a1.168,1.168,0,0,1,1.738-1.073,1,1,0,0,1,.559.878c.011,1.089,0,2.179.005,3.268v.3c.258-.032.486-.059.713-.09a2.829,2.829,0,0,1,2.617,1.077,4.652,4.652,0,0,1,1.076,3.206c0,1.2,0,2.4,0,3.6v.268h3.257c0-.128,0-.255,0-.382.011-1.266-.026-2.536.046-3.8a4.12,4.12,0,0,1,2.3-3.523,4.268,4.268,0,0,1,6.183,3.213,3.821,3.821,0,0,1,.059.637c.005,1.275,0,2.55,0,3.85h2.579v-.322c0-1.136-.021-2.273,0-3.409a4.39,4.39,0,0,1,1.693-3.552,4.221,4.221,0,0,1,6.346,1.35,4.111,4.111,0,0,1,.5,1.978c0,1.229.009,2.459,0,3.688,0,.227.049.3.293.3.949-.017,1.9-.007,2.887-.007v-.315c0-1.155,0-2.31,0-3.465a4.272,4.272,0,0,1,1.768-3.589,4.223,4.223,0,0,1,6.5,1.972,6.117,6.117,0,0,1,.3,2.115c0,1.034,0,2.068,0,3.1,0,.045,0,.09,0,.179m-2.3,16.11c0-.118,0-.21,0-.3q0-1.856,0-3.713a1.981,1.981,0,1,0-3.958.155c0,1.21.014,2.419.013,3.629,0,.187.043.263.249.261,1.126-.01,2.252-.005,3.379-.007.1,0,.2-.014.317-.023m7.38.018c1.247,0,2.448-.008,3.648.007.247,0,.292-.083.292-.3,0-1.145.024-2.29.012-3.435a3.527,3.527,0,0,0-.162-1.011,1.946,1.946,0,0,0-2.173-1.22,2,2,0,0,0-1.623,1.871q.005,1.9.006,3.8v.293M18.058,99.713c0-.362,0-.668,0-.975,0-1.088.036-2.178-.018-3.264a1.9,1.9,0,0,0-1.781-1.726,1.994,1.994,0,0,0-2.066,1.446,4.017,4.017,0,0,0-.091.94c0,1.116.013,2.233.009,3.349,0,.2.066.249.258.247,1.126-.013,2.252-.013,3.378-.017h.311M29.6,131.868c0-1.447.048-2.862-.016-4.271a1.87,1.87,0,0,0-1.96-1.716,1.98,1.98,0,0,0-1.927,1.946c.024,1.255,0,2.511,0,3.767,0,.089.008.179.013.275ZM29.606,99.7c.007-.069.017-.123.017-.176,0-1.294.012-2.587-.008-3.88a1.932,1.932,0,0,0-2.023-1.9A2.016,2.016,0,0,0,25.7,95.7c.028,1.153.006,2.308.006,3.461V99.7Zm11.746,16.041c0-1.349.007-2.661,0-3.974a1.8,1.8,0,0,0-1.091-1.717,2.005,2.005,0,0,0-2.117.2,1.957,1.957,0,0,0-.73,1.727c0,1.118,0,2.235,0,3.353v.414Zm-11.756.007a.754.754,0,0,0,.019-.115c0-1.266.032-2.532,0-3.8a1.893,1.893,0,0,0-2.308-1.96,1.982,1.982,0,0,0-1.617,1.8c.033,1.255.011,2.512.012,3.768v.308Zm-11.172,0c.006-.085.015-.157.015-.23,0-1.21.01-2.419.009-3.629a2.628,2.628,0,0,0-.052-.609,2,2,0,0,0-3.168-.982,1.944,1.944,0,0,0-.707,1.543c0,1.229,0,2.456,0,3.685,0,.07.013.14.022.222ZM6.639,99.719c0-1.44.021-2.817-.01-4.194a2.144,2.144,0,0,0-.563-1.509c-.38-.39-.674-.378-1.014.058a2.469,2.469,0,0,0-.514,1.613c.013,1.117.007,2.234,0,3.352,0,.687-.011.686.689.681.462,0,.925,0,1.412,0M4.569,129.5H4.547c0,.708,0,1.416,0,2.124,0,.145,0,.251.2.245.549-.014,1.1-.019,1.648-.01.206,0,.273-.061.272-.27,0-1.089.015-2.179.007-3.268a6.957,6.957,0,0,0-.1-1.111,1.722,1.722,0,0,0-.688-1.231.435.435,0,0,0-.562,0,1.768,1.768,0,0,0-.747,1.347c-.038.724-.009,1.452-.009,2.178m2.067-13.765c0-1.417,0-2.8,0-4.188a2.128,2.128,0,0,0-.059-.442,1.837,1.837,0,0,0-.562-1.1.6.6,0,0,0-.875.042,1.867,1.867,0,0,0-.565,1.214c-.02,1.33-.02,2.66-.028,3.991,0,.155,0,.31,0,.478Z" transform="translate(0 -67.569)" fill="#6a4d23"/>
            <path id="Path_873786" data-name="Path 873786" d="M2.272,16.095v-.4c0-4.759.009-9.517-.007-14.276a1.261,1.261,0,0,1,1.36-1.4c.168-.006.335,0,.5,0q7.74,0,15.48-.007a1.393,1.393,0,0,1,1.453.931c.914,2.236,1.855,4.461,2.786,6.69q1.718,4.116,3.43,8.234a.337.337,0,0,0,.375.241c1.006-.008,2.012,0,3.018-.01a1.221,1.221,0,0,1,1.235.852c.7,1.683,1.41,3.358,2.113,5.038a2.833,2.833,0,0,1,.223.685,1.126,1.126,0,0,1-1.963.825,2.4,2.4,0,0,1-.331-.577c-.565-1.345-1.118-2.695-1.681-4.041-.2-.473-.205-.464-.716-.464q-6.427.006-12.853.009l-15.256,0a1.23,1.23,0,0,1-1.333-.83A1.177,1.177,0,0,1,1.158,16.1c.359-.022.721,0,1.114,0m22.623,0c-.113-.311-.2-.574-.3-.827q-1.616-3.871-3.236-7.74Q20.319,5.045,19.3,2.556a.367.367,0,0,0-.426-.262c-.25.022-.5.018-.754.018Q11.512,2.3,4.906,2.29c-.258,0-.325.07-.324.329Q4.587,9.225,4.57,15.83c0,.209.059.266.27.266q9.862-.007,19.723,0h.332" transform="translate(-0.048 0)" fill="#6a4d23"/>
            <path id="Path_873787" data-name="Path 873787" d="M262.821,139.687h2.424v-.4c0-1.2-.03-2.4.007-3.6a4.294,4.294,0,0,1,3.449-4.124,4.167,4.167,0,0,1,2.782.405V120.245h-.323q-3.7,0-7.406,0a1.229,1.229,0,0,1-1.338-.833,1.076,1.076,0,0,1,.63-1.322,2.564,2.564,0,0,1,.766-.123c2.86-.009,5.719-.006,8.579-.006h.084c.942.026,1.268.362,1.268,1.306v20.446c.165.011.312.018.457.032a1.154,1.154,0,0,1-.059,2.3c-.372-.017-.745,0-1.118,0H256.118c-.158,0-.317-.014-.475,0a1.229,1.229,0,0,1-1.351-1.376c0-1.4-.009-2.794,0-4.191a9.439,9.439,0,0,1,.1-1.5,4.108,4.108,0,0,1,2.324-3.053,4.244,4.244,0,0,1,6.052,3.242,7.48,7.48,0,0,1,.047,1c.005,1.163,0,2.326,0,3.516m-2.273.006c0-1.366.032-2.7-.012-4.023a1.749,1.749,0,0,0-1.158-1.693,1.954,1.954,0,0,0-2.285.437,2.35,2.35,0,0,0-.552,1.627c-.012,1.079,0,2.157.008,3.236,0,.136.013.271.021.415Zm10.944-.008c0-1.068,0-2.1,0-3.132a9.189,9.189,0,0,0-.047-1.085A1.694,1.694,0,0,0,270.39,134a2.007,2.007,0,0,0-2.137.219,2.15,2.15,0,0,0-.757,1.758c-.005,1.117.01,2.233.017,3.35,0,.117,0,.234,0,.358Z" transform="translate(-197.289 -91.52)" fill="#6a4d23"/>
            <path id="Path_873788" data-name="Path 873788" d="M292.22,235.765c0-.967-.006-1.888,0-2.809a4.776,4.776,0,0,1,.074-1.024,1.085,1.085,0,0,1,1.228-.818,1,1,0,0,1,.945,1.107q0,5.489,0,10.977v.394l.417.024a1.106,1.106,0,0,1,1.124,1.057,1.168,1.168,0,0,1-.915,1.177,2.111,2.111,0,0,1-.5.061q-5.992,0-11.985,0a1.638,1.638,0,0,1-1.248-.373,1.019,1.019,0,0,1-.293-1.145,1.046,1.046,0,0,1,.971-.761c.586-.018,1.173-.01,1.76-.012.624,0,1.248-.012,1.871,0,.233.005.3-.067.3-.3-.01-1.173,0-2.346,0-3.519a4.355,4.355,0,0,1,3.779-4.447,3.669,3.669,0,0,1,1.779.208c.219.071.441.132.689.206m.007,5.71h-.045a20.017,20.017,0,0,0-.015-2.2,1.9,1.9,0,0,0-2.188-1.636,2.059,2.059,0,0,0-1.754,2.152c0,1.2.017,2.4.018,3.6,0,.17.046.226.221.225q1.732-.011,3.464,0c.227,0,.311-.059.3-.3-.016-.614-.005-1.229-.005-1.843" transform="translate(-218.016 -179.301)" fill="#6a4d23"/>
            <path id="Path_873789" data-name="Path 873789" d="M204.246,120.249c-.007.126-.015.217-.015.308,0,2.012-.009,4.023.016,6.034a1.345,1.345,0,0,1-1.485,1.481c-.922,0-1.844.007-2.766,0A1.325,1.325,0,0,1,198.588,127a1.057,1.057,0,0,1,.834-1.224c.646-.062,1.3-.044,1.951-.058.175,0,.35,0,.563,0v-.5q0-2.849,0-5.7c0-.158,0-.317.015-.475a1.086,1.086,0,0,1,.984-1.044,4.172,4.172,0,0,1,.583-.044q6.273,0,12.546,0a3.054,3.054,0,0,1,.637.061,1.01,1.01,0,0,1,.839,1.01,1.038,1.038,0,0,1-.729,1.1,2.389,2.389,0,0,1-.711.108q-5.742.01-11.484,0Z" transform="translate(-154.061 -91.523)" fill="#6a4d23"/>
            <path id="Path_873790" data-name="Path 873790" d="M219.726,183.507c0,.335.006.67,0,1a1.1,1.1,0,0,1-1.125,1.167,1.125,1.125,0,0,1-1.161-1.137c-.02-.623-.008-1.246-.011-1.87a2.088,2.088,0,0,0-.289-1.147,1.742,1.742,0,0,0-1.4-.854,2.981,2.981,0,0,1-.44-.068,1.144,1.144,0,0,1,.287-2.269,4.227,4.227,0,0,1,3.477,2.01,4.18,4.18,0,0,1,.659,2.327c0,.279,0,.558,0,.837Z" transform="translate(-166.3 -138.358)" fill="#6a4d23"/>
            <path id="Path_873791" data-name="Path 873791" d="M273.634,254.885c0,.409.021.82,0,1.228a1.161,1.161,0,0,1-1.145,1.136,1.18,1.18,0,0,1-1.1-1.222c0-.577,0-1.154,0-1.731a2.009,2.009,0,0,0-1.821-2.135c-.174-.028-.352-.047-.521-.092a1.09,1.09,0,0,1-.6-1.661,1.226,1.226,0,0,1,1.181-.555,4.334,4.334,0,0,1,4.03,4.39c0,.214,0,.428,0,.642Z" transform="translate(-208.125 -193.84)" fill="#6a4d23"/>
            <path id="Path_873792" data-name="Path 873792" d="M232.668,146.207c-.017.38-.019.761-.056,1.14-.053.544-.412.809-.959.947a1.158,1.158,0,0,1-1.149-.632,5.941,5.941,0,0,1-.053-2.85,1.123,1.123,0,0,1,1.19-.688,1.085,1.085,0,0,1,.974,1.052c.025.342,0,.687,0,1.031h.048" transform="translate(-178.68 -111.807)" fill="#6a4d23"/>
            <path id="Path_873793" data-name="Path 873793" d="M259.987,146.2c0,.38.03.764-.007,1.14a1.229,1.229,0,0,1-1.112.994,1.214,1.214,0,0,1-1.133-1.05c-.031-.723-.033-1.45,0-2.173a1.128,1.128,0,0,1,1.117-1.005,1.143,1.143,0,0,1,1.141.98c.036.368.007.742.007,1.114h-.014" transform="translate(-199.944 -111.806)" fill="#6a4d23"/>
            <path id="Path_873794" data-name="Path 873794" d="M312.412,146.246a10.128,10.128,0,0,1,.008-1.114,1.1,1.1,0,0,1,1.093-.992,1.007,1.007,0,0,1,1.094.9,14.311,14.311,0,0,1,0,2.361,1.117,1.117,0,0,1-2.217-.21c-.01-.316,0-.632,0-.948h.021" transform="translate(-242.365 -111.83)" fill="#6a4d23"/>
            <path id="Path_873795" data-name="Path 873795" d="M285.153,146.2c0-.326-.011-.652,0-.977a1.128,1.128,0,0,1,1.1-1.081,1.175,1.175,0,0,1,1.159,1.067q.037.99.012,1.982a1.233,1.233,0,0,1-1.141,1.138,1.187,1.187,0,0,1-1.133-1.125c-.015-.334,0-.67,0-1.005" transform="translate(-221.232 -111.83)" fill="#6a4d23"/>
            <path id="Path_873796" data-name="Path 873796" d="M26.41,21.354q0-2.178,0-4.356c0-.149,0-.3.006-.447a1.1,1.1,0,0,1,.991-1.151,1.157,1.157,0,0,1,1.282.881,1.56,1.56,0,0,1,.06.439q.005,4.579,0,9.158a1.344,1.344,0,0,1-1.085,1.448,1.1,1.1,0,0,1-1.207-.839,4.219,4.219,0,0,1-.048-.667c0-1.489,0-2.978,0-4.467" transform="translate(-20.489 -11.941)" fill="#6a4d23"/>
            <path id="Path_873797" data-name="Path 873797" d="M58.081,21.413q0-2.22,0-4.44a3.932,3.932,0,0,1,.025-.5A1.086,1.086,0,0,1,59.232,15.4a1.128,1.128,0,0,1,1.136,1.08,4.243,4.243,0,0,1,.035.557q0,4.329,0,8.657a3.232,3.232,0,0,1-.093.827,1.143,1.143,0,0,1-1.146.839,1.086,1.086,0,0,1-1.057-1c-.014-.148-.025-.3-.025-.445q0-2.248,0-4.5Z" transform="translate(-45.061 -11.947)" fill="#6a4d23"/>
          </g>
        </g>
      </g>
    </g>
  </g>
</svg>
