<svg xmlns="http://www.w3.org/2000/svg" xmlns:xlink="http://www.w3.org/1999/xlink" width="288.3" height="267.306" viewBox="0 0 288.3 267.306">
  <defs>
    <clipPath id="clip-path">
      <rect id="Rectangle_402008" data-name="Rectangle 402008" width="288.3" height="267.306" fill="none"/>
    </clipPath>
  </defs>
  <g id="Group_1099879" data-name="Group 1099879" clip-path="url(#clip-path)">
    <path id="Path_876826" data-name="Path 876826" d="M246.414,288.205c-8.987-4.335-1.928-2.57-16.752-4.34a197.814,197.814,0,0,0-58.9,1.441,186.577,186.577,0,0,0-28.758,7.648c-9.449,3.346-18.415,8.025-28,10.971-10.2,3.134-20.747,2.4-31.2,3.855-10.071,1.4-19.766,4.666-29.152,8.485-2.621,1.066-5.225,2.177-7.822,3.3a5.286,5.286,0,0,1,.362-1.477c.208-.515-.627-.74-.833-.23a5.673,5.673,0,0,0-.419,2.092q-2.325,1.01-4.647,2.026c-.323.142-.044.614.277.474q2.2-.956,4.4-1.9c.263,2.8,2.483,5.361,4.47,7.27A133.415,133.415,0,0,0,59.983,336.9c7.224,5.62-35.141,19.277-27.049,23.549,16.078,8.487,83.193,9.747,101.359,9.647,51.717-.284,41.665-.116,59.428-.926,17.543-.8,85.542-6.526,102.171-12.209,16.613-5.678-24.508-5.9-10.66-16.724,3.78-2.956-16.56-5.287-13.211-8.726,1.7-1.746,3.333-3.562,4.876-5.45a21.7,21.7,0,0,0,3.573-5.085c.667-1.627,20.563-6.426-34.057-32.772" transform="translate(-11.615 -102.797)" fill="#b0d45a"/>
    <path id="Path_876828" data-name="Path 876828" d="M237.558,275.3c0-7.862,7.011-14.235,15.66-14.235s15.66,6.373,15.66,14.235h9.645v-26.41H227.173V275.3Z" transform="translate(-82.713 -90.618)" fill="#3e3636"/>
    <path id="Path_876829" data-name="Path 876829" d="M272.664,184.934h1.267l5.1-11.355h-11.27c-2.409-5.879-4.81-12.237-7.031-18.915h3.013l5.1-11.355h-11.6c-3.941-13.978-6.784-28.9-7.151-43.509h2.926V91.744l-7.658-3.025V73.239h-3.094v15.48L234.6,91.744V99.8h2.926c-.367,14.612-3.211,29.531-7.151,43.509h-11.6l5.1,11.355h3.014c-2.222,6.678-4.622,13.036-7.031,18.915H208.58l5.1,11.355h1.267a287.325,287.325,0,0,1-13.516,26.409h17.03a25.346,25.346,0,0,1,50.692,0h17.03a287.332,287.332,0,0,1-13.516-26.409m-32.705-30.27h7.69c2.092,6.629,4.374,12.972,6.7,18.915H233.258c2.327-5.943,4.608-12.286,6.7-18.915" transform="translate(-73.339 -26.666)" fill="#524b4b"/>
    <rect id="Rectangle_402006" data-name="Rectangle 402006" width="3.094" height="15.143" transform="translate(168.918 46.574)" fill="#989494"/>
    <path id="Path_876830" data-name="Path 876830" d="M280.242,247.323l1.225-2.731H218.762l1.225,2.731h60.254Z" transform="translate(-79.65 -89.055)" fill="#989494"/>
    <path id="Path_876831" data-name="Path 876831" d="M277.111,196.99H234.789l1.226,2.731h39.871Z" transform="translate(-85.486 -71.723)" fill="#989494"/>
    <path id="Path_876832" data-name="Path 876832" d="M253.59,113.443H272v-2.731H253.59Z" transform="translate(-92.331 -40.31)" fill="#989494"/>
    <path id="Path_876833" data-name="Path 876833" d="M271.02,166.283H249.732q-1.264,5.523-2.787,10.9h26.863q-1.515-5.369-2.787-10.9" transform="translate(-89.912 -60.543)" fill="#3e3636"/>
    <path id="Path_876834" data-name="Path 876834" d="M249.359,206.853H236.222c-1.873,5.388-3.844,10.545-5.824,15.374h13.408c1.908-4.875,3.785-10.023,5.553-15.374" transform="translate(-83.887 -75.314)" fill="#3e3636"/>
    <path id="Path_876835" data-name="Path 876835" d="M289.055,206.853H275.917c1.768,5.351,3.645,10.5,5.553,15.374h13.408c-1.98-4.829-3.951-9.986-5.824-15.374" transform="translate(-100.46 -75.314)" fill="#3e3636"/>
    <path id="Path_876836" data-name="Path 876836" d="M284.559,214.063l-.211-.211.062-.062c-.164-.3-.331-.613-.5-.936l-.278.278-5.74-5.74,2.1-2.1c-.159-.316-.319-.635-.481-.96l-2.336,2.336-5.74-5.74,4.344-4.344c-.151-.324-.3-.655-.457-.985l-4.608,4.608-5.74-5.74,5.74-5.74,4.874,4.874h.085l.42-.937-4.659-4.658,5.74-5.74,2.474,2.474.446-.995-1.5-1.5h-2.842l-5.04,5.04-5.74-5.74,3.027-3.028c-.135-.344-.272-.687-.408-1.034l-3.34,3.34-5.74-5.74,5.74-5.74.46.46q-.4-1.111-.794-2.236l-5.405-5.405,5.74-5.74,2.987,2.987.446-1-2.713-2.712,3.728-3.728h-1.441l-3.007,3.007-3.007-3.007H259.8l3.728,3.728-5.74,5.74-5.74-5.74,5.74-5.74.868.869q-.344-1.246-.677-2.5l-.191.191-5.74-5.74,3.694-3.694c-.086-.4-.17-.791-.254-1.187l-4.16,4.161-5.74-5.74,5.74-5.74,3.363,3.363q-.169-.883-.328-1.769l-2.314-2.314,1.642-1.643q-.1-.624-.191-1.25l-2.171,2.172-5.74-5.74,5.74-5.74,1.148,1.148q-.078-.8-.15-1.591l-.278-.278.23-.23c-.038-.447-.067-.893-.1-1.34l-.85.85-5.74-5.74,5.74-5.74,3.418,3.418v-1.441l-2.7-2.7,2.7-2.7v-.911l-.38-.15-3.038,3.038-5.231-5.23h2.72l-1.729-.682v-.336h-3.094v.336l-1.729.683h1.372L238.4,103.3l-2.071-2.071v1.442l1.351,1.351-1.351,1.35v1.441l2.071-2.071,5.74,5.74-5.271,5.271q-.086,1.1-.189,2.191l5.46,5.459-5.74,5.74-1-1c-.065.413-.134.826-.2,1.239l.483.484-.673.673c-.1.586-.208,1.17-.314,1.755l1.708-1.708,5.74,5.74-5.74,5.74-3.05-3.05c-.086.394-.175.786-.263,1.178l2.592,2.593-4.239,4.239q-.254.981-.515,1.956l5.474-5.475,5.74,5.74-5.74,5.74-5.586-5.585c-.1.378-.208.753-.312,1.129l5.176,5.177-5.74,5.74-5.74-5.74,3.728-3.728H228.49l-3.007,3.007-3.007-3.007h-1.441l3.728,3.728-1.782,1.782.446.995,2.056-2.057,5.74,5.74-3.343,3.342q-.38,1.111-.765,2.207l4.828-4.829,5.74,5.74-5.74,5.74-5.305-5.305q-.19.532-.38,1.061l4.965,4.965-5.74,5.74-2.374-2.374q-.205.518-.41,1.033l2.062,2.062-5.74,5.74-5.039-5.04h-2.842l-.57.57.447,1,1.545-1.545,5.74,5.74-3.728,3.728.446,1,4-4,5.74,5.74-5.74,5.74-3.688-3.688c-.154.331-.307.656-.46.981l3.427,3.427-5.74,5.74-1.439-1.438q-.243.486-.483.958l1.2,1.2-3.768,3.769c-.687,1.3-1.317,2.469-1.882,3.5l5.352,5.352h2.037l5.442-5.442,1.48,1.48q.1-.615.222-1.22l-.981-.981,1.7-1.7q.389-1.194.89-2.333l-3.309,3.309-5.74-5.74,5.74-5.74,4.988,4.988c.184-.3.371-.588.566-.875l-4.834-4.834,5.74-5.74,4.678,4.678c.273-.209.551-.41.833-.608l-4.791-4.791,5.74-5.74,5.74,5.74-2.337,2.336q1.138-.5,2.332-.89l.726-.726.391.391q.571-.157,1.154-.288l-.823-.823,5.74-5.74,5.74,5.74-.6.6q.6.108,1.2.244l.121-.121.193.193q1.027.249,2.022.581l-1.494-1.494,5.74-5.74,5.74,5.74-4.248,4.248q.436.282.86.581l4.109-4.109,5.74,5.74-4.046,4.046c.2.277.406.556.6.842l4.168-4.168,5.74,5.74-5.74,5.74-1.119-1.119a25.032,25.032,0,0,1,.783,2.9l.336-.337,5.441,5.442h2.038l5.441-5.442,2.715,2.716c-.5-.879-1.1-1.959-1.784-3.225m-66.257-.211-5.74,5.74-5.74-5.74,5.74-5.74Zm45.223-45.223-5.74,5.74-5.74-5.74,5.74-5.74Zm-6.46-19.382-5.74,5.74-5.74-5.74,5.74-5.74Zm-17.94-45.223,5.74-5.74,5.74,5.74-5.74,5.74Zm0,12.921,5.74-5.74,5.74,5.74-5.74,5.74Zm0,12.921,5.74-5.74,5.74,5.74-5.74,5.74Zm0,12.921,5.74-5.74,5.74,5.74-5.74,5.74Zm5.74,7.181,5.74,5.74-5.74,5.74-5.74-5.74ZM225.483,193.75l-5.74-5.74,5.74-5.74,5.74,5.74Zm12.92,0-5.74-5.74,5.74-5.74,5.74,5.74Zm12.922,0-5.74-5.74,5.74-5.74,5.74,5.74Zm1.421-11.5H249.9l-5.04,5.04-5.04-5.04h-2.842l-5.04,5.04-5.74-5.74,5.74-5.74,3.994,3.995c.132-.347.264-.7.4-1.045l-3.67-3.67,5.74-5.74.979.979c.123-.357.245-.717.366-1.075l-.624-.624,1.257-1.257q.355-1.068.7-2.147l-2.683,2.683-5.74-5.74,5.74-5.74,5.74,5.74-1.167,1.167h1.441l.446-.446.446.446h1.441l-1.167-1.167,5.74-5.74,5.74,5.74-5.74,5.74-.678-.678q.362,1.092.731,2.173l5.687,5.686-2.692,2.692c.132.352.264.7.4,1.046l3.017-3.017,5.74,5.74-5.74,5.74Zm5.76,5.76,5.74-5.74,5.74,5.74-5.74,5.74Zm18.661,31.582-5.74-5.74,5.74-5.74,5.74,5.74Z" transform="translate(-75.073 -35.337)" fill="#989494"/>
    <path id="Path_876837" data-name="Path 876837" d="M247.886,179.374c-.1.378-.209.753-.312,1.13l1.449,1.449h1.441Z" transform="translate(-90.141 -65.309)" fill="#524b4b"/>
    <path id="Path_876838" data-name="Path 876838" d="M252.992,167.993l-4.239,4.239q-.254.981-.514,1.956l5.474-5.474,5.74,5.74-2.732,2.732h1.441l2.012-2.011,2.012,2.011h1.441l-2.733-2.732,5.74-5.74,5.74,5.74-2.732,2.732h1.441l2.012-2.011.868.868c-.005-.02-.01-.039-.016-.059q-.327-1.186-.644-2.38c-.005-.02-.011-.041-.017-.062l-.191.191-5.74-5.74,1.71-1.71h-1.442l-.989.989-.99-.989H264.2l1.709,1.71-5.74,5.74-5.74-5.74,1.71-1.71H254.7l-.989.989-.989-.989h-1.442Z" transform="translate(-90.383 -60.543)" fill="#524b4b"/>
    <path id="Path_876839" data-name="Path 876839" d="M239.388,206.853c-.03.086-.06.17-.09.256-.068.2-.135.392-.2.586l.842-.843Z" transform="translate(-87.053 -75.314)" fill="#524b4b"/>
    <path id="Path_876840" data-name="Path 876840" d="M293.448,218.5c-.073-.183-.144-.369-.217-.554-.063-.16-.127-.32-.189-.481l-3.34,3.34-5.74-5.74,5.74-5.74.459.46c-.051-.145-.1-.292-.155-.437-.134-.374-.267-.75-.4-1.127-.079-.224-.16-.446-.238-.672l-.7-.7h-1.442l1.754,1.754-5.74,5.74-5.74-5.74,1.753-1.754h-1.442l-1.032,1.033-.674-.673c.244.732.491,1.455.738,2.179l5.676,5.675-2.689,2.689c.069.185.137.375.207.56l.185.49,3.017-3.017,5.74,5.74-.7.7h2.842l-.7-.7Z" transform="translate(-100.529 -75.314)" fill="#524b4b"/>
    <path id="Path_876841" data-name="Path 876841" d="M241.4,215.786l3.99,3.991c.12-.315.242-.624.362-.942l.038-.1-3.67-3.669,5.74-5.74.975.975c.123-.357.243-.719.365-1.077l-.619-.618,1.251-1.252c.041-.123.083-.242.124-.365l.044-.137h-1.108l-1.033,1.033-1.032-1.033h-1.442l1.753,1.754-5.74,5.74-5.305-5.305q-.19.532-.38,1.061l4.965,4.965-5.74,5.74-2.373-2.373c-.125.319-.251.633-.377.949-.011.027-.022.055-.033.083l2.062,2.062-.7.7h2.842l-.7-.7Z" transform="translate(-84.526 -75.314)" fill="#524b4b"/>
    <path id="Path_876842" data-name="Path 876842" d="M173.853,284.072c-6.292-.306-11.209-4.845-17.047-6.659-11.619-3.611-22.578,4.766-34.157,4.18-6.194-.314-11.535-4.755-17.786-4.343-2.781.183-5.271,1.5-7.969,2.045-4.586.927-7.845-1.461-11.761-3.34a38.281,38.281,0,0,0-33.627.469c-2.694,1.375-5.242,3.043-8.009,4.277-3.4,1.513-7.087,1.588-10.491,2.971-4.61,1.872-7.976,5.969-9.766,10.525-2.1,5.339-1.819,11.259-.4,16.731,1.375,5.316,3.595,11.938,7.82,15.674a10.1,10.1,0,0,0,5.062,2.388c8.472-2.689,16.669-6.174,24.924-9.449,9.692-3.845,19.576-7.406,29.929-8.96,5.735-.86,11.544-1.195,17.248-2.27a81.642,81.642,0,0,0,13.615-3.962c10.424-3.924,20.276-9.417,31-12.533a55.814,55.814,0,0,1,16.759-2.261c4.746.089,9.841.446,14.161-1.881a1.161,1.161,0,0,0,.605-1.157c-1.917-3-7.186-2.3-10.11-2.447" transform="translate(-7.909 -99.141)" fill="#6b8431"/>
    <path id="Path_876843" data-name="Path 876843" d="M270.554,286.962c4.122-.2,7.347-3.082,11.173-4.238,7.614-2.3,14.783,3,22.369,2.614,4.058-.205,7.56-3.026,11.655-2.771,1.821.113,3.45.945,5.217,1.288,3,.583,5.14-.934,7.707-2.129a25.825,25.825,0,0,1,22.025.262c1.764.869,3.431,1.924,5.242,2.7,2.223.956,4.64,1,6.868,1.872a11.757,11.757,0,0,1,6.386,6.66,16.718,16.718,0,0,1,.247,10.6c-.906,3.37-2.367,7.57-5.139,9.943a6.74,6.74,0,0,1-3.318,1.519c-5.546-1.7-10.912-3.9-16.316-5.962-6.344-2.427-12.815-4.675-19.594-5.648-3.756-.539-7.56-.745-11.3-1.42a54.747,54.747,0,0,1-8.913-2.5c-6.824-2.476-13.271-5.947-20.293-7.911a37.655,37.655,0,0,0-10.975-1.416c-3.108.062-6.446.293-9.273-1.178a.728.728,0,0,1-.4-.732c1.258-1.9,4.71-1.468,6.625-1.562" transform="translate(-96.094 -101.724)" fill="#6b8431"/>
    <path id="Path_876844" data-name="Path 876844" d="M359.868,215.26a5.114,5.114,0,0,0-5.31-1.068,4.509,4.509,0,0,0-6.634-1.873,5.637,5.637,0,0,0-2.671,3.649,5.741,5.741,0,0,0-3.339.609,4.119,4.119,0,0,0-1.6,2.86c1.288,0,3.3-.025,4.578-.023q3.457.006,6.914,0c3.054,0,6.108.021,9.163.01h.354q.018-.17.026-.341a5.089,5.089,0,0,0-1.475-3.826" transform="translate(-150.079 -120.91)" fill="#fff"/>
    <path id="Path_876847" data-name="Path 876847" d="M367.025,101.577c-.363-3.15-2.5-6.167-6.505-8.094-5.651-2.72-13.3-2.54-18.353.668a23.577,23.577,0,0,0-14.906-2.334c-5,.856-9.049,3.3-11.056,6.4-7.123-3.323-17.148-1.872-21.219,3.2a8.985,8.985,0,0,0-.556.766c.277,0,.553.007.83.009,10.721.086,21.469-.069,32.176-.077,12.868-.009,25.741.03,38.608-.083l1.017-.008c-.009-.148-.018-.3-.036-.442" transform="translate(-107.2 -33.309)" fill="#fff"/>
    <path id="Path_876848" data-name="Path 876848" d="M171.88,10.677a38.7,38.7,0,0,1,8.559,13.337c1,2.977,2.267,5.844,2.986,8.926.785,3.361,1.325,6.912,3.262,9.851,2.933,4.451,8.408,6.461,12.2,10.208a18.479,18.479,0,0,1,3.045,21.372A19.358,19.358,0,0,1,182.4,83.884l5.276,3.571A44.159,44.159,0,0,1,169.1,82.894a28.948,28.948,0,0,1-13.235-13.516c-2.62-5.878-2.82-12.517-4.425-18.749-1.164-4.517-3.063-8.805-4.654-13.191s-2.892-8.969-2.778-13.632A16.507,16.507,0,0,1,153.69,8.7c6.087-3.007,13.15-3.056,18.19,1.976" transform="translate(-52.43 -2.414)" fill="#855733"/>
    <path id="Path_876849" data-name="Path 876849" d="M220.89,61.536a14.935,14.935,0,0,0-4.142-6.667c-2.5-2.3-5.618-3.72-8.4-5.625-6.321-4.334-7.623-11.447-9.995-18.226-2.147-6.141-6.863-13.17-14.349-11.986-.266.042-.188.429.073.407,7.273-.617,11.526,6.257,13.6,12.23,1.88,5.412,2.944,11.481,6.9,15.875,3.861,4.287,10.021,5.679,13.431,10.462a16.9,16.9,0,0,1,1.494,16c-2.7,6.423-8.884,10.7-15.39,12.644-.138.041-.1.263.041.226C215.2,84,224.51,73.433,220.89,61.536" transform="translate(-66.936 -6.881)" fill="#855733"/>
    <path id="Path_876850" data-name="Path 876850" d="M196.162,80.665a11.073,11.073,0,0,1-10.69-7.1c-1.478-3.84.238-7.333.059-11.214a11.86,11.86,0,0,0-3.524-7.569c-5.048-5.261-12.4-6.353-18.509-9.858-7.352-4.22-10.1-12.394-9.073-20.524A38.219,38.219,0,0,1,159,10.655a21.866,21.866,0,0,1,2.867-4.016A19.037,19.037,0,0,0,153.69,8.7a16.509,16.509,0,0,0-9.682,15.105,31.223,31.223,0,0,0,1.369,9.31c.162,5.919.672,11.878,2.82,17.434,1.25,3.234,2.528,6.4,3.455,9.749a59.46,59.46,0,0,0,2.839,8.637c1.582,3.511,4.161,7.389,7.766,9.179A31.864,31.864,0,0,0,169.1,82.9a44.172,44.172,0,0,0,18.572,4.562L182.4,83.887a19.427,19.427,0,0,0,13.767-3.223M154.277,66.774c-2.016-5.364-2.876-11.056-4.951-16.4a52.867,52.867,0,0,1-3.078-14.463q.262.769.538,1.531c1.592,4.385,3.49,8.673,4.654,13.191,1.605,6.233,1.806,12.871,4.426,18.749a25.38,25.38,0,0,0,3.141,5.214c-.261-.266-.518-.543-.768-.839a23.513,23.513,0,0,1-3.962-6.982" transform="translate(-52.43 -2.417)" fill="#684121"/>
    <path id="Path_876851" data-name="Path 876851" d="M153.294,35.886s-8.949-4.821-7.337-14.04S158.507,6,163.417,5.326,177.191,11.6,175.46,16.3s-19.321,20.287-22.166,19.586" transform="translate(-53.071 -1.923)" fill="#684121"/>
    <rect id="Rectangle_402007" data-name="Rectangle 402007" width="41.875" height="2.216" transform="translate(45.976 174.26) rotate(-83.344)" fill="#e3e3e3"/>
    <path id="Path_876852" data-name="Path 876852" d="M78.957,213.937l2.067,1.411.754-6.464-2.2-.256Z" transform="translate(-28.748 -75.96)" fill="#c9c9c9"/>
    <path id="Path_876853" data-name="Path 876853" d="M82.569,207.542a1.924,1.924,0,1,1-1.741-2.091,1.924,1.924,0,0,1,1.741,2.091" transform="translate(-28.665 -74.801)" fill="#312361"/>
    <path id="Path_876854" data-name="Path 876854" d="M91.965,165.223a40.648,40.648,0,0,1-5.237,3.317c-1.711.729-8.568,2.381-9.5,2.928s-2.055,4.493-3.367,5.006-2.257-2.989-1.172-6.559,2.13-5.323,7.266-7.535a39.935,39.935,0,0,1,10.121-2.769s10.723-16.582,18.516-21.773c3.729-16.155,6.143-27.435,6.143-27.435l12.361,1.163s-3.426,22.833-11.621,33.809c-4.6,6.168-23.508,19.849-23.508,19.849" transform="translate(-26.292 -40.197)" fill="#fbd9d0"/>
    <path id="Path_876855" data-name="Path 876855" d="M120.544,145.986c5.34-7.152,8.653-19.335,10.315-26.959-.7-.978-1.438-1.924-2.187-2.832-2.336-2.83-5.753-4.638-9.128-3.976-.351,1.622-1.048,4.82-2.022,9.2a4.984,4.984,0,0,1,2.2,2c1.433,2.787.079,6.08-1.082,8.692-1.2,2.71-2.272,5.323-1.724,8.33.205,1.127.619,2.383.17,3.506a6.784,6.784,0,0,1-2.073,2.277q-2.309,2.015-4.625,4.021-4.572,3.977-9.157,7.937c-4.977,4.285-10.107,8.408-15.1,12.681,2.215-.623,4.718-1.3,5.66-1.705a40.692,40.692,0,0,0,5.237-3.317s18.9-13.681,23.508-19.849" transform="translate(-31.362 -40.809)" fill="#edbbb0"/>
    <path id="Path_876856" data-name="Path 876856" d="M83.791,205.108l.392-.113a.434.434,0,0,0-.392.113" transform="translate(-30.508 -74.634)" fill="#edbbb0"/>
    <path id="Path_876857" data-name="Path 876857" d="M41.758,268.21s16.62.872,20.451,3.253,2.519,15.371,1.829,22.923c-1.375,15.056-3.194,30.065-4.9,45.086a11.289,11.289,0,0,1-1.157,4.5c-1.859,3.175-7.7,2.792-10.88,2.811a66.315,66.315,0,0,1-11.363-1.19c-4.343-.731-9.144-1.739-11.7-5.328-2.4-3.381-2-7.94-1.423-12.048q2.589-18.538,6.963-36.767c1.326-5.523,3.506-23.692,12.175-23.237" transform="translate(-8.076 -97.651)" fill="#524b4b"/>
    <path id="Path_876858" data-name="Path 876858" d="M75.665,272.8a4.806,4.806,0,0,0-.435-.237c-.034-.017-.074-.032-.109-.049-.135-.063-.275-.125-.427-.185l-.1-.036c-.171-.066-.35-.131-.539-.194l-.045-.015q-.321-.106-.671-.207a52.587,52.587,0,0,1,.165,8.418c-.413,4.991-1.6,8.741-2.119,12.477s.947,9.587-.978,16.816-4.152,13.281-4.152,13.281-.141,11.563-1.484,16.247c-.794,2.769-3.524,6.412-5.629,8.937l.424.052c.33.007.66.015.991.013,3.179-.018,9.02.364,10.88-2.811a6.43,6.43,0,0,0,.521-1.154c.633-4.032,1.4-10.152,2.171-16.732q.376-3.274.745-6.547c1.038-9.312,1.975-18.469,2.425-23.1.064-.684.132-1.368.195-2.053.043-.472.088-.965.135-1.475.117-1.281.24-2.672.348-4.11.041-.553.08-1.112.116-1.676.039-.627.074-1.258.1-1.889q.037-.81.059-1.615c.017-.633.026-1.26.025-1.879q0-.71-.02-1.4a22,22,0,0,0-.944-6.526q-.1-.272-.21-.521a3.984,3.984,0,0,0-1.441-1.831h0" transform="translate(-21.534 -98.99)" fill="#3e3636"/>
    <path id="Path_876859" data-name="Path 876859" d="M41.758,268.21c-8.669-.455-10.849,17.714-12.175,23.237q-4.369,18.2-6.963,36.767c-.574,4.108-.979,8.667,1.424,12.048,2.45,3.449,6.977,4.513,11.18,5.24q.915-10.108,1.83-20.216l2.066-22.825c.668-7.382,3.44-29.341,4.725-34.119-1.288-.09-2.086-.132-2.086-.132" transform="translate(-8.076 -97.651)" fill="#c1bfbf"/>
    <path id="Path_876860" data-name="Path 876860" d="M24.845,341.3q.243.256.5.492c.069.062.137.125.208.185.222.189.45.369.687.537l.057.043c.269.189.549.364.836.531l.149.083q.367.205.749.39l.168.079a19.215,19.215,0,0,0,2.986,1.074,2.244,2.244,0,0,0-.486-.971l0-.12c.189.149.369.286.529.406l3.694-40.451.015-.161c.5-5.167,1.357-10.314,2.1-15.45q.779-5.368,1.578-10.733c.25-1.68.489-3.366.7-5.046.12-.98.558-1.942.776-2.918.02-.089.067-.431.123-.86-5.823,1.281-8.3,11.652-9.693,18.538-.233,1.3-.491,2.589-.785,3.88-.053.247-.106.482-.157.694v0q-1.092,4.55-2.074,9.126t-1.852,9.173q-.871,4.6-1.63,9.216t-1.407,9.252c-.574,4.108-.979,8.667,1.424,12.048a8.818,8.818,0,0,0,.608.754c.063.071.13.137.195.206" transform="translate(-8.076 -97.726)" fill="#7b7676"/>
    <path id="Path_876861" data-name="Path 876861" d="M207.322,261.22a66.928,66.928,0,0,0-19.035-3.559c-.47-.988-.767-1.524-.767-1.524s-4.8-33.668-7.331-38.79-20.893,11.792-20.9,11.8c1.671,7.8,11.513,30.968,15.063,37.777a14.852,14.852,0,0,0,6.093,6.681,21,21,0,0,0,6.971,1.727c7.245.932,27.923.937,35.606,1.858,5.32.638,7.474,2.722,10.768,8.693l-1.994-17.746s-13.68-3.243-24.473-6.917" transform="translate(-57.995 -78.783)" fill="#e59c8c"/>
    <path id="Path_876862" data-name="Path 876862" d="M213.706,264.513a66.935,66.935,0,0,0-19.035-3.559c-.469-.988-.766-1.524-.766-1.524s-3.305-23.193-5.878-34c-4.654,2.441-11.2,6.193-11.2,6.193l9.2-1.414q.618,3.22,1.237,6.441,1.151,5.992,2.305,11.985c.777,4.03,1.431,8.042,2.214,12.067q.172.885.344,1.77a8.948,8.948,0,0,0,1.954.306q1.092.125,2.193.148c1.351.029,2.726.09,4.081.176,2.633.165,5.265.408,7.869.829a33.684,33.684,0,0,1,7.045,1.8c7.192,2.849,22.582,8.538,22.582,8.538a7.447,7.447,0,0,0-3.224-3.715c-4.778-1.209-13.519-3.522-20.91-6.038" transform="translate(-64.38 -82.077)" fill="#fbd9d0"/>
    <path id="Path_876863" data-name="Path 876863" d="M158.395,239.557s2.866,31.749,3.188,35.84.646,8.592.841,11.457c.153,2.243,3.312,29.748,4.554,43.361.345,3.773-4.961,3.562-11.591,5.239l22.716-.723s-.361-25.867,1.029-37.183a65.125,65.125,0,0,0-.529-19.974s4.984-33.641,4.013-39.273Z" transform="translate(-56.576 -86.764)" fill="#fbd9d0"/>
    <path id="Path_876864" data-name="Path 876864" d="M179.325,242.23l8.751,5.513s-2.329,23.438-2.484,25.186.261,5.528.191,6.657,2.512,12.536,1.193,20.159c-1.316,7.6-2.891,38.127-2.892,38.31,0,0,1.438.062,1.437.065,0,.025.046.165,1.221.457.206-4.924.154-32.85,1.106-40.6a65.133,65.133,0,0,0-.53-19.974s3.9-27.425,4.51-38.522c-5.156,1.016-12.5,2.748-12.5,2.748" transform="translate(-65.291 -87.194)" fill="#edbbb0"/>
    <path id="Path_876865" data-name="Path 876865" d="M149.855,178.34s-.373,20.376.775,27.039,2.888,14.132,2.888,14.132,23.754-.818,28.152-2.037c.264-.074.163-3.6.157-3.988-.086-6.376,2.605-12.361,4.1-18.492a31.409,31.409,0,0,0,.994-9.862,18.349,18.349,0,0,0-1.018-4.849c-.454-1.243-.408-2.782-.992-3.921-1.143-2.229-4.436-2.507-6.621-2.626-7.5-.406-15.248,1.367-22.505,3.087-1.985.471-3.968.96-5.93,1.517" transform="translate(-54.541 -63.235)" fill="#ab7062"/>
    <path id="Path_876866" data-name="Path 876866" d="M179.976,196.366c-.251,1.943-.614,3.892-.754,5.78-.355,4.785-.479,9.59-.552,14.387q-.013.818-.022,1.637a23.472,23.472,0,0,0,3.054-.509s.3-6,.593-7.486a51.973,51.973,0,0,1,3.227-9.453c2.65-6.482,4.521-13.439,1.676-20.206a11.647,11.647,0,0,0-3.641-4.973,7.1,7.1,0,0,0-5.5-1.248c-1.973.293-4.03.247-6.031.364a71.181,71.181,0,0,0-9.045.818c-7.071,1.344-13.093,3.051-13.093,3.051.57-.162,2.09.548,2.652.682,2.409.574,4.84,1.059,7.283,1.473,3.421.58,6.868,1.017,10.326,1.262a11,11,0,0,1,7.841,4.028q.289.359.545.743c1.971,2.958,1.874,6.295,1.441,9.652" transform="translate(-54.574 -63.422)" fill="#85574c"/>
    <path id="Path_876867" data-name="Path 876867" d="M154.55,58.657a25.153,25.153,0,0,1-.1,3.864c-.35,3.215-1.276,3.887-3.871,5.322.586.744,6.064,8.319,6.117,8.278l6.479-5.088c1.717-1.349,3.629-2.608,5.206-4.117a7.938,7.938,0,0,1,2.092-1.645c.546-.279,2.7-1.713,3.242-1.564-3.241-.9-5.672-3.71-6.963-6.815-.407-.979-2.709-11.625-2.007-11.672l-12.389.825s1.527,6.013,1.628,6.858c.23,1.91.478,3.831.564,5.755" transform="translate(-54.826 -16.464)" fill="#fbd9d0"/>
    <path id="Path_876868" data-name="Path 876868" d="M169.349,56.944a83.476,83.476,0,0,1-2.027-9.813c-.43-.608-.877-1.2-1.351-1.768l-8.263.55c.05,1.735.116,3.471.207,5.2a81.572,81.572,0,0,1,1.408,8.4c.158,1.7.345,3.483.5,5.3.443,1.78.819,3.579,1.117,5.4a.485.485,0,0,0,.923.084c1.46-2.887,3.075-5.22,6.063-6.683a45.957,45.957,0,0,1,4.73-1.92,13.214,13.214,0,0,1-3.3-4.762" transform="translate(-57.421 -16.516)" fill="#edbbb0"/>
    <path id="Path_876869" data-name="Path 876869" d="M146.5,77.858a2.8,2.8,0,0,0-.878-.216c-1.7-.127-2.9,2.2-3.5,3.471-1.017,2.175-1.171,4.365-2.617,6.447a39.33,39.33,0,0,0-3.5,5.182,12.672,12.672,0,0,0-.107,9.955c1.2,3.07,3.695,5.375,3.943,8.843.188,2.628-.963,5.136-1.729,7.657s-1.076,5.5.542,7.577c1.471,1.891,4.306,2.708,5.027,4.992,1.166,3.694-4.271,6.7-3.886,10.556a5.1,5.1,0,0,0,3.733,4.01,15,15,0,0,0,5.76.258c9.289-.79,18.69-1.6,27.5-4.657a5.327,5.327,0,0,0,2.622-1.565c1.214-1.6.387-3.918-.756-5.567s-2.631-3.269-2.694-5.274c-.069-2.217,1.618-4.034,3.017-5.755s2.649-4.082,1.641-6.057a9.512,9.512,0,0,0-2.337-2.415c-3.323-3.038-4.152-8-3.712-12.48s1.933-8.8,2.451-13.275-.125-9.428-3.284-12.635a10.407,10.407,0,0,0-14.15-.12c-1.241,1.218-2.15,2.743-3.417,3.933s-3.108,2.029-4.738,1.426a7.217,7.217,0,0,1-2.773-2.474,6.076,6.076,0,0,0-2.163-1.818" transform="translate(-49.132 -26.971)" fill="#f2bf33"/>
    <path id="Path_876870" data-name="Path 876870" d="M160.34,107.179s-1.275,3.214-.824,5.3,7.607,18.471,7.607,18.471-3.87,1.685-5.394-1.255-5.193-11.639-5.478-15.935-.407-5.314,1.266-7.263,3.323-6.844,3.323-6.844a7.858,7.858,0,0,1-.5,7.528" transform="translate(-56.828 -36.282)" fill="#eb9a00"/>
    <path id="Path_876871" data-name="Path 876871" d="M142.388,126.213l.005.01a18.082,18.082,0,0,0,5.448-.392c1.94-.518.886-.758.886-.758-3.258-.241-9.053-2.966-10.648-3.743a32.6,32.6,0,0,0,4.308,4.883" transform="translate(-50.274 -44.176)" fill="#eb9a00"/>
    <path id="Path_876872" data-name="Path 876872" d="M188.762,99.289q.314-4.326.627-8.653a10.8,10.8,0,0,0-.375-4.793,4.536,4.536,0,0,0-4.368-2.745c-1.711.079-2.589,1.814-2.965,3.264-1.946,7.5-3.3,12.946-3.165,15.723s-1.886,33.534-1.886,33.534,2.433,4.853,3.711,4.242c1.4-.67,2.408-3.172,3.083-4.438a38.034,38.034,0,0,0,3.232-7.8,22.016,22.016,0,0,0,.367-4.33q.219-3.025.438-6.049.438-6.048.876-12.1.213-2.932.425-5.864" transform="translate(-64.31 -30.254)" fill="#eb9a00"/>
    <path id="Path_876873" data-name="Path 876873" d="M150.195,99.252s1.534-6.74,4.989-7.9,3.55.816,3.5,4.873-.835,3.377-1.736,5.387-1.569,3.414-1.415,4.463c.711,4.81,7.834,17.557,7.834,17.557s2.214-30.412,3.562-34.855L179.3,83.649s-6.735,48.411-7.745,50.706-5.453,5.2-7.624,4.456-12.09-22.077-13.2-29.211-.423-5.005-.536-10.348" transform="translate(-54.646 -30.456)" fill="#fbd9d0"/>
    <path id="Path_876874" data-name="Path 876874" d="M160.254,103.165c-.866,1.664-1.737,3.4-1.737,3.4l.067,3.9.031-.013a12.3,12.3,0,0,1,1.4-4.1c.9-2.011,1.685-1.33,1.736-5.387a11.343,11.343,0,0,0-.4-4.3c-.009.191-.249,4.875-1.1,6.505" transform="translate(-57.715 -35.193)" fill="#edbbb0"/>
    <path id="Path_876875" data-name="Path 876875" d="M179.487,134.888c1.01-2.3,7.834-49.776,7.834-49.776l-10.878,4.236c-.13.429,5.389,2.872,7.5,3,0,0-3.292,30.621-3.5,32.013a87.493,87.493,0,0,1-2.539,9.79c-.764,2-3.248,3.889-6.041,5.192,2.171.748,6.614-2.16,7.624-4.455" transform="translate(-62.575 -30.989)" fill="#edbbb0"/>
    <path id="Path_876876" data-name="Path 876876" d="M173.6,88.8a78.13,78.13,0,0,1,14.336-7.118c-1.244-4.718-5.469-5.984-10.981-3.957-3.129,1.15-4.786,6.8-5.667,12.552q1.141-.744,2.312-1.477" transform="translate(-62.364 -27.962)" fill="#dbe6a1"/>
    <path id="Path_876877" data-name="Path 876877" d="M173.6,88.8a78.13,78.13,0,0,1,14.336-7.118c-1.244-4.718-5.469-5.984-10.981-3.957-3.129,1.15-4.786,6.8-5.667,12.552q1.141-.744,2.312-1.477" transform="translate(-62.364 -27.962)" fill="#f2bf33"/>
    <path id="Path_876878" data-name="Path 876878" d="M184.21,77.318a15.442,15.442,0,0,0-3.048.793c-2.759,1.014-4.376,5.527-5.323,10.526.345-.212.691-.425,1.04-.633.074-.4.154-.773.24-1.123,1.311-5.317,3.827-8.759,7.092-9.563" transform="translate(-64.022 -28.151)" fill="#f2ce6a"/>
    <path id="Path_876879" data-name="Path 876879" d="M169.447,194.151s1.8,9.174,11.083,11.163c0,0-11.182-.294-11.083-11.163" transform="translate(-61.695 -70.69)" fill="#9c6659"/>
    <path id="Path_876880" data-name="Path 876880" d="M174.171,383.413c1.7.148,2.327,5.375,2.528,6.784.2,1.381.3,4.75-.871,5.716s-9.433-.226-10.986-.263a87.019,87.019,0,0,1-10.545.189c-4.2-.313-7.618-.471-8.653-1.338s-2.455-4.113-1.34-5.693,2.776-3.044,7.591-2.9c2.666.078,5.9-.006,8.188-1.4.621-.379,1.349-1.68,1.916-1.871,1.211-.408,3.26.8,4.179,1.555.669.548,1.239,1.213,1.941,1.718a2.839,2.839,0,0,0,2.4.591,3.483,3.483,0,0,0,1.657-1.573,3.109,3.109,0,0,1,1.716-1.492.906.906,0,0,1,.278-.02" transform="translate(-52.392 -139.286)" fill="#524b4b"/>
    <path id="Path_876881" data-name="Path 876881" d="M176.962,396.38a130.926,130.926,0,0,1-32.626.6,5.983,5.983,0,0,0,1.468,2.553c1.035.867,4.454,1.025,8.653,1.338A87.014,87.014,0,0,0,165,400.684c1.121.027,5.74.656,8.662.64q1.052-.118,2.1-.253a.9.9,0,0,0,.221-.123c.916-.755,1.052-2.974.974-4.568" transform="translate(-52.552 -144.32)" fill="#3e3636"/>
    <path id="Path_876882" data-name="Path 876882" d="M163.111,385.942c-.34.09-.683.178-1.053.247.555.64,1.206,1.432,1.871,2.334a.532.532,0,0,0,.413.216.482.482,0,0,0,.284-.083.475.475,0,0,0,.1-.68c-.568-.769-1.116-1.448-1.611-2.034m-3.874.551c-.38.018-.767.025-1.161.027a13.624,13.624,0,0,1,1.55,2.711.532.532,0,0,0,.473.324.466.466,0,0,0,.443-.656,14.356,14.356,0,0,0-1.3-2.406m9.107-.422c-.617-.638-1.308-1.27-1.956-1.831a4.4,4.4,0,0,1-.74.628c.66.568,1.373,1.215,1.994,1.858a.529.529,0,0,0,.366.162.471.471,0,0,0,.336-.125.483.483,0,0,0,0-.692" transform="translate(-57.555 -139.9)" fill="#a3896f"/>
    <path id="Path_876883" data-name="Path 876883" d="M150.491,154.91a10.3,10.3,0,0,0-3.111-4.438c-2.312-2.184-4.093-4.331-3.051-7.717a.137.137,0,0,0-.256-.1,6.815,6.815,0,0,0,.4,5.851c1.256,2.242,3.667,3.606,4.648,6.025,1.206,2.972.284,5.835-1.643,8.209-1.183,1.457-2.224,3.194-.884,4.893a.4.4,0,0,0,.664-.422c-1.267-2.389,2.217-4.582,3.031-6.662a8.679,8.679,0,0,0,.2-5.642" transform="translate(-52.283 -51.91)" fill="#f2ce6a"/>
    <path id="Path_876884" data-name="Path 876884" d="M151,27.926l1.921,2.7s.639-8.768,3.1-12.8c2.38-3.9,14.071-7.932,15.064-10.769a10.179,10.179,0,0,0-6.065-1.732,16.935,16.935,0,0,0-5.164,1.882C146.173,16.743,151,27.926,151,27.926" transform="translate(-54.678 -1.923)" fill="#f2bf33"/>
    <path id="Path_876885" data-name="Path 876885" d="M178.852,28.918a40.822,40.822,0,0,0-1.372,4.956c-.136,1.217-2.083,7.7-4.69,10.321s-3.9,3.752-4.8,4.159a5.8,5.8,0,0,1-4.345.1c-1.732-.68-6.914-6.558-8.529-9.123s-4.172-13.189,3.01-18.874,16.732-4.248,18.87-1.861,2.284,8.86,1.859,10.317" transform="translate(-55.822 -6.008)" fill="#fbd9d0"/>
    <path id="Path_876886" data-name="Path 876886" d="M181.809,46.014c2.607-2.624,4.554-9.1,4.69-10.321a40.942,40.942,0,0,1,1.372-4.956,18.54,18.54,0,0,0-.764-8.343,1.139,1.139,0,0,0-.608.194s1.112,6,.249,8.826-.846,2.236-1.438,4.06-.616,5.327-3.052,8.591-4.9,5.911-4.914,5.93a27.517,27.517,0,0,0,4.464-3.981" transform="translate(-64.571 -8.154)" fill="#fdede9"/>
    <path id="Path_876887" data-name="Path 876887" d="M153.216,40.754s-3.4-2.818-4.615-2.023-1.706,3.457.924,5.048,3.6,2.217,3.6,2.217.483-4.445.086-5.241" transform="translate(-53.746 -14.05)" fill="#fbd9d0"/>
    <path id="Path_876888" data-name="Path 876888" d="M147.688,41.115a3.361,3.361,0,0,0,1.84,3.583c1.639.991,2.635,1.608,3.152,1.931-.059-.507-.157-1.187-.157-1.187a5.93,5.93,0,0,1-2.757-1.283,8.059,8.059,0,0,1-2.078-3.045" transform="translate(-53.75 -14.97)" fill="#edbbb0"/>
    <path id="Path_876891" data-name="Path 876891" d="M155.1,35.548c-.347-3.425-1.547-6.415-.005-9.7,2.792-5.939,9.921-9.177,16.216-8.425,2.322.278,4.9.513,6.778-.885a5.242,5.242,0,0,0,1.746-5.473,6.843,6.843,0,0,0-3.977-4.35c-3.964-1.685-8.386-.308-11.9,1.719a48.054,48.054,0,0,0-7.123,5.6,15.162,15.162,0,0,0-4.984,9.374A20.566,20.566,0,0,0,155.1,35.548" transform="translate(-55.271 -2.171)" fill="#684121"/>
    <path id="Path_876892" data-name="Path 876892" d="M184.12,6.259C183.208,4.021,181,2.6,178.909,1.6A13.747,13.747,0,0,0,170.018.26a.117.117,0,0,0,.041.231c4.207-.648,10.167,1.531,12.539,5.246a3.337,3.337,0,0,1,.032,4.124,6.866,6.866,0,0,1-3.446,1.566c-2.306.622-4.655,1.055-6.985,1.571a.224.224,0,0,0,.079.44,31.638,31.638,0,0,0,9.56-1.757,3.946,3.946,0,0,0,2.283-5.422" transform="translate(-61.869 0)" fill="#684121"/>
    <path id="Path_876893" data-name="Path 876893" d="M178.128,16.893a.365.365,0,0,0-.719.031c-.608,5.138-7.363,4.1-10.948,5.573a14.528,14.528,0,0,0-7.2,6.4c-.066.12.095.244.177.127a15.672,15.672,0,0,1,11.445-6.564c3-.385,7.806-1.534,7.241-5.566" transform="translate(-57.982 -6.045)" fill="#684121"/>
    <path id="Path_876894" data-name="Path 876894" d="M175.707,49.575l2.79.555s-1.567,1.6-2.79-.555" transform="translate(-63.974 -18.05)" fill="#edbbb0"/>
    <path id="Path_876895" data-name="Path 876895" d="M262.7,294.232c-.121-1.555,4.883-2.079,6.663-2.38,1.747-.294,6.076-.667,7.538.316s1.438,8.574,1.675,9.985a90.815,90.815,0,0,1,1.727,9.593c.366,3.834-.518,7.445-1.447,8.456a5.026,5.026,0,0,1-5.344,1.144c-2.243-.88-4.439-2.265-5.14-6.643-.388-2.425-1.09-5.352-3.307-7.31-.6-.532-2.416-1.084-2.767-1.583-.749-1.065.438-3.023,1.241-3.918.584-.652,1.339-1.225,1.861-1.9a1.9,1.9,0,0,0,.322-2.226c-.444-.662-2.392-2.022-2.866-3.11a2.388,2.388,0,0,1-.156-.421" transform="translate(-95.416 -106.145)" fill="#524b4b"/>
    <path id="Path_876896" data-name="Path 876896" d="M284.7,320.692c.928-1.011,2.157-5.157,1.791-8.991a59.041,59.041,0,0,0-2.177-9.548c-.237-1.411-.212-9-1.675-9.985-.923-.621-2.985-.7-4.821-.6,2.476,4.747,2.652,10.033,3.377,15.031.715,4.93,2.266,10.295-.349,15,2.168-.01,3.121-.111,3.854-.909" transform="translate(-101.153 -106.145)" fill="#3e3636"/>
    <path id="Path_876897" data-name="Path 876897" d="M267.442,316.482c.179.3.406.658.563.988.724-.556,1.549-1.153,2.591-1.831a.393.393,0,0,0,.2-.392.407.407,0,0,0-.16-.251.818.818,0,0,0-.9-.031c-.89.579-1.637,1.019-2.3,1.517m1.395,3.581c.092.342.172.693.247,1.051a17.611,17.611,0,0,1,3.216-1.63.44.44,0,0,0,.331-.456.37.37,0,0,0-.07-.16.775.775,0,0,0-.858-.188,19,19,0,0,0-2.867,1.383m-2.214-8.224c-.711.612-1.493,1.469-2.1,2.1.331.174.665.293,1.062.527.611-.645,1.294-1.43,2.011-2.047a.372.372,0,0,0,.142-.345.436.436,0,0,0-.224-.3.815.815,0,0,0-.893.058" transform="translate(-96.312 -113.479)" fill="#a3896f"/>
  </g>
</svg>
