<svg xmlns="http://www.w3.org/2000/svg" xmlns:xlink="http://www.w3.org/1999/xlink" width="190" height="134" viewBox="0 0 190 134">
  <defs>
    <clipPath id="clip-path">
      <rect id="Rectangle_402043" data-name="Rectangle 402043" width="77.987" height="77.957" fill="#7d3a1b"/>
    </clipPath>
  </defs>
  <g id="Group_1100288" data-name="Group 1100288" transform="translate(-330 -7019)">
    <rect id="Rectangle_402215" data-name="Rectangle 402215" width="190" height="134" transform="translate(330 7019)" fill="none"/>
    <g id="Group_1100287" data-name="Group 1100287" transform="translate(16 -507)">
      <g id="Grupo_156312" data-name="Grupo 156312" transform="translate(344 7528)">
        <path id="Elipse_5845" data-name="Elipse 5845" d="M65.5,0A65.5,65.5,0,1,1,0,65.5,65.5,65.5,0,0,1,65.5,0Z" transform="translate(0 0)" fill="#ffce73"/>
      </g>
      <g id="Group_1099977" data-name="Group 1099977" transform="translate(370.935 7554.934)">
        <path id="Path_873216" data-name="Path 873216" d="M0,0H77.357V77.358H0Z" transform="translate(0 0)" fill="none"/>
        <g id="Group_1099979" data-name="Group 1099979" transform="translate(-0.935 -0.599)">
          <g id="Group_1099978" data-name="Group 1099978" clip-path="url(#clip-path)">
            <path id="Path_877067" data-name="Path 877067" d="M19.428,85.409a8.273,8.273,0,0,1-2.7-.492,7.141,7.141,0,0,1-3.117-2.038.316.316,0,0,0-.38-.107,5.288,5.288,0,0,1-1.041.17,1.1,1.1,0,0,1-.891-.394,1.145,1.145,0,0,1,.633-1.951c.116-.026.234-.047.334-.067-.029-.559-.086-1.112-.082-1.665a15.117,15.117,0,0,1,1.04-5.782c.121-.29.293-.559.429-.843a.387.387,0,0,0,.046-.281,3.4,3.4,0,0,1-.25-2.015,6.652,6.652,0,0,1,1.523-3.622,4.209,4.209,0,0,1,3.107-1.6,11.528,11.528,0,0,1,4.852.69c.188.078.368.175.562.268.183-.15.37-.317.571-.465A2.625,2.625,0,0,1,25.8,64.7a8.625,8.625,0,0,1,3.191.719,6.444,6.444,0,0,1,3.592,3.733,5.15,5.15,0,0,1,.238,1.451,3.35,3.35,0,0,0,1.072,2.263,8.151,8.151,0,0,0,3.142,1.864c.81.28,1.648.481,2.473.717l.069-.082c-.113-.387-.227-.774-.338-1.161-.072-.25-.159-.5-.207-.751a1.193,1.193,0,0,1,2.336-.489c.206.752.429,1.5.636,2.252a.488.488,0,0,0,.528.429A3.685,3.685,0,0,1,45.877,77.7a3.157,3.157,0,0,1-.482,3.673,8.39,8.39,0,0,1-1.1.842c-.128.089-.179.145-.132.305.339,1.139.667,2.282,1,3.423q.63,2.166,1.262,4.332.668,2.3,1.333,4.6c.026.088.058.174.094.281.564-.255,1.1-.527,1.663-.746,1.5-.589,3-1.2,4.53-1.717,1.354-.456,2.745-.8,4.125-1.179a.383.383,0,0,0,.339-.44q0-5.349.011-10.7c0-.587.009-1.173.013-1.76,0-.165,0-.33,0-.455-.864-.14-1.694-.213-2.49-.417a9.329,9.329,0,0,1-4.115-2.252.327.327,0,0,0-.254-.08A7.3,7.3,0,0,1,42.928,70.3a6.36,6.36,0,0,1,.23-4.264,24.88,24.88,0,0,1,2.5-4.693c1.071-1.577,2.212-3.106,3.312-4.663a1.279,1.279,0,0,1,1.475-.411,1.028,1.028,0,0,1,.674.886c.083.541.1,1.092.188,1.632a4.974,4.974,0,0,0,1.56,2.744c.712.709,1.471,1.371,2.188,2.075a7.6,7.6,0,0,1,1.735,2.439,6.017,6.017,0,0,1,.384,3.012,7.191,7.191,0,0,1-3.021,5.217,7.13,7.13,0,0,0,4.37,1.353c0-.563,0-1.109,0-1.655,0-3.035,0-6.071.016-9.106a1.13,1.13,0,0,0-.526-1.082,6.934,6.934,0,0,1-3.136-6.756,6.582,6.582,0,0,1,3.764-5.478,20.275,20.275,0,0,1,4.506-1.513c1.207-.261,2.41-.548,3.624-.771.977-.179,1.968-.289,2.955-.41a1.292,1.292,0,0,1,1.216.643,1.2,1.2,0,0,1-.2,1.373,6.936,6.936,0,0,0-1.362,1.992,4.711,4.711,0,0,0-.326,1.826c-.009,1.1.006,2.2.037,3.3a6.5,6.5,0,0,1-.81,3.652A7.053,7.053,0,0,1,63.2,65.019a6.225,6.225,0,0,1-2.084.013,1.462,1.462,0,0,0-.2,0v.548q0,9.706.009,19.413a1.109,1.109,0,0,1-.007.2c-.034.186.056.219.22.214a7.344,7.344,0,0,0,4.028-1.339,3,3,0,0,0-.241-.257,7.544,7.544,0,0,1-2.186-2.888,6.621,6.621,0,0,1-.443-4.192,6.815,6.815,0,0,1,1.93-3.268c.818-.814,1.691-1.573,2.494-2.4a5.041,5.041,0,0,0,1.5-3.619,1.464,1.464,0,0,1,.493-1.275,1.111,1.111,0,0,1,1.435.012,2.943,2.943,0,0,1,.4.426,49.464,49.464,0,0,1,4.8,7.251A14.105,14.105,0,0,1,76.667,77.3a4.53,4.53,0,0,1-.028,2,7.3,7.3,0,0,1-5.457,5.846,6.168,6.168,0,0,1-3.387.042.559.559,0,0,0-.389.119c-.62.425-1.2.918-1.851,1.288A9.067,9.067,0,0,1,61.2,87.818c-.224,0-.3.05-.291.295.015.8,0,1.6-.013,2.4,0,.224,0,.344.3.277.824-.184,1.654-.351,2.488-.485,2.451-.392,4.905-.769,7.382-.957,1.726-.132,3.456-.2,5.185-.295a3.126,3.126,0,0,1,.611.037,1.153,1.153,0,0,1,1.081,1.061,3.192,3.192,0,0,1,.041.527q0,11.8,0,23.6a2.6,2.6,0,0,1-.018.39,1.26,1.26,0,0,1-1.319,1.182c-.111.009-.223.006-.335.006q-37.332,0-74.664,0a5.089,5.089,0,0,1-.638-.054,1.146,1.146,0,0,1-.761-1.829A24.325,24.325,0,0,1,2,112.172a41.463,41.463,0,0,1,8.205-5.854c1.111-.619,2.25-1.188,3.376-1.779a3.7,3.7,0,0,1,1.068-3.784,16.019,16.019,0,0,0,3.2-4.874,19.047,19.047,0,0,0,1.145-4.067,32.69,32.69,0,0,0,.449-6.226c0-.046,0-.091-.009-.179m56.1,27.982V100.135c0-.662-.147-.874-.768-1.094a1.511,1.511,0,0,0-.431-.109c-1.04-.041-2.081-.1-3.12-.085a3.862,3.862,0,0,0-1.2.316,4.553,4.553,0,0,0-1.59,1.06,1.39,1.39,0,0,1-.934.5,1.367,1.367,0,0,1-1.2-.825,4.657,4.657,0,0,0-2.768-2.117,4.8,4.8,0,0,0-4.472.866,5.039,5.039,0,0,0-1.73,2.826,1.182,1.182,0,0,1-1.228.973c-.111.006-.224,0-.335,0a3.561,3.561,0,0,0-3.291,2.786,5.481,5.481,0,0,0-.044,1.555,1.336,1.336,0,0,1-.532,1.217,8.977,8.977,0,0,0-.807.73,8.347,8.347,0,0,0-1.938,3.161,12.466,12.466,0,0,0-.34,1.491ZM39.86,98.3c-.076-.312-.147-.561-.2-.814a18.54,18.54,0,0,0-1.415-4.275,15.237,15.237,0,0,0-4.123-5.487,9.348,9.348,0,0,0-6.1-2.321,1.22,1.22,0,0,1-1.232-1.389c.032-1.209.07-2.418.133-3.626a16.1,16.1,0,0,1,.617-3.931,3.914,3.914,0,0,1,.9-1.709,1.106,1.106,0,0,1,1.221-.227.974.974,0,0,1,.719.878A3.15,3.15,0,0,0,31.7,77.838a11.778,11.778,0,0,0,5.469,2.3c1.273.245,2.587.282,3.883.4a4.55,4.55,0,0,0,2.042-.366.987.987,0,0,0,.688-1.322,1.162,1.162,0,0,0-1.091-.766c-1.131-.086-2.265-.15-3.388-.3a14.9,14.9,0,0,1-3.17-.841,11.988,11.988,0,0,1-3.06-1.638,5.945,5.945,0,0,1-2.659-4.71,3.088,3.088,0,0,0-1.4-2.443,5.4,5.4,0,0,0-3.384-1.016.573.573,0,0,0-.548.263,13.348,13.348,0,0,0-.879,1.575,25.515,25.515,0,0,0-1.5,5.786c-.168,1.046-.314,2.1-.425,3.15-.093.878-.118,1.764-.177,2.646-.063.928-.16,1.855-.19,2.785-.047,1.451-.037,2.9-.076,4.356A28.549,28.549,0,0,1,21,93.8a19.489,19.489,0,0,1-1.973,5.045,20.222,20.222,0,0,1-2.805,3.711,1.625,1.625,0,0,0-.4,1.036c.224-.107.409-.213.606-.286,1.027-.382,2.055-.763,3.088-1.128a3.891,3.891,0,0,0,1.417-.81c.365-.345.732-.689,1.09-1.042a16.286,16.286,0,0,0,4.021-6.544,16.367,16.367,0,0,0,.738-4.61A1.248,1.248,0,0,1,28.2,87.831a7.9,7.9,0,0,1,4.476,1.674,12.781,12.781,0,0,1,4.412,6.969c.179.641.313,1.295.474,1.97l2.3-.148m-.027,2.467-.047-.058c-1.01.08-2.021.148-3.029.245-1.074.1-2.15.2-3.216.359-1.431.219-2.853.506-4.28.756a59.083,59.083,0,0,0-6.783,1.68c-1.172.352-2.315.8-3.468,1.211a50.676,50.676,0,0,0-6.485,2.884,46.58,46.58,0,0,0-7.386,4.789c-.294.234-.582.477-.916.751H34.148a19.166,19.166,0,0,1,5.685-12.617M46.354,113.4c.062-.3.126-.568.175-.841a10.466,10.466,0,0,1,3.226-5.855.606.606,0,0,0,.217-.478,5.7,5.7,0,0,1,.3-2.029,5.98,5.98,0,0,1,4.334-3.96c.171-.043.345-.08.511-.137a.327.327,0,0,0,.172-.142c.257-.5.468-1.031.763-1.509a7.278,7.278,0,0,1,2.236-2.191.5.5,0,0,0,.224-.316c.021-.648.011-1.3.011-2.021a48.166,48.166,0,0,0-10.009,3.614c.112.328.225.65.332.975a1.125,1.125,0,0,1-.386,1.253,1.083,1.083,0,0,1-1.238.206,1.267,1.267,0,0,1-.744-1c-.051-.238-.147-.238-.327-.126a25.034,25.034,0,0,0-4.933,3.948,16.535,16.535,0,0,0-4.644,10.288c-.022.257.037.332.305.331,3.062-.01,6.125-.006,9.187-.006ZM29.245,83.049c.1.021.134.033.17.036a10.581,10.581,0,0,1,3.9,1.268,15.74,15.74,0,0,1,5.918,5.711,22.768,22.768,0,0,1,3,7.929c.031.162.1.248.258.206a2.313,2.313,0,0,0,.618-.226c.82-.511,1.627-1.044,2.441-1.566a.233.233,0,0,0,.112-.32c-.181-.546-.341-1.1-.5-1.651q-.627-2.11-1.251-4.221-.725-2.459-1.445-4.919c-.2-.686-.415-1.368-.6-2.059-.05-.192-.111-.248-.306-.252a23.2,23.2,0,0,1-7.636-1.279A12.1,12.1,0,0,1,29.782,79.3c-.078-.072-.164-.137-.309-.258l-.228,4.009m37.643-.765a3.744,3.744,0,0,0,.258-.342,6.962,6.962,0,0,0,1.072-3.673,1.364,1.364,0,0,1,.555-1.19,1.048,1.048,0,0,1,1.135-.106,1.093,1.093,0,0,1,.7.935,9.015,9.015,0,0,1-.859,4.195l-.428.918.606-.064a4.912,4.912,0,0,0,4.32-3.925,4.744,4.744,0,0,0-.475-2.975,36.083,36.083,0,0,0-3.518-5.88.855.855,0,0,0-.128-.115,9.7,9.7,0,0,1-2.628,3.59c-.671.618-1.339,1.24-1.972,1.9a3.706,3.706,0,0,0-.922,3.185,4.82,4.82,0,0,0,2.28,3.552M52.472,72.543a4.88,4.88,0,0,0,2.207-2.964,4.066,4.066,0,0,0-.164-2.784,5.863,5.863,0,0,0-1.4-1.757c-.637-.6-1.292-1.18-1.907-1.8a7.415,7.415,0,0,1-1.842-2.729,1.282,1.282,0,0,0-.142-.223A36.6,36.6,0,0,0,45.5,66.54,4.718,4.718,0,0,0,48.454,73a9.471,9.471,0,0,0,1.618.238c-.061-.138-.075-.181-.1-.218a7.9,7.9,0,0,1-1.024-2.81,17.4,17.4,0,0,1-.23-1.793,1.208,1.208,0,0,1,1.165-1.251,1.118,1.118,0,0,1,1.23,1.066c.054.358.067.721.109,1.081a6.857,6.857,0,0,0,1.246,3.234M58.726,61.33c.1-.257.2-.458.269-.669a9.591,9.591,0,0,1,2.232-3.627,1.275,1.275,0,0,1,1.034-.391,1.066,1.066,0,0,1,.972.684,1.026,1.026,0,0,1-.119,1.13c-.127.161-.252.324-.392.473a7.429,7.429,0,0,0-1.745,3.353c-.05.2.019.253.188.274a5.258,5.258,0,0,0,3.361-.495,3.752,3.752,0,0,0,2.142-3.181c.044-.983-.023-1.972-.058-2.958a9.3,9.3,0,0,1,.5-3.734c.065-.169.122-.341.2-.568-.319.059-.58.11-.842.156a31.182,31.182,0,0,0-6.317,1.671,4.077,4.077,0,0,0-1.741,1.171,4.8,4.8,0,0,0-.834,5,4.707,4.707,0,0,0,1.151,1.716M75.519,91.516c-1.157.062-2.293.076-3.418.193-2.089.217-4.175.464-6.255.755-1.554.217-3.1.524-4.643.784-.227.038-.3.135-.292.372.021.455.013.912-.008,1.367-.01.214.05.242.252.219a7.269,7.269,0,0,1,6.122,2.138c.131.127.268.249.4.371l.145-.09A7.387,7.387,0,0,1,72.2,96.393a10.356,10.356,0,0,1,3.314.4ZM35.106,98.7c.016-.058.028-.078.025-.093a15.907,15.907,0,0,0-1.31-4.069,8.367,8.367,0,0,0-3.079-3.487,17.556,17.556,0,0,0-1.6-.738,18.774,18.774,0,0,1-4.059,10.166A81.1,81.1,0,0,1,35.106,98.7M21.833,68.643l-.063-.088a5.854,5.854,0,0,0-.8.382,5.889,5.889,0,0,0-2.652,4.7c-.056.751-.087,1.5-.175,2.252a9.386,9.386,0,0,1-1.18,3.75c-.4.667-.881,1.281-1.344,1.944a5.762,5.762,0,0,0,3.845,1.406.689.689,0,0,0,.031-.105c.127-1.614.215-3.232.39-4.841.177-1.625.4-3.247.68-4.856a22.223,22.223,0,0,1,1.112-4.167c.049-.126.1-.251.154-.376m-2.585-1.5c-.313,0-.664.008-1.015,0a1.7,1.7,0,0,0-1.358.595,3.882,3.882,0,0,0-1.013,2.45c-.034.541-.03.536.481.679.141.039.182,0,.248-.125A16.018,16.018,0,0,1,17.7,68.815a19.539,19.539,0,0,1,1.549-1.672M14.621,78.83c1.187-1.683,1.153-3.647,1.254-5.581a11.019,11.019,0,0,0-1.254,5.581" transform="translate(0 -37.904)" fill="#7d3a1b"/>
            <path id="Path_877068" data-name="Path 877068" d="M33.337,26.984A6.125,6.125,0,0,1,39.409,33.1a6.081,6.081,0,1,1-12.163-.024,6.134,6.134,0,0,1,6.091-6.092m.008,9.784a3.657,3.657,0,0,0,3.648-3.722,3.672,3.672,0,1,0-7.343.1,3.625,3.625,0,0,0,3.7,3.62" transform="translate(-21.142 -20.939)" fill="#7d3a1b"/>
            <path id="Path_877069" data-name="Path 877069" d="M114.905,65.128a6.085,6.085,0,0,1-.069,12.17,6.085,6.085,0,0,1,.069-12.17m-3.68,6.116a3.552,3.552,0,0,0,3.668,3.625,3.666,3.666,0,1,0-3.668-3.625" transform="translate(-84.419 -50.537)" fill="#7d3a1b"/>
            <path id="Path_877070" data-name="Path 877070" d="M2.152,51.309c-.362-.025-.717-.024-1.063-.078A1.136,1.136,0,0,1,.031,50.091a1.083,1.083,0,0,1,.944-1.169A11.55,11.55,0,0,1,3.3,48.916a1.06,1.06,0,0,1,.934,1.141,1.117,1.117,0,0,1-1.008,1.171c-.356.056-.72.056-1.073.081" transform="translate(-0.02 -37.914)" fill="#7d3a1b"/>
            <path id="Path_877071" data-name="Path 877071" d="M91.932,51.3c-.364-.025-.73-.022-1.086-.079A1.12,1.12,0,0,1,89.8,50.069a1.09,1.09,0,0,1,.96-1.162,11.486,11.486,0,0,1,2.3,0A1.075,1.075,0,0,1,94,50.08a1.115,1.115,0,0,1-1.014,1.141c-.347.056-.7.055-1.054.08" transform="translate(-69.68 -37.906)" fill="#7d3a1b"/>
            <path id="Path_877072" data-name="Path 877072" d="M51.348,91.912a9.539,9.539,0,0,1-.086,1.075,1.181,1.181,0,0,1-2.292.1,2.062,2.062,0,0,1-.1-.6,14.349,14.349,0,0,1,.057-1.7,1.183,1.183,0,0,1,2.346.007c.056.356.05.721.074,1.117" transform="translate(-37.922 -69.651)" fill="#7d3a1b"/>
            <path id="Path_877073" data-name="Path 877073" d="M51.349,2.138a9.838,9.838,0,0,1-.086,1.085,1.182,1.182,0,0,1-2.292.109,2.038,2.038,0,0,1-.1-.6,14.639,14.639,0,0,1,.056-1.7,1.182,1.182,0,0,1,2.345-.005c.055.356.052.721.076,1.107" transform="translate(-37.922 0)" fill="#7d3a1b"/>
            <path id="Path_877074" data-name="Path 877074" d="M81.511,80.014a1.347,1.347,0,0,1-.687,1.185.922.922,0,0,1-1.123-.043,20.5,20.5,0,0,1-1.722-1.7,1.084,1.084,0,0,1,.245-1.5,1.055,1.055,0,0,1,1.445-.064c.509.462,1,.948,1.463,1.454a3.068,3.068,0,0,1,.38.665" transform="translate(-60.347 -60.244)" fill="#7d3a1b"/>
            <path id="Path_877075" data-name="Path 877075" d="M18.094,16.573a1.26,1.26,0,0,1-.781,1.206.99.99,0,0,1-1.181-.209c-.492-.48-1-.944-1.448-1.466a1.132,1.132,0,0,1,.434-1.827.888.888,0,0,1,1.025.071c.615.562,1.2,1.156,1.775,1.762a1.13,1.13,0,0,1,.176.462" transform="translate(-11.16 -10.979)" fill="#7d3a1b"/>
            <path id="Path_877076" data-name="Path 877076" d="M18.185,78.9a2.425,2.425,0,0,1-.3.629c-.474.521-.97,1.026-1.485,1.506a1.019,1.019,0,0,1-1.256.2,1.132,1.132,0,0,1-.7-1.161,1.494,1.494,0,0,1,.371-.75c.412-.465.869-.89,1.314-1.325a1.036,1.036,0,0,1,1.25-.239,1.385,1.385,0,0,1,.809,1.143" transform="translate(-11.199 -60.243)" fill="#7d3a1b"/>
            <path id="Path_877077" data-name="Path 877077" d="M79.129,17.922a1.251,1.251,0,0,1-1.175-.728,1.059,1.059,0,0,1,.2-1.262c.447-.459.891-.922,1.357-1.361a1.167,1.167,0,0,1,2,.688.982.982,0,0,1-.177.722c-.554.62-1.153,1.2-1.759,1.775a1.1,1.1,0,0,1-.449.167" transform="translate(-60.394 -11.016)" fill="#7d3a1b"/>
          </g>
        </g>
      </g>
    </g>
  </g>
</svg>
