<svg xmlns="http://www.w3.org/2000/svg" xmlns:xlink="http://www.w3.org/1999/xlink" width="145" height="145" viewBox="0 0 145 145">
  <defs>
    <clipPath id="clip-path">
      <rect id="Rectangle_400938" data-name="Rectangle 400938" width="145" height="145" transform="translate(0 -0.281)" fill="none"/>
    </clipPath>
    <clipPath id="clip-path-2">
      <rect id="Rectangle_401073" data-name="Rectangle 401073" width="110.228" height="49.642" fill="#7d3a1b"/>
    </clipPath>
    <clipPath id="clip-path-3">
      <rect id="Rectangle_402001" data-name="Rectangle 402001" width="78" height="77.968" fill="#6a4d23"/>
    </clipPath>
  </defs>
  <g id="Group_1100314" data-name="Group 1100314" transform="translate(-1148 -1779)">
    <g id="Group_1099561" data-name="Group 1099561" transform="translate(973 -7761.719)">
      <g id="Group_1099404" data-name="Group 1099404" transform="translate(175 9541)">
        <g id="Group_1099379" data-name="Group 1099379" transform="translate(0 0)">
          <rect id="Rectangle_401103" data-name="Rectangle 401103" width="145" height="145" transform="translate(0 -0.281)" fill="none"/>
          <g id="Group_1099348" data-name="Group 1099348" transform="translate(0.045 0.045)">
            <g id="Group_1099282" data-name="Group 1099282">
              <g id="Group_1099281" data-name="Group 1099281" clip-path="url(#clip-path-2)">
                <path id="Path_873375" data-name="Path 873375" d="M89.413,10.879c-4.947,0-7.506-2.426-9.765-4.567C77.431,4.213,75.522,2.4,71.529,2.4s-5.9,1.814-8.118,3.913c-2.259,2.141-4.814,4.567-9.765,4.567S46.14,8.453,43.881,6.312C41.664,4.213,39.755,2.4,35.763,2.4s-5.9,1.814-8.114,3.913c-2.259,2.141-4.818,4.567-9.765,4.567s-7.51-2.426-9.769-4.567C5.9,4.213,3.993,2.4,0,2.4V0C4.947,0,7.506,2.43,9.765,4.567c2.217,2.1,4.126,3.913,8.118,3.913S23.785,6.67,26,4.571C28.253,2.43,30.816,0,35.763,0s7.51,2.43,9.765,4.567c2.217,2.1,4.126,3.913,8.118,3.913s5.9-1.81,8.118-3.913C64.019,2.43,66.582,0,71.529,0s7.51,2.43,9.765,4.567c2.217,2.1,4.126,3.913,8.118,3.913s5.9-1.81,8.118-3.913C99.786,2.43,102.345,0,107.3,0V2.4c-3.993,0-5.9,1.814-8.118,3.913-2.259,2.141-4.818,4.567-9.765,4.567" transform="translate(2.932 38.763)" fill="#7d3a1b"/>
                <path id="Path_873376" data-name="Path 873376" d="M89.413,10.879c-4.947,0-7.51-2.426-9.765-4.571C77.431,4.209,75.522,2.4,71.529,2.4s-5.9,1.81-8.118,3.909c-2.255,2.145-4.814,4.571-9.765,4.571s-7.51-2.426-9.765-4.571C41.664,4.209,39.755,2.4,35.763,2.4s-5.9,1.814-8.115,3.909c-2.259,2.145-4.818,4.571-9.765,4.571s-7.51-2.426-9.769-4.571C5.9,4.209,3.993,2.4,0,2.4V0C4.947,0,7.51,2.426,9.765,4.567c2.217,2.1,4.126,3.913,8.118,3.913S23.785,6.67,26,4.567C28.253,2.426,30.816,0,35.763,0s7.51,2.426,9.769,4.567c2.213,2.1,4.122,3.913,8.115,3.913s5.9-1.81,8.118-3.913C64.019,2.426,66.582,0,71.529,0s7.51,2.426,9.765,4.567c2.217,2.1,4.126,3.913,8.118,3.913s5.9-1.81,8.118-3.913C99.79,2.426,102.349,0,107.3,0V2.4c-3.993,0-5.905,1.814-8.122,3.909-2.259,2.145-4.818,4.571-9.765,4.571" transform="translate(1.955 25.842)" fill="#7d3a1b"/>
                <path id="Path_873377" data-name="Path 873377" d="M89.412,10.879c-4.947,0-7.51-2.426-9.765-4.571C77.431,4.209,75.522,2.4,71.529,2.4s-5.9,1.81-8.118,3.909c-2.255,2.145-4.818,4.571-9.765,4.571s-7.51-2.426-9.765-4.571C41.664,4.209,39.755,2.4,35.763,2.4s-5.9,1.814-8.115,3.909c-2.259,2.145-4.818,4.571-9.765,4.571s-7.51-2.426-9.769-4.571C5.9,4.209,3.993,2.4,0,2.4V0C4.947,0,7.51,2.426,9.765,4.567c2.213,2.1,4.126,3.913,8.118,3.913S23.785,6.67,26,4.567C28.253,2.426,30.816,0,35.763,0s7.51,2.426,9.769,4.567c2.213,2.1,4.122,3.913,8.115,3.913s5.9-1.81,8.118-3.913C64.019,2.426,66.582,0,71.529,0s7.51,2.426,9.765,4.567c2.217,2.1,4.126,3.913,8.118,3.913s5.9-1.81,8.118-3.913C99.79,2.426,102.345,0,107.3,0V2.4c-3.993,0-5.905,1.814-8.122,3.909-2.259,2.145-4.818,4.571-9.765,4.571" transform="translate(0.977 12.921)" fill="#7d3a1b"/>
                <path id="Path_873378" data-name="Path 873378" d="M89.413,10.875c-4.947,0-7.506-2.426-9.765-4.567C77.431,4.209,75.522,2.4,71.529,2.4s-5.9,1.81-8.115,3.909c-2.259,2.141-4.818,4.567-9.769,4.567S46.14,8.449,43.881,6.308C41.664,4.209,39.755,2.4,35.763,2.4s-5.9,1.81-8.115,3.905c-2.255,2.145-4.818,4.571-9.765,4.571s-7.51-2.426-9.769-4.567C5.9,4.209,3.993,2.4,0,2.4V0C4.947,0,7.51,2.426,9.765,4.567c2.217,2.1,4.126,3.909,8.118,3.909s5.9-1.81,8.115-3.909C28.257,2.426,30.816,0,35.763,0s7.506,2.426,9.769,4.567c2.213,2.1,4.122,3.909,8.115,3.909s5.9-1.81,8.118-3.909C64.023,2.426,66.582,0,71.529,0s7.506,2.426,9.765,4.567c2.217,2.1,4.126,3.909,8.118,3.909s5.9-1.81,8.118-3.909C99.79,2.426,102.349,0,107.3,0V2.4c-4,0-5.905,1.81-8.122,3.909-2.259,2.141-4.818,4.567-9.765,4.567" transform="translate(0 0.004)" fill="#7d3a1b"/>
              </g>
            </g>
          </g>
          <path id="Path_873425" data-name="Path 873425" d="M60.362,0A60.362,60.362,0,1,1,0,60.362,60.362,60.362,0,0,1,60.362,0Z" transform="translate(17.974 21.56)" fill="#efb499"/>
          <circle id="Ellipse_11503" data-name="Ellipse 11503" cx="63" cy="63" r="63" transform="translate(9 9.719)" fill="#fef7eb"/>
        </g>
      </g>
      <g id="Group_1099405" data-name="Group 1099405" transform="translate(206.234 9571.193)">
        <g id="Group_1099389" data-name="Group 1099389" transform="translate(0 0)">
          <rect id="Rectangle_401104" data-name="Rectangle 401104" width="81" height="83" transform="translate(-0.234 -0.475)" fill="none"/>
        </g>
        <g id="Group_1099874" data-name="Group 1099874" transform="translate(1.766 2.526)">
          <g id="Group_1099873" data-name="Group 1099873" clip-path="url(#clip-path-3)">
            <path id="Path_876759" data-name="Path 876759" d="M0,38.955A39,39,0,1,1,38.294,77.963,39.033,39.033,0,0,1,0,38.955M38.995,3.045A35.95,35.95,0,1,0,74.98,39.115,35.966,35.966,0,0,0,38.995,3.045" transform="translate(0 0)" fill="#6a4d23"/>
            <path id="Path_876760" data-name="Path 876760" d="M61.772,101.009c-.4.453-.777.911-1.186,1.341a10.816,10.816,0,0,1-2.152,1.769,1.4,1.4,0,0,1-1.969-.31,11.5,11.5,0,0,1-2.165-4.4,13.548,13.548,0,0,1-.415-2.159A2.363,2.363,0,0,0,51.711,95a16.713,16.713,0,0,1-3.389-.782,11.974,11.974,0,0,1-3.109-1.674,1.487,1.487,0,0,1-.394-2.221,11.7,11.7,0,0,1,2.545-2.8c.071-.058.142-.118.224-.186-.107-.26-.215-.516-.319-.772a27.411,27.411,0,0,1-1.423-4.688,28.191,28.191,0,0,1-.6-6.658,28.978,28.978,0,0,1,3.5-12.68,28.22,28.22,0,0,1,8.391-9.438,27.807,27.807,0,0,1,6.428-3.435,30.632,30.632,0,0,1,5.426-1.462,29.128,29.128,0,0,1,5.979-.348,23.571,23.571,0,0,1,4.639.63,25.742,25.742,0,0,1,6.959,2.572,2.825,2.825,0,0,0,1.825.222,42.371,42.371,0,0,1,4.227-.347,5.225,5.225,0,0,1,5.235,4.208,7.328,7.328,0,0,1,.09,1.776c-.04.994-.132,1.987-.22,2.978-.028.323-.128.639-.161.962a.836.836,0,0,0,.075.491,28.114,28.114,0,0,1,2.534,5.3,30.356,30.356,0,0,1,1.192,4.521,27.058,27.058,0,0,1,.44,5.3,28.977,28.977,0,0,1-5.087,15.806,27.42,27.42,0,0,1-9.68,8.642c-.573.308-1.167.576-1.737.889a1.714,1.714,0,0,0-.542.458,13.532,13.532,0,0,1-9.04,5.476,13.832,13.832,0,0,1-13.862-6.611c-.028-.046-.059-.09-.085-.128M77.319,57.917c-.184.115-.307.2-.436.27a33.262,33.262,0,0,0-4.153,2.719A33.88,33.88,0,0,0,62.547,73.579,32.94,32.94,0,0,0,59.8,82.615a45.992,45.992,0,0,0-.388,4.671,2.044,2.044,0,0,0,1.04,1.89c.365.23.322.228.515-.166.363-.742.735-1.48,1.139-2.2a1.369,1.369,0,0,1,1.125-.73,1.909,1.909,0,0,1,1.224.384c1.075.7,2.156,1.395,3.234,2.093a.817.817,0,0,0,.707.142c.627-.172,1.265-.3,1.892-.472a32.19,32.19,0,0,0,8.366-3.621A33.938,33.938,0,0,0,90.673,72.146c.117-.208.217-.426.335-.658A24.515,24.515,0,0,1,77.319,57.917m5.153-5.358C81.5,51.9,76.123,50.551,71.8,50.9A25.271,25.271,0,0,0,50.189,85.734a16.368,16.368,0,0,1,6.16-1.627c.158-.01.233-.054.253-.22.076-.646.133-1.3.251-1.936a42.072,42.072,0,0,1,1.316-5.384,35.125,35.125,0,0,1,2.32-5.578c.479-.9,1.007-1.781,1.521-2.665a.864.864,0,0,0,.125-.834,5.772,5.772,0,0,0-3.583-3.443c-.369-.127-.756-.205-1.116-.353A1.464,1.464,0,0,1,57,61.289a3.819,3.819,0,0,1,.433-.352A25.389,25.389,0,0,1,65.6,57.111a21.338,21.338,0,0,1,5.178-.766c.865-.012,1.732-.033,2.6,0a1.855,1.855,0,0,0,1.129-.233,33.97,33.97,0,0,1,6.666-3.092c.439-.147.873-.31,1.308-.466M71.567,91c.175.122.328.238.489.341Q78.024,95.171,84,98.993a.324.324,0,0,0,.268.019c.344-.163.678-.346,1.015-.524a25.142,25.142,0,0,0,12.093-13.98,25.438,25.438,0,0,0,1.316-6.374,24.922,24.922,0,0,0-.635-8.088,23.431,23.431,0,0,0-1.326-3.928,2.193,2.193,0,0,0-.193-.288c-.04.1-.061.138-.074.181a30.83,30.83,0,0,1-1.732,4.674c-.631,1.3-1.326,2.578-2.008,3.857a1.365,1.365,0,0,0-.184.822,11.962,11.962,0,0,1,.1,1.307,25.372,25.372,0,0,1-.477,4.826,25.735,25.735,0,0,1-1.8,5.7,26.375,26.375,0,0,1-2.549,4.414,1.44,1.44,0,0,1-1.553.7,1.545,1.545,0,0,1-1.222-1.27,5.777,5.777,0,0,0-.153-.594,5.979,5.979,0,0,0-3.106-3.56,1.119,1.119,0,0,0-1.3.062A28.783,28.783,0,0,1,75.9,89.391c-.961.419-1.954.765-2.936,1.133-.449.169-.908.312-1.4.478M91.878,54.027a22.131,22.131,0,0,0-4.435.464c-1.12.228-2.25.428-3.345.745-1.273.369-2.512.857-3.77,1.28-.221.075-.252.175-.166.369.154.348.293.7.449,1.049a19.534,19.534,0,0,0,3.594,5.354,21.846,21.846,0,0,0,7.814,5.356c.226.092.311.078.407-.155a31.91,31.91,0,0,0,2.042-7.169c.267-1.677.347-3.385.49-5.082a2.133,2.133,0,0,0-1.716-2.2,9.147,9.147,0,0,0-1.363-.011M57.983,100.688a.857.857,0,0,0,.123-.076,9.894,9.894,0,0,0,2.172-2.948.452.452,0,0,0,.033-.241c-.093-.671-.2-1.34-.289-2.012a9.153,9.153,0,0,1,.027-2.836.277.277,0,0,0-.2-.359,5.456,5.456,0,0,1-2.318-1.692,5.343,5.343,0,0,1-1.167-3.134c-.007-.136.03-.288-.209-.258A14.867,14.867,0,0,0,51.522,88.4a11.237,11.237,0,0,0-3.355,2.438,1.216,1.216,0,0,0,.159.121,9.137,9.137,0,0,0,2.828.907,9.058,9.058,0,0,1,2.436.564,5.227,5.227,0,0,1,3.176,3.966,15.374,15.374,0,0,0,1,3.87c.065.14.139.276.214.424M76,97.425l-.082.065,1.456,6.752a10.821,10.821,0,0,0,4.454-3.083L76,97.425m-6.264-3.914c0-.035-.006-.069-.009-.1l-5.8-3.7a10.362,10.362,0,0,0-.96,5.3l6.764-1.5m-6.089,4.431a10.254,10.254,0,0,0,3.034,4.37l3.7-5.778-.048-.074-6.685,1.482m9.345.21-.072-.038-3.714,5.794a9.834,9.834,0,0,0,5.209.9L73,98.153m-8.74-33.125c.876-.971,1.714-1.954,2.611-2.879s1.867-1.8,2.789-2.689c-1.051-.31-7.842,1.814-8.3,2.627a9.134,9.134,0,0,1,2.9,2.941M86.845,87.559a20.911,20.911,0,0,0,2.531-8.213.885.885,0,0,0-.279.237,36.13,36.13,0,0,1-4.989,4.825c-.243.2-.244.215.021.392A8.91,8.91,0,0,1,86.1,86.566c.257.315.491.649.75.994" transform="translate(-34.516 -37.118)" fill="#6a4d23"/>
            <path id="Path_876761" data-name="Path 876761" d="M142.736,182.458c-.53,0-1.061,0-1.591,0a1.528,1.528,0,0,1-1.647-1.525c-.042-1.226-.039-2.455-.014-3.682a1.391,1.391,0,0,1,1.185-1.382,1.421,1.421,0,0,1,1.628.833,1.976,1.976,0,0,1,.137.728c.025.566.025,1.134.023,1.7,0,.187.065.232.247.23.623-.007,1.248-.024,1.868.019a1.544,1.544,0,0,1,1.418,1.319,1.569,1.569,0,0,1-1.581,1.758c-.558.008-1.116,0-1.675,0" transform="translate(-108.207 -136.426)" fill="#6a4d23"/>
            <path id="Path_876762" data-name="Path 876762" d="M177.165,148.021c-.558,0-1.117,0-1.675,0a1.416,1.416,0,0,1-1.324-.681,2.176,2.176,0,0,1-.26-.977c-.021-1.172-.01-2.344.026-3.516a1.409,1.409,0,0,1,1.576-1.344,1.351,1.351,0,0,1,1.387,1.375c.017.586.023,1.173.006,1.759-.008.274.053.37.351.362.6-.017,1.21,0,1.813.031a1.551,1.551,0,0,1,1.422,1.5,1.432,1.432,0,0,1-1.4,1.465c-.64.034-1.283.007-1.925.007Z" transform="translate(-134.919 -109.786)" fill="#6a4d23"/>
            <path id="Path_876763" data-name="Path 876763" d="M224.72,91.128a1.488,1.488,0,1,1,.041-2.975,1.464,1.464,0,0,1,1.468,1.5,1.438,1.438,0,0,1-1.509,1.477" transform="translate(-173.202 -68.395)" fill="#6a4d23"/>
          </g>
        </g>
      </g>
    </g>
  </g>
</svg>
