<svg id="Group_1099976" data-name="Group 1099976" xmlns="http://www.w3.org/2000/svg" xmlns:xlink="http://www.w3.org/1999/xlink" width="209.839" height="280.975" viewBox="0 0 209.839 280.975">
  <defs>
    <clipPath id="clip-path">
      <rect id="Rectangle_402042" data-name="Rectangle 402042" width="209.839" height="280.975" fill="none"/>
    </clipPath>
    <clipPath id="clip-path-3">
      <rect id="Rectangle_402026" data-name="Rectangle 402026" width="7.309" height="9.997" fill="none"/>
    </clipPath>
    <clipPath id="clip-path-4">
      <rect id="Rectangle_402027" data-name="Rectangle 402027" width="27.662" height="34.033" fill="none"/>
    </clipPath>
    <clipPath id="clip-path-6">
      <rect id="Rectangle_402029" data-name="Rectangle 402029" width="4.66" height="0.675" fill="none"/>
    </clipPath>
    <clipPath id="clip-path-7">
      <rect id="Rectangle_402030" data-name="Rectangle 402030" width="1.998" height="31.139" fill="none"/>
    </clipPath>
    <clipPath id="clip-path-8">
      <rect id="Rectangle_402031" data-name="Rectangle 402031" width="4.151" height="32.35" fill="none"/>
    </clipPath>
    <clipPath id="clip-path-9">
      <rect id="Rectangle_402032" data-name="Rectangle 402032" width="0.742" height="9.384" fill="none"/>
    </clipPath>
    <clipPath id="clip-path-10">
      <rect id="Rectangle_402033" data-name="Rectangle 402033" width="1.473" height="9.821" fill="none"/>
    </clipPath>
    <clipPath id="clip-path-11">
      <rect id="Rectangle_402034" data-name="Rectangle 402034" width="4.418" height="0.661" fill="none"/>
    </clipPath>
    <clipPath id="clip-path-12">
      <rect id="Rectangle_402035" data-name="Rectangle 402035" width="1.894" height="30.53" fill="none"/>
    </clipPath>
    <clipPath id="clip-path-13">
      <rect id="Rectangle_402036" data-name="Rectangle 402036" width="3.937" height="31.717" fill="none"/>
    </clipPath>
    <clipPath id="clip-path-14">
      <rect id="Rectangle_402037" data-name="Rectangle 402037" width="0.703" height="9.201" fill="none"/>
    </clipPath>
    <clipPath id="clip-path-15">
      <rect id="Rectangle_402038" data-name="Rectangle 402038" width="1.397" height="9.63" fill="none"/>
    </clipPath>
    <clipPath id="clip-path-16">
      <rect id="Rectangle_402039" data-name="Rectangle 402039" width="12.294" height="35.873" fill="none"/>
    </clipPath>
    <clipPath id="clip-path-17">
      <rect id="Rectangle_402040" data-name="Rectangle 402040" width="18.698" height="104.99" fill="none"/>
    </clipPath>
  </defs>
  <g id="Group_1099975" data-name="Group 1099975" clip-path="url(#clip-path)">
    <g id="Group_1099936" data-name="Group 1099936">
      <g id="Group_1099935" data-name="Group 1099935" clip-path="url(#clip-path)">
        <path id="Path_876982" data-name="Path 876982" d="M209.839,369.514c0-11.21-46.974-20.3-104.92-20.3S0,358.3,0,369.514s46.974,20.3,104.92,20.3,104.92-9.088,104.92-20.3" transform="translate(0 -108.838)" fill="#efb499"/>
        <path id="Path_876983" data-name="Path 876983" d="M94.017,343.5l.173,13.524s13.8,4.366,14.08,6.862l-26.21,1.277L80.926,344.1Z" transform="translate(-25.222 -107.055)" fill="#263238"/>
        <path id="Path_876984" data-name="Path 876984" d="M82.56,373.811l-.031-2.128,25.141-.429s1.192.451,1.1,1.28Z" transform="translate(-25.721 -115.707)" fill="#455a64"/>
        <path id="Path_876985" data-name="Path 876985" d="M99.754,362.875c0,.129-.635.217-1.245.659-.622.427-.92,1-1.039.952-.119-.019.034-.794.782-1.316s1.524-.414,1.5-.3" transform="translate(-30.366 -113.063)" fill="#fff"/>
        <path id="Path_876986" data-name="Path 876986" d="M104.129,364.356c.035.123-.509.368-.917.93-.425.551-.506,1.141-.634,1.141-.119.027-.244-.719.277-1.408s1.264-.785,1.273-.663" transform="translate(-31.937 -113.542)" fill="#fff"/>
        <path id="Path_876987" data-name="Path 876987" d="M107.3,368.026c-.115.033-.324-.6-.03-1.315s.879-1.025.939-.921c.077.1-.293.5-.526,1.089s-.257,1.128-.383,1.147" transform="translate(-33.385 -113.997)" fill="#fff"/>
        <path id="Path_876988" data-name="Path 876988" d="M99.019,358.267c-.048.12-.644-.029-1.365.056-.723.07-1.273.34-1.346.233-.078-.089.448-.589,1.3-.677s1.47.284,1.412.388" transform="translate(-30.013 -111.533)" fill="#fff"/>
        <path id="Path_876989" data-name="Path 876989" d="M48.335,344.681l-.318,16.36,3.48,13.013a1.677,1.677,0,0,1-2.772,1.651c-2.506-2.386-11.678-11.21-11.588-12.406.1-1.386-.81-17.28-.81-17.28Z" transform="translate(-11.322 -107.424)" fill="#263238"/>
        <path id="Path_876990" data-name="Path 876990" d="M50.565,384.062,37.5,370.124l0,.693a2.523,2.523,0,0,0,.6,1.635c1.044,1.217,4,4.516,10.936,11.183a1.678,1.678,0,0,0,1.524.427" transform="translate(-11.687 -115.354)" fill="#455a64"/>
        <path id="Path_876991" data-name="Path 876991" d="M51,379.152c.093.045.458-.814,1.43-1.278a5.109,5.109,0,0,1,1.883-.367c.014-.041-.193-.167-.577-.22a2.674,2.674,0,0,0-2.563,1.272c-.189.337-.214.579-.173.592" transform="translate(-15.891 -117.581)" fill="#fff"/>
        <path id="Path_876992" data-name="Path 876992" d="M52.712,382.653a13.734,13.734,0,0,1,1.447-.708,13.813,13.813,0,0,1,1.6-.212,1.861,1.861,0,0,0-1.7-.132c-.962.285-1.428,1.008-1.343,1.052" transform="translate(-16.425 -118.894)" fill="#fff"/>
        <path id="Path_876993" data-name="Path 876993" d="M47.843,375.059A16.689,16.689,0,0,1,50,373.814a16.783,16.783,0,0,1,2.426-.574,4.585,4.585,0,0,0-4.584,1.819" transform="translate(-14.909 -116.288)" fill="#fff"/>
        <path id="Path_876994" data-name="Path 876994" d="M47.381,368.385c.044.1.946-.283,2.123-.33,1.176-.063,2.11.233,2.144.132a3.238,3.238,0,0,0-2.161-.49,3.243,3.243,0,0,0-2.106.688" transform="translate(-14.766 -114.596)" fill="#fff"/>
        <path id="Path_876995" data-name="Path 876995" d="M47.34,361.374a8.188,8.188,0,0,1,2.2-.4,8.24,8.24,0,0,1,2.172.538c.027-.034-.153-.239-.531-.456a3.656,3.656,0,0,0-3.283-.1c-.391.193-.583.386-.558.422" transform="translate(-14.753 -112.389)" fill="#fff"/>
        <path id="Path_876996" data-name="Path 876996" d="M49.444,358.357a1.413,1.413,0,0,0,.02-.619,4.293,4.293,0,0,0-.5-1.62,1.908,1.908,0,0,0-.821-.907.675.675,0,0,0-.759.152,1.1,1.1,0,0,0-.256.74,2.37,2.37,0,0,0,2.084,2.185,2.749,2.749,0,0,0,2.7-1.448.957.957,0,0,0,.043-.793.662.662,0,0,0-.693-.348,2.348,2.348,0,0,0-1.077.564,4.806,4.806,0,0,0-1.112,1.275,1.471,1.471,0,0,0-.249.566,7.67,7.67,0,0,1,1.517-1.64,2.19,2.19,0,0,1,.95-.469.351.351,0,0,1,.379.187.651.651,0,0,1-.059.52,2.455,2.455,0,0,1-2.351,1.228,2.059,2.059,0,0,1-1.8-1.83.8.8,0,0,1,.157-.525.366.366,0,0,1,.418-.09,1.722,1.722,0,0,1,.709.756,6.34,6.34,0,0,1,.7,2.113" transform="translate(-14.689 -110.689)" fill="#fff"/>
        <path id="Path_876997" data-name="Path 876997" d="M85.816,161.339a41.989,41.989,0,0,1,3.23,17.462c-.078,3.99-6.769,119.687-6.769,119.687l-15.245.761L64.519,196.486l-1.232.323s-5.825,42.456-6.258,49.641c-.39,6.458-7.826,55.205-7.826,55.205l-13.89-.792,1.444-56.478L38.3,185.373a68.918,68.918,0,0,1,1.98-13.435l2.291-9.164Z" transform="translate(-11.006 -50.283)" fill="#263238"/>
        <path id="Path_876998" data-name="Path 876998" d="M52.616,60.414l-3.273,3.051S31.013,69.183,30.769,70.4,36,103.736,37.461,111.157s.837,16.2,2.662,21.672,39.588,4.016,45.24,2.279c2.792-.858,1.884-7.111,0-10.675-.972-1.838-2.4-8.166-2.277-13.4s3.65-35.77,2.555-37.108-12.259-6.238-14.693-6.36c0,0-1.845-3.4-2.338-3.634-2.674-1.276-14.413-4.007-15.995-3.52" transform="translate(-9.587 -18.811)" fill="#ffb937"/>
        <path id="Path_876999" data-name="Path 876999" d="M27.521,72.971l-.569.25a8.762,8.762,0,0,0-4.657,4.4c-1.825,3.528-10.1,39.177-9.733,43.921s10.691,11.68,12.524,10.828,8.16-7.422,6.457-9.368-5.11-5.6-5.11-5.6,5.307-20.2,5.4-23.36c.088-3.045-4.213-20.7-4.309-21.069" transform="translate(-3.911 -22.742)" fill="#ffb937"/>
        <path id="Path_877000" data-name="Path 877000" d="M106.762,101.421c0,.308,5.127,7.075,7.486,10.562s5.434,8.613,11.689,7.075,3.794-12.919,3.589-15.381-17.048-22.886-20.367-23.492-2.4,21.236-2.4,21.236" transform="translate(-33.237 -24.987)" fill="#ffb937"/>
        <path id="Path_877001" data-name="Path 877001" d="M68.148,76.414a3.857,3.857,0,0,1-.593-.4L65.926,74.9c-.7-.475-1.546-1.039-2.478-1.724a15.271,15.271,0,0,1-2.866-2.57l.286-.022-1.836,3.343-.958,1.731-.2.361-.125-.392a18.783,18.783,0,0,1-.718-8.062,16.586,16.586,0,0,1,.478-2.358,3.933,3.933,0,0,1,.287-.824,5.138,5.138,0,0,1-.163.855,21.769,21.769,0,0,0-.368,2.354,19.617,19.617,0,0,0,.823,7.926l-.324-.031.955-1.733,1.85-3.336.125-.225.162.2a15.7,15.7,0,0,0,2.77,2.544c.912.7,1.744,1.282,2.426,1.781s1.221.907,1.576,1.2a2.919,2.919,0,0,1,.522.487" transform="translate(-17.726 -20.066)" fill="#263238"/>
        <path id="Path_877002" data-name="Path 877002" d="M84.28,71.58a1.549,1.549,0,0,1-.073.507c-.07.324-.2.789-.387,1.364a25.373,25.373,0,0,1-1.947,4.485l-.21.37-.1-.419-.626-2.518c-.1-.431-.208-.854-.307-1.258l.3.081a18.96,18.96,0,0,1-2.647,1.85l-2.185,1.341c-.616.38-1.1.7-1.43.922a3.982,3.982,0,0,1-.509.352,6.963,6.963,0,0,1,1.81-1.472c.6-.41,1.331-.88,2.146-1.408a21.009,21.009,0,0,0,2.561-1.83l.229-.209.072.289.31,1.258c.213.88.419,1.729.612,2.521l-.315-.049a31.2,31.2,0,0,0,2.036-4.379c.435-1.12.621-1.808.664-1.8" transform="translate(-23.111 -22.309)" fill="#263238"/>
        <path id="Path_877003" data-name="Path 877003" d="M81.163,137.765a3.449,3.449,0,0,1-.067-.57q-.046-.61-.124-1.638c-.092-1.422-.263-3.478-.5-6.015-.473-5.075-1.363-12.061-2.515-19.755s-2.227-14.661-2.883-19.72c-.331-2.529-.58-4.578-.723-6l-.161-1.635a3.425,3.425,0,0,1-.032-.572,3.449,3.449,0,0,1,.1.564q.085.606.229,1.627c.2,1.447.486,3.481.835,5.98.719,5.048,1.832,12,2.987,19.7s2,14.7,2.413,19.785c.209,2.542.341,4.6.39,6.029q.036,1.031.057,1.642a3.409,3.409,0,0,1,0,.573" transform="translate(-23.109 -25.514)" fill="#263238"/>
        <path id="Path_877004" data-name="Path 877004" d="M20,136.279a3.088,3.088,0,0,1,1.165-.515,9.785,9.785,0,0,1,3.055-.341,10.562,10.562,0,0,1,3.025.54,2.762,2.762,0,0,1,1.13.592,12.206,12.206,0,0,1-1.2-.35,14.039,14.039,0,0,0-2.964-.425,12.686,12.686,0,0,0-2.98.229,8.348,8.348,0,0,1-1.227.269" transform="translate(-6.233 -42.204)" fill="#263238"/>
        <path id="Path_877005" data-name="Path 877005" d="M34.167,94.058c-.055,0-.129-.993-.3-2.594s-.478-3.8-.974-6.208-1.1-4.547-1.569-6.086-.8-2.481-.749-2.5a2.69,2.69,0,0,1,.308.633c.179.415.413,1.026.681,1.79a48.508,48.508,0,0,1,1.68,6.092,48.322,48.322,0,0,1,.875,6.258c.056.807.084,1.46.085,1.913a2.645,2.645,0,0,1-.032.7" transform="translate(-9.526 -23.895)" fill="#263238"/>
        <path id="Path_877006" data-name="Path 877006" d="M109.323,89.161a3.253,3.253,0,0,1,.078.777c.028.5.047,1.226.054,2.122.013,1.792-.053,4.272-.277,7s-.569,5.185-.876,6.951c-.153.883-.291,1.6-.4,2.085a3.2,3.2,0,0,1-.2.753,3.274,3.274,0,0,1,.067-.777q.118-.858.288-2.1c.242-1.772.543-4.224.769-6.942s.328-5.185.381-6.973q.035-1.251.06-2.119a3.264,3.264,0,0,1,.061-.778" transform="translate(-33.562 -27.788)" fill="#263238"/>
        <path id="Path_877007" data-name="Path 877007" d="M82.6,7.426l-.675-.2C74.512,5.436,68.857,10.73,67.277,18.186L62.857,45.6l7.428,10.89,7.294-7.168c.534-2.078.71-3.1.726-3.091,0,0,7.329,1.037,9.54-5.933,1.068-3.367,2.7-10.481,4.108-16.935A13.624,13.624,0,0,0,82.6,7.426" transform="translate(-19.59 -2.142)" fill="#ffc09d"/>
        <path id="Path_877008" data-name="Path 877008" d="M81.544,61.573a17.668,17.668,0,0,1-8.292-5.46s.594,5.927,7.767,7.416Z" transform="translate(-22.83 -17.488)" fill="#ff9b6c"/>
        <path id="Path_877009" data-name="Path 877009" d="M65.294,30.926c-.1-.088-4.376-2.881-5.675,1.948s4.42,5.792,4.571,5.658c.108-.095,1.1-7.606,1.1-7.606" transform="translate(-18.521 -9.363)" fill="#ffc09d"/>
        <path id="Path_877010" data-name="Path 877010" d="M63.75,36.341c-.017-.021-.1.036-.259.063a.873.873,0,0,1-.633-.156A2.156,2.156,0,0,1,62.4,34.12a2.87,2.87,0,0,1,.56-1.141,1.008,1.008,0,0,1,.807-.476.445.445,0,0,1,.434.365c.028.152-.028.24,0,.255s.125-.053.14-.263a.561.561,0,0,0-.109-.354.657.657,0,0,0-.432-.248,1.225,1.225,0,0,0-1.081.512,2.963,2.963,0,0,0-.654,1.268,2.262,2.262,0,0,0,.666,2.416.933.933,0,0,0,.8.079c.182-.079.236-.18.222-.193" transform="translate(-19.315 -10.05)" fill="#ff9b6c"/>
        <path id="Path_877011" data-name="Path 877011" d="M102.8,17.378a1.188,1.188,0,0,0-.356-.814,3.651,3.651,0,0,0-1.726-.783A10.53,10.53,0,0,1,96.6,13.473a5.234,5.234,0,0,0,1.546-.559,3.14,3.14,0,0,0,1.689-2.777.7.7,0,0,0-.253-.564c-.288-.181-.646.052-.931.237a2.7,2.7,0,0,1-2.738.374,4.443,4.443,0,0,1-1.688-1.041c-.015-.028-.028-.056-.043-.084-.181-.327-.359-.641-.535-.946v0h0a16.56,16.56,0,0,0-3.983-5.049A17,17,0,0,0,81.1,0a6.868,6.868,0,0,0-6.4,3.8,5.28,5.28,0,0,0-5-1.871l-.037-.03c-2.05.159-3.647,1.846-4.716,3.6-.058.1-.113.195-.17.292a7.683,7.683,0,0,1-3.181,1.775c-.209.056-.452.129-.53.331a.627.627,0,0,0,.186.584,3.856,3.856,0,0,0,1.342,1.039,8.68,8.68,0,0,1-.976,1.145c-.308.3-.675.66-.591,1.082a.816.816,0,0,0,.728.583,2.384,2.384,0,0,0,.977-.158L61.695,13.5a4.57,4.57,0,0,0,2.07.416c-.086,1.891-.684,5.273-.552,6.606a7.6,7.6,0,0,1,2.213.7c.761.5.04,1.9,1.242,1.772.612-.063,2.031-1.932,2.37-2.446A28.566,28.566,0,0,0,73.4,9.21a9.194,9.194,0,0,1,3.272-1.232l-.1.053c2.159-.15,4.575-.22,6.2,1.216,1.258,1.112,1.7,2.852,2.463,4.349A10.468,10.468,0,0,0,91.7,19.246c-.3,2.207-1.165,5.714-1.6,7.731l2.778-3.52,0,.017c.2-.2.377-.4.551-.606l.057-.061,0-.009a12.968,12.968,0,0,1,.866-.98l.015.022a1.287,1.287,0,0,0,2.266-1.169,2.9,2.9,0,0,0-.437-.766,2.037,2.037,0,0,0,1.741.993,1.6,1.6,0,0,0,1.5-1.229,1.359,1.359,0,0,0-.5-1.264,4.583,4.583,0,0,0,2.67.128c.574-.149,1.189-.483,1.19-1.154" transform="translate(-19.014 0)" fill="#263238"/>
        <path id="Path_877012" data-name="Path 877012" d="M77.688,7.573a6.312,6.312,0,0,0-.885.456,5.25,5.25,0,0,0-1.721,2.052,9.254,9.254,0,0,0-.668,1.746c-.179.65-.316,1.361-.465,2.108a19.283,19.283,0,0,1-.575,2.331,8.462,8.462,0,0,1-.491,1.179,2.632,2.632,0,0,1-.82,1.05,1.105,1.105,0,0,1-1.088.065,1.649,1.649,0,0,1-.76-.75,3.8,3.8,0,0,1-.193-1.981l.143.059A6.124,6.124,0,0,1,68.9,17.135a2.181,2.181,0,0,1-1.577.376,1.406,1.406,0,0,1-.694-.326,1.216,1.216,0,0,1-.363-.622,1.249,1.249,0,0,1,.02-.667.908.908,0,0,1,.376-.488l.056.087a4.716,4.716,0,0,1-1.826.727,4.259,4.259,0,0,1-.52.055.8.8,0,0,1-.18,0,.943.943,0,0,1,.178-.025c.117-.014.29-.035.512-.081a4.868,4.868,0,0,0,1.778-.758l.057.087a.937.937,0,0,0-.332,1.037,1.1,1.1,0,0,0,.33.553,1.275,1.275,0,0,0,.631.287,2.043,2.043,0,0,0,1.469-.366,6.065,6.065,0,0,0,1.22-1.224l.163-.2-.02.257a3.669,3.669,0,0,0,.183,1.892,1.479,1.479,0,0,0,.679.671.932.932,0,0,0,.925-.054,2.5,2.5,0,0,0,.761-.984,8.436,8.436,0,0,0,.483-1.154A19.54,19.54,0,0,0,73.8,13.9c.154-.747.3-1.459.484-2.116a9.214,9.214,0,0,1,.7-1.764,5.181,5.181,0,0,1,1.792-2.052,2.973,2.973,0,0,1,.921-.4" transform="translate(-20.008 -2.36)" fill="#455a64"/>
        <path id="Path_877013" data-name="Path 877013" d="M103.98,19.019a.276.276,0,0,1-.07.033l-.211.081a2.352,2.352,0,0,1-.351.111,3.874,3.874,0,0,1-.491.109,6.489,6.489,0,0,1-3.172-.276,8.3,8.3,0,0,1-3.836-2.731A14.368,14.368,0,0,1,93.33,11.13c-.282-1-.463-1.986-.7-2.921a9.7,9.7,0,0,0-1-2.579,5,5,0,0,0-1.7-1.788,3.561,3.561,0,0,0-1.039-.414,3.928,3.928,0,0,0-1.035-.078,4.24,4.24,0,0,0-2.791,1.305,5.042,5.042,0,0,0-.652.96.236.236,0,0,1,.025-.072l.092-.207a3.665,3.665,0,0,1,.485-.726A4.168,4.168,0,0,1,86.1,3.753a4.28,4.28,0,0,1,1.751-.524,4.072,4.072,0,0,1,1.07.07A3.7,3.7,0,0,1,90,3.721a5.118,5.118,0,0,1,1.764,1.83,9.774,9.774,0,0,1,1.022,2.617c.246.943.427,1.931.707,2.917a14.369,14.369,0,0,0,2.476,5.163,8.242,8.242,0,0,0,3.753,2.715,6.583,6.583,0,0,0,3.122.326,10.306,10.306,0,0,0,1.134-.268" transform="translate(-26.308 -1.004)" fill="#455a64"/>
        <path id="Path_877014" data-name="Path 877014" d="M37.268,117.013c.01.571,3.682,8.765,3.682,12.923a39.6,39.6,0,0,0,2.124,12.8c1.465,4.279,5.556,12.506,7.149,12.585,1.381.068,6.216.023,8.817-3.095a3.069,3.069,0,0,0,.487-3.054c-1.241-3.27-4.367-11.371-6.064-14.556-2.365-4.439-7.051-7.29-8.036-9.589s-3.574-8.663-4.177-9.648c-.639-1.043-4.012-.086-3.981,1.635" transform="translate(-11.615 -35.824)" fill="#455a64"/>
        <path id="Path_877015" data-name="Path 877015" d="M41.191,115.963c.216.508-.3,1.216-1.164,1.582s-1.73.25-1.947-.259.306-1.216,1.165-1.582,1.73-.249,1.947.259" transform="translate(-11.853 -35.994)" fill="#263238"/>
        <g id="Group_1099931" data-name="Group 1099931" transform="translate(25.653 79.121)" opacity="0.2">
          <g id="Group_1099930" data-name="Group 1099930">
            <g id="Group_1099929" data-name="Group 1099929" clip-path="url(#clip-path-3)">
              <path id="Path_877016" data-name="Path 877016" d="M44.577,123.01c-1.183-2.831-2.858-6.864-3.328-7.632-.639-1.043-4.012-.086-3.981,1.635.006.373,1.578,4.006,2.666,7.638A3.619,3.619,0,0,0,44.577,123.01Z" transform="translate(-37.267 -114.945)"/>
            </g>
          </g>
        </g>
        <path id="Path_877017" data-name="Path 877017" d="M58.355,141.306s.652,2.188-2.378,4.032l4.546,11.428s4.189-1.068,3.548-2.722c0,0-4.2-10.919-5.716-12.738" transform="translate(-17.446 -44.04)" fill="#e0e0e0"/>
        <path id="Path_877018" data-name="Path 877018" d="M30.378,150.693c.036.284,5.947,4.029,6.715,5.436s6.651,8.377,7.994,8.441,5.436.256,5.436-.639-1.151-.831-1.6-.959-4.373-1.166-4.118-1.23,5.427.156,6.243-1.066-.4-1.406-1.3-1.406-5.912-.195-6.488-.515,4.983-.927,7.208-1.441c1.442-.334.515-2.3-1.482-2.272-1.222.017-6.336-.36-7.168-.3a.523.523,0,0,1-.546-.315s5.7-.6,5.923-.726a1.284,1.284,0,0,0-.808-2.088c-1.406-.383-5.779-.79-6.035-1.174s-1.469-6.916-1.469-6.916-1.726,2.057-1.5,3.528c0,0-2.528-2.238-2.911-1.982s-4.412,3.133-4.093,5.627" transform="translate(-9.462 -44.73)" fill="#ffc09d"/>
        <path id="Path_877019" data-name="Path 877019" d="M113.139,79.237a8.439,8.439,0,0,1,1.475,3.484c.168,1.843-.335,4.86,1.509,6.62s3.6,2.347,4.022,3.687,1.341,8.966,1.592,10.223,8.8,6.2,8.883,4.525-2.682-18.938-2.682-18.938-.084-7.039,0-7.961-.167-2.358-2.179-1.64c0,0-1.257-2.573-3.352-1.1,0,0,.419-2.879-2.765-2.209,0,0,.586-2.011-1.508-2.011s-2.1,3.687-2.514,3.687-2.951-.515-2.481,1.628" transform="translate(-35.243 -23.039)" fill="#ffc09d"/>
        <g id="Group_1099934" data-name="Group 1099934" transform="translate(62.89 30.948)" opacity="0.7">
          <g id="Group_1099933" data-name="Group 1099933">
            <g id="Group_1099932" data-name="Group 1099932" clip-path="url(#clip-path-4)">
              <path id="Path_877020" data-name="Path 877020" d="M98.274,44.961l-3.312,2.323-.021-.03L91.365,49.79s4.893,11.779,6.481,12.581,6.1.2,6.84,1,8.272,11.28,8.149,11.577-4.514,4.471-2.341,4.016a11.865,11.865,0,0,0,5.2-2.489l-.01-.014a16.153,16.153,0,0,0,3.153-3.168c1.267-1.823-4.259.778-4.581.788s-7.508-10.716-8-11.685,1.658-4.988,1.461-6.756-9.449-10.675-9.449-10.675" transform="translate(-91.365 -44.961)" fill="#fff"/>
            </g>
          </g>
        </g>
        <path id="Path_877021" data-name="Path 877021" d="M98.219,44.961a1.163,1.163,0,0,1,.178.148l.5.461c.434.409,1.068,1.019,1.876,1.817s1.79,1.785,2.905,2.961a40.506,40.506,0,0,1,3.594,4.2,4.9,4.9,0,0,1,.4.689,1.352,1.352,0,0,1,.125.414,4.056,4.056,0,0,1,.006.419,7.82,7.82,0,0,1-.321,1.639c-.3,1.086-.73,2.179-1.038,3.334a5,5,0,0,0-.157.871,1.11,1.11,0,0,0,.049.389,3.464,3.464,0,0,0,.22.39c.326.529.675,1.062,1.028,1.6l2.212,3.32,2.377,3.469,1.26,1.772c.216.294.434.593.664.872.058.07.116.136.168.187,0-.01-.061-.021-.064-.01l.032-.01.121-.041.518-.2c.695-.278,1.4-.562,2.128-.81a9.8,9.8,0,0,1,1.127-.32,2.073,2.073,0,0,1,.635-.046.426.426,0,0,1,.374.271.594.594,0,0,1-.065.4,10.074,10.074,0,0,1-1.524,1.856,18.645,18.645,0,0,1-1.8,1.591l.037-.245.01.014.1.136-.131.107a12.108,12.108,0,0,1-4.306,2.283c-.268.074-.536.147-.807.2a2.33,2.33,0,0,1-.436.072.825.825,0,0,1-.264-.026.4.4,0,0,1-.255-.248.772.772,0,0,1,.072-.524,3.228,3.228,0,0,1,.209-.38,8.1,8.1,0,0,1,.487-.672c.677-.853,1.448-1.627,2.131-2.4a.377.377,0,0,1,.034-.042c-.033.023,0,.1-.024.045a1.55,1.55,0,0,0-.083-.158c-.061-.11-.13-.222-.2-.332l-.425-.659-.874-1.3-1.761-2.523c-1.172-1.655-2.325-3.263-3.462-4.807L104.933,64c-.142-.182-.288-.381-.432-.533a1.279,1.279,0,0,0-.553-.235,17.636,17.636,0,0,0-2.7-.217,17.439,17.439,0,0,1-2.651-.236,2.248,2.248,0,0,1-1.225-.555,6.759,6.759,0,0,1-.764-1.028A43.736,43.736,0,0,1,94.4,57.02c-1.28-2.7-2.322-5.126-3.179-7.192l-.03-.074.065-.045L94.846,47.2l.058-.041.041.057.02.029-.1-.017,2.494-1.7.642-.43a1.653,1.653,0,0,1,.216-.134,2.225,2.225,0,0,1-.218.171l-.634.465-2.42,1.744-.056.041-.041-.057-.021-.029.1.017-3.56,2.559.034-.118c.877,2.053,1.938,4.473,3.233,7.153a44.163,44.163,0,0,0,2.224,4.137c.678,1.737,2.666,1.554,4.405,1.662a17.573,17.573,0,0,1,2.76.216,1.515,1.515,0,0,1,.713.323c.177.189.308.372.458.561l.862,1.144q1.715,2.317,3.477,4.805l1.768,2.525.88,1.3.431.667c.071.114.141.226.208.347a1.886,1.886,0,0,1,.1.195.242.242,0,0,1,.028.081.319.319,0,0,1-.006.154.692.692,0,0,1-.081.12c-.719.816-1.463,1.56-2.13,2.4a7.87,7.87,0,0,0-.464.642,1.209,1.209,0,0,0-.245.6c-.019.008.043.043.168.032a2.076,2.076,0,0,0,.37-.063c.264-.056.525-.127.785-.2a11.755,11.755,0,0,0,4.184-2.219l-.034.244-.01-.014-.1-.14.136-.105a18.4,18.4,0,0,0,1.77-1.558A10.122,10.122,0,0,0,118.748,73a.384.384,0,0,0,.047-.154c.013.012-.016-.014-.089-.024a1.79,1.79,0,0,0-.514.042,9.369,9.369,0,0,0-1.084.307c-.717.242-1.416.522-2.113.8l-.527.2-.143.047a.554.554,0,0,1-.1.023.325.325,0,0,1-.184-.074,2.557,2.557,0,0,1-.205-.226c-.242-.295-.457-.593-.675-.89L111.9,71.274l-2.369-3.481-2.2-3.332c-.351-.543-.7-1.077-1.025-1.614a3.691,3.691,0,0,1-.236-.425,1.339,1.339,0,0,1-.072-.522,5.238,5.238,0,0,1,.171-.927c.322-1.182.754-2.265,1.06-3.336a7.571,7.571,0,0,0,.321-1.581,3.679,3.679,0,0,0,0-.38,1.1,1.1,0,0,0-.1-.339,4.661,4.661,0,0,0-.374-.655,41.619,41.619,0,0,0-3.532-4.2c-1.1-1.186-2.069-2.185-2.861-3l-1.83-1.861-.473-.485a1.255,1.255,0,0,1-.153-.173" transform="translate(-28.42 -14.012)" fill="#263238"/>
        <path id="Path_877022" data-name="Path 877022" d="M107.081,56.308,98.83,62.561a11.632,11.632,0,0,0,1.705,2.68,12.61,12.61,0,0,0,3.425.388l.227.008a4.348,4.348,0,0,0,4.28-2.971c0-.017.01-.032.016-.049a12.565,12.565,0,0,0,.834-3.347,14.07,14.07,0,0,0-2.236-2.963" transform="translate(-30.802 -17.549)" fill="#7d3a1b"/>
        <path id="Path_877023" data-name="Path 877023" d="M116.948,77.891c-.014.03-.222,2.347.288,2.857s1.88-.606,1.88-.606-.509,1.964,1.179,2.256,1.686-.59,1.686-.59-.125,2.01,1.373,2.2a1.55,1.55,0,0,0,1.784-1.185s-.361,2.581,1.174,2.549,2.713-3.951,2.554-4.4c-.078-.221-2.816-1.01-5.27-2.395-2.5-1.409-4.715-3.411-5.213-3.251-.988.319-1.435,2.565-1.435,2.565" transform="translate(-36.431 -23.473)" fill="#ffc09d"/>
      </g>
    </g>
    <g id="Group_1099974" data-name="Group 1099974">
      <g id="Group_1099973" data-name="Group 1099973" clip-path="url(#clip-path)">
        <path id="Path_877024" data-name="Path 877024" d="M161.825,150.241a.324.324,0,0,1-.045-.028,1.241,1.241,0,0,1-.577-1.048v-2.3l-1.083-1.806-1.109,1.19-1.11-1.19-1.083,1.806v2.3a1.242,1.242,0,0,1-.577,1.048l-.045.028c-.472.275-3.023,1.7-2.949,4.625s0,28.368,0,28.614c0,.519.485.55,1.269.656.6.081,3.078.12,4.209.135v.006l.284,0,.284,0v-.006c1.132-.014,3.61-.054,4.21-.135.783-.106,1.269-.137,1.269-.656,0-.246-.074-25.687,0-28.614a4.988,4.988,0,0,0-2.948-4.625" transform="translate(-47.761 -45.211)" fill="#455a64"/>
        <path id="Path_877025" data-name="Path 877025" d="M158.22,134.258a12.922,12.922,0,0,0,0,1.9,2.881,2.881,0,0,0,.138.273v6.928s.371-.312,2.338-.312V133.8a4.7,4.7,0,0,0-2.476.455" transform="translate(-49.3 -41.698)" fill="#263238"/>
        <path id="Path_877026" data-name="Path 877026" d="M163.885,134.258a12.912,12.912,0,0,1,0,1.9,2.882,2.882,0,0,1-.138.273v6.928s-.371-.312-2.338-.312V133.8a4.7,4.7,0,0,1,2.476.455" transform="translate(-50.305 -41.698)" fill="#263238"/>
        <path id="Path_877027" data-name="Path 877027" d="M158.436,144.337a7.311,7.311,0,0,1,4.386,0v1.086a7.789,7.789,0,0,0-4.385.034Z" transform="translate(-49.379 -44.88)" fill="#455a64"/>
        <g id="Group_1099939" data-name="Group 1099939" transform="translate(108.92 94.056)" opacity="0.3">
          <g id="Group_1099938" data-name="Group 1099938">
            <g id="Group_1099937" data-name="Group 1099937" clip-path="url(#clip-path-6)">
              <path id="Path_877028" data-name="Path 877028" d="M162.9,137.043a4.347,4.347,0,0,0-2.183-.4h-.293a4.347,4.347,0,0,0-2.183.4,2.8,2.8,0,0,0,.137.273,5.063,5.063,0,0,1,2.193-.389,5.943,5.943,0,0,1,2.192.389Z" transform="translate(-158.236 -136.642)"/>
            </g>
          </g>
        </g>
        <path id="Path_877029" data-name="Path 877029" d="M164.7,200.878a.116.116,0,0,1-.028,0l-.081.008-.313.025c-.272.021-.666.048-1.153.074-.974.054-2.321.105-3.81.113s-2.837-.03-3.812-.075c-.487-.022-.882-.044-1.154-.063l-.313-.022-.081-.008a.088.088,0,0,1-.028,0h.028l.082,0,.314.012,1.154.045c.975.034,2.322.065,3.81.058s2.835-.052,3.809-.1l1.154-.056.314-.015.081,0a.11.11,0,0,1,.028,0" transform="translate(-47.972 -62.606)" fill="#455a64"/>
        <g id="Group_1099942" data-name="Group 1099942" transform="translate(106.887 107.3)" opacity="0.3">
          <g id="Group_1099941" data-name="Group 1099941">
            <g id="Group_1099940" data-name="Group 1099940" clip-path="url(#clip-path-7)">
              <path id="Path_877030" data-name="Path 877030" d="M155.283,186.954s.067-28.672.1-29.315a3.423,3.423,0,0,1,.655-1.756l1.247.273a8.037,8.037,0,0,0-.375,2.157c-.052,1.259,0,28.709,0,28.709Z" transform="translate(-155.283 -155.883)" fill="#fff"/>
            </g>
          </g>
        </g>
        <g id="Group_1099945" data-name="Group 1099945" transform="translate(112.359 106.089)" opacity="0.2">
          <g id="Group_1099944" data-name="Group 1099944">
            <g id="Group_1099943" data-name="Group 1099943" clip-path="url(#clip-path-8)">
              <path id="Path_877031" data-name="Path 877031" d="M164.042,186.474s.092-27.945.14-28.574a2.073,2.073,0,0,0-.95-2.022l1.378-1.753s2.56.235,2.712,4.045c.136,3.421,0,28.188,0,28.188Z" transform="translate(-163.233 -154.124)" fill="#fff"/>
            </g>
          </g>
        </g>
        <g id="Group_1099948" data-name="Group 1099948" transform="translate(109.543 94.723)" opacity="0.2">
          <g id="Group_1099947" data-name="Group 1099947">
            <g id="Group_1099946" data-name="Group 1099946" clip-path="url(#clip-path-9)">
              <path id="Path_877032" data-name="Path 877032" d="M159.144,144.083c.089,0-.089,2.8.089,2.889s.6-.084.622-.084.054-9.233,0-9.269-.764.064-.711.2,0,6.265,0,6.265" transform="translate(-159.141 -137.611)" fill="#fff"/>
            </g>
          </g>
        </g>
        <g id="Group_1099951" data-name="Group 1099951" transform="translate(111.786 94.682)" opacity="0.2">
          <g id="Group_1099950" data-name="Group 1099950">
            <g id="Group_1099949" data-name="Group 1099949" clip-path="url(#clip-path-10)">
              <path id="Path_877033" data-name="Path 877033" d="M162.587,137.554s.008,8.811-.028,9a.433.433,0,0,1-.16.268l1.049.555s.444.033.391-.689.1-8.855,0-8.923a2.791,2.791,0,0,0-1.248-.207" transform="translate(-162.4 -137.552)" fill="#fff"/>
            </g>
          </g>
        </g>
        <path id="Path_877034" data-name="Path 877034" d="M155.126,168.822s-.123,13.851,0,13.851a18.957,18.957,0,0,0,8.962,0V168.734a37.555,37.555,0,0,0-8.962.087" transform="translate(-48.33 -52.514)" fill="#fff"/>
        <path id="Path_877035" data-name="Path 877035" d="M162.947,172.355a40.543,40.543,0,0,0-5.141,0v-1.041a36.8,36.8,0,0,1,5.141,0Z" transform="translate(-49.182 -53.364)" fill="#e0e0e0"/>
        <path id="Path_877036" data-name="Path 877036" d="M158.892,186.046a30.526,30.526,0,0,0,3.871,0v.784a27.823,27.823,0,0,1-3.871,0Z" transform="translate(-49.521 -57.984)" fill="#e0e0e0"/>
        <path id="Path_877037" data-name="Path 877037" d="M181.862,148.609a.453.453,0,0,1-.043-.027,1.227,1.227,0,0,1-.547-1.028V145.3l-1.026-1.771-1.052,1.167-1.052-1.167-1.027,1.771v2.252a1.227,1.227,0,0,1-.547,1.028l-.043.027a5.238,5.238,0,0,0-2.8,4.535c.071,2.87,0,27.812,0,28.055,0,.509.46.539,1.2.643.569.079,2.919.118,3.992.132v.006l.269,0,.269,0v-.006c1.073-.014,3.424-.053,3.992-.132.743-.1,1.2-.134,1.2-.643,0-.242-.071-25.185,0-28.055a4.886,4.886,0,0,0-2.8-4.535" transform="translate(-54.144 -44.733)" fill="#263238"/>
        <path id="Path_877038" data-name="Path 877038" d="M178.443,132.939a12.99,12.99,0,0,0,0,1.861c.052.127.13.268.13.268v6.792s.352-.306,2.218-.306v-9.061a4.326,4.326,0,0,0-2.348.446" transform="translate(-55.604 -41.29)" fill="#ff725e"/>
        <path id="Path_877039" data-name="Path 877039" d="M183.815,132.939a13.2,13.2,0,0,1,0,1.861c-.053.127-.131.268-.131.268v6.792s-.352-.306-2.218-.306v-9.061a4.329,4.329,0,0,1,2.349.446" transform="translate(-56.556 -41.29)" fill="#ff725e"/>
        <path id="Path_877040" data-name="Path 877040" d="M178.648,142.821a6.722,6.722,0,0,1,4.16,0l0,1.064a7.153,7.153,0,0,0-4.158.034Z" transform="translate(-55.678 -44.41)" fill="#263238"/>
        <g id="Group_1099954" data-name="Group 1099954" transform="translate(122.839 93.115)" opacity="0.3">
          <g id="Group_1099953" data-name="Group 1099953">
            <g id="Group_1099952" data-name="Group 1099952" clip-path="url(#clip-path-11)">
              <path id="Path_877041" data-name="Path 877041" d="M182.877,135.67a4.016,4.016,0,0,0-2.071-.392h-.277a4.011,4.011,0,0,0-2.071.392,2.857,2.857,0,0,0,.13.268,4.662,4.662,0,0,1,2.079-.381,5.465,5.465,0,0,1,2.079.381Z" transform="translate(-178.458 -135.276)"/>
            </g>
          </g>
        </g>
        <path id="Path_877042" data-name="Path 877042" d="M184.583,198.256a.1.1,0,0,1-.026,0l-.077.008-.3.025c-.258.021-.632.046-1.093.073-.924.053-2.2.1-3.614.111s-2.691-.03-3.615-.074c-.462-.022-.836-.043-1.094-.061l-.3-.022-.077-.007-.026,0s.009,0,.027,0h.077l.3.012,1.094.044c.924.034,2.2.064,3.613.057s2.687-.051,3.611-.094l1.094-.056.3-.014.077,0a.1.1,0,0,1,.027,0" transform="translate(-54.344 -61.789)" fill="#455a64"/>
        <g id="Group_1099957" data-name="Group 1099957" transform="translate(120.911 106.101)" opacity="0.3">
          <g id="Group_1099956" data-name="Group 1099956">
            <g id="Group_1099955" data-name="Group 1099955" clip-path="url(#clip-path-12)">
              <path id="Path_877043" data-name="Path 877043" d="M175.657,184.6s.064-28.111.09-28.742a3.416,3.416,0,0,1,.622-1.722l1.183.267a8.128,8.128,0,0,0-.355,2.115c-.05,1.234,0,28.147,0,28.147Z" transform="translate(-175.657 -154.141)" fill="#fff"/>
            </g>
          </g>
        </g>
        <g id="Group_1099960" data-name="Group 1099960" transform="translate(126.101 104.914)" opacity="0.2">
          <g id="Group_1099959" data-name="Group 1099959">
            <g id="Group_1099958" data-name="Group 1099958" clip-path="url(#clip-path-13)">
              <path id="Path_877044" data-name="Path 877044" d="M183.964,184.134s.087-27.4.133-28.015a2.063,2.063,0,0,0-.9-1.983l1.307-1.719s2.427.231,2.571,3.966c.13,3.354,0,27.637,0,27.637Z" transform="translate(-183.196 -152.417)" fill="#fff"/>
            </g>
          </g>
        </g>
        <g id="Group_1099963" data-name="Group 1099963" transform="translate(123.43 93.769)" opacity="0.2">
          <g id="Group_1099962" data-name="Group 1099962">
            <g id="Group_1099961" data-name="Group 1099961" clip-path="url(#clip-path-14)">
              <path id="Path_877045" data-name="Path 877045" d="M179.319,142.571c.084,0-.085,2.751.084,2.833s.573-.082.591-.082.05-9.052,0-9.088-.726.063-.675.195,0,6.143,0,6.143" transform="translate(-179.316 -136.226)" fill="#fff"/>
            </g>
          </g>
        </g>
        <g id="Group_1099966" data-name="Group 1099966" transform="translate(125.557 93.729)" opacity="0.2">
          <g id="Group_1099965" data-name="Group 1099965">
            <g id="Group_1099964" data-name="Group 1099964" clip-path="url(#clip-path-15)">
              <path id="Path_877046" data-name="Path 877046" d="M182.584,136.171s.008,8.639-.026,8.82a.426.426,0,0,1-.151.264l.995.544s.421.033.371-.675.1-8.681,0-8.749a2.565,2.565,0,0,0-1.183-.2" transform="translate(-182.406 -136.168)" fill="#fff"/>
            </g>
          </g>
        </g>
        <path id="Path_877047" data-name="Path 877047" d="M175.508,166.827s-.117,13.581,0,13.581a17.408,17.408,0,0,0,8.5,0V166.742a34.472,34.472,0,0,0-8.5.085" transform="translate(-54.683 -51.894)" fill="#fff"/>
        <path id="Path_877048" data-name="Path 877048" d="M182.925,170.291a37.3,37.3,0,0,0-4.875,0V169.27a33.973,33.973,0,0,1,4.875,0Z" transform="translate(-55.492 -52.728)" fill="#e0e0e0"/>
        <path id="Path_877049" data-name="Path 877049" d="M179.08,183.715a28.033,28.033,0,0,0,3.671,0v.768a25.407,25.407,0,0,1-3.671,0Z" transform="translate(-55.813 -57.257)" fill="#e0e0e0"/>
        <path id="Path_877050" data-name="Path 877050" d="M179.679,180.681a1.356,1.356,0,0,1,.277-.024c.182-.011.452-.024.8-.051a21.392,21.392,0,0,0,3-.448l-.065.078c-.028-3.044-.049-7.727-.056-13.133l.124.134c-1.195-.116-2.448-.187-3.726-.2a24.6,24.6,0,0,0-4.095.263l.114-.131c-.023,2.7-.046,5.218-.065,7.432-.008,1.106-.014,2.138-.021,3.082s-.01,1.8.006,2.548l-.06-.072a15.558,15.558,0,0,0,2.759.45c.324.025.575.036.743.047a1.206,1.206,0,0,1,.257.023,1.2,1.2,0,0,1-.257.019c-.169,0-.421.005-.748-.006a14.212,14.212,0,0,1-2.794-.382l-.057-.014,0-.058c-.031-.756-.038-1.61-.048-2.554s-.008-1.976-.012-3.083c0-2.214.005-4.727.025-7.433v-.112l.114-.019a24.521,24.521,0,0,1,4.143-.272c1.288.012,2.547.085,3.751.2l.124.012v.121c-.006,5.406-.027,10.089-.055,13.133v.065l-.064.013a18.939,18.939,0,0,1-3.033.377c-.354.014-.625.013-.808.01a1.289,1.289,0,0,1-.277-.02" transform="translate(-54.778 -51.975)" fill="#ff725e"/>
        <g id="Group_1099969" data-name="Group 1099969" transform="translate(135.197 99.533)" opacity="0.7">
          <g id="Group_1099968" data-name="Group 1099968">
            <g id="Group_1099967" data-name="Group 1099967" clip-path="url(#clip-path-16)">
              <path id="Path_877051" data-name="Path 877051" d="M198.29,144.606l4.045.03V144.6l4.384.053s2.668,12.473,1.817,14.035-4.909,3.634-5.063,4.707-.4,13.981-.126,14.157,6.256,1.113,4.209,1.973a11.869,11.869,0,0,1-5.694.908v-.017a16.193,16.193,0,0,1-4.4-.814c-2.079-.781,3.947-1.781,4.217-1.955s.087-13.085-.063-14.158-4.2-3.162-5.042-4.729,1.708-14.154,1.708-14.154" transform="translate(-196.411 -144.6)" fill="#fff"/>
            </g>
          </g>
        </g>
        <path id="Path_877052" data-name="Path 877052" d="M198.31,144.574a1.277,1.277,0,0,1-.028.229c-.028.167-.066.388-.114.668-.106.607-.256,1.469-.448,2.572-.189,1.119-.419,2.491-.65,4.092a41.572,41.572,0,0,0-.517,5.467,4.7,4.7,0,0,0,.064.752,1.115,1.115,0,0,0,.109.337,3.724,3.724,0,0,0,.215.313,7.59,7.59,0,0,0,1.163,1.118c.86.707,1.831,1.353,2.768,2.142a5.261,5.261,0,0,1,.668.666,1.354,1.354,0,0,1,.238.471,3.685,3.685,0,0,1,.047.483c.036.629.054,1.265.074,1.912q.04,1.939.083,3.993.015,2.054.03,4.211-.011,1.079-.023,2.182c-.01.369-.018.737-.05,1.116a2.547,2.547,0,0,1-.041.3.315.315,0,0,1-.109.165.533.533,0,0,1-.1.041l-.145.042-.55.132c-.73.168-1.465.335-2.193.542a9.466,9.466,0,0,0-1.066.363,1.789,1.789,0,0,0-.447.257c-.055.051-.064.087-.06.071a.374.374,0,0,0,.126.1,10.118,10.118,0,0,0,2.2.617,18.518,18.518,0,0,0,2.342.275l.172.009,0,.171v.017l-.167-.18a11.759,11.759,0,0,0,4.7-.553c.255-.089.51-.179.759-.282a2.1,2.1,0,0,0,.341-.158c.109-.063.14-.127.12-.122-.032-.1-.317-.264-.54-.351a7.594,7.594,0,0,0-.746-.264c-1.026-.313-2.062-.5-3.117-.766a.632.632,0,0,1-.135-.053.315.315,0,0,1-.092-.123.265.265,0,0,1-.023-.082,1.867,1.867,0,0,1-.028-.217c-.014-.138-.02-.271-.027-.4l-.024-.794q-.007-.789-.014-1.569.01-1.559.019-3.082c.027-2.03.067-4.009.13-5.929q.03-.722.059-1.431c.015-.24.019-.466.058-.721a1.521,1.521,0,0,1,.4-.672,17.623,17.623,0,0,1,2.148-1.746c1.37-1.077,3.109-2.057,2.68-3.871a44.075,44.075,0,0,0-.521-4.668c-.458-2.941-.96-5.536-1.4-7.723l.1.078-4.383-.082.072-.07c0,.015,0,.025,0,.036v.071h-.07l-2.983-.061-.786-.023a2.2,2.2,0,0,1-.276-.017,1.618,1.618,0,0,1,.254-.013l.772-.011,3.019-.017-.071.07c0-.01,0-.02,0-.035v-.07h.071l4.385.025h.078l.017.078c.469,2.187.993,4.778,1.472,7.725a43.738,43.738,0,0,1,.552,4.7,6.754,6.754,0,0,1-.045,1.28,2.245,2.245,0,0,1-.692,1.153,17.413,17.413,0,0,1-2.047,1.7,17.6,17.6,0,0,0-2.1,1.711,1.274,1.274,0,0,0-.321.508c-.032.207-.038.454-.052.684q-.027.707-.054,1.425c-.058,1.918-.093,3.9-.116,5.923q-.007,1.52-.014,3.077.008.778.017,1.563l.025.784c.007.129.013.261.025.386a1.611,1.611,0,0,0,.023.177s.009.048,0,.013c-.012,0,.007-.037-.041-.009a.307.307,0,0,0-.067.063c-.048.068-.006.013.031-.043s.033-.052.032-.048h0l.009,0,.04.012c1,.248,2.077.447,3.117.763a8.233,8.233,0,0,1,.783.277,3.129,3.129,0,0,1,.387.193.772.772,0,0,1,.357.39.4.4,0,0,1-.069.349.839.839,0,0,1-.2.171,2.3,2.3,0,0,1-.4.189c-.256.107-.518.2-.781.291a12.126,12.126,0,0,1-4.84.569l-.169-.014,0-.167v-.017l.169.181a18.668,18.668,0,0,1-2.389-.284,10.1,10.1,0,0,1-2.309-.661.592.592,0,0,1-.283-.3.425.425,0,0,1,.154-.434,2.071,2.071,0,0,1,.549-.323,9.753,9.753,0,0,1,1.109-.377c.741-.21,1.482-.377,2.212-.542l.54-.129.124-.035c.031,0,.016-.034.045.012.055.087.086.119.028.045-.023-.029-.081-.069-.074-.05a.054.054,0,0,0-.015.028,2.47,2.47,0,0,0,.032-.249c.03-.36.04-.73.051-1.1q.014-1.1.029-2.174-.008-2.153-.017-4.205-.034-2.05-.066-3.989c-.017-.645-.032-1.282-.064-1.9a3.485,3.485,0,0,0-.041-.446,1.107,1.107,0,0,0-.181-.348,5.022,5.022,0,0,0-.624-.627c-.909-.776-1.882-1.432-2.749-2.153a7.832,7.832,0,0,1-1.2-1.167,3.976,3.976,0,0,1-.233-.348,1.356,1.356,0,0,1-.133-.412,4.943,4.943,0,0,1-.063-.8,40.545,40.545,0,0,1,.571-5.5c.249-1.6.5-2.971.708-4.087s.386-1.978.511-2.561c.061-.277.109-.5.147-.661a1.185,1.185,0,0,1,.062-.222" transform="translate(-61.183 -45.034)" fill="#263238"/>
        <path id="Path_877053" data-name="Path 877053" d="M220.62,199.166c.69,1.892,10.695,39.359,8.97,66.987s-5.52,48.442-8.97,57.525c0,0-27.851,6.055-37.73,3.784V197.274Z" transform="translate(-57 -61.483)" fill="#ae7461"/>
        <path id="Path_877054" data-name="Path 877054" d="M129.861,199.166c-.69,1.892-10.695,39.359-8.97,66.987s5.52,48.442,8.97,57.525c0,0,27.851,6.055,37.73,3.784V197.274Z" transform="translate(-37.615 -61.483)" fill="#ae7461"/>
        <path id="Path_877055" data-name="Path 877055" d="M146.346,327.654s-.032-.1-.076-.312l-.187-.926c-.168-.813-.357-2.023-.586-3.582-.451-3.12-.968-7.653-1.494-13.263s-1.063-12.3-1.589-19.73c-.486-7.429-1.194-15.6-1.165-24.212-.013-4.3.158-8.5.347-12.553s.417-7.956.7-11.672c.553-7.433,1.3-14.107,2.148-19.681s1.741-10.05,2.447-13.12c.339-1.54.651-2.723.856-3.526.1-.39.182-.692.24-.913.056-.205.093-.308.093-.308s-.014.109-.058.317l-.205.92c-.182.809-.473,2-.79,3.539-.664,3.078-1.534,7.554-2.333,13.128s-1.535,12.241-2.069,19.668c-.273,3.714-.494,7.616-.677,11.665s-.353,8.24-.339,12.536c-.028,8.59.668,16.756,1.136,24.189.508,7.431,1.015,14.118,1.512,19.729s.972,10.145,1.38,13.267c.207,1.561.374,2.773.518,3.589.065.4.116.706.152.931s.04.32.04.32" transform="translate(-44.022 -63.534)" fill="#263238"/>
        <path id="Path_877056" data-name="Path 877056" d="M165.806,327.2s-.032-.105-.075-.315c-.045-.225-.107-.533-.186-.931-.167-.818-.35-2.035-.565-3.6-.423-3.141-.882-7.7-1.285-13.354s-.755-12.387-.939-19.875c-.089-3.743-.133-7.677-.055-11.752s-.123-8.279-.244-12.6c-.058-2.161-.084-4.3-.039-6.408s.156-4.176.233-6.214c.164-4.071.331-8,.525-11.739.381-7.479.867-14.209,1.43-19.847s1.171-10.183,1.66-13.312c.231-1.567.453-2.777.6-3.6.072-.4.129-.708.169-.933.041-.21.07-.316.07-.316s-.005.11-.034.322-.077.538-.135.938c-.12.825-.319,2.038-.529,3.607-.447,3.134-1.026,7.679-1.546,13.316s-.99,12.362-1.353,19.839c-.184,3.739-.344,7.665-.5,11.737-.075,2.034-.171,4.11-.228,6.207s-.017,4.232.041,6.391c.122,4.314.315,8.534.237,12.615s-.046,8,.034,11.739c.165,7.482.489,14.217.861,19.865s.791,10.211,1.171,13.354c.194,1.571.354,2.79.5,3.61.064.4.114.71.151.936.032.211.039.321.039.321" transform="translate(-50.613 -63.082)" fill="#263238"/>
        <path id="Path_877057" data-name="Path 877057" d="M133.951,199.807s-.018.11-.07.319-.134.532-.233.928l-.895,3.57c-.763,3.1-1.839,7.6-3.011,13.192s-2.442,12.278-3.469,19.759c-.244,1.872-.52,3.787-.7,5.755q-.155,1.473-.314,2.977-.113,1.507-.228,3.044c-.186,2.046-.223,4.135-.3,6.253-.062,1.059,0,2.126,0,3.2.026,1.074,0,2.155.077,3.243.426,8.705,1.275,16.974,2.135,24.479s1.785,14.248,2.586,19.905,1.5,10.229,1.982,13.388l.558,3.638c.059.4.106.718.14.946.03.213.036.325.036.325s-.03-.107-.072-.319c-.042-.227-.1-.54-.175-.941-.145-.846-.355-2.065-.624-3.628-.526-3.153-1.26-7.719-2.1-13.374s-1.774-12.4-2.663-19.9-1.737-15.78-2.165-24.5c-.078-1.088-.05-2.176-.076-3.254,0-1.078-.062-2.15,0-3.212.081-2.125.12-4.221.308-6.271q.118-1.54.233-3.051l.319-2.983c.189-1.971.469-3.888.718-5.763,1.047-7.489,2.349-14.177,3.548-19.766s2.319-10.08,3.124-13.174c.4-1.547.732-2.744.96-3.554l.268-.919c.063-.207.1-.31.1-.31" transform="translate(-38.752 -62.273)" fill="#263238"/>
        <path id="Path_877058" data-name="Path 877058" d="M216.765,327.654s.008-.109.04-.32.087-.534.152-.931c.145-.816.311-2.028.518-3.589.408-3.122.887-7.656,1.38-13.267s1-12.3,1.512-19.729c.468-7.433,1.165-15.6,1.136-24.189.014-4.3-.154-8.487-.339-12.536s-.4-7.951-.677-11.665c-.534-7.427-1.258-14.1-2.07-19.668s-1.669-10.05-2.332-13.128c-.317-1.543-.608-2.73-.79-3.539l-.205-.92c-.044-.209-.058-.317-.058-.317s.037.1.093.308c.059.22.138.523.24.913.205.8.518,1.987.856,3.526.706,3.071,1.616,7.545,2.447,13.12s1.6,12.248,2.148,19.681c.282,3.716.51,7.621.7,11.672s.36,8.249.347,12.553c.028,8.61-.679,16.782-1.165,24.212-.527,7.431-1.06,14.119-1.589,19.73s-1.043,10.143-1.494,13.263c-.229,1.559-.418,2.769-.586,3.582l-.187.926c-.044.208-.076.313-.076.313" transform="translate(-67.018 -63.534)" fill="#263238"/>
        <path id="Path_877059" data-name="Path 877059" d="M198.265,327.2s.007-.11.039-.321c.036-.226.085-.537.149-.936s.145-.921.22-1.525.179-1.3.256-2.088c.357-3.145.721-7.712,1.053-13.364s.631-12.387.948-19.867c.165-3.74.339-7.665.518-11.733.123-4.066.091-8.284.021-12.6-.472-17.27-1.178-32.91-2.255-44.18-.52-5.637-1.1-10.182-1.546-13.316-.211-1.569-.41-2.782-.529-3.607-.058-.4-.1-.712-.135-.938s-.034-.322-.034-.322.03.106.07.316c.041.225.1.535.169.933.143.822.365,2.031.6,3.6.489,3.129,1.108,7.674,1.66,13.312,1.143,11.276,1.889,26.915,2.362,44.2.07,4.321.1,8.541-.029,12.619-.187,4.07-.367,8-.538,11.736-.336,7.479-.663,14.216-1.026,19.868s-.767,10.221-1.167,13.365c-.089.787-.2,1.483-.29,2.086s-.169,1.113-.254,1.522-.14.706-.184.931c-.044.209-.075.315-.075.315" transform="translate(-61.388 -63.082)" fill="#263238"/>
        <path id="Path_877060" data-name="Path 877060" d="M227.9,199.807s.041.1.1.31l.268.919c.228.81.56,2.007.96,3.554.806,3.094,1.92,7.585,3.124,13.174s2.5,12.276,3.548,19.766c.248,1.874.529,3.792.718,5.763q.159,1.476.32,2.983.115,1.512.232,3.051c.189,2.05.228,4.146.308,6.271.063,1.062,0,2.135,0,3.212-.026,1.078,0,2.166-.076,3.254-.427,8.721-1.287,16.994-2.165,24.5s-1.83,14.249-2.663,19.9-1.569,10.221-2.1,13.374c-.268,1.563-.478,2.782-.624,3.628-.075.4-.133.714-.175.941-.042.212-.072.319-.072.319s.006-.112.036-.325c.034-.228.081-.543.14-.946l.558-3.638c.483-3.159,1.179-7.731,1.982-13.388s1.716-12.4,2.586-19.905,1.708-15.773,2.135-24.479c.079-1.088.051-2.169.077-3.243,0-1.075.063-2.141,0-3.2-.079-2.118-.116-4.207-.3-6.253q-.115-1.535-.228-3.044-.158-1.5-.314-2.977c-.185-1.967-.461-3.883-.7-5.755-1.028-7.481-2.3-14.167-3.469-19.759s-2.248-10.089-3.011-13.192l-.895-3.57c-.1-.4-.177-.7-.233-.928s-.07-.319-.07-.319" transform="translate(-71.028 -62.273)" fill="#263238"/>
        <path id="Path_877061" data-name="Path 877061" d="M183.021,329.992c-.1,0-.179-27.715-.179-61.9s.08-61.9.179-61.9.179,27.709.179,61.9-.08,61.9-.179,61.9" transform="translate(-56.985 -64.264)" fill="#263238"/>
        <g id="Group_1099972" data-name="Group 1099972" transform="translate(90.268 152.964)" opacity="0.1">
          <g id="Group_1099971" data-name="Group 1099971">
            <g id="Group_1099970" data-name="Group 1099970" clip-path="url(#clip-path-17)">
              <path id="Path_877062" data-name="Path 877062" d="M134.109,222.819s-3.9,21.462-2.76,50.651,4.8,52.122,5.961,52.585,12.527,1.158,12.527,1.158-4.909-39.7-4.909-62.252c0-11.483,2.47-42.739,2.47-42.739Z" transform="translate(-131.139 -222.223)" fill="#fff"/>
            </g>
          </g>
        </g>
        <path id="Path_877063" data-name="Path 877063" d="M206.876,205.806c-24.356-1.132-54.363-2.276-76.758-.011l2.241-9.372c7.011-3.044,69.7-1.9,72.633,0,.686.445,1.885,9.383,1.885,9.383" transform="translate(-40.553 -60.633)" fill="#6f4439"/>
        <path id="Path_877064" data-name="Path 877064" d="M208.458,234.4c-27.061-1.192-54.218-1.37-83.062.2l-.813,4.5c-.356,1.271,42.947-1.828,84.659.266Z" transform="translate(-38.827 -72.763)" fill="#6f4439"/>
        <path id="Path_877065" data-name="Path 877065" d="M125.367,347.462c27.566,3.009,55.109,3.5,83.062-.2l.813-4.5s-43.61,4.2-84.659-.266Z" transform="translate(-38.828 -106.746)" fill="#6f4439"/>
        <path id="Path_877066" data-name="Path 877066" d="M168.746,377.478h-.358c-11.081-.019-30.8-.972-38.012-7.168,0,0,1.059,7.692,2.984,10.507,1.4,2.055,16.649,4.938,29.853,5.66,1.644.125,3.448.178,5.354.168,1.907.01,3.71-.043,5.355-.168,13.2-.722,28.448-3.6,29.852-5.66,1.925-2.815,2.984-10.507,2.984-10.507-7.214,6.2-26.93,7.149-38.012,7.168" transform="translate(-40.633 -115.412)" fill="#6f4439"/>
      </g>
    </g>
  </g>
</svg>
