<svg xmlns="http://www.w3.org/2000/svg" xmlns:xlink="http://www.w3.org/1999/xlink" width="139" height="139" viewBox="0 0 139 139">
  <defs>
    <clipPath id="clip-path">
      <rect id="Rectangle_400938" data-name="Rectangle 400938" width="139" height="139" transform="translate(-0.043 -0.043)" fill="none"/>
    </clipPath>
    <clipPath id="clip-path-2">
      <rect id="Rectangle_401073" data-name="Rectangle 401073" width="105.872" height="47.68" fill="#7d3a1b"/>
    </clipPath>
    <clipPath id="clip-path-3">
      <rect id="Rectangle_401186" data-name="Rectangle 401186" width="78" height="71.974" fill="#6a4d23"/>
    </clipPath>
  </defs>
  <g id="Group_1100312" data-name="Group 1100312" transform="translate(-318 -4198.881)">
    <g id="Group_1100276" data-name="Group 1100276">
      <g id="Group_1099572" data-name="Group 1099572" transform="translate(53.043 -1085.076)">
        <g id="Group_1099379" data-name="Group 1099379" transform="translate(265 5284)">
          <rect id="Rectangle_401103" data-name="Rectangle 401103" width="139" height="139" transform="translate(-0.043 -0.043)" fill="none"/>
          <g id="Group_1099348" data-name="Group 1099348" transform="translate(0)">
            <g id="Group_1099282" data-name="Group 1099282">
              <g id="Group_1099281" data-name="Group 1099281" clip-path="url(#clip-path-2)">
                <path id="Path_873375" data-name="Path 873375" d="M85.879,10.449c-4.752,0-7.21-2.33-9.379-4.386C74.371,4.047,72.538,2.3,68.7,2.3s-5.668,1.742-7.8,3.758c-2.17,2.056-4.624,4.386-9.379,4.386s-7.21-2.33-9.379-4.386C40.018,4.047,38.184,2.3,34.349,2.3s-5.668,1.742-7.794,3.758c-2.17,2.056-4.627,4.386-9.379,4.386S9.963,8.119,7.794,6.063C5.668,4.047,3.835,2.3,0,2.3V0C4.752,0,7.21,2.334,9.379,4.386c2.129,2.02,3.963,3.758,7.8,3.758s5.668-1.738,7.794-3.755C27.136,2.334,29.6,0,34.349,0s7.213,2.334,9.379,4.386c2.129,2.02,3.963,3.758,7.8,3.758s5.668-1.738,7.8-3.758C61.489,2.334,63.951,0,68.7,0s7.213,2.334,9.379,4.386c2.129,2.02,3.963,3.758,7.8,3.758s5.668-1.738,7.8-3.758C95.843,2.334,98.3,0,103.056,0V2.3c-3.835,0-5.668,1.742-7.8,3.758-2.169,2.056-4.627,4.386-9.379,4.386" transform="translate(2.816 37.231)" fill="#7d3a1b"/>
                <path id="Path_873376" data-name="Path 873376" d="M85.879,10.449c-4.752,0-7.213-2.33-9.379-4.39C74.371,4.043,72.538,2.3,68.7,2.3s-5.668,1.738-7.8,3.755c-2.166,2.06-4.624,4.39-9.379,4.39s-7.213-2.33-9.379-4.39C40.018,4.043,38.184,2.3,34.349,2.3s-5.668,1.742-7.794,3.755c-2.17,2.06-4.627,4.39-9.379,4.39s-7.213-2.33-9.383-4.39C5.668,4.043,3.835,2.3,0,2.3V0C4.752,0,7.213,2.33,9.379,4.386c2.129,2.02,3.963,3.758,7.8,3.758s5.668-1.738,7.794-3.758C27.136,2.33,29.6,0,34.349,0s7.213,2.33,9.383,4.386c2.126,2.02,3.959,3.758,7.794,3.758s5.668-1.738,7.8-3.758C61.489,2.33,63.951,0,68.7,0s7.213,2.33,9.379,4.386c2.129,2.02,3.963,3.758,7.8,3.758s5.668-1.738,7.8-3.758C95.846,2.33,98.3,0,103.059,0V2.3c-3.835,0-5.672,1.742-7.8,3.755-2.169,2.06-4.628,4.39-9.379,4.39" transform="translate(1.877 24.821)" fill="#7d3a1b"/>
                <path id="Path_873377" data-name="Path 873377" d="M85.879,10.449c-4.752,0-7.213-2.33-9.379-4.39C74.371,4.043,72.538,2.3,68.7,2.3s-5.668,1.738-7.8,3.755c-2.166,2.06-4.627,4.39-9.379,4.39s-7.213-2.33-9.379-4.39C40.018,4.043,38.184,2.3,34.349,2.3s-5.668,1.742-7.794,3.755c-2.169,2.06-4.627,4.39-9.379,4.39s-7.213-2.33-9.383-4.39C5.668,4.043,3.835,2.3,0,2.3V0C4.752,0,7.213,2.33,9.379,4.386c2.126,2.02,3.963,3.758,7.8,3.758s5.668-1.738,7.794-3.758C27.136,2.33,29.6,0,34.349,0s7.213,2.33,9.383,4.386c2.126,2.02,3.959,3.758,7.794,3.758s5.668-1.738,7.8-3.758C61.489,2.33,63.951,0,68.7,0s7.213,2.33,9.379,4.386c2.129,2.02,3.963,3.758,7.8,3.758s5.668-1.738,7.8-3.758C95.846,2.33,98.3,0,103.059,0V2.3c-3.835,0-5.672,1.742-7.8,3.755-2.169,2.06-4.627,4.39-9.379,4.39" transform="translate(0.939 12.41)" fill="#7d3a1b"/>
                <path id="Path_873378" data-name="Path 873378" d="M85.879,10.445c-4.752,0-7.21-2.33-9.379-4.386C74.371,4.043,72.538,2.3,68.7,2.3s-5.668,1.738-7.794,3.755c-2.169,2.056-4.627,4.386-9.383,4.386s-7.21-2.33-9.379-4.386C40.018,4.043,38.184,2.3,34.349,2.3s-5.668,1.738-7.794,3.751c-2.166,2.06-4.627,4.39-9.379,4.39S9.963,8.115,7.794,6.059C5.668,4.043,3.835,2.3,0,2.3V0C4.752,0,7.213,2.33,9.379,4.386c2.129,2.016,3.963,3.755,7.8,3.755S22.845,6.4,24.971,4.386C27.14,2.33,29.6,0,34.349,0s7.21,2.33,9.383,4.386c2.126,2.016,3.959,3.755,7.794,3.755s5.668-1.738,7.8-3.755C61.493,2.33,63.951,0,68.7,0s7.21,2.33,9.379,4.386c2.129,2.016,3.963,3.755,7.8,3.755s5.668-1.738,7.8-3.755C95.846,2.33,98.3,0,103.059,0V2.3c-3.839,0-5.672,1.738-7.8,3.755-2.169,2.056-4.627,4.386-9.379,4.386" transform="translate(0 0.004)" fill="#7d3a1b"/>
              </g>
            </g>
          </g>
          <path id="Path_873425" data-name="Path 873425" d="M57.977,0A57.977,57.977,0,1,1,0,57.977,57.977,57.977,0,0,1,57.977,0Z" transform="translate(17.221 20.665)" fill="#ffe2b7"/>
          <circle id="Ellipse_11503" data-name="Ellipse 11503" cx="60.5" cy="60.5" r="60.5" transform="translate(8.957 8.957)" fill="#fff"/>
        </g>
      </g>
      <g id="Group_1099573" data-name="Group 1099573" transform="translate(0 -2195.119)">
        <g id="Group_1099389" data-name="Group 1099389" transform="translate(347.893 6422.863)">
          <rect id="Rectangle_401104" data-name="Rectangle 401104" width="78" height="79" transform="translate(0.107 0.256)" fill="none"/>
        </g>
        <g id="Group_1099579" data-name="Group 1099579" transform="translate(348 6426.002)">
          <g id="Group_1099578" data-name="Group 1099578" clip-path="url(#clip-path-3)">
            <path id="Path_873774" data-name="Path 873774" d="M18.667,47.2l1.154-3.862c.8-2.689,1.574-5.388,2.42-8.063A13.654,13.654,0,0,1,24.5,30.889a6.554,6.554,0,0,1,2.646-2.1,4.575,4.575,0,0,1,3.734.071,7.664,7.664,0,0,1,3.4,3.37A22.737,22.737,0,0,1,36.329,37.5c.438,1.515.9,3.024,1.361,4.587a3.017,3.017,0,0,0,.338-.215,8.7,8.7,0,0,1,5.007-2.012,6.468,6.468,0,0,1,2.293.309c.7.194,1.37.5,2.052.766.093.036.182.082.3.138.005-.117.012-.2.012-.273q0-19.645,0-39.29a2.263,2.263,0,0,1,.12-.758A1.075,1.075,0,0,1,49.38.145c1.14.629,2.264,1.285,3.39,1.938Q57.7,4.946,62.635,7.815,67.314,10.53,72,13.239a5.1,5.1,0,0,1,.49.326,1.129,1.129,0,0,1,.465,1.3,1.3,1.3,0,0,1-1.119.805c-.269.012-.538,0-.807,0q-10.212,0-20.425,0c-.678,0-.541-.045-.541.541q0,12.011,0,24.021v.834c.449-.2.857-.431,1.29-.582a8.238,8.238,0,0,1,4.709-.42,8.443,8.443,0,0,1,3.955,2.07,13.109,13.109,0,0,1,1.955,2.594q3.229,5.039,6.458,10.078a.551.551,0,0,0,.531.278c1.52.009,3.042-.009,4.559.075a6.012,6.012,0,0,1,2.918.946,3.174,3.174,0,0,1,.117,5.4,8.068,8.068,0,0,1-2.908,1.259c-1.345.314-2.709.553-4.066.817A23.951,23.951,0,0,0,65,64.644c-.069.028-.136.065-.2.1-.005.037-.011.074-.016.111.33.119.655.25.989.355.886.276,1.79.5,2.66.823a9.667,9.667,0,0,1,1.769.877,2.632,2.632,0,0,1,1.272,1.619,2.393,2.393,0,0,1-1.76,2.949,10.334,10.334,0,0,1-3.328.5q-7.109-.013-14.218-.011-24.832,0-49.665,0c-.362,0-.724.009-1.086.011-.957.006-1.4-.4-1.406-1.366-.01-1.438,0-2.876.025-4.313a18.609,18.609,0,0,1,.1-2.288,5.929,5.929,0,0,1,2.687-4.1.654.654,0,0,0,.263-.349c.467-2.265.911-4.535,1.379-6.8.406-1.97.79-3.947,1.269-5.9a20.04,20.04,0,0,1,1.915-5.022A8.593,8.593,0,0,1,9.419,39.5a3.793,3.793,0,0,1,5.462.085,9.926,9.926,0,0,1,2.385,3.7c.414,1.055.747,2.142,1.12,3.213.082.235.183.463.281.707m50.6,21.913c-.105-.093-.177-.163-.255-.224A7.164,7.164,0,0,0,66.7,67.877c-1.1-.355-2.22-.657-3.279-1.106a2.07,2.07,0,0,1-.658-3.268,4.7,4.7,0,0,1,2.619-1.436c1.456-.342,2.932-.6,4.4-.9,1.224-.247,2.453-.472,3.669-.753a3.69,3.69,0,0,0,2.012-1.028.755.755,0,0,0-.046-1.154,1.632,1.632,0,0,0-.647-.4,10.662,10.662,0,0,0-2.006-.365c-1.383-.061-2.771-.038-4.157-.038q-14.387,0-28.774,0c-4.9,0-9.809.01-14.713-.014a3.632,3.632,0,0,0-3.316,1.851c.109.078.211.16.321.229a12.091,12.091,0,0,1,1.046.663.584.584,0,0,0,.766.05,4,4,0,0,1,2.359-.487,4.463,4.463,0,0,1,2.417.864c.088-.073.161-.13.23-.19a5.9,5.9,0,0,1,3.27-1.446,5.965,5.965,0,0,1,5.207,2,.864.864,0,0,0,.551.3,5.574,5.574,0,0,1,2.761,1.083,5.37,5.37,0,0,1,1.557,6.624c-.1.2-.191.4-.3.623h1.689q10.988,0,21.976,0c.786,0,1.572-.036,2.356-.08a2.039,2.039,0,0,0,1.251-.372m-66.9.473h.426l26.035-.008c2.938,0,5.875-.009,8.813-.006a2.753,2.753,0,0,0,1.8-.638,3.068,3.068,0,0,0,.979-3.245,2.883,2.883,0,0,0-2.726-2.1,2.106,2.106,0,0,1-1.851-.934,3.8,3.8,0,0,0-5.1-.731,5.073,5.073,0,0,0-.92.908,1.17,1.17,0,0,1-2.024.006.72.72,0,0,0-.058-.073,2.334,2.334,0,0,0-3.487.039,1.06,1.06,0,0,1-1.357.208,1.78,1.78,0,0,1-.476-.435,3.869,3.869,0,0,0-5.9.111,1.167,1.167,0,0,1-1.857.025,2.1,2.1,0,0,0-1.254-.68,2.32,2.32,0,0,0-2.244.895,1.12,1.12,0,0,1-1.857,0c-.04-.047-.076-.1-.113-.148a3.862,3.862,0,0,0-5.509-.657,3.5,3.5,0,0,0-1.325,2.752c.012,1.469,0,2.937,0,4.406v.309M35.3,42.131a.469.469,0,0,0-.082-.015.447.447,0,0,0-.089.022A2.661,2.661,0,0,1,32,41.505a7.679,7.679,0,0,1-1.417-1.983,7.606,7.606,0,0,0-1.243-1.952c-.308-.307-.51-.325-.808,0a5.06,5.06,0,0,0-.587.758c-.246.393-.461.807-.683,1.215a8.083,8.083,0,0,1-1.48,2.016,2.757,2.757,0,0,1-2.577.81c-.219-.044-.436-.1-.657-.156L17.494,59.253l.27-.06a5.6,5.6,0,0,1,1.113-.242c.417-.008.688-.12.811-.526a.79.79,0,0,1,.07-.138,5.678,5.678,0,0,1,5.118-3.2c1.323-.035,2.647,0,3.971,0a.437.437,0,0,0,.435-.214q1.787-2.812,3.591-5.613c.949-1.477,1.907-2.95,2.852-4.431a.8.8,0,0,0,.177-.5c-.178-.748-.4-1.486-.6-2.2m7.621,12.94H65.79a2.4,2.4,0,0,0-.131-.3q-.433-.7-.875-1.389c-1.809-2.816-3.585-5.655-5.44-8.441-1.716-2.578-3.833-2.988-6.539-2.5a5.163,5.163,0,0,0-3.376,2.5q-2.655,4.115-5.3,8.238L42.92,55.071M5.556,58.908a6.476,6.476,0,0,1,4.52,1.473.366.366,0,0,0,.507.035,4.509,4.509,0,0,1,4.011-.446c.218.072.291.007.348-.194.214-.754.44-1.5.664-2.256.474-1.591.939-3.185,1.432-4.771a2.889,2.889,0,0,0,.081-1.583c-.305-1.263-.59-2.53-.9-3.792A18.2,18.2,0,0,0,14.41,42.68a5.04,5.04,0,0,0-1.467-1.7,1.35,1.35,0,0,0-1.6-.045,3.453,3.453,0,0,0-.683.578,10.376,10.376,0,0,0-1.931,3.472,32.294,32.294,0,0,0-1.4,5.161c-.5,2.49-.989,4.982-1.485,7.473-.084.422-.187.839-.288,1.288M47.429,43.787c-.432-.3-.837-.615-1.272-.882a6.32,6.32,0,0,0-3.92-.557,3.817,3.817,0,0,0-1.013.262,5.991,5.991,0,0,0-3.012,2.6c-1.7,2.667-3.413,5.322-5.121,7.982-.388.6-.778,1.207-1.2,1.866.222.011.393.026.564.026,2.482,0,4.964,0,7.446.006a.445.445,0,0,0,.422-.24q2.56-3.992,5.13-7.977c.648-1.007,1.291-2.016,1.978-3.089M67.4,13.239,50.071,3.183V13.239ZM28.952,30.768c-.1,0-.207,0-.31,0a1.1,1.1,0,0,0-.183.032,3.683,3.683,0,0,0-2.007,1.323,9.88,9.88,0,0,0-1.8,3.266c-.465,1.365-.837,2.762-1.268,4.139-.1.309.119.4.282.547.179.156.325.017.426-.1a11.108,11.108,0,0,0,.925-1.156c.309-.474.542-1,.827-1.489a5.6,5.6,0,0,1,1.443-1.725,2.457,2.457,0,0,1,2.171-.56,3.541,3.541,0,0,1,1.719,1.113,10.113,10.113,0,0,1,1.483,2.352,4.652,4.652,0,0,0,1.073,1.467c.128.112.262.2.4.058s.471-.231.373-.54c-.483-1.535-.936-3.081-1.482-4.593a8.291,8.291,0,0,0-1.943-3.139,3.07,3.07,0,0,0-2.131-1" transform="translate(0 0)" fill="#6a4d23"/>
            <path id="Path_873775" data-name="Path 873775" d="M34.094,51.247a7.3,7.3,0,0,1-7.263-7.309,7.275,7.275,0,0,1,14.55.034,7.273,7.273,0,0,1-7.286,7.274m-4.872-7.29a4.815,4.815,0,0,0,4.841,4.956A4.955,4.955,0,0,0,37.6,40.458a5.08,5.08,0,0,0-3.891-1.4,4.827,4.827,0,0,0-4.493,4.9" transform="translate(-20.148 -27.564)" fill="#6a4d23"/>
            <path id="Path_873776" data-name="Path 873776" d="M53.677,104.054c0,.475.021.951-.005,1.424a1.082,1.082,0,0,1-1.094,1.013,1.036,1.036,0,0,1-1.161-.875,1.5,1.5,0,0,1-.042-.306c0-.867-.008-1.735,0-2.6a1.168,1.168,0,0,1,.73-1.123,1.184,1.184,0,0,1,1.363.389,1.029,1.029,0,0,1,.206.533c.027.515.01,1.031.01,1.547h-.007" transform="translate(-38.575 -76.227)" fill="#6a4d23"/>
            <path id="Path_873777" data-name="Path 873777" d="M53.672,12.707c0,.455.018.91,0,1.363a1.142,1.142,0,0,1-1.109,1.018,1.09,1.09,0,0,1-1.129-.817,1.845,1.845,0,0,1-.058-.428c-.005-.817-.01-1.633,0-2.45a1.181,1.181,0,0,1,1.22-1.3,1.141,1.141,0,0,1,1.079.973c.03.276.031.556.037.835s0,.537,0,.806h-.037" transform="translate(-38.572 -7.579)" fill="#6a4d23"/>
            <path id="Path_873778" data-name="Path 873778" d="M94.346,61.172c.424,0,.848-.007,1.272,0A1.183,1.183,0,0,1,96.8,62.61a.839.839,0,0,1-.485.678,2.566,2.566,0,0,1-.857.224c-.723.031-1.448.021-2.172.006a1.379,1.379,0,0,1-1.189-.484,1.133,1.133,0,0,1-.1-1.206,1.116,1.116,0,0,1,1.046-.653c.434-.015.869,0,1.3,0" transform="translate(-68.988 -45.933)" fill="#6a4d23"/>
            <path id="Path_873779" data-name="Path 873779" d="M2.933,61.173c.413,0,.826-.007,1.239,0a1.179,1.179,0,0,1,1.091,1.759.923.923,0,0,1-.826.522,28.974,28.974,0,0,1-3.025-.007c-.676-.046-1-.574-.942-1.29A1.131,1.131,0,0,1,1.6,61.176c.444-.014.888,0,1.332,0" transform="translate(-0.347 -45.934)" fill="#6a4d23"/>
            <path id="Path_873780" data-name="Path 873780" d="M15.45,26.192a1.086,1.086,0,0,1,.659-1.065.908.908,0,0,1,1.12.139c.721.694,1.446,1.387,2.123,2.123a.967.967,0,0,1,.052,1.332,1.122,1.122,0,0,1-1.311.438,1.372,1.372,0,0,1-.485-.316c-.609-.589-1.206-1.19-1.8-1.789a1.129,1.129,0,0,1-.354-.862" transform="translate(-11.601 -18.77)" fill="#6a4d23"/>
            <path id="Path_873781" data-name="Path 873781" d="M84.08,92.786a1.033,1.033,0,0,1-.628,1.016.991.991,0,0,1-1.166-.085q-1.15-1.079-2.221-2.239a1.03,1.03,0,0,1,.11-1.311,1.1,1.1,0,0,1,1.368-.295,1.807,1.807,0,0,1,.4.291c.627.628,1.259,1.252,1.86,1.9a2.869,2.869,0,0,1,.354.682l-.075.036" transform="translate(-59.98 -67.393)" fill="#6a4d23"/>
            <path id="Path_873782" data-name="Path 873782" d="M84.215,26.132a2.677,2.677,0,0,1-.346.727c-.64.687-1.31,1.348-1.987,2a1.117,1.117,0,0,1-1.32.186,1.162,1.162,0,0,1-.586-1.258,1.213,1.213,0,0,1,.293-.529c.653-.676,1.324-1.336,1.991-2a.99.99,0,0,1,1.171-.219,1.225,1.225,0,0,1,.786,1.091" transform="translate(-60.034 -18.727)" fill="#6a4d23"/>
            <path id="Path_873783" data-name="Path 873783" d="M16.645,93.867c-.582-.033-.937-.179-1.128-.574a1.1,1.1,0,0,1,.1-1.284,26.337,26.337,0,0,1,2.09-2.076,1.149,1.149,0,0,1,1.872.777.777.777,0,0,1-.072.418,1.917,1.917,0,0,1-.33.519c-.6.627-1.2,1.258-1.836,1.848a2.623,2.623,0,0,1-.7.372" transform="translate(-11.535 -67.316)" fill="#6a4d23"/>
            <path id="Path_873784" data-name="Path 873784" d="M192.8,243.743a3.131,3.131,0,0,1-1.825-.835c-.238-.2-.469-.407-.709-.6a.813.813,0,0,0-1.2-.011c-.365.288-.707.611-1.094.864a3.094,3.094,0,0,1-3.895-.242c-.175-.146-.349-.293-.513-.451-.6-.58-1-.594-1.618,0a7.468,7.468,0,0,1-.945.751,2.746,2.746,0,0,1-2.15.471,1.064,1.064,0,0,1-.885-1.139,1.013,1.013,0,0,1,.943-1.045,2.326,2.326,0,0,0,1.489-.732,3.564,3.564,0,0,1,1.857-1,3.014,3.014,0,0,1,2.465.662c.307.245.595.514.9.764.406.335.593.356,1.028.069a7.988,7.988,0,0,0,.78-.61,3.08,3.08,0,0,1,3.126-.756,6.416,6.416,0,0,1,1.332.762c.233.149.415.378.649.526a2.191,2.191,0,0,0,.7.3,1.193,1.193,0,0,1,1.017,1.231c-.071.638-.566,1.041-1.454,1.022" transform="translate(-133.645 -180.018)" fill="#6a4d23"/>
          </g>
        </g>
      </g>
    </g>
  </g>
</svg>
