<svg xmlns="http://www.w3.org/2000/svg" xmlns:xlink="http://www.w3.org/1999/xlink" width="145" height="145" viewBox="0 0 145 145">
  <defs>
    <clipPath id="clip-path">
      <rect id="Rectangle_400938" data-name="Rectangle 400938" width="145" height="145" transform="translate(0 -0.281)" fill="none"/>
    </clipPath>
    <clipPath id="clip-path-2">
      <rect id="Rectangle_401073" data-name="Rectangle 401073" width="110.228" height="49.642" fill="#7d3a1b"/>
    </clipPath>
    <clipPath id="clip-path-3">
      <rect id="Rectangle_401175" data-name="Rectangle 401175" width="65.253" height="81.333" fill="#6a4d23"/>
    </clipPath>
  </defs>
  <g id="Group_1100312" data-name="Group 1100312" transform="translate(-728 -1975)">
    <g id="Group_1099560" data-name="Group 1099560" transform="translate(553 -7565.719)">
      <g id="Group_1099404" data-name="Group 1099404" transform="translate(175 9541)">
        <g id="Group_1099379" data-name="Group 1099379" transform="translate(0 0)">
          <rect id="Rectangle_401103" data-name="Rectangle 401103" width="145" height="145" transform="translate(0 -0.281)" fill="none"/>
          <g id="Group_1099348" data-name="Group 1099348" transform="translate(0.045 0.045)">
            <g id="Group_1099282" data-name="Group 1099282">
              <g id="Group_1099281" data-name="Group 1099281" clip-path="url(#clip-path-2)">
                <path id="Path_873375" data-name="Path 873375" d="M89.413,10.879c-4.947,0-7.506-2.426-9.765-4.567C77.431,4.213,75.522,2.4,71.529,2.4s-5.9,1.814-8.118,3.913c-2.259,2.141-4.814,4.567-9.765,4.567S46.14,8.453,43.881,6.312C41.664,4.213,39.755,2.4,35.763,2.4s-5.9,1.814-8.114,3.913c-2.259,2.141-4.818,4.567-9.765,4.567s-7.51-2.426-9.769-4.567C5.9,4.213,3.993,2.4,0,2.4V0C4.947,0,7.506,2.43,9.765,4.567c2.217,2.1,4.126,3.913,8.118,3.913S23.785,6.67,26,4.571C28.253,2.43,30.816,0,35.763,0s7.51,2.43,9.765,4.567c2.217,2.1,4.126,3.913,8.118,3.913s5.9-1.81,8.118-3.913C64.019,2.43,66.582,0,71.529,0s7.51,2.43,9.765,4.567c2.217,2.1,4.126,3.913,8.118,3.913s5.9-1.81,8.118-3.913C99.786,2.43,102.345,0,107.3,0V2.4c-3.993,0-5.9,1.814-8.118,3.913-2.259,2.141-4.818,4.567-9.765,4.567" transform="translate(2.932 38.763)" fill="#7d3a1b"/>
                <path id="Path_873376" data-name="Path 873376" d="M89.413,10.879c-4.947,0-7.51-2.426-9.765-4.571C77.431,4.209,75.522,2.4,71.529,2.4s-5.9,1.81-8.118,3.909c-2.255,2.145-4.814,4.571-9.765,4.571s-7.51-2.426-9.765-4.571C41.664,4.209,39.755,2.4,35.763,2.4s-5.9,1.814-8.115,3.909c-2.259,2.145-4.818,4.571-9.765,4.571s-7.51-2.426-9.769-4.571C5.9,4.209,3.993,2.4,0,2.4V0C4.947,0,7.51,2.426,9.765,4.567c2.217,2.1,4.126,3.913,8.118,3.913S23.785,6.67,26,4.567C28.253,2.426,30.816,0,35.763,0s7.51,2.426,9.769,4.567c2.213,2.1,4.122,3.913,8.115,3.913s5.9-1.81,8.118-3.913C64.019,2.426,66.582,0,71.529,0s7.51,2.426,9.765,4.567c2.217,2.1,4.126,3.913,8.118,3.913s5.9-1.81,8.118-3.913C99.79,2.426,102.349,0,107.3,0V2.4c-3.993,0-5.905,1.814-8.122,3.909-2.259,2.145-4.818,4.571-9.765,4.571" transform="translate(1.955 25.842)" fill="#7d3a1b"/>
                <path id="Path_873377" data-name="Path 873377" d="M89.412,10.879c-4.947,0-7.51-2.426-9.765-4.571C77.431,4.209,75.522,2.4,71.529,2.4s-5.9,1.81-8.118,3.909c-2.255,2.145-4.818,4.571-9.765,4.571s-7.51-2.426-9.765-4.571C41.664,4.209,39.755,2.4,35.763,2.4s-5.9,1.814-8.115,3.909c-2.259,2.145-4.818,4.571-9.765,4.571s-7.51-2.426-9.769-4.571C5.9,4.209,3.993,2.4,0,2.4V0C4.947,0,7.51,2.426,9.765,4.567c2.213,2.1,4.126,3.913,8.118,3.913S23.785,6.67,26,4.567C28.253,2.426,30.816,0,35.763,0s7.51,2.426,9.769,4.567c2.213,2.1,4.122,3.913,8.115,3.913s5.9-1.81,8.118-3.913C64.019,2.426,66.582,0,71.529,0s7.51,2.426,9.765,4.567c2.217,2.1,4.126,3.913,8.118,3.913s5.9-1.81,8.118-3.913C99.79,2.426,102.345,0,107.3,0V2.4c-3.993,0-5.905,1.814-8.122,3.909-2.259,2.145-4.818,4.571-9.765,4.571" transform="translate(0.977 12.921)" fill="#7d3a1b"/>
                <path id="Path_873378" data-name="Path 873378" d="M89.413,10.875c-4.947,0-7.506-2.426-9.765-4.567C77.431,4.209,75.522,2.4,71.529,2.4s-5.9,1.81-8.115,3.909c-2.259,2.141-4.818,4.567-9.769,4.567S46.14,8.449,43.881,6.308C41.664,4.209,39.755,2.4,35.763,2.4s-5.9,1.81-8.115,3.905c-2.255,2.145-4.818,4.571-9.765,4.571s-7.51-2.426-9.769-4.567C5.9,4.209,3.993,2.4,0,2.4V0C4.947,0,7.51,2.426,9.765,4.567c2.217,2.1,4.126,3.909,8.118,3.909s5.9-1.81,8.115-3.909C28.257,2.426,30.816,0,35.763,0s7.506,2.426,9.769,4.567c2.213,2.1,4.122,3.909,8.115,3.909s5.9-1.81,8.118-3.909C64.023,2.426,66.582,0,71.529,0s7.506,2.426,9.765,4.567c2.217,2.1,4.126,3.909,8.118,3.909s5.9-1.81,8.118-3.909C99.79,2.426,102.349,0,107.3,0V2.4c-4,0-5.905,1.81-8.122,3.909-2.259,2.141-4.818,4.567-9.765,4.567" transform="translate(0 0.004)" fill="#7d3a1b"/>
              </g>
            </g>
          </g>
          <path id="Path_873425" data-name="Path 873425" d="M60.362,0A60.362,60.362,0,1,1,0,60.362,60.362,60.362,0,0,1,60.362,0Z" transform="translate(17.974 21.56)" fill="#efb499"/>
          <circle id="Ellipse_11503" data-name="Ellipse 11503" cx="63" cy="63" r="63" transform="translate(9 9.719)" fill="#fef7eb"/>
        </g>
      </g>
      <g id="Group_1099405" data-name="Group 1099405" transform="translate(206.234 9571.193)">
        <g id="Group_1099389" data-name="Group 1099389" transform="translate(0 0)">
          <rect id="Rectangle_401104" data-name="Rectangle 401104" width="81" height="83" transform="translate(-0.234 -0.475)" fill="none"/>
        </g>
        <g id="Group_1099564" data-name="Group 1099564" transform="translate(7.766 0.525)">
          <g id="Group_1099563" data-name="Group 1099563" clip-path="url(#clip-path-3)">
            <path id="Path_873766" data-name="Path 873766" d="M15.365,58.816a12.133,12.133,0,0,1-1.4-2.927A11.936,11.936,0,0,1,13.4,52.7c-.028-.637.018-1.28.05-1.918q.148-3.009.311-6.016.234-4.388.473-8.776c.118-2.238.22-4.477.344-6.714.09-1.627.21-3.253.3-4.88.057-1.017.076-2.036.131-3.054.089-1.637.2-3.273.29-4.91.054-.969.084-1.939.138-2.908.1-1.811.213-3.621.318-5.432.054-.93.048-1.868.165-2.787a6.11,6.11,0,0,1,2.2-4.01A5.621,5.621,0,0,1,21.872.009C29.087,0,36.3-.011,43.518.017A5.586,5.586,0,0,1,48.7,3.251a6.777,6.777,0,0,1,.724,2.893c.1,2.1.243,4.2.355,6.306.063,1.191.09,2.385.151,3.577.044.872.124,1.742.175,2.613.071,1.22.127,2.442.193,3.663q.129,2.4.263,4.794c.054.969.114,1.937.165,2.906q.146,2.789.283,5.58c.095,1.918.173,3.838.28,5.755.1,1.87.251,3.736.354,5.606.086,1.55.122,3.1.208,4.653a11.205,11.205,0,0,1-.243,3.12,11.849,11.849,0,0,1-1.627,3.971.31.31,0,0,0,.04.275,12.35,12.35,0,0,1,1.672,2.323,13.173,13.173,0,0,1,1.5,4.332,16.917,16.917,0,0,1,.214,2.837c-.008,2.573,0,6.619,0,9.192v.384h.314q5.589,0,11.177-.012c.272,0,.36.069.357.367-.014,1.379-.011,1.284-.006,2.662,0,.215-.065.306-.267.282a1.98,1.98,0,0,0-.245,0H.049c-.011-.138-.028-.251-.028-.364C.014,79.594.014,79.7,0,78.33c0-.241.064-.312.293-.311q5.629.014,11.258.011h.3v-.364c0-2.757,0-6.988,0-9.745a14.06,14.06,0,0,1,.63-4.083,12.7,12.7,0,0,1,2.337-4.388c.177-.218.367-.425.547-.633M17.2,31.1c-.062,1-.13,1.952-.18,2.907-.092,1.752-.164,3.506-.262,5.257-.151,2.688-.315,5.376-.477,8.064-.09,1.5-.157,3-.289,4.489a7.19,7.19,0,0,0,.785,4.291,7.059,7.059,0,0,0,6.287,3.838c2.06.056,4.122.016,6.184.015,4.378,0,8.755.007,13.133-.019a6.566,6.566,0,0,0,3.728-1.2A6.917,6.917,0,0,0,49.29,53.2a30.608,30.608,0,0,0-.164-3.42c-.064-1.069-.153-2.137-.211-3.206-.1-1.782-.166-3.566-.262-5.348-.131-2.434-.275-4.867-.416-7.3-.054-.934-.113-1.868-.171-2.823H40.091V45.773H25.147V31.1Zm-.348,29.568c-.043.02-.067.023-.08.039a9.863,9.863,0,0,0-2.5,6.445c-.059,3.616-.013,7.234-.026,10.851,0,.322.073.393.339.392,3.1-.01,6.2-.006,9.3-.006q13.39,0,26.78,0c.195,0,.343.023.341-.317-.014-3.629.022-7.259-.028-10.887a10.018,10.018,0,0,0-2.359-6.339.236.236,0,0,0-.375-.058c-.207.15-.417.3-.636.424a10.916,10.916,0,0,1-5.542,1.521q-9.4.008-18.793-.008a9.8,9.8,0,0,1-3.119-.42,11.209,11.209,0,0,1-3.313-1.639M47.306,17.34c0-.108,0-.157,0-.207-.116-1.566-.254-3.13-.345-4.7q-.232-3.986-.412-7.976a1.557,1.557,0,0,0-1.62-1.524c-8.224.024-16.447.01-24.671.007a1.418,1.418,0,0,0-1.533,1.4c-.092,1.282-.167,2.565-.242,3.848q-.245,4.2-.483,8.4c-.014.236-.027.473-.042.743a42.955,42.955,0,0,1,29.347,0M27.521,18.5V19.3q0,11.4,0,22.8a3.145,3.145,0,0,0,.033.713.465.465,0,0,0,.346.226c2.929.011,5.857,0,8.786.008.311,0,.443-.034.441-.266q-.028-3.686-.026-7.372-.006-8.331.005-16.662c0-.244-.135-.261-.435-.26q-3.961.011-7.921.009H27.521M17.5,28.1h7.636V18.307l-6.85,1.8-.165,1s-.581,4.606-.62,6.05c-.008.288,0,.577,0,.942m30.2.178c.034-.073.047-.087.046-.1-.039-1.7-.077-4.632-.125-6.334,0-.112-.124-1.056-.124-1.056a16.822,16.822,0,0,0-7.376-1.943v9.433Z" transform="translate(0 0)" fill="#6a4d23"/>
            <path id="Path_873767" data-name="Path 873767" d="M102.015,214.451h15.1a1.04,1.04,0,0,1,.024.152c.008.692.008,1.385.024,2.077,0,.131-.082.165-.352.165q-7.22,0-14.441,0c-.281,0-.365-.035-.363-.175.014-.737.007-1.473.007-2.224" transform="translate(-76.96 -161.793)" fill="#6a4d23"/>
          </g>
        </g>
      </g>
    </g>
  </g>
</svg>
