<svg xmlns="http://www.w3.org/2000/svg" xmlns:xlink="http://www.w3.org/1999/xlink" width="145" height="145" viewBox="0 0 145 145">
  <defs>
    <clipPath id="clip-path">
      <rect id="Rectangle_400938" data-name="Rectangle 400938" width="145" height="145" transform="translate(0 -0.281)" fill="none"/>
    </clipPath>
    <clipPath id="clip-path-2">
      <rect id="Rectangle_401073" data-name="Rectangle 401073" width="110.228" height="49.642" fill="#7d3a1b"/>
    </clipPath>
    <clipPath id="clip-path-3">
      <rect id="Rectangle_401176" data-name="Rectangle 401176" width="79.268" height="79.333" fill="#6a4d23"/>
    </clipPath>
  </defs>
  <g id="Group_1100312" data-name="Group 1100312" transform="translate(-308 -1975)">
    <g id="Group_1099559" data-name="Group 1099559" transform="translate(133 -7565.719)">
      <g id="Group_1099404" data-name="Group 1099404" transform="translate(175 9541)">
        <g id="Group_1099379" data-name="Group 1099379" transform="translate(0 0)">
          <rect id="Rectangle_401103" data-name="Rectangle 401103" width="145" height="145" transform="translate(0 -0.281)" fill="none"/>
          <g id="Group_1099348" data-name="Group 1099348" transform="translate(0.045 0.045)">
            <g id="Group_1099282" data-name="Group 1099282">
              <g id="Group_1099281" data-name="Group 1099281" clip-path="url(#clip-path-2)">
                <path id="Path_873375" data-name="Path 873375" d="M89.413,10.879c-4.947,0-7.506-2.426-9.765-4.567C77.431,4.213,75.522,2.4,71.529,2.4s-5.9,1.814-8.118,3.913c-2.259,2.141-4.814,4.567-9.765,4.567S46.14,8.453,43.881,6.312C41.664,4.213,39.755,2.4,35.763,2.4s-5.9,1.814-8.114,3.913c-2.259,2.141-4.818,4.567-9.765,4.567s-7.51-2.426-9.769-4.567C5.9,4.213,3.993,2.4,0,2.4V0C4.947,0,7.506,2.43,9.765,4.567c2.217,2.1,4.126,3.913,8.118,3.913S23.785,6.67,26,4.571C28.253,2.43,30.816,0,35.763,0s7.51,2.43,9.765,4.567c2.217,2.1,4.126,3.913,8.118,3.913s5.9-1.81,8.118-3.913C64.019,2.43,66.582,0,71.529,0s7.51,2.43,9.765,4.567c2.217,2.1,4.126,3.913,8.118,3.913s5.9-1.81,8.118-3.913C99.786,2.43,102.345,0,107.3,0V2.4c-3.993,0-5.9,1.814-8.118,3.913-2.259,2.141-4.818,4.567-9.765,4.567" transform="translate(2.932 38.763)" fill="#7d3a1b"/>
                <path id="Path_873376" data-name="Path 873376" d="M89.413,10.879c-4.947,0-7.51-2.426-9.765-4.571C77.431,4.209,75.522,2.4,71.529,2.4s-5.9,1.81-8.118,3.909c-2.255,2.145-4.814,4.571-9.765,4.571s-7.51-2.426-9.765-4.571C41.664,4.209,39.755,2.4,35.763,2.4s-5.9,1.814-8.115,3.909c-2.259,2.145-4.818,4.571-9.765,4.571s-7.51-2.426-9.769-4.571C5.9,4.209,3.993,2.4,0,2.4V0C4.947,0,7.51,2.426,9.765,4.567c2.217,2.1,4.126,3.913,8.118,3.913S23.785,6.67,26,4.567C28.253,2.426,30.816,0,35.763,0s7.51,2.426,9.769,4.567c2.213,2.1,4.122,3.913,8.115,3.913s5.9-1.81,8.118-3.913C64.019,2.426,66.582,0,71.529,0s7.51,2.426,9.765,4.567c2.217,2.1,4.126,3.913,8.118,3.913s5.9-1.81,8.118-3.913C99.79,2.426,102.349,0,107.3,0V2.4c-3.993,0-5.905,1.814-8.122,3.909-2.259,2.145-4.818,4.571-9.765,4.571" transform="translate(1.955 25.842)" fill="#7d3a1b"/>
                <path id="Path_873377" data-name="Path 873377" d="M89.412,10.879c-4.947,0-7.51-2.426-9.765-4.571C77.431,4.209,75.522,2.4,71.529,2.4s-5.9,1.81-8.118,3.909c-2.255,2.145-4.818,4.571-9.765,4.571s-7.51-2.426-9.765-4.571C41.664,4.209,39.755,2.4,35.763,2.4s-5.9,1.814-8.115,3.909c-2.259,2.145-4.818,4.571-9.765,4.571s-7.51-2.426-9.769-4.571C5.9,4.209,3.993,2.4,0,2.4V0C4.947,0,7.51,2.426,9.765,4.567c2.213,2.1,4.126,3.913,8.118,3.913S23.785,6.67,26,4.567C28.253,2.426,30.816,0,35.763,0s7.51,2.426,9.769,4.567c2.213,2.1,4.122,3.913,8.115,3.913s5.9-1.81,8.118-3.913C64.019,2.426,66.582,0,71.529,0s7.51,2.426,9.765,4.567c2.217,2.1,4.126,3.913,8.118,3.913s5.9-1.81,8.118-3.913C99.79,2.426,102.345,0,107.3,0V2.4c-3.993,0-5.905,1.814-8.122,3.909-2.259,2.145-4.818,4.571-9.765,4.571" transform="translate(0.977 12.921)" fill="#7d3a1b"/>
                <path id="Path_873378" data-name="Path 873378" d="M89.413,10.875c-4.947,0-7.506-2.426-9.765-4.567C77.431,4.209,75.522,2.4,71.529,2.4s-5.9,1.81-8.115,3.909c-2.259,2.141-4.818,4.567-9.769,4.567S46.14,8.449,43.881,6.308C41.664,4.209,39.755,2.4,35.763,2.4s-5.9,1.81-8.115,3.905c-2.255,2.145-4.818,4.571-9.765,4.571s-7.51-2.426-9.769-4.567C5.9,4.209,3.993,2.4,0,2.4V0C4.947,0,7.51,2.426,9.765,4.567c2.217,2.1,4.126,3.909,8.118,3.909s5.9-1.81,8.115-3.909C28.257,2.426,30.816,0,35.763,0s7.506,2.426,9.769,4.567c2.213,2.1,4.122,3.909,8.115,3.909s5.9-1.81,8.118-3.909C64.023,2.426,66.582,0,71.529,0s7.506,2.426,9.765,4.567c2.217,2.1,4.126,3.909,8.118,3.909s5.9-1.81,8.118-3.909C99.79,2.426,102.349,0,107.3,0V2.4c-4,0-5.905,1.81-8.122,3.909-2.259,2.141-4.818,4.567-9.765,4.567" transform="translate(0 0.004)" fill="#7d3a1b"/>
              </g>
            </g>
          </g>
          <path id="Path_873425" data-name="Path 873425" d="M60.362,0A60.362,60.362,0,1,1,0,60.362,60.362,60.362,0,0,1,60.362,0Z" transform="translate(17.974 21.56)" fill="#efb499"/>
          <circle id="Ellipse_11503" data-name="Ellipse 11503" cx="63" cy="63" r="63" transform="translate(9 9.719)" fill="#fef7eb"/>
        </g>
      </g>
      <g id="Group_1099405" data-name="Group 1099405" transform="translate(206.234 9571.193)">
        <g id="Group_1099389" data-name="Group 1099389" transform="translate(0 0)">
          <rect id="Rectangle_401104" data-name="Rectangle 401104" width="81" height="83" transform="translate(-0.234 -0.475)" fill="none"/>
        </g>
        <g id="Group_1099566" data-name="Group 1099566" transform="translate(0.766 1.525)">
          <g id="Group_1099565" data-name="Group 1099565" clip-path="url(#clip-path-3)">
            <path id="Path_873768" data-name="Path 873768" d="M26.54,54.744c0-.088.012-.184.012-.279,0-1.173,0-2.346,0-3.519a.375.375,0,0,0-.237-.4,6,6,0,0,1-2.862-3.39,11.093,11.093,0,0,1-.468-6.2,7.455,7.455,0,0,1,2.164-4.2A3.846,3.846,0,0,1,27.946,35.6a4.158,4.158,0,0,1,2.926,1.473c.054.056.1.117.176.2.085-.092.162-.175.239-.257a3.806,3.806,0,0,1,3.673-1.346A4.412,4.412,0,0,1,37.5,37.345a8.472,8.472,0,0,1,1.6,3.6,10.554,10.554,0,0,1-.147,5.214,7.2,7.2,0,0,1-2.164,3.709,12.789,12.789,0,0,1-1.12.74.421.421,0,0,0-.185.272c-.012,1.27-.008,2.541-.008,3.842H41.91V34.258h-.325c-1.055,0-2.111.006-3.167,0a5.931,5.931,0,0,1-5.262-2.917,6.019,6.019,0,0,1,2.954-8.818c.3-.117.271-.326.317-.547a6.959,6.959,0,0,1,8.027-5.442,6.833,6.833,0,0,1,5.516,5.426.722.722,0,0,0,.506.623,6.067,6.067,0,0,1,.42,10.987,5.863,5.863,0,0,1-2.931.688c-1.046,0-2.092,0-3.137,0h-.344c-.01.1-.025.188-.025.273q.008,9.032.017,18.064,0,.968,0,1.935c0,.126-.006.233.174.232.78,0,1.56,0,2.371,0V39.435h2.538v4.476l.072.06,2.889-2.833,1.767,1.743c-.05.055-.1.12-.164.179q-2.176,2.178-4.356,4.352a.72.72,0,0,0-.229.565c.012,2.17.011,4.34.014,6.51,0,.076.007.151.012.277.585,0,1.159,0,1.732-.007a.281.281,0,0,0,.186-.148q1.639-3.272,3.267-6.549,2.183-4.375,4.368-8.75c.331-.664.655-1.331,1-1.987a2.446,2.446,0,0,1,2.2-1.417,2.389,2.389,0,0,1,2.3,1.349c.681,1.306,1.322,2.633,1.981,3.951.077.155.156.309.261.517.2-.394.382-.732.553-1.075q1.4-2.818,2.8-5.637c.47-.943.953-1.879,1.43-2.819a2.487,2.487,0,0,1,4.481-.089c.669,1.357,1.358,2.7,2.035,4.056q2.9,5.8,5.8,11.6,1.655,3.313,3.3,6.633a.574.574,0,0,0,.633.372,12.425,12.425,0,0,1,1.61.014,1.226,1.226,0,0,1,1.1,1.229,33.71,33.71,0,0,1-.895,8.1A35.409,35.409,0,0,1,88,69.639a35.939,35.939,0,0,1-9.347,13.417,34.342,34.342,0,0,1-6.5,4.626,30.54,30.54,0,0,1-6.716,2.777c-1.194.322-2.39.659-3.6.877a30.867,30.867,0,0,1-8.315.438,36.174,36.174,0,0,1-5.053-.8,34.3,34.3,0,0,1-7.045-2.486A34.8,34.8,0,0,1,28.68,77.971a35.866,35.866,0,0,1-4.632-8.183A39.976,39.976,0,0,1,22.2,63.814a40.582,40.582,0,0,1-.678-4.6c-.121-1.054-.1-2.125-.131-3.188a1.207,1.207,0,0,1,1.09-1.242c.533-.049,1.073-.033,1.61-.036.808,0,1.617,0,2.445,0m8.82,2.56-.04.049c.27.157.539.316.811.471a8.418,8.418,0,0,1,4.245,6.74c.134,1.122.083,2.264.132,3.4a4.775,4.775,0,0,0,.911,2.618,3.494,3.494,0,0,0,4.075,1.359c.872-.338,1.764-.624,2.649-.93a4,4,0,0,1,2.087-.112A6.6,6.6,0,0,1,55.5,75.809a5.931,5.931,0,0,1,.35,2.45,9.183,9.183,0,0,1-.879,3.139,6.089,6.089,0,0,1-3.165,3c-1.091.439-2.227.772-3.355,1.111s-2.251.633-3.382.927c-.465.121-.943.191-1.423.286.02.053.021.066.026.068.145.055.293.1.436.163a31.351,31.351,0,0,0,4.49,1.484,29.067,29.067,0,0,0,4.469.757,30.757,30.757,0,0,0,10.21-.714,1.319,1.319,0,0,0,.878-.564,14.1,14.1,0,0,1,3.658-3.556A3.879,3.879,0,0,0,69.3,82.375a4.617,4.617,0,0,0,.175-1.766,3.614,3.614,0,0,0-1.63-3.017,13.834,13.834,0,0,0-1.315-.764,6.643,6.643,0,0,1-3.409-6.23c.032-.552.188-1.095.261-1.646a8.247,8.247,0,0,1,.7-2.674A5.773,5.773,0,0,1,69.943,63c.251.033.5.086.752.115,2.308.271,4.615.537,6.923.81a3,3,0,0,0,2.856-1.131,4.025,4.025,0,0,0,.851-2.236c.064-.661.106-1.324.185-1.983.05-.413.153-.819.239-1.268Zm-8.484-.04v.007c-.879,0-1.759.007-2.638,0-.25,0-.323.075-.3.325q.146,1.382.262,2.768a26.585,26.585,0,0,0,.891,4.679A33.4,33.4,0,0,0,38.941,84.227a.556.556,0,0,0,.272.076c.42.016.84.023,1.26.03a18.427,18.427,0,0,0,5.772-.811c1.313-.406,2.63-.8,3.944-1.2A4.087,4.087,0,0,0,53.1,79.28a5.294,5.294,0,0,0-.092-3.058,3.953,3.953,0,0,0-2.854-2.8,2.94,2.94,0,0,0-1.813.113c-.819.312-1.651.591-2.481.873a5.085,5.085,0,0,1-3.8-.235A6.839,6.839,0,0,1,38,68.422c-.142-1.07-.07-2.168-.139-3.25a6.053,6.053,0,0,0-3.347-5.4C33.02,59,31.535,58.2,30.038,57.42a1.36,1.36,0,0,0-.583-.149c-.86-.016-1.72-.007-2.58-.007m61.174.041c-1.114,0-2.158,0-3.2.007a.406.406,0,0,0-.272.163,4.3,4.3,0,0,0-.7,2.586,6.669,6.669,0,0,1-1.557,4.405A5.418,5.418,0,0,1,77.792,66.5c-.856-.033-1.711-.151-2.563-.252-1.87-.22-3.744-.42-5.607-.692a3.229,3.229,0,0,0-3.544,2.551c-.166.69-.223,1.405-.339,2.108a4.439,4.439,0,0,0,.57,3.126,4.746,4.746,0,0,0,1.916,1.585,9.207,9.207,0,0,1,1.616,1.048,6.677,6.677,0,0,1,.923,8.919c-.313.422-.688.8-1.035,1.193A32.011,32.011,0,0,0,82.61,74.615a33.723,33.723,0,0,0,5.44-17.31m-3.407-2.571L73.9,33.257c-.18.367-.322.659-.467.949-1.617,3.227-3.224,6.46-4.862,9.677a1.272,1.272,0,0,0,0,1.3c1.563,3.079,3.1,6.173,4.634,9.266a.514.514,0,0,0,.548.315c3.468-.006,6.937,0,10.4,0,.15,0,.3-.019.482-.031m-30.429-.007H70.568L62.389,38.373,54.214,54.727M46.35,25.578a.657.657,0,0,1,.14.138q.506.941,1,1.888c.089.17-.026.25-.157.316-.888.448-1.774.9-2.667,1.34a.342.342,0,0,0-.229.357c.013.625.016,1.251.013,1.876,0,.174.053.239.237.238,1.075-.009,2.151.014,3.225-.018a4.326,4.326,0,0,0,1.495-.217,3.6,3.6,0,0,0-.651-6.854,1.34,1.34,0,0,1-1.2-1.394c-.01-.127,0-.255-.021-.38a4.27,4.27,0,0,0-5.9-3.661A4.228,4.228,0,0,0,38.8,23.162a1.367,1.367,0,0,1-1.182,1.478,3.959,3.959,0,0,0-1.551.728,3.591,3.591,0,0,0-1.3,3.139,3.482,3.482,0,0,0,3.2,3.2c1.23-.028,2.462.011,3.693.019.075,0,.15-.012.23-.019a.768.768,0,0,0,.025-.127c.009-.674.025-1.349.015-2.023a.405.405,0,0,0-.2-.274c-.871-.461-1.746-.914-2.628-1.353-.224-.112-.287-.221-.162-.45.286-.522.552-1.055.836-1.578.193-.356.2-.352.575-.156l1.562.822c.009-.146.021-.258.021-.37,0-.6.007-1.193-.012-1.789-.008-.243.065-.334.309-.33.606.01,1.212,0,1.818,0,.4,0,.4.01.4.4,0,.681,0,1.361,0,2.086l1.9-.989M31.677,43.28c.053.583.066,1.173.168,1.747a5.128,5.128,0,0,0,1.425,2.924,1.385,1.385,0,0,0,2.018-.057,4.519,4.519,0,0,0,1.06-1.769,8.734,8.734,0,0,0-.018-5.8,3.857,3.857,0,0,0-1.36-1.97,1.222,1.222,0,0,0-1.424-.027,3.444,3.444,0,0,0-1.115,1.37,7.985,7.985,0,0,0-.755,3.585m-6.376.082a7.442,7.442,0,0,0,.317,2.378,5.072,5.072,0,0,0,1.231,2.2,1.369,1.369,0,0,0,1.992-.008A6.631,6.631,0,0,0,29.6,46.9a.515.515,0,0,0,.035-.386,10.867,10.867,0,0,1,0-6.539.533.533,0,0,0-.017-.361,3.372,3.372,0,0,0-1.012-1.233,1.171,1.171,0,0,0-1.536.014,3.76,3.76,0,0,0-.761.839A7.045,7.045,0,0,0,25.3,43.363m5.752,5.85a4.95,4.95,0,0,1-1.735,1.379.35.35,0,0,0-.177.247c-.011,1.241-.006,2.483-.01,3.724,0,.164.053.22.221.219,1.143-.011,2.286-.011,3.429-.027a.258.258,0,0,0,.182-.174q.019-1.847.009-3.694a.343.343,0,0,0-.121-.264,5.389,5.389,0,0,1-1.8-1.41" transform="translate(-16.362 -12.553)" fill="#6a4d23"/>
            <path id="Path_873769" data-name="Path 873769" d="M256.893,2.38c.549.078,1.1.136,1.647.243a.469.469,0,0,0,.538-.209A5.553,5.553,0,0,1,264.64.09a5.606,5.606,0,0,1,4.222,3.161,5.466,5.466,0,0,1,.449,3.76,8.368,8.368,0,0,1-.691,1.668c-.089.189-.134.288.036.47a5.674,5.674,0,0,1-1.174,8.927,5.213,5.213,0,0,1-3.211.816,5.637,5.637,0,0,1-4.569-2.772c-.115-.19-.229-.189-.409-.142a11.034,11.034,0,0,1-1.816.436,6.819,6.819,0,0,1-5.822-2.306,6.663,6.663,0,0,1-1.839-4.632,7.035,7.035,0,0,1,4.714-6.659,8.594,8.594,0,0,1,2.363-.439m-.1,2.577a6.318,6.318,0,0,0-.873.073,4.482,4.482,0,1,0,2.35,8.634,12.229,12.229,0,0,0,1.3-.651,1.2,1.2,0,0,1,1.817.729c.05.158.092.319.147.475a3.166,3.166,0,0,0,3.754,2.087,3.073,3.073,0,0,0,2.374-2.272,3.064,3.064,0,0,0-.816-3.129,6.385,6.385,0,0,0-.873-.634,1.22,1.22,0,0,1-.57-1.487,2.163,2.163,0,0,1,.537-.713,3.156,3.156,0,0,0,.891-3.119,3.212,3.212,0,0,0-6.1-.374,1.276,1.276,0,0,1-1.728.887,2.809,2.809,0,0,1-.414-.146,3.988,3.988,0,0,0-1.8-.36" transform="translate(-191.054 0)" fill="#6a4d23"/>
            <path id="Path_873770" data-name="Path 873770" d="M9.658,10.7a5.253,5.253,0,0,1-2.393-.505.377.377,0,0,0-.316.014A4.64,4.64,0,0,1,.216,7.59,4.678,4.678,0,0,1,2.766,1.964a4.92,4.92,0,0,1,2.685-.373.6.6,0,0,0,.416-.121A5.108,5.108,0,0,1,11.251.382a5.229,5.229,0,0,1,3.505,5.161,5.211,5.211,0,0,1-3.673,4.872,8.521,8.521,0,0,1-1.424.28M9.442,8.12a2.707,2.707,0,0,0,1.406-.3A2.815,2.815,0,0,0,8.418,2.757,3.606,3.606,0,0,0,7.1,3.838a1.23,1.23,0,0,1-1.7.39A1.855,1.855,0,0,0,4.16,4.108,2.125,2.125,0,0,0,2.942,7.453a2.069,2.069,0,0,0,3.069.373,1.361,1.361,0,0,1,1.855-.171,2.538,2.538,0,0,0,1.576.464" transform="translate(0.001 -0.026)" fill="#6a4d23"/>
          </g>
        </g>
      </g>
    </g>
  </g>
</svg>
