<svg xmlns="http://www.w3.org/2000/svg" xmlns:xlink="http://www.w3.org/1999/xlink" width="145" height="145" viewBox="0 0 145 145">
  <defs>
    <clipPath id="clip-path">
      <rect id="Rectangle_400938" data-name="Rectangle 400938" width="145" height="145" transform="translate(0 -0.281)" fill="none"/>
    </clipPath>
    <clipPath id="clip-path-2">
      <rect id="Rectangle_401073" data-name="Rectangle 401073" width="110.228" height="49.642" fill="#7d3a1b"/>
    </clipPath>
    <clipPath id="clip-path-3">
      <rect id="Rectangle_401174" data-name="Rectangle 401174" width="73.113" height="75" fill="#6a4d23"/>
    </clipPath>
  </defs>
  <g id="Group_1100313" data-name="Group 1100313" transform="translate(-1148 -1975)">
    <g id="Group_1099561" data-name="Group 1099561" transform="translate(973 -7565.719)">
      <g id="Group_1099404" data-name="Group 1099404" transform="translate(175 9541)">
        <g id="Group_1099379" data-name="Group 1099379" transform="translate(0 0)">
          <rect id="Rectangle_401103" data-name="Rectangle 401103" width="145" height="145" transform="translate(0 -0.281)" fill="none"/>
          <g id="Group_1099348" data-name="Group 1099348" transform="translate(0.045 0.045)">
            <g id="Group_1099282" data-name="Group 1099282">
              <g id="Group_1099281" data-name="Group 1099281" clip-path="url(#clip-path-2)">
                <path id="Path_873375" data-name="Path 873375" d="M89.413,10.879c-4.947,0-7.506-2.426-9.765-4.567C77.431,4.213,75.522,2.4,71.529,2.4s-5.9,1.814-8.118,3.913c-2.259,2.141-4.814,4.567-9.765,4.567S46.14,8.453,43.881,6.312C41.664,4.213,39.755,2.4,35.763,2.4s-5.9,1.814-8.114,3.913c-2.259,2.141-4.818,4.567-9.765,4.567s-7.51-2.426-9.769-4.567C5.9,4.213,3.993,2.4,0,2.4V0C4.947,0,7.506,2.43,9.765,4.567c2.217,2.1,4.126,3.913,8.118,3.913S23.785,6.67,26,4.571C28.253,2.43,30.816,0,35.763,0s7.51,2.43,9.765,4.567c2.217,2.1,4.126,3.913,8.118,3.913s5.9-1.81,8.118-3.913C64.019,2.43,66.582,0,71.529,0s7.51,2.43,9.765,4.567c2.217,2.1,4.126,3.913,8.118,3.913s5.9-1.81,8.118-3.913C99.786,2.43,102.345,0,107.3,0V2.4c-3.993,0-5.9,1.814-8.118,3.913-2.259,2.141-4.818,4.567-9.765,4.567" transform="translate(2.932 38.763)" fill="#7d3a1b"/>
                <path id="Path_873376" data-name="Path 873376" d="M89.413,10.879c-4.947,0-7.51-2.426-9.765-4.571C77.431,4.209,75.522,2.4,71.529,2.4s-5.9,1.81-8.118,3.909c-2.255,2.145-4.814,4.571-9.765,4.571s-7.51-2.426-9.765-4.571C41.664,4.209,39.755,2.4,35.763,2.4s-5.9,1.814-8.115,3.909c-2.259,2.145-4.818,4.571-9.765,4.571s-7.51-2.426-9.769-4.571C5.9,4.209,3.993,2.4,0,2.4V0C4.947,0,7.51,2.426,9.765,4.567c2.217,2.1,4.126,3.913,8.118,3.913S23.785,6.67,26,4.567C28.253,2.426,30.816,0,35.763,0s7.51,2.426,9.769,4.567c2.213,2.1,4.122,3.913,8.115,3.913s5.9-1.81,8.118-3.913C64.019,2.426,66.582,0,71.529,0s7.51,2.426,9.765,4.567c2.217,2.1,4.126,3.913,8.118,3.913s5.9-1.81,8.118-3.913C99.79,2.426,102.349,0,107.3,0V2.4c-3.993,0-5.905,1.814-8.122,3.909-2.259,2.145-4.818,4.571-9.765,4.571" transform="translate(1.955 25.842)" fill="#7d3a1b"/>
                <path id="Path_873377" data-name="Path 873377" d="M89.412,10.879c-4.947,0-7.51-2.426-9.765-4.571C77.431,4.209,75.522,2.4,71.529,2.4s-5.9,1.81-8.118,3.909c-2.255,2.145-4.818,4.571-9.765,4.571s-7.51-2.426-9.765-4.571C41.664,4.209,39.755,2.4,35.763,2.4s-5.9,1.814-8.115,3.909c-2.259,2.145-4.818,4.571-9.765,4.571s-7.51-2.426-9.769-4.571C5.9,4.209,3.993,2.4,0,2.4V0C4.947,0,7.51,2.426,9.765,4.567c2.213,2.1,4.126,3.913,8.118,3.913S23.785,6.67,26,4.567C28.253,2.426,30.816,0,35.763,0s7.51,2.426,9.769,4.567c2.213,2.1,4.122,3.913,8.115,3.913s5.9-1.81,8.118-3.913C64.019,2.426,66.582,0,71.529,0s7.51,2.426,9.765,4.567c2.217,2.1,4.126,3.913,8.118,3.913s5.9-1.81,8.118-3.913C99.79,2.426,102.345,0,107.3,0V2.4c-3.993,0-5.905,1.814-8.122,3.909-2.259,2.145-4.818,4.571-9.765,4.571" transform="translate(0.977 12.921)" fill="#7d3a1b"/>
                <path id="Path_873378" data-name="Path 873378" d="M89.413,10.875c-4.947,0-7.506-2.426-9.765-4.567C77.431,4.209,75.522,2.4,71.529,2.4s-5.9,1.81-8.115,3.909c-2.259,2.141-4.818,4.567-9.769,4.567S46.14,8.449,43.881,6.308C41.664,4.209,39.755,2.4,35.763,2.4s-5.9,1.81-8.115,3.905c-2.255,2.145-4.818,4.571-9.765,4.571s-7.51-2.426-9.769-4.567C5.9,4.209,3.993,2.4,0,2.4V0C4.947,0,7.51,2.426,9.765,4.567c2.217,2.1,4.126,3.909,8.118,3.909s5.9-1.81,8.115-3.909C28.257,2.426,30.816,0,35.763,0s7.506,2.426,9.769,4.567c2.213,2.1,4.122,3.909,8.115,3.909s5.9-1.81,8.118-3.909C64.023,2.426,66.582,0,71.529,0s7.506,2.426,9.765,4.567c2.217,2.1,4.126,3.909,8.118,3.909s5.9-1.81,8.118-3.909C99.79,2.426,102.349,0,107.3,0V2.4c-4,0-5.905,1.81-8.122,3.909-2.259,2.141-4.818,4.567-9.765,4.567" transform="translate(0 0.004)" fill="#7d3a1b"/>
              </g>
            </g>
          </g>
          <path id="Path_873425" data-name="Path 873425" d="M60.362,0A60.362,60.362,0,1,1,0,60.362,60.362,60.362,0,0,1,60.362,0Z" transform="translate(17.974 21.56)" fill="#efb499"/>
          <circle id="Ellipse_11503" data-name="Ellipse 11503" cx="63" cy="63" r="63" transform="translate(9 9.719)" fill="#fef7eb"/>
        </g>
      </g>
      <g id="Group_1099405" data-name="Group 1099405" transform="translate(206.234 9571.193)">
        <g id="Group_1099389" data-name="Group 1099389" transform="translate(0 0)">
          <rect id="Rectangle_401104" data-name="Rectangle 401104" width="81" height="83" transform="translate(-0.234 -0.475)" fill="none"/>
        </g>
        <g id="Grupo_156261" data-name="Grupo 156261" transform="translate(2.991 2.281)">
          <g id="Group_1099562" data-name="Group 1099562" transform="translate(0.775 1.245)">
            <g id="Group_1099562-2" data-name="Group 1099562" clip-path="url(#clip-path-3)">
              <path id="Path_873755" data-name="Path 873755" d="M57.506,133.12h6.917V113.948a4.475,4.475,0,0,0-2.7,1.468,5.06,5.06,0,0,0-.552.777,1.118,1.118,0,0,1-1.087.588,1.142,1.142,0,0,1-.928-1.027,1.163,1.163,0,0,1,.165-.58,6.688,6.688,0,0,1,3.248-2.916c.317-.138.646-.247.991-.377a4.686,4.686,0,0,0-1.574-.922,8.217,8.217,0,0,0-2.267-.5,1.089,1.089,0,0,1-.915-1.132,1.119,1.119,0,0,1,1.068-1.054,3.411,3.411,0,0,1,.753.081,9.928,9.928,0,0,1,3.922,1.554.386.386,0,0,0,.109.031,4.588,4.588,0,0,0-1.789-3.029,1.146,1.146,0,0,1,.08-1.824,1.111,1.111,0,0,1,1.251.133,6.879,6.879,0,0,1,1.857,2.3,6.046,6.046,0,0,1,.644,1.918,1.047,1.047,0,0,0,.056.206c.008.023.034.039.057.063.274-.153.541-.321.824-.455a11.8,11.8,0,0,1,3.175-.957,1.183,1.183,0,0,1,1.269.5,1.075,1.075,0,0,1-.74,1.675,7.173,7.173,0,0,0-2.262.509,14.136,14.136,0,0,0-1.362.727,1.088,1.088,0,0,0-.181.168c.46.194.906.358,1.332.566a6.712,6.712,0,0,1,2.869,2.7,1.026,1.026,0,0,1-.251,1.4.966.966,0,0,1-1.371-.1,1.748,1.748,0,0,1-.225-.295,4.548,4.548,0,0,0-2.851-2.112l-.2-.053-.23-.065c.01.189.025.352.025.516q0,9.106,0,18.212c0,.49,0,.485.473.489a17.407,17.407,0,0,1,2.406.053,4.209,4.209,0,0,1,.261,8.282,7.328,7.328,0,0,1-1.223.109q-32.064.007-64.128,0a4.135,4.135,0,0,1-3.775-2,4.207,4.207,0,0,1,2-6.13,4.343,4.343,0,0,1,1.684-.321c.655.011,1.31,0,1.964.009.2,0,.248-.053.2-.246a1.732,1.732,0,0,1-.017-.374q0-8.958,0-17.917v-.652a4.511,4.511,0,0,0-3.236,2.181,1.18,1.18,0,0,1-1.119.64,1.084,1.084,0,0,1-.9-.924,1.4,1.4,0,0,1,.183-.753,6.82,6.82,0,0,1,4-3.129c.05-.016.1-.033.178-.06a1.357,1.357,0,0,0-.141-.153,5.016,5.016,0,0,0-1.492-.814,8.286,8.286,0,0,0-2.192-.471,1.141,1.141,0,0,1-.945-1.12,1.188,1.188,0,0,1,1.1-1.066,4.384,4.384,0,0,1,.881.1,10.333,10.333,0,0,1,3.169,1.136c.105.062.207.131.348.221.051-.2.1-.379.144-.564a6.909,6.909,0,0,1,2.469-3.967,1.033,1.033,0,0,1,1.311-.041,1.071,1.071,0,0,1,.307,1.324,1.028,1.028,0,0,1-.293.365,4.889,4.889,0,0,0-1.761,2.9c-.013.066-.019.134-.034.248.172-.122.3-.223.44-.312a10.382,10.382,0,0,1,4.033-1.4,1.047,1.047,0,0,1,1.312.772,1.074,1.074,0,0,1-.894,1.41,7.047,7.047,0,0,0-2.287.52,13.813,13.813,0,0,0-1.34.716.46.46,0,0,0-.19.131,7.972,7.972,0,0,1,2.958,1.7,6.1,6.1,0,0,1,1.295,1.641,1.029,1.029,0,0,1-.379,1.448,1.009,1.009,0,0,1-1.443-.407,4.5,4.5,0,0,0-1.956-1.842,11.739,11.739,0,0,0-1.358-.486c0,.272,0,.473,0,.675q0,2.914.007,5.829,0,6.1,0,12.2c0,.546,0,.545.543.545,2.043,0,4.086,0,6.13.01.194,0,.274-.025.274-.257Q15.6,110.036,15.6,87.191c0-.367,0-.734,0-1.1a1.209,1.209,0,0,1,.689-1.143,1.034,1.034,0,0,1,1.4.752,4.146,4.146,0,0,1,.04.615q0,23.088,0,46.175c0,.644,0,.642.634.642,2.419,0,4.837,0,7.256.006.219,0,.259-.067.258-.271-.007-1.594,0-3.188,0-4.781a1.165,1.165,0,0,1,.364-.992.924.924,0,0,1,1.056-.237,1.135,1.135,0,0,1,.72,1.081c0,1.647,0,3.3-.009,4.942,0,.207.052.26.246.259q3.445-.01,6.89-.009c.352,0,.35,0,.35-.372q0-7.118,0-14.237c0-.232-.049-.306-.286-.3-1.79.009-3.58,0-5.37,0-.532,0-1.065,0-1.6-.012-.188-.005-.232.058-.231.246.007,1.63,0,3.259,0,4.889a1.114,1.114,0,0,1-.426.986.962.962,0,0,1-1.078.132,1.058,1.058,0,0,1-.625-.949c-.02-.429,0-.859,0-1.289,0-1.63,0-3.259.005-4.889a1.863,1.863,0,0,1,.123-.677,1.055,1.055,0,0,1,1.007-.644c.087-.005.175,0,.262,0H45.928c.909,0,1.308.419,1.308,1.344q0,7.642,0,15.284c0,.5,0,.494.5.494,2.454,0,4.907,0,7.361.016.257,0,.311-.072.309-.336-.016-2.023-.012-4.047-.013-6.07q0-12.731,0-25.463c0-.161.007-.322.018-.483a1.022,1.022,0,0,1,1-1,1.049,1.049,0,0,1,1.058.857,3.146,3.146,0,0,1,.047.614q0,15.459,0,30.917v.942m-20.952,2.229H4.232c-.114,0-.227,0-.341,0a2.049,2.049,0,0,0-1.764,2.37,2.124,2.124,0,0,0,2.132,1.7H22.569q23.128,0,46.257-.006a2.6,2.6,0,0,0,.869-.159,2.025,2.025,0,0,0-.765-3.92q-16.187.026-32.375.011m8.536-17.135h-.184l-6.624.006c-.674,0-.668,0-.668.684q0,6.927,0,13.853c0,.374,0,.371.361.372q3.338,0,6.676.011c.441,0,.434.005.434-.451q0-7.018,0-14.036v-.439" transform="translate(0 -66.581)" fill="#6a4d23"/>
              <path id="Path_873756" data-name="Path 873756" d="M64.9,8.446a2.764,2.764,0,0,1-1.7-.771,2.359,2.359,0,0,1-.752-1.688c-.018-1.208-.035-2.418,0-3.625A2.469,2.469,0,0,1,64.579.057,4.675,4.675,0,0,1,65.257,0Q85.9,0,106.537,0a2.637,2.637,0,0,1,2.377,1.207,2.332,2.332,0,0,1,.371,1.268c.015,1.19.035,2.382-.006,3.571A2.547,2.547,0,0,1,107.1,8.41l-.284.037V8.8q0,10.408.006,20.815a1.3,1.3,0,0,1-.627,1.239,1.014,1.014,0,0,1-1.469-.773c-.021-.213-.027-.429-.027-.644q0-10.259,0-20.519V8.451c-.093-.009-.15-.019-.208-.019Q88.96,8.425,73.427,8.419c-2.043,0-4.086.007-6.129,0-.225,0-.271.071-.269.293q.018,3.035.009,6.07c0,.737-.212,1.047-.752,1.228a1.035,1.035,0,0,1-1.318-.8,3.709,3.709,0,0,1-.051-.721q0-2.914,0-5.828c0-.069-.01-.139-.015-.213M85.9,6.231h20.642c.575,0,.63-.065.625-.642q-.012-1.262,0-2.524c.006-.837-.053-.907-.863-.907q-4.833,0-9.666,0h-30.1c-.454,0-.908,0-1.362.01-.475.013-.587.131-.59.611,0,.913,0,1.827,0,2.74,0,.692.022.718.7.718H85.9" transform="translate(-49.314 0)" fill="#6a4d23"/>
              <path id="Path_873757" data-name="Path 873757" d="M163.043,64.928c0,.743.03,1.487-.007,2.228a1.855,1.855,0,0,1-1.89,1.838c-1.369.053-2.742.051-4.111,0a1.842,1.842,0,0,1-1.876-1.822c-.036-1.538-.024-3.079.009-4.617a1.835,1.835,0,0,1,1.487-1.653,4.36,4.36,0,0,1,.7-.06q1.846-.009,3.693,0A1.914,1.914,0,0,1,163,62.38a8.478,8.478,0,0,1,.056,1.2c.008.447,0,.9,0,1.343h-.015m-5.736-1.834c0,1.164.013,2.3-.011,3.433-.005.234.035.269.24.267.969-.008,1.938,0,2.907,0,.441,0,.435,0,.433-.445,0-.994,0-1.987,0-2.981v-.272Z" transform="translate(-122.54 -47.73)" fill="#6a4d23"/>
              <path id="Path_873758" data-name="Path 873758" d="M163.059,175.911c0,.68.009,1.361,0,2.041a1.882,1.882,0,0,1-1.94,1.983c-1.343.036-2.689.029-4.033,0a1.871,1.871,0,0,1-1.877-1.455,2.232,2.232,0,0,1-.061-.531c0-1.414.01-2.828,0-4.242a1.884,1.884,0,0,1,1.9-1.873c1.37.02,2.741-.006,4.112.008a1.816,1.816,0,0,1,1.883,1.841c.036.741.007,1.485.007,2.228h.011m-2.173-1.874h-3.558v3.711h3.558Z" transform="translate(-122.546 -134.816)" fill="#6a4d23"/>
              <path id="Path_873759" data-name="Path 873759" d="M159.079,116.4c.759,0,1.519-.023,2.278.006A1.8,1.8,0,0,1,163,118.07q.054,2.348.007,4.7a1.8,1.8,0,0,1-1.59,1.691c-.433.045-.871.044-1.307.047-.969.007-1.938.011-2.907,0a1.909,1.909,0,0,1-1.927-1.2,2.28,2.28,0,0,1-.156-.835c-.007-1.441-.011-2.882.028-4.322a1.808,1.808,0,0,1,1.705-1.744c.741-.03,1.484-.006,2.225-.006v0m1.782,2.228h-3.55V122.3h3.55Z" transform="translate(-122.522 -91.312)" fill="#6a4d23"/>
              <path id="Path_873760" data-name="Path 873760" d="M112.315,64.908c0,.7,0,1.4,0,2.095a1.866,1.866,0,0,1-1.5,1.927,1.92,1.92,0,0,1-.49.063c-1.292,0-2.585.021-3.876,0a1.947,1.947,0,0,1-2.029-2.1c.006-1.316.012-2.631.008-3.947a1.9,1.9,0,0,1,2.013-2.113q1.938-.017,3.876,0a1.865,1.865,0,0,1,1.77,1.033,2.547,2.547,0,0,1,.215,1c.032.679.009,1.36.009,2.041Zm-5.75,1.851h3.551V63.1h-3.551Z" transform="translate(-82.48 -47.72)" fill="#6a4d23"/>
              <path id="Path_873761" data-name="Path 873761" d="M205.98,64.871c0-.779-.028-1.558.008-2.335a1.794,1.794,0,0,1,1.52-1.637,10.364,10.364,0,0,1,1.148-.055c1.048-.007,2.1,0,3.143,0a1.889,1.889,0,0,1,2.023,2.052c.013,1.361.009,2.722.012,4.082A1.906,1.906,0,0,1,211.828,69c-1.3.026-2.6.024-3.9,0a1.961,1.961,0,0,1-1.7-.932,1.987,1.987,0,0,1-.263-1.1c-.005-.7,0-1.4,0-2.095h.023m5.709-1.766h-3.533a.391.391,0,0,0-.026.09c0,1.144,0,2.289-.008,3.433,0,.16.08.165.2.165.7,0,1.4,0,2.092,0h1.276Z" transform="translate(-162.68 -47.733)" fill="#6a4d23"/>
              <path id="Path_873762" data-name="Path 873762" d="M112.343,175.9c0,.7.011,1.4,0,2.094a1.823,1.823,0,0,1-1.627,1.907,3.543,3.543,0,0,1-.546.047c-1.2,0-2.409.011-3.613,0a2.9,2.9,0,0,1-.871-.148,1.68,1.68,0,0,1-1.192-1.569c-.04-.5-.015-1-.018-1.5-.007-.985-.011-1.969-.02-2.953a1.821,1.821,0,0,1,1.281-1.845,2.087,2.087,0,0,1,.62-.08c1.362-.007,2.723,0,4.085-.005a1.736,1.736,0,0,1,1.671.991,2.55,2.55,0,0,1,.218,1c.032.688.01,1.378.01,2.067Zm-2.2-1.854H106.6v3.7h3.54Z" transform="translate(-82.505 -134.824)" fill="#6a4d23"/>
              <path id="Path_873763" data-name="Path 873763" d="M108.436,116.411h2.225a1.859,1.859,0,0,1,1.692,1.674c0,.778.012,1.557.016,2.335,0,.68-.016,1.361.008,2.04a1.846,1.846,0,0,1-1.81,2.038c-1.473.042-2.949.036-4.421-.028a1.717,1.717,0,0,1-1.628-1.722c-.039-.759-.012-1.521-.016-2.281,0-.689-.016-1.378-.01-2.067a1.863,1.863,0,0,1,.975-1.769,1.654,1.654,0,0,1,.69-.211c.758-.026,1.518-.01,2.277-.01h0m1.738,2.228h-3.533v3.677h3.533Z" transform="translate(-82.535 -91.327)" fill="#6a4d23"/>
              <path id="Path_873764" data-name="Path 873764" d="M213.847,120.388c0,.68,0,1.36,0,2.04a1.889,1.889,0,0,1-1.991,2.055q-1.9.015-3.8,0a1.913,1.913,0,0,1-1.807-.92,1.867,1.867,0,0,1-.256-.854c-.021-1.556-.029-3.113.01-4.669a1.756,1.756,0,0,1,1.634-1.659c.915-.036,1.832-.021,2.748-.022.593,0,1.187-.011,1.779.019a1.773,1.773,0,0,1,1.651,1.675c.037.776.008,1.556.008,2.334h.021M211.7,118.6h-3.538v3.684H211.7Z" transform="translate(-162.698 -91.29)" fill="#6a4d23"/>
              <path id="Path_873765" data-name="Path 873765" d="M213.873,175.927c0,.654,0,1.307,0,1.961A1.9,1.9,0,0,1,211.8,180c-1.249,0-2.5.01-3.745,0a1.965,1.965,0,0,1-1.729-.83,1.657,1.657,0,0,1-.315-.949c0-1.531.015-3.061,0-4.592a1.827,1.827,0,0,1,1.62-1.711c1.57-.011,3.142-.026,4.711.028a1.632,1.632,0,0,1,1.5,1.6c.038.795.008,1.593.008,2.389h.024m-5.691,1.862h3.55V174.1h-3.55Z" transform="translate(-162.724 -134.87)" fill="#6a4d23"/>
            </g>
          </g>
        </g>
      </g>
    </g>
  </g>
</svg>
