<svg xmlns="http://www.w3.org/2000/svg" xmlns:xlink="http://www.w3.org/1999/xlink" width="68" height="69" viewBox="0 0 68 69">
  <defs>
    <clipPath id="clip-path">
      <rect id="Rectangle_401998" data-name="Rectangle 401998" width="68" height="54.071" fill="none"/>
    </clipPath>
  </defs>
  <g id="Group_1100315" data-name="Group 1100315" transform="translate(-1237 -1296)">
    <g id="Group_1099380" data-name="Group 1099380" transform="translate(1236.941 1296.339)">
      <rect id="Rectangle_401104" data-name="Rectangle 401104" width="68" height="69" transform="translate(0.059 -0.339)" fill="none"/>
      <g id="Group_1099855" data-name="Group 1099855" transform="translate(0.059 6.661)">
        <g id="Group_1099854" data-name="Group 1099854" clip-path="url(#clip-path)">
          <path id="Path_876713" data-name="Path 876713" d="M63.138,230.213a2.271,2.271,0,0,1,.74.079.853.853,0,0,1,.623.825c.006.266,0,.532,0,.8-1.084.032-2.169-.047-3.253.044a1.589,1.589,0,0,0-1.227,1.123,9.033,9.033,0,0,0-.047,1.162c-.018.232.062.31.3.308,1.41-.01,2.821,0,4.232,0a1.177,1.177,0,0,0,.359.048c.666,0,1.332.023,2-.007a1.07,1.07,0,0,1,1.148,1.132c.01.788.009,1.575,0,2.363a1.033,1.033,0,0,1-1.131,1.139c-.43.008-.86,0-1.29,0q-28.733,0-57.466.01c-2.311,0-4.624.045-6.935.03-.668,0-1.158-.213-1.164-1.13-.006-.844,0-1.689,0-2.533a.967.967,0,0,1,.991-1.017c.777-.041,1.553-.044,2.329-.034.181,0,.189-.088.188-.227,0-1.023.014-2.047-.009-3.069-.016-.708.314-.961,1.026-1.04.112-.012.227,0,.34-.007l4.06,0a.458.458,0,0,0,.234-.05,2.894,2.894,0,0,0,.618.093,1,1,0,0,1,.84.983c0,.227,0,.454-.006.681-1.023,0-2.045,0-3.067,0a1.918,1.918,0,0,0-.691.109,1.21,1.21,0,0,0-.818,1.1c.021.389.014.78,0,1.169-.007.2.047.269.255.265.4-.006.8-.017,1.206-.01,1.038.017,2.077.006,3.116.006a.6.6,0,0,0,.308.046h3.718c.64,0,1.28,0,1.92,0,.134,0,.244-.011.243-.187,0-.8.024-1.606-.019-2.406a4.884,4.884,0,0,1,.066-1.054.834.834,0,0,1,.743-.693,3.071,3.071,0,0,0,.617-.095.591.591,0,0,0,.331.051h3.355a2.232,2.232,0,0,0,.65-.051c.09.082.2.035.3.05.542.081.776.111,1.029.733a2.562,2.562,0,0,1,.074.975c-1.1.021-2.205-.065-3.3.047a1.35,1.35,0,0,0-1.157.913,2.58,2.58,0,0,0-.108,1.334c.049.332.039.334.369.334h3.6a2.044,2.044,0,0,0,.6-.052c.036.14.152.1.24.1q2.93,0,5.86,0c.322,0,.336-.017.336-.349,0-.957,0-1.914,0-2.87a1.391,1.391,0,0,1,.134-.585.772.772,0,0,1,.621-.5,4.074,4.074,0,0,0,.71-.122,1.284,1.284,0,0,0,.382.051q1.762,0,3.524,0a1.325,1.325,0,0,0,.382-.052,4.119,4.119,0,0,1,.516.077.961.961,0,0,1,.8.543,2.36,2.36,0,0,1,.131,1.138c-.389,0-.778-.011-1.166,0a14.217,14.217,0,0,0-2.18.053,1.4,1.4,0,0,0-1.144.922,5.634,5.634,0,0,0-.158,1.291c-.034.239.164.377.414.364.065,0,.13,0,.195,0q1.8,0,3.6,0a1.33,1.33,0,0,0,.406-.051.671.671,0,0,0,.369.1q2.909,0,5.819,0c.221,0,.3-.063.294-.291-.011-1-.008-2,0-3a1.029,1.029,0,0,1,.951-1.1,1.982,1.982,0,0,0,.5-.057.592.592,0,0,0,.331.052q1.783,0,3.567,0a1.381,1.381,0,0,0,.405-.054,1.537,1.537,0,0,0,.306.054,1.051,1.051,0,0,1,1.068.855c.043.292-.009.568.02.85-1.1.024-2.206-.065-3.305.048a1.531,1.531,0,0,0-1.273,1.31,6.5,6.5,0,0,0,.007.932c.007.3.04.338.337.339q1.948,0,3.9,0a.951.951,0,0,0,.333-.053.435.435,0,0,0,.362.1c1.84,0,3.681,0,5.521.005.244,0,.322-.069.319-.316-.013-1.022.014-2.044-.016-3.065a1.052,1.052,0,0,1,.763-.965c.235-.049.473-.052.707-.09a.545.545,0,0,0,.306.05h3.981" transform="translate(-0.014 -185.199)" fill="#fdd79b"/>
          <path id="Path_876714" data-name="Path 876714" d="M38.1,3.386a1.582,1.582,0,0,0,.832.293.407.407,0,0,1,.119.02c.653.232,1.337.366,1.989.6a12.156,12.156,0,0,0,1.181.315c.206.05.4.141.6.2.425.133.869.185,1.288.332a2.876,2.876,0,0,0,.611.223c.539.063,1.022.33,1.557.427.377.068.731.259,1.1.354.552.141,1.086.368,1.645.453.473.071.867.328,1.326.417.843.163,1.651.461,2.478.683.8.215,1.6.467,2.4.679.684.18,1.365.39,2.044.6.847.26,1.709.474,2.552.745.577.185,1.164.332,1.744.5.79.225,1.579.459,2.372.675,1.151.314,2.292.669,3.434,1.019.488.149.614.345.614.859q0,1.534,0,3.068a.458.458,0,0,1-.466.5c-.154.01-.308,0-.462,0A.122.122,0,0,0,67,16.22a5.97,5.97,0,0,0-.9-.346c-.718-.158-1.385-.479-2.109-.625-.232-.047-.458-.179-.7-.22-.427-.073-.818-.263-1.234-.375a4.828,4.828,0,0,1-.93-.262,2.835,2.835,0,0,0-.838-.264c-.325-.047-.61-.187-.919-.261-.653-.157-1.285-.4-1.94-.554a13.25,13.25,0,0,0-1.275-.4,14.337,14.337,0,0,1-1.762-.507c-.795-.2-1.575-.469-2.37-.682-.659-.191-1.319-.38-1.977-.574-.808-.239-1.609-.506-2.424-.719-.717-.187-1.43-.388-2.14-.593-.9-.261-1.808-.53-2.713-.789-1.147-.328-2.291-.664-3.436-1a4.3,4.3,0,0,0-.492-.171c-.61-.1-1.19-.332-1.789-.487a20.323,20.323,0,0,1-2.383-.706,2.1,2.1,0,0,0-1.558.057c-.55.212-1.127.315-1.676.529A18.116,18.116,0,0,1,29.61,7.8c-.867.237-1.724.51-2.6.721a4.429,4.429,0,0,0-.635.177c-.334.137-.688.2-1.025.332s-.716.134-1.04.261c-.369.145-.748.225-1.118.345-.095.03-.191-.045-.274.039a.916.916,0,0,1-.6.235,11.136,11.136,0,0,0-1.4.384c-.382.082-.76.223-1.137.344-.809.259-1.633.471-2.451.7-.465.13-.919.3-1.4.384-.308.1-.611.211-.924.284-.47.109-.929.262-1.4.377-.354.086-.714.256-1.071.342-.673.163-1.3.455-1.984.591a12.4,12.4,0,0,0-1.318.4c-.63.2-1.265.387-1.9.579-1.5.455-3,.9-4.5,1.344-.526.157-1.058.294-1.574.477-.193.069-.443.016-.578.231A.591.591,0,0,1,0,15.66c.026-1,.008-2,.008-3a.68.68,0,0,1,.548-.719c.871-.3,1.77-.508,2.649-.783.793-.249,1.594-.471,2.392-.7.76-.214,1.512-.455,2.277-.654.882-.23,1.757-.49,2.633-.744s1.748-.522,2.624-.774c1.169-.337,2.344-.654,3.51-1,.825-.246,1.659-.463,2.481-.717.686-.213,1.385-.384,2.063-.623.288-.1.6-.146.889-.232.324-.095.638-.229.966-.307.641-.154,1.248-.428,1.906-.521a2.478,2.478,0,0,0,.55-.176,14.4,14.4,0,0,1,1.714-.5,14.35,14.35,0,0,1,2.239-.59c.172-.016.281-.2.464-.19a.731.731,0,0,0,.12-.017c.477-.146.949-.321,1.427-.448.528-.14,1.065-.252,1.584-.426a2.911,2.911,0,0,1,1.458-.1,22.432,22.432,0,0,1,2.474.668,4.543,4.543,0,0,0,1.125.271" transform="translate(0 -1.928)" fill="#fef1da"/>
          <path id="Path_876715" data-name="Path 876715" d="M12.549,77.894a.375.375,0,0,0-.279-.051c-.761.021-1.015-.332-1.019-1.029-.006-1,0-2.007,0-3.01.089,0,.179-.005.268-.005h41.87l21.47,0c0,.987,0,1.974,0,2.96a1.279,1.279,0,0,1-.152.671.726.726,0,0,1-.707.413c-.137-.008-.275,0-.412,0a.52.52,0,0,0-.258-.049c-.333-.027-.661.048-.993.047q-2.951,0-5.9,0a7.6,7.6,0,0,0-1.183,0c-1.666,0-3.333,0-5,0a2.119,2.119,0,0,0-.794-.039,8.737,8.737,0,0,1-1.088.034c-.631.006-1.262.01-1.893,0-.994-.016-1.988.048-2.981-.037a.626.626,0,0,0-.4.036l-6.429.007a2.208,2.208,0,0,0-.748-.04,6.808,6.808,0,0,1-1.019.035c-1.387,0-2.775.009-4.162,0a6.054,6.054,0,0,0-1.28.008l-6.429,0a1.959,1.959,0,0,0-.773-.037,9.587,9.587,0,0,1-1.4.028c-1.4.02-2.792.008-4.188.006a2.515,2.515,0,0,0-.794,0,.789.789,0,0,0-.431-.033,6.535,6.535,0,0,1-.921.03q-2.417.006-4.834.008a6.957,6.957,0,0,0-1.327-.01c-1.6.013-3.192.005-4.788,0a3.708,3.708,0,0,1-.483-.031c-.177-.023-.375-.069-.53.087" transform="translate(-9.049 -59.381)" fill="#fef1da"/>
          <path id="Path_876716" data-name="Path 876716" d="M68.653,54.75l-21.47,0H5.313c-.089,0-.179,0-.268.005L3.54,54.747c.135-.216.385-.163.578-.231.516-.183,1.048-.321,1.574-.477,1.5-.447,3-.888,4.5-1.344.632-.192,1.267-.378,1.9-.579a12.379,12.379,0,0,1,1.318-.4c.68-.136,1.311-.428,1.984-.591.357-.086.717-.256,1.071-.342.469-.114.928-.267,1.4-.376.313-.073.616-.188.924-.284-.007.116.037.2.163.188.309-.025.612.052.919.052H54.377a1.193,1.193,0,0,0,.194,0c.141-.024.27-.07.3-.238.794.213,1.575.478,2.37.683A14.359,14.359,0,0,0,59,51.312a13.322,13.322,0,0,1,1.274.4c.655.15,1.286.4,1.94.555.309.074.594.213.919.261a2.839,2.839,0,0,1,.838.264,4.825,4.825,0,0,0,.93.263c.416.112.807.3,1.234.375.245.042.471.173.7.22.723.146,1.39.467,2.109.625a5.941,5.941,0,0,1,.9.345.122.122,0,0,1,.065.122l-1.262.005" transform="translate(-2.848 -40.331)" fill="#fddeaf"/>
          <path id="Path_876717" data-name="Path 876717" d="M305.466,123.694c0,.1.008.194.008.292q0,9.4,0,18.81c0,.1.043.213-.053.3-.36.043-.72.019-1.08.026a29.448,29.448,0,0,1-3.144-.03c0-.014-.006-.029-.009-.043s0-.036,0-.054q0-2.983.006-5.966,0-6.661,0-13.321a4.985,4.985,0,0,1,.542-.049c1.243.018,2.487-.053,3.729.039" transform="translate(-242.349 -99.491)" fill="#fef1da"/>
          <path id="Path_876718" data-name="Path 876718" d="M24.978,142.94c0-.438,0-.876,0-1.314q0-8.923,0-17.845c0-.1.005-.194.008-.292,1.423-.021,2.846.071,4.268-.038-.01.373-.03.745-.03,1.118q0,7.843,0,15.686c0,.892-.02,1.785.029,2.676a37.092,37.092,0,0,1-4.271.008" transform="translate(-20.095 -99.335)" fill="#fef1da"/>
          <path id="Path_876719" data-name="Path 876719" d="M293.709,94.278q2.951,0,5.9,0c.332,0,.66-.074.993-.048a.519.519,0,0,1,.258.049c-.078.517-.016,1.038-.047,1.557a2.958,2.958,0,0,0-.359-.045c-.665,0-1.331-.009-2,0a1.123,1.123,0,0,0-1.084.814,2.964,2.964,0,0,0-.029,1.2.729.729,0,0,0,.273.57c.06.042.138.085.118.167-.028.112-.135.066-.207.066-.69,0-1.379,0-2.069.007-.1,0-.2-.091-.3,0-.154,0-.308,0-.461-.009a.984.984,0,0,1-.995-1.026c0-1.1,0-2.2,0-3.307" transform="translate(-236.332 -75.815)" fill="#fdd79b"/>
          <path id="Path_876720" data-name="Path 876720" d="M17.81,94.308c.155-.156.353-.11.53-.087a3.708,3.708,0,0,0,.483.031c1.6,0,3.192.008,4.788,0a6.958,6.958,0,0,1,1.327.01q-.008.78-.015,1.561a.993.993,0,0,0-.259-.054c-.778,0-1.555-.007-2.333,0a1.022,1.022,0,0,0-1,1.034,3.687,3.687,0,0,1,0,.607,1.091,1.091,0,0,0,.4.97c.051.043.143.089.11.169s-.13.04-.2.041c-.818,0-1.636,0-2.454.006a3.031,3.031,0,0,1-.674-.05.833.833,0,0,1-.685-.874c0-.841,0-1.682,0-2.524a3.77,3.77,0,0,1-.011-.841" transform="translate(-14.31 -75.795)" fill="#fdd79b"/>
          <path id="Path_876721" data-name="Path 876721" d="M24.944,105.05c.818,0,1.636,0,2.454-.006.068,0,.165.04.2-.041s-.059-.126-.11-.169a1.091,1.091,0,0,1-.4-.97,3.687,3.687,0,0,0,0-.607,1.022,1.022,0,0,1,1-1.034c.777-.012,1.555,0,2.333,0a1,1,0,0,1,.259.054,16.62,16.62,0,0,1-.03,1.887.92.92,0,0,1-.567.777,1.5,1.5,0,0,1-.646.06c-.161-.008-.21.048-.207.206.006.388,0,.775-.007,1.163-1.422.109-2.845.016-4.268.038l-.014-1.353" transform="translate(-20.071 -82.25)" fill="#fddeaf"/>
          <path id="Path_876722" data-name="Path 876722" d="M301.167,105.055c.1-.094.2,0,.3,0,.69-.009,1.379,0,2.069-.007.073,0,.179.045.207-.066.021-.082-.058-.126-.118-.167a.729.729,0,0,1-.272-.57,2.971,2.971,0,0,1,.029-1.2,1.123,1.123,0,0,1,1.084-.814c.665-.009,1.331,0,2,0a2.962,2.962,0,0,1,.359.045c0,.624.011,1.248,0,1.872a.829.829,0,0,1-.784.86c-.08.01-.158.033-.238.042-.34.038-.34.037-.341.389s0,.681-.006,1.021c-1.242-.092-2.486-.021-3.729-.039a5,5,0,0,0-.542.049q-.006-.7-.012-1.408" transform="translate(-242.334 -82.25)" fill="#fddeaf"/>
          <path id="Path_876723" data-name="Path 876723" d="M311.442,241.773c-1.411,0-2.821,0-4.232,0-.238,0-.318-.077-.3-.308a9.031,9.031,0,0,1,.047-1.162,1.588,1.588,0,0,1,1.227-1.123c1.084-.091,2.169-.012,3.253-.044q0,1.316,0,2.632" transform="translate(-246.953 -192.424)" fill="#fddeaf"/>
          <path id="Path_876724" data-name="Path 876724" d="M301.2,223.177a29.457,29.457,0,0,0,3.144.029,10.773,10.773,0,0,0,1.08-.025,6.88,6.88,0,0,1,.055,1.412H301.5a.546.546,0,0,1-.306-.05q0-.683.009-1.367" transform="translate(-242.352 -179.579)" fill="#fddeaf"/>
          <path id="Path_876725" data-name="Path 876725" d="M24.955,223.18a37.081,37.081,0,0,0,4.271-.008q.006.684.013,1.368a.459.459,0,0,1-.234.05l-4.06,0,.01-1.405" transform="translate(-20.072 -179.575)" fill="#fddeaf"/>
          <path id="Path_876726" data-name="Path 876726" d="M194.988.042c0-.014,0-.028,0-.042l.021.031-.02.012" transform="translate(-156.896)" fill="#fddeaf"/>
          <path id="Path_876727" data-name="Path 876727" d="M186.316,94.474l6.429-.007q0,1.627,0,3.255a.99.99,0,0,0,.9,1.1c.172.039.381-.038.519.134q0,.122,0,.245c-.063.048-.063.1,0,.146a3.062,3.062,0,0,0,.055.83l0,.238v.055q0,9.57,0,19.141a4.787,4.787,0,0,0-.012,1.365,1.987,1.987,0,0,1-.5.057,1.029,1.029,0,0,0-.95,1.1c0,1-.006,2,0,3,0,.228-.073.292-.294.291q-2.909-.01-5.818,0a.674.674,0,0,1-.369-.1c0-.475,0-.95,0-1.424a6.927,6.927,0,0,1,.034-1.155,2.359,2.359,0,0,0-.131-1.138.962.962,0,0,0-.8-.543,4.071,4.071,0,0,0-.516-.077q0-.584-.007-1.168,0-.1-.008-.2c0-1.193.007-2.387,0-3.58-.019-5.3.043-10.6-.032-15.9a3.7,3.7,0,0,0,.033-1.012c0-.221.035-.311.285-.31a1.08,1.08,0,0,0,1.139-1.186c-.01-.528,0-1.055,0-1.583a11.545,11.545,0,0,0,.049-1.559" transform="translate(-148.71 -76.013)" fill="#e9b664"/>
          <path id="Path_876728" data-name="Path 876728" d="M116.656,94.492l6.429,0c0,1.1,0,2.191,0,3.287a1.067,1.067,0,0,0,1.03,1.051.892.892,0,0,1,.43.047c0,.136-.005.273,0,.409a4,4,0,0,0,.038.905c-.011.243-.031.485-.031.727q0,9.039,0,18.078a3.631,3.631,0,0,1,.013.773c-.043.408-.01.817-.02,1.225a4.09,4.09,0,0,1-.711.122.772.772,0,0,0-.621.5,1.391,1.391,0,0,0-.134.585c.007.957,0,1.913,0,2.87,0,.333-.014.349-.336.349q-2.93,0-5.86,0c-.089,0-.2.044-.24-.1-.012-.377-.034-.754-.034-1.131,0-.482.019-.963.03-1.445a2.562,2.562,0,0,0-.074-.975c-.254-.622-.488-.652-1.03-.733-.1-.015-.211.032-.3-.05a7.716,7.716,0,0,0-.05-1.365q0-9.742,0-19.484a1.915,1.915,0,0,0,.053-.694c.016-.193-.08-.433.036-.566s.358-.086.548-.11A.893.893,0,0,0,116.6,98c.03-.661.028-1.324.039-1.987q.007-.758.014-1.516" transform="translate(-92.688 -76.033)" fill="#e9b664"/>
          <path id="Path_876729" data-name="Path 876729" d="M46.736,120.8q-.006-.684-.013-1.368c-.049-.892-.029-1.784-.029-2.677q0-7.843,0-15.686c0-.373.019-.745.03-1.118,0-.388.013-.776.007-1.163,0-.158.046-.214.207-.206a1.5,1.5,0,0,0,.646-.06.921.921,0,0,0,.567-.777,16.618,16.618,0,0,0,.03-1.887q.007-.78.015-1.561,2.417,0,4.834-.008a6.536,6.536,0,0,0,.921-.03.789.789,0,0,1,.431.033c0,1.1-.005,2.208,0,3.312a.9.9,0,0,0,.781.987,3.1,3.1,0,0,0,.622.093l.016,1.266,0,.234,0,.112c-.019.51.007,1.02.006,1.53-.014,4.652-.008,9.3-.008,13.956q0,1.824,0,3.649-.009.683-.017,1.367a3.082,3.082,0,0,1-.617.094.833.833,0,0,0-.743.693,4.849,4.849,0,0,0-.066,1.054c.043.8.015,1.6.018,2.407,0,.176-.11.187-.244.187-.64,0-1.28,0-1.92,0H48.5a.6.6,0,0,1-.308-.046q0-1.315,0-2.629c0-.227.009-.454.006-.681a1,1,0,0,0-.84-.982,2.9,2.9,0,0,1-.618-.093" transform="translate(-37.569 -75.832)" fill="#e9b664"/>
          <path id="Path_876730" data-name="Path 876730" d="M263.7,119.527q0,.683-.009,1.367c-.234.039-.472.041-.707.09a1.052,1.052,0,0,0-.763.965c.03,1.021,0,2.044.016,3.065,0,.248-.075.317-.319.316-1.84-.009-3.681-.005-5.521-.005a.435.435,0,0,1-.362-.1q0-1.289,0-2.577c-.029-.282.024-.558-.02-.85a1.051,1.051,0,0,0-1.068-.855,1.541,1.541,0,0,1-.307-.055q-.01-.683-.02-1.365c-.011-.494-.03-.989-.03-1.483q0-5.553,0-11.106c0-2.3-.033-4.594.029-6.89.005-.331.025-.663.01-.993-.01-.228.037-.358.3-.34a1.566,1.566,0,0,0,.262-.035A.91.91,0,0,0,256,97.96a16.077,16.077,0,0,0,.036-2.007q.006-.781.013-1.563c1.666,0,3.333-.007,5,0a7.6,7.6,0,0,1,1.183,0c0,1.1,0,2.2,0,3.307a.984.984,0,0,0,.995,1.026c.154.007.308.006.461.009l.012,1.408q0,6.661,0,13.321,0,2.983-.006,5.966c-.038.018-.038.037,0,.054,0,.014.007.029.009.043" transform="translate(-204.859 -75.929)" fill="#e9b664"/>
          <path id="Path_876731" data-name="Path 876731" d="M35.505,239.145q0,1.315,0,2.629c-1.039,0-2.078.011-3.116-.006-.4-.007-.8,0-1.206.01-.209,0-.262-.068-.255-.265.014-.389.021-.78,0-1.169a1.21,1.21,0,0,1,.817-1.1,1.923,1.923,0,0,1,.691-.109c1.022.007,2.045,0,3.068,0" transform="translate(-24.887 -192.424)" fill="#fddeaf"/>
          <path id="Path_876732" data-name="Path 876732" d="M243.1,239.12q0,1.289,0,2.577a.949.949,0,0,1-.333.053q-1.948,0-3.9,0c-.3,0-.33-.038-.337-.339a6.464,6.464,0,0,1-.007-.931,1.531,1.531,0,0,1,1.273-1.31c1.1-.113,2.2-.024,3.305-.048" transform="translate(-191.909 -192.399)" fill="#fddeaf"/>
          <path id="Path_876733" data-name="Path 876733" d="M173.294,239.1a6.927,6.927,0,0,0-.034,1.155c-.007.475,0,.95,0,1.424a1.34,1.34,0,0,1-.406.051q-1.8,0-3.6,0c-.065,0-.13,0-.194,0-.25.013-.448-.125-.414-.364a5.635,5.635,0,0,1,.158-1.291,1.4,1.4,0,0,1,1.144-.922,14.232,14.232,0,0,1,2.18-.053c.388-.01.778,0,1.166,0" transform="translate(-135.698 -192.375)" fill="#fddeaf"/>
          <path id="Path_876734" data-name="Path 876734" d="M103.652,239.121c-.011.482-.029.963-.03,1.445,0,.377.022.754.034,1.131a2.04,2.04,0,0,1-.6.052h-3.6c-.33,0-.32,0-.369-.334a2.582,2.582,0,0,1,.108-1.334,1.35,1.35,0,0,1,1.157-.913c1.1-.113,2.2-.027,3.305-.047" transform="translate(-79.694 -192.399)" fill="#fddeaf"/>
          <path id="Path_876735" data-name="Path 876735" d="M93.259,224.536q.009-.684.017-1.367a.834.834,0,0,0,.356.055q1.778,0,3.555,0a1.076,1.076,0,0,0,.357-.053,7.7,7.7,0,0,1,.049,1.365,2.234,2.234,0,0,1-.65.051H93.59a.593.593,0,0,1-.331-.051" transform="translate(-75.041 -179.573)" fill="#fddeaf"/>
          <path id="Path_876736" data-name="Path 876736" d="M236.964,223.172q.01.683.02,1.365a1.372,1.372,0,0,1-.405.054c-1.189,0-2.378,0-3.567,0a.593.593,0,0,1-.331-.052,4.8,4.8,0,0,1,.012-1.365,1,1,0,0,0,.331.054q1.8,0,3.608,0a.882.882,0,0,0,.331-.055" transform="translate(-187.193 -179.575)" fill="#fddeaf"/>
          <path id="Path_876737" data-name="Path 876737" d="M163.078,224.57c.01-.408-.023-.818.019-1.225.109.031.185-.055.264-.1.235-.119.428.064.649.061,1.07-.014,2.139,0,3.209,0a.148.148,0,0,0,.139.095q0,.584.007,1.167a1.321,1.321,0,0,1-.382.052q-1.762,0-3.524,0a1.29,1.29,0,0,1-.382-.051" transform="translate(-131.219 -179.605)" fill="#fddeaf"/>
          <path id="Path_876738" data-name="Path 876738" d="M117.655,28.855c-.028.168-.156.214-.3.238a1.193,1.193,0,0,1-.194,0H82.652c-.307,0-.61-.078-.919-.052-.126.01-.17-.072-.163-.188.477-.085.931-.254,1.4-.384.819-.229,1.643-.441,2.451-.7.377-.121.755-.262,1.137-.343a11.1,11.1,0,0,1,1.4-.384.916.916,0,0,0,.6-.235c.083-.084.18-.009.274-.039.371-.12.75-.2,1.118-.345.324-.127.705-.134,1.04-.261s.69-.195,1.025-.332a4.4,4.4,0,0,1,.635-.177c.875-.211,1.732-.484,2.6-.722a18.065,18.065,0,0,0,1.822-.531c.549-.214,1.126-.317,1.676-.529a2.1,2.1,0,0,1,1.557-.057,20.336,20.336,0,0,0,2.383.706c.6.155,1.179.382,1.789.487a4.341,4.341,0,0,1,.492.171c1.145.335,2.289.671,3.436,1,.905.259,1.809.528,2.713.789.71.2,1.424.406,2.14.593.815.213,1.616.48,2.424.719.658.195,1.318.383,1.977.574" transform="translate(-65.635 -19.063)" fill="#fdd79b"/>
          <path id="Path_876739" data-name="Path 876739" d="M232.572,94.259q-.006.781-.013,1.563a1.9,1.9,0,0,0-.577-.053q-.73,0-1.459,0a2.213,2.213,0,0,0-.577.051,1.108,1.108,0,0,0-.857.765,3.027,3.027,0,0,0-.056,1.156.8.8,0,0,0,.316.655c.059.039.153.073.122.155s-.129.041-.2.042c-.713,0-1.427.005-2.14,0a.319.319,0,0,0-.3.148c-.138-.172-.347-.094-.519-.134a.989.989,0,0,1-.9-1.1q0-1.627,0-3.255a.624.624,0,0,1,.4-.036c.993.085,1.987.021,2.981.037.631.01,1.262.006,1.893,0a8.669,8.669,0,0,0,1.088-.034,2.122,2.122,0,0,1,.794.039" transform="translate(-181.378 -75.797)" fill="#fdd79b"/>
          <path id="Path_876740" data-name="Path 876740" d="M157.064,98.651a.891.891,0,0,0-.43-.047,1.066,1.066,0,0,1-1.03-1.05c0-1.1,0-2.191,0-3.287a6.07,6.07,0,0,1,1.28-.008c1.387.012,2.775.007,4.162,0a6.832,6.832,0,0,0,1.018-.035,2.208,2.208,0,0,1,.748.04,11.51,11.51,0,0,1-.049,1.559,1.5,1.5,0,0,0-.26-.047c-.769,0-1.54-.024-2.308.006a.931.931,0,0,0-.989,1.015c.012.226.011.454,0,.68a1.033,1.033,0,0,0,.365.928c.046.037.125.079.093.153s-.116.039-.176.039q-1.021,0-2.041,0a1.269,1.269,0,0,0-.382.051" transform="translate(-125.206 -75.806)" fill="#fdd79b"/>
          <path id="Path_876741" data-name="Path 876741" d="M87.452,98.637a3.09,3.09,0,0,1-.621-.093.9.9,0,0,1-.782-.987c0-1.1,0-2.208,0-3.312a2.511,2.511,0,0,1,.794,0c1.4,0,2.792.014,4.188-.006a9.533,9.533,0,0,0,1.4-.028,1.959,1.959,0,0,1,.773.037q-.007.758-.014,1.516c-.86,0-1.72-.008-2.58,0a.984.984,0,0,0-.972.792,4.487,4.487,0,0,0-.035.969,1.021,1.021,0,0,0,.368.836c.054.047.134.09.1.175s-.128.051-.2.051q-1.059,0-2.117,0a.561.561,0,0,0-.307.053" transform="translate(-69.238 -75.788)" fill="#fdd79b"/>
          <path id="Path_876742" data-name="Path 876742" d="M301.07,222.733c-.038-.018-.038-.036,0-.054,0,.018,0,.036,0,.054" transform="translate(-242.233 -179.178)" fill="#fddeaf"/>
          <path id="Path_876743" data-name="Path 876743" d="M167.26,143.019c-1.07,0-2.139-.012-3.209,0-.221,0-.414-.18-.649-.061-.079.04-.155.126-.264.1a3.619,3.619,0,0,0-.013-.774q0-9.039,0-18.078c0-.242.021-.485.031-.727q1.886,0,3.772,0a1.45,1.45,0,0,0,.431-.05c.076,5.3.014,10.6.032,15.9,0,1.193,0,2.387,0,3.58-.069.006-.084.076-.131.11" transform="translate(-131.258 -99.316)" fill="#fef1da"/>
          <path id="Path_876744" data-name="Path 876744" d="M237.187,142.936a.881.881,0,0,1-.331.055q-1.8,0-3.608,0a1,1,0,0,1-.331-.054V123.8l.056-.028-.057-.027c0-.08,0-.159,0-.238q1.677,0,3.354,0a4.251,4.251,0,0,0,.917-.042c-.061,2.3-.025,4.593-.029,6.89q-.01,5.553,0,11.106c0,.494.019.989.03,1.483" transform="translate(-187.415 -99.34)" fill="#fef1da"/>
          <path id="Path_876745" data-name="Path 876745" d="M167.31,106.34a1.457,1.457,0,0,1-.431.051q-1.886,0-3.772,0a4,4,0,0,1-.038-.905c-.007-.136,0-.273,0-.409a1.277,1.277,0,0,1,.382-.051c.68,0,1.361,0,2.041,0,.06,0,.144.034.176-.039s-.047-.116-.092-.152a1.033,1.033,0,0,1-.366-.929,6.76,6.76,0,0,0,0-.68.931.931,0,0,1,.989-1.015c.768-.03,1.539-.009,2.308-.006a1.5,1.5,0,0,1,.261.046c0,.528-.007,1.056,0,1.583a1.08,1.08,0,0,1-1.139,1.186c-.25,0-.287.09-.285.31a3.708,3.708,0,0,1-.033,1.012" transform="translate(-131.207 -82.229)" fill="#fddeaf"/>
          <path id="Path_876746" data-name="Path 876746" d="M236.955,106.375a4.263,4.263,0,0,1-.917.042q-1.677,0-3.354,0a3.078,3.078,0,0,1-.055-.83c.063-.048.063-.1,0-.146q0-.123,0-.245a.318.318,0,0,1,.305-.148c.713.007,1.427,0,2.14,0,.068,0,.166.041.2-.042s-.063-.117-.122-.156a.8.8,0,0,1-.316-.655,3.027,3.027,0,0,1,.056-1.156,1.109,1.109,0,0,1,.857-.765,2.215,2.215,0,0,1,.577-.05q.73,0,1.459,0a1.9,1.9,0,0,1,.577.053,16.121,16.121,0,0,1-.036,2.007.91.91,0,0,1-.807.718,1.563,1.563,0,0,1-.262.035c-.258-.018-.305.112-.3.34.015.33-.005.662-.01.993" transform="translate(-187.184 -82.258)" fill="#fddeaf"/>
          <path id="Path_876747" data-name="Path 876747" d="M184.294,223.261c.046-.033.062-.1.131-.11q0,.1.008.2a.148.148,0,0,1-.139-.095" transform="translate(-148.292 -179.558)" fill="#fdd79b"/>
          <path id="Path_876748" data-name="Path 876748" d="M232.445,118.7c.062.049.061.1,0,.146-.061-.049-.062-.1,0-.146" transform="translate(-186.999 -95.508)" fill="#fdd79b"/>
          <path id="Path_876749" data-name="Path 876749" d="M232.925,124.913l.057.027-.056.028v-.055" transform="translate(-187.423 -100.511)" fill="#fddeaf"/>
          <path id="Path_876750" data-name="Path 876750" d="M97.584,142.928a1.066,1.066,0,0,1-.357.053q-1.777,0-3.555,0a.835.835,0,0,1-.357-.055q0-1.824,0-3.649c0-4.652-.006-9.3.008-13.956,0-.51-.024-1.02-.006-1.53.1-.04.094-.077,0-.111l0-.234a4.324,4.324,0,0,0,1.146.043q.947.011,1.895,0a6.4,6.4,0,0,0,1.232-.044q0,9.742,0,19.484" transform="translate(-75.08 -99.329)" fill="#fef1da"/>
          <path id="Path_876751" data-name="Path 876751" d="M97.523,106.376a6.419,6.419,0,0,1-1.232.044q-.947.011-1.895,0a4.333,4.333,0,0,1-1.146-.042q-.008-.634-.016-1.267a.561.561,0,0,1,.307-.053q1.059,0,2.117,0c.068,0,.16.035.2-.051s-.044-.128-.1-.175a1.021,1.021,0,0,1-.368-.836,4.487,4.487,0,0,1,.035-.969.984.984,0,0,1,.972-.792c.86-.006,1.72,0,2.58,0-.012.662-.009,1.325-.039,1.987a.893.893,0,0,1-.776.783c-.189.023-.436-.02-.548.11s-.02.373-.036.566a1.912,1.912,0,0,1-.053.694" transform="translate(-75.021 -82.261)" fill="#fddeaf"/>
          <path id="Path_876752" data-name="Path 876752" d="M93.327,124.647c.1.035.1.072,0,.111l0-.111" transform="translate(-75.096 -100.297)" fill="#fdd79b"/>
        </g>
      </g>
    </g>
  </g>
</svg>
