<svg xmlns="http://www.w3.org/2000/svg" xmlns:xlink="http://www.w3.org/1999/xlink" width="145" height="145" viewBox="0 0 145 145">
  <defs>
    <clipPath id="clip-path">
      <rect id="Rectangle_400938" data-name="Rectangle 400938" width="145" height="145" transform="translate(0 -0.281)" fill="none"/>
    </clipPath>
    <clipPath id="clip-path-2">
      <rect id="Rectangle_401073" data-name="Rectangle 401073" width="110.228" height="49.642" fill="#7d3a1b"/>
    </clipPath>
    <clipPath id="clip-path-3">
      <rect id="Rectangle_401999" data-name="Rectangle 401999" width="78.375" height="83" fill="#6a4d23"/>
    </clipPath>
  </defs>
  <g id="Group_1099559" data-name="Group 1099559" transform="translate(-175 -9540.719)">
    <g id="Group_1099404" data-name="Group 1099404" transform="translate(175 9541)">
      <g id="Group_1099379" data-name="Group 1099379" transform="translate(0 0)">
        <rect id="Rectangle_401103" data-name="Rectangle 401103" width="145" height="145" transform="translate(0 -0.281)" fill="none"/>
        <g id="Group_1099348" data-name="Group 1099348" transform="translate(0.045 0.045)">
          <g id="Group_1099282" data-name="Group 1099282">
            <g id="Group_1099281" data-name="Group 1099281" clip-path="url(#clip-path-2)">
              <path id="Path_873375" data-name="Path 873375" d="M89.413,10.879c-4.947,0-7.506-2.426-9.765-4.567C77.431,4.213,75.522,2.4,71.529,2.4s-5.9,1.814-8.118,3.913c-2.259,2.141-4.814,4.567-9.765,4.567S46.14,8.453,43.881,6.312C41.664,4.213,39.755,2.4,35.763,2.4s-5.9,1.814-8.114,3.913c-2.259,2.141-4.818,4.567-9.765,4.567s-7.51-2.426-9.769-4.567C5.9,4.213,3.993,2.4,0,2.4V0C4.947,0,7.506,2.43,9.765,4.567c2.217,2.1,4.126,3.913,8.118,3.913S23.785,6.67,26,4.571C28.253,2.43,30.816,0,35.763,0s7.51,2.43,9.765,4.567c2.217,2.1,4.126,3.913,8.118,3.913s5.9-1.81,8.118-3.913C64.019,2.43,66.582,0,71.529,0s7.51,2.43,9.765,4.567c2.217,2.1,4.126,3.913,8.118,3.913s5.9-1.81,8.118-3.913C99.786,2.43,102.345,0,107.3,0V2.4c-3.993,0-5.9,1.814-8.118,3.913-2.259,2.141-4.818,4.567-9.765,4.567" transform="translate(2.932 38.763)" fill="#7d3a1b"/>
              <path id="Path_873376" data-name="Path 873376" d="M89.413,10.879c-4.947,0-7.51-2.426-9.765-4.571C77.431,4.209,75.522,2.4,71.529,2.4s-5.9,1.81-8.118,3.909c-2.255,2.145-4.814,4.571-9.765,4.571s-7.51-2.426-9.765-4.571C41.664,4.209,39.755,2.4,35.763,2.4s-5.9,1.814-8.115,3.909c-2.259,2.145-4.818,4.571-9.765,4.571s-7.51-2.426-9.769-4.571C5.9,4.209,3.993,2.4,0,2.4V0C4.947,0,7.51,2.426,9.765,4.567c2.217,2.1,4.126,3.913,8.118,3.913S23.785,6.67,26,4.567C28.253,2.426,30.816,0,35.763,0s7.51,2.426,9.769,4.567c2.213,2.1,4.122,3.913,8.115,3.913s5.9-1.81,8.118-3.913C64.019,2.426,66.582,0,71.529,0s7.51,2.426,9.765,4.567c2.217,2.1,4.126,3.913,8.118,3.913s5.9-1.81,8.118-3.913C99.79,2.426,102.349,0,107.3,0V2.4c-3.993,0-5.905,1.814-8.122,3.909-2.259,2.145-4.818,4.571-9.765,4.571" transform="translate(1.955 25.842)" fill="#7d3a1b"/>
              <path id="Path_873377" data-name="Path 873377" d="M89.412,10.879c-4.947,0-7.51-2.426-9.765-4.571C77.431,4.209,75.522,2.4,71.529,2.4s-5.9,1.81-8.118,3.909c-2.255,2.145-4.818,4.571-9.765,4.571s-7.51-2.426-9.765-4.571C41.664,4.209,39.755,2.4,35.763,2.4s-5.9,1.814-8.115,3.909c-2.259,2.145-4.818,4.571-9.765,4.571s-7.51-2.426-9.769-4.571C5.9,4.209,3.993,2.4,0,2.4V0C4.947,0,7.51,2.426,9.765,4.567c2.213,2.1,4.126,3.913,8.118,3.913S23.785,6.67,26,4.567C28.253,2.426,30.816,0,35.763,0s7.51,2.426,9.769,4.567c2.213,2.1,4.122,3.913,8.115,3.913s5.9-1.81,8.118-3.913C64.019,2.426,66.582,0,71.529,0s7.51,2.426,9.765,4.567c2.217,2.1,4.126,3.913,8.118,3.913s5.9-1.81,8.118-3.913C99.79,2.426,102.345,0,107.3,0V2.4c-3.993,0-5.905,1.814-8.122,3.909-2.259,2.145-4.818,4.571-9.765,4.571" transform="translate(0.977 12.921)" fill="#7d3a1b"/>
              <path id="Path_873378" data-name="Path 873378" d="M89.413,10.875c-4.947,0-7.506-2.426-9.765-4.567C77.431,4.209,75.522,2.4,71.529,2.4s-5.9,1.81-8.115,3.909c-2.259,2.141-4.818,4.567-9.769,4.567S46.14,8.449,43.881,6.308C41.664,4.209,39.755,2.4,35.763,2.4s-5.9,1.81-8.115,3.905c-2.255,2.145-4.818,4.571-9.765,4.571s-7.51-2.426-9.769-4.567C5.9,4.209,3.993,2.4,0,2.4V0C4.947,0,7.51,2.426,9.765,4.567c2.217,2.1,4.126,3.909,8.118,3.909s5.9-1.81,8.115-3.909C28.257,2.426,30.816,0,35.763,0s7.506,2.426,9.769,4.567c2.213,2.1,4.122,3.909,8.115,3.909s5.9-1.81,8.118-3.909C64.023,2.426,66.582,0,71.529,0s7.506,2.426,9.765,4.567c2.217,2.1,4.126,3.909,8.118,3.909s5.9-1.81,8.118-3.909C99.79,2.426,102.349,0,107.3,0V2.4c-4,0-5.905,1.81-8.122,3.909-2.259,2.141-4.818,4.567-9.765,4.567" transform="translate(0 0.004)" fill="#7d3a1b"/>
            </g>
          </g>
        </g>
        <path id="Path_873425" data-name="Path 873425" d="M60.362,0A60.362,60.362,0,1,1,0,60.362,60.362,60.362,0,0,1,60.362,0Z" transform="translate(17.974 21.56)" fill="#efb499"/>
        <circle id="Ellipse_11503" data-name="Ellipse 11503" cx="63" cy="63" r="63" transform="translate(9 9.719)" fill="#fef7eb"/>
      </g>
    </g>
    <g id="Group_1099405" data-name="Group 1099405" transform="translate(206.234 9571.193)">
      <g id="Group_1099389" data-name="Group 1099389" transform="translate(0 0)">
        <rect id="Rectangle_401104" data-name="Rectangle 401104" width="81" height="83" transform="translate(-0.234 -0.475)" fill="none"/>
      </g>
      <g id="Group_1099870" data-name="Group 1099870" transform="translate(0.766 -0.475)">
        <g id="Group_1099869" data-name="Group 1099869" clip-path="url(#clip-path-3)">
          <path id="Path_876753" data-name="Path 876753" d="M52.035,49.949c-.032.058-.058.1-.08.145-.361.738-.739,1.468-1.069,2.219a.942.942,0,0,0,.013.649c.584,1.524,1.194,3.037,1.793,4.555q1.437,3.642,2.87,7.286c.607,1.536,1.229,3.065,1.835,4.6.774,1.959,1.549,3.918,2.305,5.884a38.623,38.623,0,0,0,2.13,4.174,2.242,2.242,0,0,1-.024,2.393,2.294,2.294,0,0,1-2.319,1.129c-1.4-.133-2.8-.245-4.2-.388a22.6,22.6,0,0,1-2.736-.357,3.63,3.63,0,0,1-2.713-2.534c-.08-.232-.083-.55-.242-.675-.144-.114-.453-.005-.689-.018-1.671-.09-3.347-.131-5.01-.3-1.692-.167-3.383-.4-5.054-.708A40.032,40.032,0,0,1,31.565,76c-.209-.082-.416-.171-.681-.281.014.137.019.228.034.317.185,1.092.365,2.185.559,3.276a3.105,3.105,0,0,1-2.608,3.412,2.718,2.718,0,0,1-2.678-.917q-2.254-2.551-4.466-5.138A3.02,3.02,0,0,1,21,73.87a8.226,8.226,0,0,1,.582-1.36c.166-.359.348-.711.535-1.059.083-.155.06-.235-.091-.333a44.169,44.169,0,0,1-6.172-4.875,49.618,49.618,0,0,1-5.72-6.318,40.684,40.684,0,0,1-5.255-9.41,39.664,39.664,0,0,1-1.915-5.922c-.287-1.253-.621-2.5-.837-3.763a36.561,36.561,0,0,1-.652-5.362q-.04-1.811-.128-3.621a.753.753,0,0,0-.227-.444A3.2,3.2,0,0,1,.092,28.252,3.238,3.238,0,0,1,2.423,25.78a3.433,3.433,0,0,1,2.133.1q2.9.995,5.806,1.994c.58.2,1.157.408,1.741.594a1.038,1.038,0,0,0,.491.035c1.437-.277,2.876-.545,4.3-.867a5,5,0,0,0,1.333-.55c1.964-1.112,3.913-2.25,5.868-3.377.128-.073.264-.132.447-.222a5.634,5.634,0,0,1-.421-.631.811.811,0,0,0-.75-.484,5.985,5.985,0,0,1-3.22-1.33.3.3,0,0,0-.28,0c-.448.3-.9.6-1.319.946a3.817,3.817,0,0,1-5.144-.124,4.476,4.476,0,0,0-.7-.5,3.988,3.988,0,0,1-1.921-3.089,3.508,3.508,0,0,1,.229-1.3c.153-.561.36-1.108.536-1.664a3.6,3.6,0,0,1,2.647-2.527,1.587,1.587,0,0,0,1.19-.95,4.463,4.463,0,0,1,1.143-1.381c1.1-.957,2.234-1.869,3.374-2.776a3.371,3.371,0,0,1,4.966.583c.806,1.029,1.573,2.09,2.358,3.135.393.523.784,1.047,1.183,1.565a5.755,5.755,0,0,1,1.235,3.466,10.286,10.286,0,0,1-.273,1.992.7.7,0,0,0,.082.559c.2.3.393.619.61.913a.338.338,0,0,0,.286.113c2.536-.765,4.572.1,6.32,1.921.1.1.184.207.3.341.064-.109.125-.2.178-.3a11.019,11.019,0,0,1,2.349-3.222,9.165,9.165,0,0,1,4.166-2.04c.223-.049.285-.14.307-.372a1.861,1.861,0,0,0-.688-1.732,5.781,5.781,0,0,1-1.841-4.448c-.006-.753,0-1.505,0-2.3-.229,0-.444-.011-.656,0a6.627,6.627,0,0,1-3.784-.784,11.177,11.177,0,0,1-1.717-1.26,1.154,1.154,0,0,1-.083-1.739,1.218,1.218,0,0,1,1.666,0c.3.244.59.5.908.718a3.438,3.438,0,0,0,1.981.622h1.67c.077-.33.145-.7.247-1.053a5.662,5.662,0,0,1,4.6-4.251,5.811,5.811,0,0,1,6.562,3.97,6.863,6.863,0,0,1,.214,1.106c.03.185.085.271.3.259.524-.028,1.05-.036,1.575-.03a3.719,3.719,0,0,0,2.634-1.191,1.892,1.892,0,0,1,.628-.425,1.136,1.136,0,0,1,1.319.418,1.252,1.252,0,0,1-.108,1.5,6.3,6.3,0,0,1-2.44,1.7,5.921,5.921,0,0,1-2.464.446c-.444-.021-.89,0-1.39,0,0,.116,0,.229,0,.343-.018.98.035,1.968-.072,2.939a5.7,5.7,0,0,1-2.273,3.96.52.52,0,0,0-.173.336c-.022.306,0,.614,0,.921,0,.176.064.223.24.249a6.183,6.183,0,0,1,5.047,3.712,6.77,6.77,0,0,1,.574,2.652c.028,1.277.127,2.553.2,3.83.151,2.72.31,5.44.448,8.161a1.832,1.832,0,0,0,.431,1.154c.96,1.159,1.92,2.321,2.808,3.535a20.912,20.912,0,0,1,2.416,4.749c1.417,3.577,2.891,7.131,4.309,10.707a13.136,13.136,0,0,0,1.188,2.15c2.16,3.426,4.308,6.861,6.5,10.266a60.031,60.031,0,0,1,3.2,5.655,3.2,3.2,0,0,1-.443,3.781Q75.387,79.458,73.2,81.91a2.9,2.9,0,0,1-3.229.916,2.967,2.967,0,0,1-2.119-2.451,5.1,5.1,0,0,1,.12-1.642c.26-1.611.561-3.216.824-4.826a1.623,1.623,0,0,1,.838-1.224q1.792-1.023,3.585-2.046c.162-.093.335-.168.526-.263l-1.507-2.38q-3.407-5.385-6.807-10.774A8.241,8.241,0,0,1,64.82,55.9c-1.269-3.146-2.512-6.3-3.8-9.442a32.232,32.232,0,0,0-1.987-4.469,27.469,27.469,0,0,0-2.839-3.806c-.175-.2-.355-.4-.513-.617a.382.382,0,0,0-.407-.16c-1.149.144-2.3.288-3.449.417-.915.1-1.833.175-2.749.274-1.2.129-2.4.271-3.6.4-.2.022-.394.025-.641.04L49.486,49.6a1.505,1.505,0,0,0,.148-.2c.272-.571.555-1.137.8-1.719a.634.634,0,0,0-.045-.491c-.385-.669-.8-1.32-1.2-1.981a1.066,1.066,0,0,1,.071-1.3,1.151,1.151,0,0,1,1.241-.435,1.328,1.328,0,0,1,.836.708c.848,1.4,1.71,2.784,2.546,4.188,2.229,3.743,4.43,7.5,6.683,11.231a26.957,26.957,0,0,0,1.842,2.478q2.53,3.266,5.076,6.521a1.182,1.182,0,0,1-.192,1.672,1.113,1.113,0,0,1-1.614-.158c-.7-.857-1.377-1.74-2.059-2.616-1.443-1.852-2.919-3.681-4.312-5.57-.761-1.032-1.4-2.155-2.063-3.259-1.708-2.854-3.4-5.72-5.093-8.581a1.318,1.318,0,0,0-.114-.131m3.052,20.009c-.242-.648-.461-1.251-.7-1.846a.315.315,0,0,0-.244-.143c-.227,0-.453.048-.68.054-2.08.056-4.156.122-6.24.042a45.356,45.356,0,0,1-6.164-.679,39.482,39.482,0,0,1-5.291-1.318,35.377,35.377,0,0,1-6.435-2.811,31.977,31.977,0,0,1-5.7-4.07,38.248,38.248,0,0,1-8.381-11,2.368,2.368,0,0,1-.177-.471,1.135,1.135,0,0,1,.707-1.4,1.2,1.2,0,0,1,1.438.517c.158.275.306.555.454.835a34.678,34.678,0,0,0,6.842,9.108,31.2,31.2,0,0,0,14.221,7.648,41.139,41.139,0,0,0,4.839.909,49.5,49.5,0,0,0,8.783.311c.33-.019.661-.035,1.038-.054-.29-.721-.566-1.385-.82-2.058a.34.34,0,0,0-.386-.263,36.512,36.512,0,0,1-4.983-.228,41.512,41.512,0,0,1-5.481-1,33.475,33.475,0,0,1-8.23-3.319A36.126,36.126,0,0,1,21.071,46.839,45.75,45.75,0,0,1,17,39.067c-.417-1.015-.8-2.045-1.169-3.079-.081-.226-.153-.282-.389-.248-.587.085-1.179.133-1.769.2-.092.01-.184.014-.284.021.184.76.329,1.487.539,2.195.362,1.222.77,2.43,1.149,3.647a1.194,1.194,0,1,1-2.278.717c-.514-1.673-1.024-3.348-1.511-5.029-.187-.645-.306-1.309-.464-1.962a.317.317,0,0,0-.131-.2c-.694-.28-1.394-.548-2.135-.835a2.948,2.948,0,0,0,.024.346,57.74,57.74,0,0,0,2.153,8.107,48.985,48.985,0,0,0,2.8,6.446,41.146,41.146,0,0,0,6.325,9.024,35.558,35.558,0,0,0,14.768,9.486,36.83,36.83,0,0,0,6.916,1.654c1.392.192,2.787.387,4.187.483a68.069,68.069,0,0,0,9.032-.043c.1-.006.192-.018.326-.03M49.73,56.4c-.152-.4-.261-.714-.39-1.021Q47.076,49.985,44.807,44.6q-1.1-2.613-2.166-5.236c-.071-.173-.17-.164-.3-.109-.5.206-1.008.408-1.51.619-1.176.493-2.346,1-3.527,1.484a3.672,3.672,0,0,1-3.7-.277,3.507,3.507,0,0,1-1.154-4.4c.2-.365.447-.7.678-1.061l-1.687-.545c-1.684-.543-3.366-1.09-5.053-1.621a1.156,1.156,0,0,0-.554-.007c-.639.13-1.273.285-1.91.428-.478.107-.956.211-1.465.323.316.8.6,1.533.9,2.262a37.056,37.056,0,0,0,6.441,10.583,26.268,26.268,0,0,0,15.767,8.768c1.363.226,2.736.389,4.169.589M57.4,75.9c-.042-.125-.056-.171-.074-.216-.414-1.048-.837-2.093-1.234-3.147a.28.28,0,0,0-.342-.219c-1.343.084-2.687.214-4.031.229A52.7,52.7,0,0,1,43.77,72.3c-1.41-.2-2.819-.409-4.221-.659A40.154,40.154,0,0,1,25.263,66a37.771,37.771,0,0,1-8.478-7.488A46.764,46.764,0,0,1,8.049,42.343c-.542-1.713-.989-3.459-1.409-5.206-.277-1.151-.425-2.333-.642-3.5a.354.354,0,0,0-.192-.214c-.346-.145-.7-.27-1.053-.4-.321-.118-.643-.234-1.012-.367,0,.162-.006.268,0,.373.059.949.132,1.9.179,2.847a40.319,40.319,0,0,0,.837,5.9,44.632,44.632,0,0,0,2.708,8.77,38.75,38.75,0,0,0,6.348,10.16,50.464,50.464,0,0,0,11.614,9.834,35.286,35.286,0,0,0,8.082,3.533,49.5,49.5,0,0,0,6.556,1.644c1.725.3,3.456.576,5.192.8a31.3,31.3,0,0,0,5.61.04c1.541-.075,3.076-.274,4.613-.428.628-.063,1.252-.155,1.925-.24M19.758,28.948a8.024,8.024,0,0,0,4.816,1.924,8.2,8.2,0,0,1,2.714.362c1.9.683,3.836,1.246,5.758,1.856.857.272,1.712.553,2.576.8a.8.8,0,0,0,.551-.084c1.5-.844,2.99-1.71,4.489-2.557a.255.255,0,0,0,.14-.372,6.483,6.483,0,0,0-1.231-2.152c-.838-.965-1.693-1.915-2.545-2.868-.753-.842-1.5-1.691-2.271-2.515a3.648,3.648,0,0,0-3.65-1.114,4.693,4.693,0,0,0-1.712.926,73.385,73.385,0,0,1-6.732,4.121c-.96.55-1.916,1.106-2.9,1.674m30.464-9.932a1.809,1.809,0,0,0-1.772,1,2.962,2.962,0,0,0-.27.843c-.366,1.773-.719,3.548-1.078,5.322-.265,1.308-.552,2.612-.788,3.925a1.542,1.542,0,0,1-.784,1.088c-.134.083-.278.151-.416.23l-7.634,4.355-2.4,1.368a1.146,1.146,0,0,0-.554,1.124,1.173,1.173,0,0,0,1.571.992c1.178-.514,2.373-.99,3.56-1.485q2.108-.881,4.213-1.768c.985-.413,1.983-.8,2.955-1.24a4.607,4.607,0,0,0,2.524-3.233c.38-1.392.775-2.78,1.174-4.166.553-1.919,1.1-3.841,1.68-5.752a2.015,2.015,0,0,0-1.983-2.607m1.293,41.813c-.034-.109-.057-.2-.091-.293-.19-.5-.4-.992-.568-1.5a.363.363,0,0,0-.391-.294c-1.126-.065-2.258-.1-3.372-.254a34.091,34.091,0,0,1-4.2-.782,39.8,39.8,0,0,1-4.6-1.568,25.46,25.46,0,0,1-5.165-2.9,31.964,31.964,0,0,1-8-8.381,43.282,43.282,0,0,1-4.884-9.87c-.06-.172-.142-.247-.322-.216-.39.068-.786.107-1.168.2-.734.186-.742.037-.462.828A47.705,47.705,0,0,0,20.7,41.416a39.324,39.324,0,0,0,6.747,9.657,30.822,30.822,0,0,0,16.956,9.095,37.7,37.7,0,0,0,6.286.661c.264,0,.529,0,.824,0M50.784,7.888a1.5,1.5,0,0,0-.177-.038c-2.178,0-4.357,0-6.535-.008-.212,0-.243.092-.241.269.008.743-.014,1.486.014,2.228a3.567,3.567,0,0,0,.951,2.432,6.147,6.147,0,0,0,.944.761,1.2,1.2,0,0,1,.62,1.013c0,.584.021,1.168.018,1.752,0,.187.041.27.245.264.426-.011.852-.013,1.277,0,.245.01.294-.083.291-.312-.008-.564.006-1.128.027-1.692a1.257,1.257,0,0,1,.707-1.089A3.126,3.126,0,0,0,50.6,11.145c.138-1.074.13-2.166.187-3.257M20.268,32.236l.036-.086c-.051-.029-.1-.058-.153-.086a9.325,9.325,0,0,1-2.626-2.015.353.353,0,0,0-.286-.064c-1.249.257-2.5.507-3.742.794a3.877,3.877,0,0,1-2.442-.112c-.265-.11-.53-.22-.8-.313q-2.02-.694-4.043-1.377c-.9-.3-1.8-.609-2.708-.876a.8.8,0,0,0-1.035.55A.891.891,0,0,0,2.984,29.8q1.864.731,3.733,1.447c1.6.611,3.212,1.181,4.792,1.835a5.517,5.517,0,0,0,3.343.3c1.374-.29,2.744-.6,4.116-.891.431-.093.867-.166,1.3-.248m5.021-19.728c-.679.463-1.3.94-1.977,1.33a.718.718,0,0,0-.386.922,11.466,11.466,0,0,1,.119,4.979c-.036.152.021.23.172.238.4.019.79.038,1.186.051a1.142,1.142,0,0,1,1.029.528c.346.55.73,1.076,1.122,1.647l1.53-1.035c-.275-.4-.505-.783-.783-1.128a1.887,1.887,0,0,1-.292-2.14,3.276,3.276,0,0,0-.192-3.034c-.459-.806-1.008-1.561-1.529-2.357M74.826,72.433c-.227.138-.41.256-.6.364-.893.512-1.784,1.026-2.682,1.53a.879.879,0,0,0-.5.68c-.121.832-.268,1.66-.407,2.489-.134.8-.272,1.6-.4,2.4-.057.343.149.531.422.672a.557.557,0,0,0,.694-.164c.121-.117.243-.234.353-.361,1.306-1.5,2.6-3.015,3.918-4.51a1.1,1.1,0,0,0,.2-1.313c-.244-.508-.514-1-.779-1.5a2.3,2.3,0,0,0-.214-.285M20.808,18.347a.567.567,0,0,0,.049-.138c0-.148-.006-.3,0-.445a16.888,16.888,0,0,0-.476-3.672,1.364,1.364,0,0,1,.681-1.583c.932-.6,1.837-1.234,2.753-1.854a.179.179,0,0,0-.02-.059c-.288-.327-.571-.658-.867-.978A1.145,1.145,0,0,0,21.416,9.5c-1.129.918-2.232,1.871-3.383,2.761a2.514,2.514,0,0,0-.061,3.718c.778.612,1.511,1.28,2.267,1.919.178.151.367.288.569.446m33.231,5.609c-.035.09-.058.141-.074.194-.228.788-.454,1.576-.683,2.364-.473,1.623-.944,3.247-1.424,4.868a9.718,9.718,0,0,1-1.369,3.328c-.212.276-.439.54-.681.837a3.955,3.955,0,0,0,.4,0c1.427-.156,2.853-.32,4.28-.473.215-.023.237-.12.225-.314-.127-2.056-.235-4.114-.362-6.17-.094-1.53-.208-3.058-.316-4.631M24.2,72.547c-.272.586-.57,1.184-.826,1.8a.841.841,0,0,0,.235.9q2.1,2.409,4.194,4.816a.717.717,0,0,0,.974.223c.355-.176.321-.5.269-.8-.146-.867-.315-1.73-.465-2.6-.118-.681-.213-1.367-.341-2.046A.533.533,0,0,0,28,74.514c-1.232-.65-2.472-1.286-3.792-1.968m19.7-67.13h6.754A3.3,3.3,0,0,0,47.333,2.39a3.343,3.343,0,0,0-3.426,3.027M18.21,19.3c-.712-.623-1.415-1.212-2.089-1.834a5.737,5.737,0,0,1-1.337-2.4,1.454,1.454,0,0,0-1.024,1.279,1.573,1.573,0,0,1-.265.921,1.364,1.364,0,0,0,.342,1.975c.156.1.335.173.49.277a2.543,2.543,0,0,1,.525.409,1.47,1.47,0,0,0,2.361.036,4.135,4.135,0,0,1,.722-.537,1.871,1.871,0,0,1,.276-.131m23.317,8.039.077-.018c0-.114.005-.228,0-.342-.039-.772-.083-1.543-.121-2.314a10.783,10.783,0,0,1,.33-4.175c.06-.171.1-.349.149-.524l-.062-.048c-.185.124-.381.234-.553.375a6.525,6.525,0,0,0-1.611,1.924c-.308.565-.623,1.126-.955,1.676a.3.3,0,0,0,.041.416c.288.313.571.633.854.95l1.852,2.08M52.062,78.933a1.479,1.479,0,0,0,1.25,1.031c.618.079,1.24.131,1.861.188,1.074.1,2.149.193,3.224.293.426.039.851.087,1.34.138-.086-.162-.135-.256-.185-.349-.337-.617-.686-1.227-1-1.853a.328.328,0,0,0-.4-.221q-2.144.307-4.291.587c-.576.075-1.157.12-1.789.185M44.1,28.757h.085c.049-.381.075-.766.151-1.142Q44.865,25,45.416,22.39c.239-1.125.505-2.244.759-3.364a1.052,1.052,0,0,0-1.129.454,5.071,5.071,0,0,0-1.205,3.241c.032,1.573.119,3.145.187,4.718.019.44.051.879.076,1.318" transform="translate(0 0)" fill="#6a4d23"/>
        </g>
      </g>
    </g>
  </g>
</svg>
