<svg xmlns="http://www.w3.org/2000/svg" xmlns:xlink="http://www.w3.org/1999/xlink" width="68" height="69" viewBox="0 0 68 69">
  <defs>
    <clipPath id="clip-path">
      <rect id="Rectangle_401996" data-name="Rectangle 401996" width="56.601" height="66.868" fill="none"/>
    </clipPath>
  </defs>
  <g id="Group_1100314" data-name="Group 1100314" transform="translate(-607 -1296)">
    <g id="Group_1099380" data-name="Group 1099380" transform="translate(606.941 1296.339)">
      <rect id="Rectangle_401104" data-name="Rectangle 401104" width="68" height="69" transform="translate(0.059 -0.339)" fill="none"/>
      <g id="Group_1099851" data-name="Group 1099851" transform="translate(6.059 0.661)">
        <g id="Group_1099850" data-name="Group 1099850" clip-path="url(#clip-path)">
          <path id="Path_876679" data-name="Path 876679" d="M56.559.446q0,2.706.005,5.411,0,29.671,0,59.342a11.568,11.568,0,0,0,.033,1.332c.028.244-.065.335-.309.331-.542-.008-1.084,0-1.626,0H22.072l-21.478,0c-.124,0-.249,0-.373.006a.179.179,0,0,1-.209-.12c0-.006.009-.013.008-.018A.233.233,0,0,0,0,66.7c.013-.31.037-.621.037-.931q0-32.309,0-64.618C.039.882.034.615.01.35-.013.1.066-.012.331,0c.3.015.6,0,.906,0H55.384l.853,0c.366,0,.408.058.321.442l-.021,0ZM53.142,33.482q0-14.77,0-29.539c0-.48,0-.48-.464-.48H3.935c-.477,0-.42-.057-.42.431q0,29.406,0,58.812a1.612,1.612,0,0,1-.03.5c-.039.124.03.184.15.19.08,0,.16,0,.24,0H52.749c.438,0,.392.047.392-.406q0-14.756,0-29.513" transform="translate(-0.001 -0.001)" fill="#d58459"/>
          <path id="Path_876680" data-name="Path 876680" d="M264.286,2.081l-.022.008.021,0v0" transform="translate(-207.727 -1.636)" fill="#ececf9"/>
          <path id="Path_876681" data-name="Path 876681" d="M0,311.754a.213.213,0,0,1,.019.033s0,.012-.008.017A.094.094,0,0,1,0,311.754" transform="translate(0 -245.057)" fill="#ececf9"/>
          <path id="Path_876682" data-name="Path 876682" d="M65.9,46.2q0,14.756,0,29.513c0,.453.045.406-.393.406H16.626c-.08,0-.16,0-.24,0-.12-.006-.19-.066-.15-.19a1.617,1.617,0,0,0,.03-.5q0-29.406,0-58.812c0-.488-.058-.431.42-.431H65.431c.463,0,.464,0,.464.48q0,14.77,0,29.539M26.549,70.785c.03.017.059.05.088.05.853,0,1.706,0,2.558,0,.128,0,.169-.071.168-.187a3.4,3.4,0,0,1,.272-1.187A3.28,3.28,0,0,1,30.652,68.1a3.413,3.413,0,0,1,1.469-.612,2.351,2.351,0,0,1,1.533.1,1.462,1.462,0,0,1,.89,1.143,10,10,0,0,1,.085,1.774c-.007.335,0,.335.346.335l19.134-.006c.5,0,.995,0,1.492-.006.062.005.124.015.185.015,1.43,0,2.861,0,4.291,0,.107,0,.2-.079.31-.034.221.09.3,0,.279-.219-.006-.079,0-.16,0-.24q0-24.234,0-48.468a.682.682,0,0,1,.008-.212c.062-.181-.033-.224-.181-.223-.249,0-.5.01-.746.01q-12.486,0-24.971,0-6.543,0-13.085-.014c-.22,0-.356.035-.248.3a.516.516,0,0,1,.006.185q0,24.287,0,48.575c0,.388,0,.387.377.348.088-.009.178-.007.266-.007l4.317-.009.021-.014.069-.041.024,0Z" transform="translate(-12.754 -12.716)" fill="#f2a56b"/>
          <path id="Path_876683" data-name="Path 876683" d="M45.443,90.2l-4.317.009c-.089,0-.178,0-.266.007-.377.039-.377.04-.377-.348q0-24.287,0-48.575a.517.517,0,0,0-.006-.185c-.107-.264.028-.3.248-.3q6.543.01,13.085.014,12.486,0,24.971,0c.249,0,.5-.009.746-.01.148,0,.243.042.181.223a.683.683,0,0,0-.008.212q0,24.234,0,48.468c0,.08-.006.16,0,.24.016.215-.058.309-.279.219-.109-.044-.2.035-.31.034-1.43,0-2.86,0-4.291,0-.062,0-.124-.01-.185-.015,0-2.087-.011-4.173,0-6.26a9.432,9.432,0,0,0-.256-2.246,8.756,8.756,0,0,0-1.338-3,10.061,10.061,0,0,1-.776-1.052.447.447,0,0,0,.077-.3q0-9.181,0-18.362a9.814,9.814,0,0,0-.159-2,11.327,11.327,0,0,0-.474-2.066,13.64,13.64,0,0,0-.688-1.644,12.452,12.452,0,0,0-1.9-2.605,11.151,11.151,0,0,0-7.51-3.317,8.424,8.424,0,0,0-1.722.095,11.2,11.2,0,0,0-4.162,1.4,11.685,11.685,0,0,0-1.967,1.45,10.224,10.224,0,0,0-1.106,1.2,10.992,10.992,0,0,0-1.65,2.853,9.368,9.368,0,0,0-.608,2.179,8.812,8.812,0,0,0-.162,1.937c-.023,1.888-.03,3.776,0,5.665-.018.526-.016,1.051-.014,1.578.013,3.886,0,7.773,0,11.659a.419.419,0,0,0,.064.276,1.473,1.473,0,0,1-.478.543A9.6,9.6,0,0,0,48.5,79.489,9.968,9.968,0,0,0,47.176,81.4a12.142,12.142,0,0,0-.776,1.626c-.1.278-.24.54-.311.82-.092.365-.186.732-.255,1.1a11.258,11.258,0,0,0-.267,1.714c-.034,1.109-.021,2.217-.016,3.326l-.019.15-.069.041-.014,0Z" transform="translate(-31.786 -32.077)" fill="#ececf9"/>
          <path id="Path_876684" data-name="Path 876684" d="M64.317,215.781c0-1.109-.019-2.217.016-3.326a11.26,11.26,0,0,1,.267-1.714c.069-.373.164-.74.255-1.1.07-.279.215-.542.311-.82a12.142,12.142,0,0,1,.776-1.626,9.967,9.967,0,0,1,1.328-1.914,9.6,9.6,0,0,1,1.308-1.324,1.473,1.473,0,0,0,.478-.543.837.837,0,0,0,.368-.084,7.791,7.791,0,0,0,1.145.618,16.673,16.673,0,0,0,2.759,1.095,12.837,12.837,0,0,0,4.938.5,8.71,8.71,0,0,0,2.893-.808,7.862,7.862,0,0,0,2.282-1.664,4.919,4.919,0,0,0,1.287-2.223,6.46,6.46,0,0,1,2.207.211,8.808,8.808,0,0,1,1.852.716,6.752,6.752,0,0,1,1.634,1.113c.183.192.334.44.609.533a10.059,10.059,0,0,0,.776,1.052,8.757,8.757,0,0,1,1.338,3,9.433,9.433,0,0,1,.256,2.246c-.012,2.087,0,4.173,0,6.26-.5,0-.995.006-1.492.006l-19.134.006c-.347,0-.353,0-.346-.335a10,10,0,0,0-.085-1.774,1.462,1.462,0,0,0-.89-1.143,2.351,2.351,0,0,0-1.533-.1,3.413,3.413,0,0,0-1.469.612,3.28,3.28,0,0,0-1.017,1.362,3.4,3.4,0,0,0-.272,1.187c0,.116-.039.187-.168.187-.853,0-1.705,0-2.558,0-.03,0-.059-.033-.088-.05,0-.053.022-.11-.029-.152" transform="translate(-50.551 -157.864)" fill="#4f2117"/>
          <path id="Path_876685" data-name="Path 876685" d="M64.273,270.715c.052.043.031.1.029.152h-.024l-.024,0,.019-.15" transform="translate(-50.508 -212.798)" fill="#527980"/>
          <path id="Path_876686" data-name="Path 876686" d="M63.835,271.611l.007-.016.014,0-.021.014" transform="translate(-50.178 -213.49)" fill="#d58459"/>
          <path id="Path_876687" data-name="Path 876687" d="M101.908,128.952a4.915,4.915,0,0,1-1.287,2.223,7.868,7.868,0,0,1-2.282,1.664,8.715,8.715,0,0,1-2.894.808,12.839,12.839,0,0,1-4.938-.5,16.7,16.7,0,0,1-2.759-1.095,7.779,7.779,0,0,1-1.145-.618c.088-.217.3-.282.477-.395a14.185,14.185,0,0,1,2.05-1.125,17.1,17.1,0,0,1,2.585-.8.254.254,0,0,0,.222-.279q0-1.865,0-3.73a.235.235,0,0,0-.2-.264,7.238,7.238,0,0,1-3.253-1.988,8.633,8.633,0,0,1-1.937-3.147,2.849,2.849,0,0,1-.12-.457,6.3,6.3,0,0,0-.247-1.246c-.029-1.888-.022-3.777,0-5.665.111.086.082-.022.09-.068a3.486,3.486,0,0,1,.572-1.428,3.068,3.068,0,0,1,2.556-1.454c3.045-.032,6.09-.013,9.135-.01a2.473,2.473,0,0,1,.789.1,3.52,3.52,0,0,1,2.093,1.661,4.206,4.206,0,0,1,.466,2.026q0,3.3,0,6.6c0,.682-.008,1.365-.008,2.048q0,3.224,0,6.448c0,.23.016.461.024.691" transform="translate(-67.731 -85.973)" fill="#f2a56b"/>
          <path id="Path_876688" data-name="Path 876688" d="M101.928,98.975c-.009-.23-.024-.461-.024-.691q0-3.224,0-6.448c0-.683.008-1.365.008-2.048q0-3.3,0-6.6a4.206,4.206,0,0,0-.466-2.026A3.52,3.52,0,0,0,99.348,79.5a2.473,2.473,0,0,0-.789-.1c-3.045,0-6.09-.022-9.135.01a3.068,3.068,0,0,0-2.556,1.454A3.486,3.486,0,0,0,86.3,82.3c-.008.046.021.154-.09.068a8.81,8.81,0,0,1,.162-1.936,9.373,9.373,0,0,1,.608-2.179,11,11,0,0,1,1.65-2.853,10.242,10.242,0,0,1,1.106-1.2,11.707,11.707,0,0,1,1.967-1.45,11.207,11.207,0,0,1,4.162-1.4,8.438,8.438,0,0,1,1.722-.095,11.153,11.153,0,0,1,7.51,3.317,12.446,12.446,0,0,1,1.9,2.605,13.617,13.617,0,0,1,.688,1.643,11.334,11.334,0,0,1,.474,2.066,9.816,9.816,0,0,1,.159,2q0,9.181,0,18.363a.446.446,0,0,1-.077.3c-.275-.093-.426-.341-.609-.533a6.751,6.751,0,0,0-1.634-1.113,8.821,8.821,0,0,0-1.851-.716,6.46,6.46,0,0,0-2.207-.211" transform="translate(-67.752 -55.997)" fill="#527980"/>
          <path id="Path_876689" data-name="Path 876689" d="M86.2,149.727a6.3,6.3,0,0,1,.247,1.246,2.815,2.815,0,0,0,.12.457,8.628,8.628,0,0,0,1.937,3.147,7.242,7.242,0,0,0,3.253,1.988.234.234,0,0,1,.2.264q0,1.865,0,3.73a.254.254,0,0,1-.221.279,17.125,17.125,0,0,0-2.585.8,14.143,14.143,0,0,0-2.05,1.125c-.172.113-.389.178-.477.395a.837.837,0,0,1-.368.083.417.417,0,0,1-.064-.276c0-3.886.013-7.773,0-11.659,0-.526,0-1.052.014-1.578" transform="translate(-67.747 -117.694)" fill="#527980"/>
        </g>
      </g>
    </g>
  </g>
</svg>
