<svg xmlns="http://www.w3.org/2000/svg" xmlns:xlink="http://www.w3.org/1999/xlink" width="68" height="69" viewBox="0 0 68 69">
  <defs>
    <clipPath id="clip-path">
      <rect id="Rectangle_401995" data-name="Rectangle 401995" width="56.542" height="69" fill="none"/>
    </clipPath>
  </defs>
  <g id="Group_1100313" data-name="Group 1100313" transform="translate(-292 -1295.535)">
    <g id="Group_1099380" data-name="Group 1099380" transform="translate(291.941 1296.339)">
      <rect id="Rectangle_401104" data-name="Rectangle 401104" width="68" height="69" transform="translate(0.059 -0.804)" fill="none"/>
      <g id="Group_1099849" data-name="Group 1099849" transform="translate(6.059 -0.804)">
        <g id="Group_1099848" data-name="Group 1099848" clip-path="url(#clip-path)">
          <path id="Path_876670" data-name="Path 876670" d="M86.917,219.55c-.545.187-1.083.4-1.637.557-1.081.3-2.165.608-3.261.852q-1.734.386-3.493.656a41.579,41.579,0,0,1-4.487.373.1.1,0,0,0-.175,0,7.079,7.079,0,0,0-1.221-.054c-1.155,0-2.308-.026-3.462-.108a28.665,28.665,0,0,1-3.308-.368,27.623,27.623,0,0,1-2.747-.54c-.984-.292-1.984-.53-2.963-.837a10.192,10.192,0,0,1-1.527-.525,4.283,4.283,0,0,1-.047-.8q0-8.436,0-16.872c0-.387.052-.437.458-.438q1.78,0,3.56-.006a.715.715,0,0,0,.379.058l10.958-.006,8.953,0a.978.978,0,0,0,.26.053c1.146-.085,2.293-.015,3.439-.042.253-.006.331.1.327.337-.01.758-.007,1.517-.007,2.275q0,7.722,0,15.445" transform="translate(-44.512 -153.045)" fill="#8c867f"/>
          <path id="Path_876671" data-name="Path 876671" d="M122.183,286.825a.1.1,0,0,1,.175,0c-.059.075-.117.075-.175,0" transform="translate(-92.831 -217.882)" fill="#e2d7c7"/>
          <path id="Path_876672" data-name="Path 876672" d="M30.794,86.828l0-1.378q0-3.9,0-7.8a2.954,2.954,0,0,1,.045-.888c.636.02,1.273.037,1.909.062.379.015.754-.041,1.131-.054.447-.015.9.041,1.34.039,1.813-.008,3.627.064,5.441-.028.325-.017.312-.112.311-.34q-.007-3.127,0-6.255c0-1.068-.006-2.135,0-3.2,0-.225-.068-.282-.289-.289a10.719,10.719,0,0,1-1.3-.121,10.335,10.335,0,0,1-3.253-1.129,9.543,9.543,0,0,1-2.481-1.893,9.776,9.776,0,0,1-2.565-4.993c-.047-.252-.1-.5-.164-.8a.659.659,0,0,0-.129.39c.032,1.225-.057,2.451.05,3.675a2.493,2.493,0,0,1-.027.833,1.713,1.713,0,0,0-.206-.024q-2.67,0-5.339.01a.44.44,0,0,0-.289.045c-1.453-.111-2.909-.046-4.363-.049-1.2,0-2.412-.056-3.616.04-.276.022-.281-.132-.281-.329q0-2.168,0-4.336a.857.857,0,0,0,.055-.35q0-1.517,0-3.035,0-2.014,0-4.027c.139-.005.279-.014.418-.014l17.688,0,6.1,0q0,7.874-.006,15.747c0,.23.055.3.3.309a8.91,8.91,0,0,0,3.774-.852,13.392,13.392,0,0,0,1.73-1.034,8.751,8.751,0,0,0,1.71-1.487,7.814,7.814,0,0,0,.839-1.109,9.948,9.948,0,0,0,1.391-3.016,15.95,15.95,0,0,0,.38-3.669c.02-1.626.006-3.253.007-4.88L64.45,50.6l4.4,0c.393,0,.393,0,.393.408q0,1.5,0,2.994c0,.628,0,.626-.645.625-1.028,0-2.056,0-3.084-.006-.251,0-.351.067-.346.34.017.918.006,1.836.009,2.754,0,.1-.041.222.055.311-.112,1.384-.019,2.772-.055,4.157-.011.455-.006.454-.464.454q-3.592,0-7.184,0c-.149,0-.3.016-.447.024l-.07.024h-.1a.345.345,0,0,0-.109-.04q-2.748-.007-5.5-.011c-.185,0-.21.1-.209.248.006.6.009,1.195.014,1.792,0,.559-.009,1.118-.009,1.676q0,9.388-.007,18.776c0,.11.008.219.012.329q-.009.712-.018,1.425l-8.952,0-10.959.006a.714.714,0,0,1-.379-.058" transform="translate(-12.702 -38.438)" fill="#e2d7c7"/>
          <path id="Path_876673" data-name="Path 876673" d="M127.792,50.606c0,1.627.013,3.253-.007,4.88a15.95,15.95,0,0,1-.38,3.669,9.956,9.956,0,0,1-1.391,3.016,7.812,7.812,0,0,1-.839,1.109,8.758,8.758,0,0,1-1.71,1.487,13.419,13.419,0,0,1-1.729,1.034,8.912,8.912,0,0,1-3.774.853c-.242-.006-.3-.079-.3-.309q.01-7.874.006-15.748h6.1l4.018.008" transform="translate(-89.399 -38.443)" fill="#8c867f"/>
          <path id="Path_876674" data-name="Path 876674" d="M98.33,12.155l-6.1,0c0-2.035-.059-4.073.012-6.105A5.976,5.976,0,0,1,95.808.557,4.824,4.824,0,0,1,98.323.013q0,4.925.005,9.85,0,1.146,0,2.292Z" transform="translate(-70.058 0)" fill="#f7f6f7"/>
          <path id="Path_876675" data-name="Path 876675" d="M117.665,12.2q0-1.146,0-2.292,0-4.925,0-9.85a9.858,9.858,0,0,1,2.068.351,6.2,6.2,0,0,1,3.153,2.585,5.981,5.981,0,0,1,.847,2.952c.083,2.084,0,4.169.043,6.253h-6.1" transform="translate(-89.393 -0.042)" fill="#e2d7c7"/>
          <path id="Path_876676" data-name="Path 876676" d="M4.068,50.6l0,4.027c-1.236-.006-2.472-.021-3.707-.012-.272,0-.364-.061-.36-.347.014-1.126.009-2.253,0-3.379,0-.23.057-.309.3-.306,1.256.016,2.511.013,3.767.018" transform="translate(0 -38.434)" fill="#f7f6f7"/>
          <path id="Path_876677" data-name="Path 876677" d="M184.443,100.842l.07-.024-.07.024" transform="translate(-140.135 -76.599)" fill="#ff9750"/>
          <path id="Path_876678" data-name="Path 876678" d="M75.313,85.347a2.486,2.486,0,0,0,.027-.833c-.106-1.225-.017-2.451-.05-3.675a.659.659,0,0,1,.129-.39c.061.3.117.546.164.8a9.775,9.775,0,0,0,2.565,4.993,9.543,9.543,0,0,0,2.481,1.893,10.333,10.333,0,0,0,3.253,1.129,10.714,10.714,0,0,0,1.3.121c.221.008.291.065.289.289-.011,1.067,0,2.135,0,3.2q0,3.127,0,6.255c0,.228.014.324-.311.34-1.814.092-3.627.02-5.441.028-.444,0-.893-.055-1.34-.039-.377.013-.752.069-1.131.054-.636-.025-1.272-.042-1.909-.062-.081-.885,0-1.771,0-2.656-.017-2.53,0-5.061-.006-7.591,0-.636-.023-1.272-.035-1.909a14.834,14.834,0,0,0,.017-1.947" transform="translate(-57.2 -61.122)" fill="#f7f6f7"/>
        </g>
      </g>
    </g>
  </g>
</svg>
