<svg xmlns="http://www.w3.org/2000/svg" xmlns:xlink="http://www.w3.org/1999/xlink" width="145" height="145" viewBox="0 0 145 145">
  <defs>
    <clipPath id="clip-path">
      <rect id="Rectangle_400938" data-name="Rectangle 400938" width="145" height="145" transform="translate(0 -0.281)" fill="none"/>
    </clipPath>
    <clipPath id="clip-path-2">
      <rect id="Rectangle_401073" data-name="Rectangle 401073" width="110.228" height="49.642" fill="#7d3a1b"/>
    </clipPath>
    <clipPath id="clip-path-3">
      <rect id="Rectangle_402000" data-name="Rectangle 402000" width="68.613" height="79" fill="#6a4d23"/>
    </clipPath>
  </defs>
  <g id="Group_1099560" data-name="Group 1099560" transform="translate(-175 -9540.719)">
    <g id="Group_1099404" data-name="Group 1099404" transform="translate(175 9541)">
      <g id="Group_1099379" data-name="Group 1099379" transform="translate(0 0)">
        <rect id="Rectangle_401103" data-name="Rectangle 401103" width="145" height="145" transform="translate(0 -0.281)" fill="none"/>
        <g id="Group_1099348" data-name="Group 1099348" transform="translate(0.045 0.045)">
          <g id="Group_1099282" data-name="Group 1099282">
            <g id="Group_1099281" data-name="Group 1099281" clip-path="url(#clip-path-2)">
              <path id="Path_873375" data-name="Path 873375" d="M89.413,10.879c-4.947,0-7.506-2.426-9.765-4.567C77.431,4.213,75.522,2.4,71.529,2.4s-5.9,1.814-8.118,3.913c-2.259,2.141-4.814,4.567-9.765,4.567S46.14,8.453,43.881,6.312C41.664,4.213,39.755,2.4,35.763,2.4s-5.9,1.814-8.114,3.913c-2.259,2.141-4.818,4.567-9.765,4.567s-7.51-2.426-9.769-4.567C5.9,4.213,3.993,2.4,0,2.4V0C4.947,0,7.506,2.43,9.765,4.567c2.217,2.1,4.126,3.913,8.118,3.913S23.785,6.67,26,4.571C28.253,2.43,30.816,0,35.763,0s7.51,2.43,9.765,4.567c2.217,2.1,4.126,3.913,8.118,3.913s5.9-1.81,8.118-3.913C64.019,2.43,66.582,0,71.529,0s7.51,2.43,9.765,4.567c2.217,2.1,4.126,3.913,8.118,3.913s5.9-1.81,8.118-3.913C99.786,2.43,102.345,0,107.3,0V2.4c-3.993,0-5.9,1.814-8.118,3.913-2.259,2.141-4.818,4.567-9.765,4.567" transform="translate(2.932 38.763)" fill="#7d3a1b"/>
              <path id="Path_873376" data-name="Path 873376" d="M89.413,10.879c-4.947,0-7.51-2.426-9.765-4.571C77.431,4.209,75.522,2.4,71.529,2.4s-5.9,1.81-8.118,3.909c-2.255,2.145-4.814,4.571-9.765,4.571s-7.51-2.426-9.765-4.571C41.664,4.209,39.755,2.4,35.763,2.4s-5.9,1.814-8.115,3.909c-2.259,2.145-4.818,4.571-9.765,4.571s-7.51-2.426-9.769-4.571C5.9,4.209,3.993,2.4,0,2.4V0C4.947,0,7.51,2.426,9.765,4.567c2.217,2.1,4.126,3.913,8.118,3.913S23.785,6.67,26,4.567C28.253,2.426,30.816,0,35.763,0s7.51,2.426,9.769,4.567c2.213,2.1,4.122,3.913,8.115,3.913s5.9-1.81,8.118-3.913C64.019,2.426,66.582,0,71.529,0s7.51,2.426,9.765,4.567c2.217,2.1,4.126,3.913,8.118,3.913s5.9-1.81,8.118-3.913C99.79,2.426,102.349,0,107.3,0V2.4c-3.993,0-5.905,1.814-8.122,3.909-2.259,2.145-4.818,4.571-9.765,4.571" transform="translate(1.955 25.842)" fill="#7d3a1b"/>
              <path id="Path_873377" data-name="Path 873377" d="M89.412,10.879c-4.947,0-7.51-2.426-9.765-4.571C77.431,4.209,75.522,2.4,71.529,2.4s-5.9,1.81-8.118,3.909c-2.255,2.145-4.818,4.571-9.765,4.571s-7.51-2.426-9.765-4.571C41.664,4.209,39.755,2.4,35.763,2.4s-5.9,1.814-8.115,3.909c-2.259,2.145-4.818,4.571-9.765,4.571s-7.51-2.426-9.769-4.571C5.9,4.209,3.993,2.4,0,2.4V0C4.947,0,7.51,2.426,9.765,4.567c2.213,2.1,4.126,3.913,8.118,3.913S23.785,6.67,26,4.567C28.253,2.426,30.816,0,35.763,0s7.51,2.426,9.769,4.567c2.213,2.1,4.122,3.913,8.115,3.913s5.9-1.81,8.118-3.913C64.019,2.426,66.582,0,71.529,0s7.51,2.426,9.765,4.567c2.217,2.1,4.126,3.913,8.118,3.913s5.9-1.81,8.118-3.913C99.79,2.426,102.345,0,107.3,0V2.4c-3.993,0-5.905,1.814-8.122,3.909-2.259,2.145-4.818,4.571-9.765,4.571" transform="translate(0.977 12.921)" fill="#7d3a1b"/>
              <path id="Path_873378" data-name="Path 873378" d="M89.413,10.875c-4.947,0-7.506-2.426-9.765-4.567C77.431,4.209,75.522,2.4,71.529,2.4s-5.9,1.81-8.115,3.909c-2.259,2.141-4.818,4.567-9.769,4.567S46.14,8.449,43.881,6.308C41.664,4.209,39.755,2.4,35.763,2.4s-5.9,1.81-8.115,3.905c-2.255,2.145-4.818,4.571-9.765,4.571s-7.51-2.426-9.769-4.567C5.9,4.209,3.993,2.4,0,2.4V0C4.947,0,7.51,2.426,9.765,4.567c2.217,2.1,4.126,3.909,8.118,3.909s5.9-1.81,8.115-3.909C28.257,2.426,30.816,0,35.763,0s7.506,2.426,9.769,4.567c2.213,2.1,4.122,3.909,8.115,3.909s5.9-1.81,8.118-3.909C64.023,2.426,66.582,0,71.529,0s7.506,2.426,9.765,4.567c2.217,2.1,4.126,3.909,8.118,3.909s5.9-1.81,8.118-3.909C99.79,2.426,102.349,0,107.3,0V2.4c-4,0-5.905,1.81-8.122,3.909-2.259,2.141-4.818,4.567-9.765,4.567" transform="translate(0 0.004)" fill="#7d3a1b"/>
            </g>
          </g>
        </g>
        <path id="Path_873425" data-name="Path 873425" d="M60.362,0A60.362,60.362,0,1,1,0,60.362,60.362,60.362,0,0,1,60.362,0Z" transform="translate(17.974 21.56)" fill="#efb499"/>
        <circle id="Ellipse_11503" data-name="Ellipse 11503" cx="63" cy="63" r="63" transform="translate(9 9.719)" fill="#fef7eb"/>
      </g>
    </g>
    <g id="Group_1099405" data-name="Group 1099405" transform="translate(206.234 9571.193)">
      <g id="Group_1099389" data-name="Group 1099389" transform="translate(0 0)">
        <rect id="Rectangle_401104" data-name="Rectangle 401104" width="81" height="83" transform="translate(-0.234 -0.475)" fill="none"/>
      </g>
      <g id="Group_1099872" data-name="Group 1099872" transform="translate(5.766 1.525)">
        <g id="Group_1099871" data-name="Group 1099871" clip-path="url(#clip-path-3)">
          <path id="Path_876754" data-name="Path 876754" d="M112.376,82.29c-.04.524-.1,1.048-.118,1.573a35.543,35.543,0,0,1-.535,4.686A33.409,33.409,0,0,1,109.1,97.08a20.225,20.225,0,0,1-3.268,5.133,1.132,1.132,0,0,1-1.237.4,1.043,1.043,0,0,1-.8-1.046c-.036-1.2-.041-2.4-.091-3.592-.076-1.8-.145-3.6-.28-5.4-.156-2.076-.363-4.148-.585-6.218-.094-.879-.268-1.75-.436-2.618a48.114,48.114,0,0,0-1.247-5.328,2.9,2.9,0,0,0-.127-.287,16.087,16.087,0,0,1-3.821,1.5,4.154,4.154,0,0,1-.975.143,1.092,1.092,0,0,1-.38-2.115,8.676,8.676,0,0,1,1.026-.309,14.332,14.332,0,0,0,3.1-1.188,1.082,1.082,0,0,0,.309-.195.31.31,0,0,0,.079-.254c-.18-.565-.375-1.125-.571-1.684a2.652,2.652,0,0,0-.157-.309,15.04,15.04,0,0,1-7.875,1.97,14.879,14.879,0,0,1-7.882-1.974,2.608,2.608,0,0,0-.16.315c-.2.559-.394,1.119-.569,1.685a.32.32,0,0,0,.125.277,12.455,12.455,0,0,0,1.255.643,14.148,14.148,0,0,0,3.678,1.056c1.158.147,2.326.22,3.489.331a1.169,1.169,0,0,1,.958.459,1.182,1.182,0,0,1,.071,1.258,1,1,0,0,1-1.008.545,26.8,26.8,0,0,1-2.682-.133,19.435,19.435,0,0,1-5.9-1.661c-.212-.1-.414-.219-.651-.346a2.364,2.364,0,0,0-.162.359c-.145.545-.271,1.1-.417,1.641s-.381,1.024-1.027,1.141a1.082,1.082,0,0,1-1.286-.992,3.646,3.646,0,0,1,.155-1c.3-1.107.61-2.214.954-3.31.406-1.292.863-2.567,1.278-3.856.449-1.4.9-2.793,1.3-4.2a21.339,21.339,0,0,0,.813-5.1,2.536,2.536,0,0,1,.028-.564c.163-.6-.123-.932-.579-1.293a15.085,15.085,0,0,1-4.763-6.178c-.1-.244-.173-.5-.268-.744-.052-.135-.12-.263-.209-.453-.211.815-.406,1.557-.6,2.3q-.43,1.682-.852,3.366c-.1.393-.163.8-.281,1.181a1.127,1.127,0,0,1-1.191.885,1.1,1.1,0,0,1-1.052-1.111,2.849,2.849,0,0,1,.092-.613c.424-1.679.857-3.355,1.283-5.033q.695-2.737,1.382-5.476c.421-1.689.815-3.386,1.252-5.071a27.264,27.264,0,0,1,1.415-4.609,15.72,15.72,0,0,1,5.782-6.906A11.172,11.172,0,0,1,93.6,30.78a11.5,11.5,0,0,1,5.041,2.172,15.783,15.783,0,0,1,5.7,8.022c.47,1.456.792,2.961,1.172,4.446.31,1.212.6,2.429.909,3.642q.79,3.135,1.585,6.268c.3,1.2.6,2.41.9,3.615s.6,2.429.907,3.642c.527,2.09,1.061,4.178,1.586,6.269.257,1.022.493,2.049.751,3.071s.537,2.038.8,3.059q.769,3.038,1.526,6.079c.385,1.553.751,3.11,1.14,4.662.6,2.373,1.2,4.743,1.805,7.114.449,1.769.9,3.537,1.344,5.309.265,1.068.513,2.141.755,3.215a1.042,1.042,0,0,1-.765,1.267,1.114,1.114,0,0,1-1.345-.652,10.081,10.081,0,0,1-.3-1.03c-.4-1.608-.78-3.22-1.184-4.826-.393-1.56-.809-3.114-1.209-4.673-.259-1.012-.5-2.028-.758-3.042-.407-1.625-.818-3.249-1.221-4.875-.082-.329-.136-.664-.206-1-.019-.088-.051-.174-.076-.26l-.078.011m-6.366,15.7.081.005c.094-.181.185-.363.282-.542A26.257,26.257,0,0,0,108.83,91.1a33.663,33.663,0,0,0,.74-3.447c.229-1.726.365-3.467.483-5.205a51.011,51.011,0,0,0-.452-9.451c-.212-1.792-.551-3.572-.9-5.344-.284-1.438-.664-2.859-1.015-4.284-.462-1.882-.938-3.761-1.405-5.642-.337-1.36-.668-2.721-1-4.081,0-.019-.035-.032-.079-.068-.075.18-.155.34-.208.507a13.1,13.1,0,0,1-2.135,3.991,17.7,17.7,0,0,1-3.291,3.251.513.513,0,0,0-.2.359c.1,1.22.174,2.443.336,3.655a29.942,29.942,0,0,0,1.424,5.542c.542,1.613,1.1,3.221,1.618,4.843a55.193,55.193,0,0,1,1.729,6.692c.278,1.509.542,3.021.773,4.537.126.828.177,1.668.253,2.5.106,1.163.233,2.326.3,3.492.089,1.6.127,3.2.188,4.8,0,.079.019.158.029.236M101.9,40.966c.02-.053.034-.07.032-.086a.287.287,0,0,0-.024-.079A14.682,14.682,0,0,0,99.3,36.624a9.992,9.992,0,0,0-7-3.638,9,9,0,0,0-5.239,1.268,13.588,13.588,0,0,0-5.4,6.466,1.092,1.092,0,0,0-.043.253,10.571,10.571,0,0,1,1.106-.581,6.8,6.8,0,0,1,5.153-.011,5.3,5.3,0,0,1,1.235.72,1.039,1.039,0,0,1,.412,1.2,1.1,1.1,0,0,1-1.732.6,2.517,2.517,0,0,0-.813-.486c-1.447-.241-2.9-.429-4.2.542a.854.854,0,0,1-1.168-.042c-.193-.143-.376-.3-.564-.453-.034.215-.049.42-.1.617-.231.9-.472,1.8-.709,2.7a6.658,6.658,0,0,0-.052,1.929,5.545,5.545,0,0,1,2.521-.817,9.168,9.168,0,0,1,2.606.323,10.805,10.805,0,0,1,.009-1.095,1.944,1.944,0,0,1,.224-.827,1.112,1.112,0,0,1,2.034.632c.021.546,0,1.094.014,1.64,0,.093.09.249.161.264.935.2,1.874.372,2.841.559.014-.156.026-.229.025-.3,0-.575-.007-1.151-.006-1.726,0-.689-.011-1.378.021-2.065a1.085,1.085,0,0,1,1.1-1.094,1.058,1.058,0,0,1,1.146,1.037,3.989,3.989,0,0,1,.022.48q0,1.6.005,3.2c0,.128,0,.255,0,.4a13.124,13.124,0,0,0,3.056-.532.311.311,0,0,0,.159-.236c.016-.509.027-1.019.007-1.528a1.156,1.156,0,1,1,2.308.007c0,.365,0,.73,0,1.036a21.4,21.4,0,0,1,2.521-.152,4.779,4.779,0,0,1,2.383.784,6.128,6.128,0,0,0-.166-2.349c-.118-.357-.188-.729-.281-1.093-.148-.578-.3-1.155-.454-1.769-.076.062-.134.1-.185.152-.763.729-1.166.611-1.731.169a2.323,2.323,0,0,0-1.378-.517c-.226-.008-.451-.039-.677-.043a3.72,3.72,0,0,0-2.848.718.533.533,0,0,1-.249.127,1.228,1.228,0,0,1-.47.038,1.13,1.13,0,0,1-.636-1.886,3.608,3.608,0,0,1,1.05-.744,6.5,6.5,0,0,1,3.076-.6,6.212,6.212,0,0,1,3.292.956,1.666,1.666,0,0,0,.213.1m-1.618,16.659-.506-.147a3.135,3.135,0,0,1-2.084-4.4,2.535,2.535,0,0,1,2.216-1.547,1.169,1.169,0,0,1,1.057.764,1.07,1.07,0,0,1-.418,1.272,4.894,4.894,0,0,1-.558.264.572.572,0,0,0-.241.171.794.794,0,0,0,.124.968,1.165,1.165,0,0,0,1.47.224,2.772,2.772,0,0,0,1.342-1.473,4.03,4.03,0,0,0,.271-3.15,1.891,1.891,0,0,0-.839-.96,3.524,3.524,0,0,0-2.655-.331c-1.258.276-2.5.63-3.757.9-.862.188-1.74.3-2.613.438-.165.025-.2.09-.2.235,0,.5.02,1,0,1.5a1.126,1.126,0,1,1-2.25.02c-.028-.489-.022-.981-.016-1.471,0-.2-.064-.268-.258-.276a4.67,4.67,0,0,1-.815-.084c-1.68-.374-3.362-.737-5.031-1.155a4.924,4.924,0,0,0-2.01-.173,2.25,2.25,0,0,0-2.071,1.763,4.374,4.374,0,0,0,.759,3.35,2.27,2.27,0,0,0,1.443,1.017,1.093,1.093,0,0,0,1.2-.721.86.86,0,0,0-.075-.592,1.147,1.147,0,0,0-.5-.3,1.143,1.143,0,0,1-.71-1.4,1.188,1.188,0,0,1,1.366-.788,2.9,2.9,0,0,1,2.214,3.246,3.163,3.163,0,0,1-2.463,2.716c-.129.037-.257.077-.416.124.084.1.13.155.182.208a14.685,14.685,0,0,0,3.025,2.4,12.376,12.376,0,0,0,3.773,1.541c.313.069.4-.019.45-.31a1.043,1.043,0,0,1,1.09-.909,1.071,1.071,0,0,1,1.081.895c.027.117.052.235.087.4a13.434,13.434,0,0,0,7.344-4.233M86.4,62.806c-.019.392-.02.72-.053,1.045a34.707,34.707,0,0,1-1.511,6.912c-.235.746-.241.744.45,1.155l.073.043a10.353,10.353,0,0,0,4.3,1.29,16.984,16.984,0,0,0,5.818-.268,8.837,8.837,0,0,0,3.267-1.411.271.271,0,0,0,.13-.35c-.3-.96-.592-1.923-.865-2.891a25.431,25.431,0,0,1-.84-4.635c-.024-.266-.031-.534-.049-.87a11.057,11.057,0,0,1-10.715-.02" transform="translate(-57.47 -23.676)" fill="#6a4d23"/>
          <path id="Path_876755" data-name="Path 876755" d="M34.129,0a20.11,20.11,0,0,1,8.5,1.788,2.954,2.954,0,0,1,.866.566,1.039,1.039,0,0,1,.012,1.419,1.148,1.148,0,0,1-1.409.285c-.412-.186-.813-.395-1.231-.564a16.826,16.826,0,0,0-7.223-1.163,21.292,21.292,0,0,0-3.694.461,14.511,14.511,0,0,0-9.116,6.526A24.224,24.224,0,0,0,17.7,16.6c-.407,1.575-.829,3.147-1.226,4.725-.612,2.427-1.209,4.858-1.811,7.287-.278,1.123-.551,2.248-.833,3.371q-.923,3.669-1.854,7.336-.706,2.792-1.415,5.583c-.3,1.194-.6,2.391-.9,3.586q-.973,3.875-1.947,7.749c-.424,1.7-.835,3.4-1.258,5.1-.468,1.881-.946,3.76-1.416,5.641-.463,1.853-.919,3.708-1.384,5.561s-.928,3.685-1.4,5.526a1.164,1.164,0,0,1-1.384.9,1.209,1.209,0,0,1-.832-1.5c.785-3.014,1.537-6.037,2.3-9.056.3-1.2.614-2.407.915-3.612q1.085-4.341,2.163-8.683c.454-1.826.9-3.653,1.363-5.478.42-1.67.85-3.337,1.274-5.006.48-1.889.962-3.776,1.434-5.667.417-1.67.813-3.346,1.231-5.017.6-2.384,1.206-4.763,1.807-7.146.323-1.277.639-2.556.96-3.834.3-1.2.605-2.389.9-3.585a64.047,64.047,0,0,1,2.079-7.388,21.328,21.328,0,0,1,5.91-8.867,16.329,16.329,0,0,1,3.95-2.5A18.919,18.919,0,0,1,34.129,0" transform="translate(0 -0.001)" fill="#6a4d23"/>
          <path id="Path_876756" data-name="Path 876756" d="M35.843,193.614c-.037.161-.073.322-.113.482q-.988,3.958-1.976,7.916c-.371,1.488-.734,2.979-1.11,4.466q-.841,3.325-1.7,6.647a1.107,1.107,0,0,1-1.308.836,1.061,1.061,0,0,1-.854-1.313c.311-1.357.652-2.707.989-4.058q1.017-4.083,2.043-8.163.706-2.82,1.411-5.64c.49-1.953.984-3.906,1.471-5.86.382-1.534.748-3.072,1.133-4.605q.839-3.34,1.695-6.675c.188-.739.37-1.479.581-2.211a1.129,1.129,0,0,1,1.241-.785,1.212,1.212,0,0,1,.918,1.366c-.153.708-.339,1.409-.494,2.118q-.241,1.1-.447,2.213c-.163.889-.327,1.778-.452,2.672-.153,1.091-.268,2.187-.393,3.282a41.226,41.226,0,0,0-.3,6.013c.052,1.562.157,3.126.322,4.68a39,39,0,0,0,.642,4.214,27.941,27.941,0,0,0,2.972,7.928c.031.055.072.1.158.227.016-.242.03-.411.037-.579.1-2.2.134-4.413.307-6.611.14-1.781.442-3.549.675-5.323.038-.289.078-.579.129-.866a1.055,1.055,0,0,1,.914-.876,1.157,1.157,0,0,1,1.122.505,1.384,1.384,0,0,1,.18.948c-.267,2.311-.566,4.62-.77,6.937-.268,3.054-.353,6.12-.361,9.186a1.155,1.155,0,0,1-.621,1.176,1.118,1.118,0,0,1-1.4-.306A17.338,17.338,0,0,1,40.3,210.5a29.139,29.139,0,0,1-3.087-7.679,33.023,33.023,0,0,1-1.126-7.074c-.02-.659-.092-1.317-.142-1.975a1.317,1.317,0,0,0-.03-.158l-.069,0" transform="translate(-22.228 -134.992)" fill="#6a4d23"/>
          <path id="Path_876757" data-name="Path 876757" d="M223.095,94.013a1.237,1.237,0,0,1-.811,1.121,1.079,1.079,0,0,1-1.215-.357,1.47,1.47,0,0,1-.249-.5c-.357-1.414-.7-2.833-1.049-4.247-.277-1.1-.572-2.2-.852-3.307q-.742-2.914-1.475-5.83-.692-2.75-1.378-5.5c-.573-2.311-1.138-4.624-1.712-6.935-.283-1.141-.579-2.28-.87-3.419s-.584-2.258-.866-3.39c-.416-1.671-.818-3.345-1.236-5.015-.4-1.616-.822-3.228-1.232-4.843-.287-1.13-.575-2.26-.855-3.393-.262-1.059-.508-2.123-.771-3.182-.486-1.955-.98-3.907-1.47-5.861-.453-1.807-.892-3.617-1.358-5.42a27.808,27.808,0,0,0-3.334-8.235,17.5,17.5,0,0,0-2.17-2.747A1.152,1.152,0,0,1,200.718,21a.9.9,0,0,1,.911.242,13.387,13.387,0,0,1,1.11,1.165,21.751,21.751,0,0,1,3.048,4.874,31.042,31.042,0,0,1,1.847,5.148c.495,1.864.955,3.738,1.426,5.608.324,1.286.639,2.574.962,3.86q.732,2.916,1.469,5.832c.458,1.815.925,3.628,1.377,5.444.558,2.237,1.1,4.477,1.658,6.713.412,1.652.845,3.3,1.258,4.951.424,1.7.83,3.4,1.255,5.1.579,2.309,1.169,4.616,1.753,6.924.3,1.185.6,2.37.9,3.556q.992,3.956,1.981,7.913.48,1.917.965,3.832c.122.483.248.965.369,1.449.039.155.066.312.086.406" transform="translate(-154.481 -16.202)" fill="#6a4d23"/>
          <path id="Path_876758" data-name="Path 876758" d="M137.243,141.227a7.513,7.513,0,0,1-3.692-1.1,1.115,1.115,0,0,1-.573-1.067,1.135,1.135,0,0,1,.7-.988,1.1,1.1,0,0,1,1.023.113,4.78,4.78,0,0,0,2.428.726,4.249,4.249,0,0,0,2.288-.7,1.133,1.133,0,1,1,1.275,1.873,5.431,5.431,0,0,1-1.951.86c-.55.12-1.105.214-1.5.29" transform="translate(-102.794 -106.672)" fill="#6a4d23"/>
        </g>
      </g>
    </g>
  </g>
</svg>
