<svg id="Group_1099695" data-name="Group 1099695" xmlns="http://www.w3.org/2000/svg" xmlns:xlink="http://www.w3.org/1999/xlink" width="295" height="183" viewBox="0 0 295 183">
  <defs>
    <clipPath id="clip-path">
      <rect id="Rectangle_401355" data-name="Rectangle 401355" width="295" height="183" fill="none"/>
    </clipPath>
    <clipPath id="clip-path-2">
      <rect id="Rectangle_401350" data-name="Rectangle 401350" width="294.999" height="183" fill="none"/>
    </clipPath>
    <clipPath id="clip-path-3">
      <rect id="Rectangle_401347" data-name="Rectangle 401347" width="72.37" height="14.315" fill="none"/>
    </clipPath>
    <clipPath id="clip-path-4">
      <rect id="Rectangle_401348" data-name="Rectangle 401348" width="34.392" height="2.552" fill="none"/>
    </clipPath>
    <clipPath id="clip-path-5">
      <rect id="Rectangle_401349" data-name="Rectangle 401349" width="17.195" height="3.785" fill="none"/>
    </clipPath>
    <clipPath id="clip-path-6">
      <ellipse id="Ellipse_11518" data-name="Ellipse 11518" cx="55.224" cy="60.301" rx="55.224" ry="60.301" fill="none"/>
    </clipPath>
    <clipPath id="clip-path-7">
      <rect id="Rectangle_401351" data-name="Rectangle 401351" width="27.326" height="22.801" fill="none"/>
    </clipPath>
    <clipPath id="clip-path-8">
      <rect id="Rectangle_401352" data-name="Rectangle 401352" width="35.153" height="24.614" fill="none"/>
    </clipPath>
    <clipPath id="clip-path-9">
      <rect id="Rectangle_401353" data-name="Rectangle 401353" width="26.09" height="41.131" fill="none"/>
    </clipPath>
  </defs>
  <g id="Group_1099694" data-name="Group 1099694" clip-path="url(#clip-path)">
    <g id="Group_1099680" data-name="Group 1099680">
      <g id="Group_1099679" data-name="Group 1099679" clip-path="url(#clip-path-2)">
        <path id="Path_875207" data-name="Path 875207" d="M272.676,262.67a5.438,5.438,0,0,1-1.061-3.094c.02-2.505,2.248-4.8,4.868-6.7s5.707-3.556,8.015-5.607c1.588-1.411,2.808-3.069,2.705-4.791-.146-2.436-2.878-4.518-5.914-6.054-4.5-2.275-9.854-3.772-14.756-5.694s-9.566-4.459-11.4-7.885c-2.344-4.388,1.357-8.228.991-12.516-.611-7.154-13.431-11.144-24.6-12.83-34.591-5.22-70.332-2.736-105.439-4.434-20.09-.972-43.772-3.134-62.486,2.8-1.81.573-6.936,2.014-7.205,3.28,2.672.43,5.53.24,8.179.86-5.321,1.65-12.855,1.425-18.679,2.1q-10,1.16-19.925,2.543a19.17,19.17,0,0,0-5.224,1.234c-1.507.7-2.544,1.927-2,3.047.551,1.137,2.453,1.779,4.238,2.195a47.488,47.488,0,0,0,9.154,1.186c-.016,0-4.527,3.6-5.284,3.953-2.34,1.077-5.059,1.9-7.562,2.816-4.917,1.81-10.036,3.542-13.934,6.144s-6.419,6.316-4.923,9.752c1.162,2.669,4.576,4.779,8.466,6.107,18.63,6.359,41.847,3.252,61.6,7.073a26.756,26.756,0,0,1,7.6,2.39c2.147,1.176,3.653,2.92,3.392,4.695-.42,2.852-4.8,4.714-8.5,5.95-3.449,1.153-7.161,2.093-10.046,3.742-1.995,1.14-3.511,3.143-1.774,4.436,1.287.959,3.592.946,5.575,1.131s4.3,1.052,3.929,2.28c-.142.466-.659.848-.984,1.277-1.094,1.443.218,3.248,2.324,4.154a20.642,20.642,0,0,0,7.335,1.181c3.322.091,6.679,0,9.943.4,2.362.287,4.85.94,5.922,2.284,1.277,1.6.067,3.542-1.572,5.009-3.535,3.166-8.939,5.031-13.146,7.766-2.839,1.846-5.226,4.064-6,6.576-1.446,4.705,2.959,9.321,7.921,12.979,19.2,14.157,48.78,20.745,78.027,20.375a187.827,187.827,0,0,0,36.584-4.025A84.549,84.549,0,0,0,214.2,325.5c2.839-1.291,6.017-3.152,5.793-5.5-.233-2.441-2.928-4.666-5.666-6.285-3.477-2.057-7.651-3.705-10.413-6.147a2.872,2.872,0,0,1-1.185-1.814c-.052-1.69,3.088-2.618,5.714-3.039,22.075-3.543,46.094-1.887,67.157-7.319,5.808-1.5,11.41-3.591,15.206-6.715,4.881-4.016,5.9-9.672.887-13.8-4.649-3.83-11.959-5.987-16.68-9.763a11.6,11.6,0,0,1-2.342-2.442" transform="translate(0 -151.787)" fill="#62ac91"/>
        <g id="Group_1099672" data-name="Group 1099672" transform="translate(117.739 163.989)" opacity="0.46" style="mix-blend-mode: multiply;isolation: isolate">
          <g id="Group_1099671" data-name="Group 1099671">
            <g id="Group_1099670" data-name="Group 1099670" clip-path="url(#clip-path-3)">
              <path id="Path_875208" data-name="Path 875208" d="M615.451,792.2c0,3.953,16.2,7.158,36.185,7.158s36.185-3.2,36.185-7.158-16.2-7.157-36.185-7.157-36.185,3.2-36.185,7.157" transform="translate(-615.451 -785.043)" fill="#8f8a8e"/>
            </g>
          </g>
        </g>
        <path id="Path_875209" data-name="Path 875209" d="M579.144,60.3c0,33.3-24.725,60.3-55.224,60.3S468.7,93.6,468.7,60.3,493.42,0,523.92,0s55.224,27,55.224,60.3" transform="translate(-379.031)" fill="#7eb6d1"/>
        <g id="Group_1099675" data-name="Group 1099675" transform="translate(134.165 36.949)" opacity="0.72">
          <g id="Group_1099674" data-name="Group 1099674">
            <g id="Group_1099673" data-name="Group 1099673" clip-path="url(#clip-path-4)">
              <path id="Path_875210" data-name="Path 875210" d="M722.065,178.245c-7.216.41-7.488-.6-9.071-.809-1.77-.058-1.591.7-2.967.68-.958-.014-1.379-1.332-3.279-1.231-2.825.151-5.815,1.419-5.394,2.545,0,0,.007,0,.011,0,7.4-.06,15.392-.32,22.789-.565,2.624-.087,7.409.068,11.552-.21,0-.788-8.229-.718-13.642-.41" transform="translate(-701.314 -176.88)" fill="#fff"/>
            </g>
          </g>
        </g>
        <path id="Path_875211" data-name="Path 875211" d="M641.151,47.362c15.591-.807,23.068-.585,33.7-.6.161-.75-.567-2.8-1.271-2.855a3.5,3.5,0,0,0-1.984.7,4.479,4.479,0,0,0-4.214-3.114c-.435.019-.975.243-.978.719-2.38-7.481-13.609-2.183-10.6,1.84-5.894-1.288-4.4,1.191-4.365,1.343a12.4,12.4,0,0,1-2.35-.649,19.6,19.6,0,0,0-2.484-.47,10.912,10.912,0,0,0-4.929.472,2.288,2.288,0,0,0-1.547,1.286.962.962,0,0,0,1.015,1.331" transform="translate(-517.626 -30.411)" fill="#fff"/>
        <path id="Path_875212" data-name="Path 875212" d="M789.052,109.1a1.211,1.211,0,0,0,.48-.081c.635-.3.362-1.483-.295-1.718a2.2,2.2,0,0,0-1.931.568,4.353,4.353,0,0,0-.429-3.838,8.011,8.011,0,0,0-4.7-4.185,4.954,4.954,0,0,0-5.513,2.109c-1.136,1.9-.649,4.848,1.19,5.9a3.954,3.954,0,0,0-3.623-.991,1.5,1.5,0,0,0-1.216,1.675c-.523-.572-3.943-1.737-3.668-.185.17.959,3.368,1.184,4,1.223,5.167.315,10.526-.316,15.7-.481" transform="translate(-622.156 -78.855)" fill="#fff"/>
        <g id="Group_1099678" data-name="Group 1099678" transform="translate(128.629 29.149)" opacity="0.49">
          <g id="Group_1099677" data-name="Group 1099677">
            <g id="Group_1099676" data-name="Group 1099676" clip-path="url(#clip-path-5)">
              <path id="Path_875213" data-name="Path 875213" d="M672.376,143.061a1.65,1.65,0,0,1,2.436-.507,3.51,3.51,0,0,1,2.31-.582,4.353,4.353,0,0,0,1.294-.968,4.809,4.809,0,0,1,3.11-1.465,2.361,2.361,0,0,1,2.315,2.263c1.076.174,2.877-1.192,5.618.918.846.652-3.319.634-5.31.579-3.982-.109-11.787-.167-11.773-.239" transform="translate(-672.376 -139.54)" fill="#fff"/>
            </g>
          </g>
        </g>
      </g>
    </g>
    <g id="Group_1099691" data-name="Group 1099691" transform="translate(89.664 0)">
      <g id="Group_1099690" data-name="Group 1099690" clip-path="url(#clip-path-6)">
        <g id="Group_1099683" data-name="Group 1099683" transform="translate(-3.671 46.591)" opacity="0.43">
          <g id="Group_1099682" data-name="Group 1099682">
            <g id="Group_1099681" data-name="Group 1099681" clip-path="url(#clip-path-7)">
              <path id="Path_875214" data-name="Path 875214" d="M474.2,223.039c-.571.463-1.124.95-1.652,1.464a11.232,11.232,0,0,0-1.03,1.107,5.656,5.656,0,0,1-.734.889c-.516.435-1,.138-1.362-.351-.411-.551-.735-1.48-1.395-1.723-.829-.3-1.651.54-2.2,1.109-.588.615-1.177,1.2-1.809,1.76-.733.653-1.476,1.293-2.246,1.893-1.308,1.019-10.1,2.471-11.669,2.95l-.6,13.7s20.546-.559,27.325-1.425q-.137-7.048-.274-14.1c-.054-2.768.1-5.929-2.355-7.281" transform="translate(-449.504 -223.039)" fill="#4e789d"/>
            </g>
          </g>
        </g>
        <g id="Group_1099686" data-name="Group 1099686" transform="translate(45.075 46.904)" opacity="0.82">
          <g id="Group_1099685" data-name="Group 1099685">
            <g id="Group_1099684" data-name="Group 1099684" clip-path="url(#clip-path-8)">
              <path id="Path_875215" data-name="Path 875215" d="M735.069,239.191c-5.635-3.989-4.884-8.86-5.748-9.4-.451-.282-.974.372-1.443.619a6.271,6.271,0,0,1-4.522.473,8.22,8.22,0,0,1-3.978-2.463c-.294-.316-.573-.646-.842-.986-.093-.04-.186-.081-.278-.128a4.185,4.185,0,0,1-1.22-1.188,6.79,6.79,0,0,0-1.2-1.4,1.752,1.752,0,0,0-1.582.02,5.285,5.285,0,0,1-1.951.558,10.02,10.02,0,0,1-2.072-.359,8.888,8.888,0,0,0-3.1,0q-.677.1-1.348.254a7.86,7.86,0,0,1-1.466.4c3.365,3.545,6.885,7.189,6.985,7.431l6.312,15.424a1.079,1.079,0,0,0,1.159.694l19.654-3.2a1.076,1.076,0,0,0,.687-.427l.357-.478c-1.476-1.94-2.461-4.473-4.4-5.845" transform="translate(-704.315 -224.538)" fill="#4e789d"/>
            </g>
          </g>
        </g>
        <path id="Path_875216" data-name="Path 875216" d="M514.588,177.964l2.626-1.238a.19.19,0,0,0,.1-.119l3.191-10.721a.181.181,0,0,1,.17-.135h.244a.18.18,0,0,0,.169-.132l2.2-7.079a.2.2,0,0,1,.034-.065l3.671-4.62,1.6-1.877a.176.176,0,0,1,.076-.053l1.885-.664.023-.01,1.907-1.008a.177.177,0,0,0,.041-.031l2.269-2.224a.169.169,0,0,1,.268.038l2.436,4.023a.2.2,0,0,1,.024.06l.355,1.552a.2.2,0,0,0,.052.1l9.031,9.147.017.02,5.957,7.961a.175.175,0,0,0,.12.07l1.018.117a.18.18,0,0,1,.142.109l2.141,4.808a.2.2,0,0,1,.012.036l.294,1.22a.2.2,0,0,0,.058.1l7.205,6.545a.2.2,0,0,1-.029.321c-1.869,1.1-14.845,8.375-29.639,8.06-20.765-.442-24.765-2.26-25.461-2.735a.2.2,0,0,1-.06-.26l5.771-11.23a.185.185,0,0,1,.085-.084" transform="translate(-501.054 -117.036)" fill="#aadfaf"/>
        <path id="Path_875217" data-name="Path 875217" d="M658.579,208.408l-.293-1.217a.206.206,0,0,0-.013-.037l-2.139-4.8a.186.186,0,0,0-.147-.113l-1.011-.116a.181.181,0,0,1-.124-.073l-2.416-3.229a.181.181,0,0,0-.326.1c-.023.153-.158.339-.068.459,1.921,2.569,4.068,10.106-1.616,9.584-3.145-.289-2.229.271-3.35.3a.248.248,0,0,1-.244-.227c-.246-1.953-.779-16.512-4.685-15.941s-6.013-5.761-6.013-5.761l.6,5.914a12.3,12.3,0,0,1,3.029,2.335c.843,1.15-1.586.051-1.586.051,1.938,3.125.817,4.9.817,4.9a.191.191,0,0,1-.234.237,34.443,34.443,0,0,0-3.748-1.145l-.075,0a.2.2,0,0,0-.191.215c.258,4.611.46,9.225.746,13.834.2,3.2.432,6.4.763,9.592a.194.194,0,0,0,.183.181c14.663.225,27.481-6.95,29.371-8.059a.212.212,0,0,0,.03-.333l-7.2-6.537a.2.2,0,0,1-.061-.1" transform="translate(-602.976 -148.201)" fill="#82bda4"/>
        <g id="Group_1099689" data-name="Group 1099689" transform="translate(7.655 34.101)" opacity="0.82">
          <g id="Group_1099688" data-name="Group 1099688">
            <g id="Group_1099687" data-name="Group 1099687" clip-path="url(#clip-path-9)">
              <path id="Path_875218" data-name="Path 875218" d="M534.745,190.361c.329-4.744-.867-7.767-2.213-12.44-.65-2.259-1.391-13.479-1.526-14.507a.177.177,0,0,0-.254-.149l-.179.095-.023.01-1.885.664a.177.177,0,0,0-.076.053l-1.6,1.877-3.671,4.62a.2.2,0,0,0-.034.065l-2.2,7.079a.18.18,0,0,1-.169.132h-.243a.181.181,0,0,0-.17.135l-3.191,10.721a.189.189,0,0,1-.1.119l-2.626,1.238a.184.184,0,0,0-.085.084l-5.771,11.23a.2.2,0,0,0,.06.26c.693.473,4.668,2.28,25.235,2.73a.19.19,0,0,0,.182-.217c-.411-4.016.255-9.77.534-13.8" transform="translate(-508.709 -163.246)" fill="#446d8b"/>
            </g>
          </g>
        </g>
        <path id="Path_875219" data-name="Path 875219" d="M492.344,194.712c-.471-2.046.784-7.307.684-7.758-2.206-9.924-3.587-20.436-3.751-21.715a.2.2,0,0,1,.087-.2l.553-.35a.205.205,0,0,0,.058-.279L489,162.869a.2.2,0,0,1-.029-.087c-.013-.138-.052-.552-.084-.894a.177.177,0,0,0-.254-.155l-.785.415-.023.01-.022.008a.2.2,0,0,0-.123.2q.042.574.079,1.149c.231,3.637-3.154,10.946,1.9,17.109,3.362,4.576-7.753,8.617-7.753,8.617a.18.18,0,0,1-.3-.179l3.616-18.934a.215.215,0,0,1,0-.087l.451-2.37c.041-.216-4.807,4.7-4.758,13.286.008,1.424-1.192-4.769-1.238-4.6.026-2.131,1.215-5.017,1.229-6.843,0-.16-.12-.257-.253-.189a.191.191,0,0,0-.094.114l-2.2,7.079a.18.18,0,0,1-.169.132h-.243a.181.181,0,0,0-.17.135L474.589,187.5a.2.2,0,0,1-.056.089,9.9,9.9,0,0,1-1.052,2.476,8.7,8.7,0,0,1-2.208,2.082c-5.287,4.261-10.3-1.606-15.394-2.519v11.135c-.047.091,10.109-.388,10.19-.333.7.475,28.523.991,28.931,1.1,13.183,3.362-3.292-1.089-2.656-6.818" transform="translate(-458.33 -127.933)" fill="#4c759b"/>
        <path id="Path_875220" data-name="Path 875220" d="M793.391,288.623l1.419-6.522s-21.414-3.623-24.847-4.85-11.421,6.413-17.435,7.352l-20.869,2.935,2.833,1.957Z" transform="translate(-681.353 -219.231)" fill="#416f69"/>
        <path id="Path_875221" data-name="Path 875221" d="M589.658,301.411a49.876,49.876,0,0,0-13.418,1.055c-4.417.794-10.438,1.061-14.9,1.453a70.212,70.212,0,0,1-23.245-2.033,75.207,75.207,0,0,0-16.316-2.525,17.458,17.458,0,0,1-2.384,1.341,24.737,24.737,0,0,1-9.3,2.055c-3.263.151-6.527-.145-9.791-.114q-.768.008-1.544.038c-2.414.658-4.922,1.385-7.587,2.156l48.847,2.275,58.892-.893,3.54-4.241c-.842-.174-11.935-.487-12.787-.568" transform="translate(-486.866 -236.828)" fill="#7fdb9e"/>
        <path id="Path_875222" data-name="Path 875222" d="M495.237,320.705c-15.918-.275-42.447-1.7-58.37-1.7v56.54l121.667,3.486V321.214c-1.6-.075-47.125-.229-63.3-.508" transform="translate(-442.956 -252.364)" fill="#62ac91"/>
      </g>
    </g>
    <g id="Group_1099693" data-name="Group 1099693">
      <g id="Group_1099692" data-name="Group 1099692" clip-path="url(#clip-path-2)">
        <path id="Path_875223" data-name="Path 875223" d="M923.7,551.016q.139-.027.277-.06c4.417-1.05,8.666-6.588,9.206-11.409a1.5,1.5,0,0,0-.084-.856,1.207,1.207,0,0,0-1.334-.428,8.733,8.733,0,0,0-4.733,2.75,30.769,30.769,0,0,0-3.267,4.443c1.8-4.865,3.406-9.35,3.5-14.735.045-2.523-1.125-7.054-4.336-5.745-1.294.528-2.03,2-2.538,3.4-.88,2.425-2.346,15.737-3.879,14.377-.284-.252,2.436-16.081-3.165-21.306-1.089-1.015-2.474-2.109-3.775-1.457a3.565,3.565,0,0,0-1.509,1.9,15.688,15.688,0,0,0-.969,4.741,49.376,49.376,0,0,0,.014,7.657c.177,2.452.8,5.01.8,7.45-1.65-3.163-2.7-6.369-5.1-9.046a2.823,2.823,0,0,0-.947-.771.989.989,0,0,0-1.113.184,1.72,1.72,0,0,0-.334.912c-.534,3.532.168,8.065,2.392,10.807a17.136,17.136,0,0,0-5.851-6.315,1.444,1.444,0,0,0-1.4-.291,1.534,1.534,0,0,0-.625,1.031,7.894,7.894,0,0,0,.476,4.769,17.548,17.548,0,0,0,2.478,4.055A9.812,9.812,0,0,0,902.5,550.3c5.858,2.508,19.346,1.083,21.2.718" transform="translate(-723.577 -411.213)" fill="#457889"/>
        <path id="Path_875224" data-name="Path 875224" d="M1023.543,557.743a66.6,66.6,0,0,1-6.648,22.7" transform="translate(-822.358 -441.235)" fill="none" stroke="#9ce5e8" stroke-linecap="round" stroke-miterlimit="10" stroke-width="1"/>
        <path id="Path_875225" data-name="Path 875225" d="M1029.224,586.714c.552.966,1.831,3.52,2.278,4.549" transform="translate(-832.328 -464.154)" fill="none" stroke="#9ce5e8" stroke-linecap="round" stroke-miterlimit="10" stroke-width="1"/>
        <path id="Path_875226" data-name="Path 875226" d="M1048.635,580.423a31.719,31.719,0,0,0-2.865,2.5" transform="translate(-845.709 -459.177)" fill="none" stroke="#9ce5e8" stroke-linecap="round" stroke-miterlimit="10" stroke-width="1"/>
        <path id="Path_875227" data-name="Path 875227" d="M1032.39,628.982c-.64.485-2.586,2.167-3.166,2.735" transform="translate(-832.328 -497.593)" fill="none" stroke="#9ce5e8" stroke-linecap="round" stroke-miterlimit="10" stroke-width="1"/>
        <path id="Path_875228" data-name="Path 875228" d="M1017.088,646.984l-.546-3.9" transform="translate(-822.072 -508.747)" fill="none" stroke="#9ce5e8" stroke-linecap="round" stroke-miterlimit="10" stroke-width="1"/>
        <path id="Path_875229" data-name="Path 875229" d="M977.951,528.167c.747,3.187,2.167,11.225,2.558,14.486" transform="translate(-790.864 -417.837)" fill="none" stroke="#9ce5e8" stroke-linecap="round" stroke-miterlimit="10" stroke-width="1"/>
        <path id="Path_875230" data-name="Path 875230" d="M972.265,547.007c.385.536,1.965,1.962,2.35,2.5" transform="translate(-786.266 -432.742)" fill="none" stroke="#9ce5e8" stroke-linecap="round" stroke-miterlimit="10" stroke-width="1"/>
        <path id="Path_875231" data-name="Path 875231" d="M992.033,565.841c-.327.783-1.314,3.655-1.539,4.481" transform="translate(-801.008 -447.641)" fill="none" stroke="#9ce5e8" stroke-linecap="round" stroke-miterlimit="10" stroke-width="1"/>
        <path id="Path_875232" data-name="Path 875232" d="M1044.389,640.56a71.354,71.354,0,0,1-5.032,5.4" transform="translate(-840.523 -506.752)" fill="none" stroke="#9ce5e8" stroke-linecap="round" stroke-miterlimit="10" stroke-width="1"/>
        <path id="Path_875233" data-name="Path 875233" d="M907.143,616.886c1.131,3.013,3.862,8.085,7.466,10.047" transform="translate(-733.602 -488.023)" fill="none" stroke="#9ce5e8" stroke-linecap="round" stroke-miterlimit="10" stroke-width="1"/>
        <path id="Path_875234" data-name="Path 875234" d="M922.183,625.061c-.055.777.857,4.141.8,4.918" transform="translate(-745.763 -494.491)" fill="none" stroke="#9ce5e8" stroke-linecap="round" stroke-miterlimit="10" stroke-width="1"/>
        <path id="Path_875235" data-name="Path 875235" d="M905.829,634.024c.383.09,2.582,1.558,2.965,1.648" transform="translate(-732.539 -501.582)" fill="none" stroke="#9ce5e8" stroke-linecap="round" stroke-miterlimit="10" stroke-width="1"/>
        <path id="Path_875236" data-name="Path 875236" d="M1076.4,626.3a44.929,44.929,0,0,0-6.424,1.266c4.059-2.213,6.188-5.4,6.113-11.35-1.684.84-2.688,2.723-3.565,4.5q-1.1,2.223-2.148,4.472c.126-2.217.236-4.538-.607-6.559-.173-.414-.508-.873-.912-.761-.346.1-.478.546-.548.928a36.746,36.746,0,0,0-.33,10.889c.105.127.294.089.443.035,1.093-.394,3.985-.017,5.335-.618a5.273,5.273,0,0,0,2.642-2.805" transform="translate(-863.461 -487.497)" fill="#62ac91"/>
        <path id="Path_875237" data-name="Path 875237" d="M1078.678,621.537c-1.9,5.843-4.8,8.4-6.393,11.309" transform="translate(-867.152 -491.703)" fill="none" stroke="#9ce5e8" stroke-linecap="round" stroke-miterlimit="10" stroke-width="1"/>
        <path id="Path_875238" data-name="Path 875238" d="M1075.729,628.919c.031,1.912-.031,6.757,0,8.67" transform="translate(-869.929 -497.543)" fill="none" stroke="#9ce5e8" stroke-linecap="round" stroke-miterlimit="10" stroke-width="1"/>
        <path id="Path_875239" data-name="Path 875239" d="M938.749,565.337a17.628,17.628,0,0,0-1.341-11c-.186-.386-.537-.827-.9-.654-.282.133-.337.537-.342.872-.056,4.005,1.245,7.867,2.527,11.62a7.088,7.088,0,0,0-3.567-3.037c-.5-.185-1.213-.189-1.358.359a1.21,1.21,0,0,0,.166.8,20.81,20.81,0,0,0,3.845,5.536,2.53,2.53,0,0,0-1.953-.928,1.583,1.583,0,0,0-1.44,1.506,2.721,2.721,0,0,0,.407,1.236,48.94,48.94,0,0,0,5.236,7.951,14.954,14.954,0,0,0,3.97-8.094,8,8,0,0,0-2.776,2.862,42.276,42.276,0,0,0,3.595-9.193c.112-.428.194-.96-.109-1.259-.424-.419-1.078.052-1.459.518a24.236,24.236,0,0,0-3.14,4.987c1.079-1.47,2.386-6.382,1.666-8.094-.879.726-2.814,2.819-3.021,4" transform="translate(-755.112 -437.996)" fill="#62ac91"/>
        <path id="Path_875240" data-name="Path 875240" d="M952.756,565.028a162.766,162.766,0,0,1,2.559,23.475" transform="translate(-770.489 -446.998)" fill="none" stroke="#9ce5e8" stroke-linecap="round" stroke-miterlimit="10" stroke-width="1"/>
        <path id="Path_875241" data-name="Path 875241" d="M968.608,615.608l-3.418,7.8" transform="translate(-780.544 -487.012)" fill="none" stroke="#9ce5e8" stroke-linecap="round" stroke-miterlimit="10" stroke-width="1"/>
        <path id="Path_875242" data-name="Path 875242" d="M944.488,634.03a59.7,59.7,0,0,1,4.14,6.466" transform="translate(-763.803 -501.586)" fill="none" stroke="#9ce5e8" stroke-linecap="round" stroke-miterlimit="10" stroke-width="1"/>
        <path id="Path_875243" data-name="Path 875243" d="M943.193,605.281c.879,1.052,2.892,3.777,3.648,4.938" transform="translate(-762.755 -478.843)" fill="none" stroke="#9ce5e8" stroke-linecap="round" stroke-miterlimit="10" stroke-width="1"/>
        <path id="Path_875244" data-name="Path 875244" d="M597.993,681.052c.375-.373.719-.786,1.093-1.159a6.1,6.1,0,0,1,1.754-1.26,2.146,2.146,0,0,1,1.912-.063,11.5,11.5,0,0,1-.225,2.414c-.146.953-.361,1.885-.586,2.812a10.9,10.9,0,0,1-.769,2.574c-.5.889-.977.216-1.428-.416l-.03-.043-2.828-3.962a5.341,5.341,0,0,0,1.107-.9" transform="translate(-482.699 -536.665)" fill="#da1763"/>
        <path id="Path_875245" data-name="Path 875245" d="M575.544,698.787c.559-.089.935-.611,1.306-1.055a6.355,6.355,0,0,1,1.217-1.116.742.742,0,0,1,.417-.173.633.633,0,0,1,.338.142c.865.6,2.842,3.822,4.74,4.489-.241-.085-.526.073-.76.118a4.575,4.575,0,0,1-1.124.072,6.352,6.352,0,0,1-3-1.154,6.7,6.7,0,0,0-3.133-1.324" transform="translate(-465.44 -550.962)" fill="#da1763"/>
        <path id="Path_875246" data-name="Path 875246" d="M621.5,689.49a8.054,8.054,0,0,0,2.033-3.885c.1-.461.221-.643-.133-.8a5.4,5.4,0,0,0-1.086-.126,7.579,7.579,0,0,1-2.237-.763,11.7,11.7,0,0,1-1.228,4.908,17.634,17.634,0,0,1-.965,1.706c-.077.12-.3.6-.43.635a7.349,7.349,0,0,0,4.045-1.677" transform="translate(-499.334 -541.053)" fill="#da1763"/>
        <path id="Path_875247" data-name="Path 875247" d="M612.361,705.722a3.841,3.841,0,0,0-.214-1.794,10.366,10.366,0,0,0-.768-1.61" transform="translate(-494.419 -555.609)" fill="none" stroke="#222221" stroke-linecap="round" stroke-miterlimit="10" stroke-width="1"/>
        <path id="Path_875248" data-name="Path 875248" d="M608.288,705.22a4.392,4.392,0,0,1,1.3,2.429" transform="translate(-491.919 -557.905)" fill="none" stroke="#222221" stroke-linecap="round" stroke-miterlimit="10" stroke-width="1"/>
        <path id="Path_875249" data-name="Path 875249" d="M617.277,704.923a4.887,4.887,0,0,0-.041-3.615" transform="translate(-499.156 -554.81)" fill="none" stroke="#222221" stroke-linecap="round" stroke-miterlimit="10" stroke-width="1"/>
        <path id="Path_875250" data-name="Path 875250" d="M619.094,709.755a2.358,2.358,0,0,0,1.028-2.393" transform="translate(-500.658 -559.599)" fill="none" stroke="#222221" stroke-linecap="round" stroke-miterlimit="10" stroke-width="1"/>
        <path id="Path_875251" data-name="Path 875251" d="M609.131,710.211a2.537,2.537,0,0,1,.832,1.57" transform="translate(-492.601 -561.854)" fill="none" stroke="#222221" stroke-linecap="round" stroke-miterlimit="10" stroke-width="1"/>
        <path id="Path_875252" data-name="Path 875252" d="M615.527,719.263a6.3,6.3,0,0,1-.061,2.531c-.383,2.96.335,6.233,2.323,8.216" transform="translate(-497.644 -569.015)" fill="none" stroke="#457889" stroke-linecap="round" stroke-miterlimit="10" stroke-width="2"/>
        <path id="Path_875253" data-name="Path 875253" d="M616.032,699.266a.373.373,0,0,1-.222.451.327.327,0,0,1-.387-.278.373.373,0,0,1,.223-.451.327.327,0,0,1,.387.279" transform="translate(-497.68 -552.967)" fill="#222221"/>
        <path id="Path_875254" data-name="Path 875254" d="M624,706.4a.189.189,0,0,1-.113.228.165.165,0,0,1-.2-.141.189.189,0,0,1,.113-.228.166.166,0,0,1,.2.141" transform="translate(-504.37 -558.721)" fill="#222221"/>
        <path id="Path_875255" data-name="Path 875255" d="M611.245,700.494a.312.312,0,0,1-.187.378.274.274,0,0,1-.324-.233.312.312,0,0,1,.187-.378.274.274,0,0,1,.324.233" transform="translate(-493.89 -553.975)" fill="#222221"/>
        <path id="Path_875256" data-name="Path 875256" d="M608.117,704.418a.311.311,0,0,1-.186.377.273.273,0,0,1-.323-.232.311.311,0,0,1,.186-.377.273.273,0,0,1,.323.232" transform="translate(-491.362 -557.08)" fill="#222221"/>
        <path id="Path_875257" data-name="Path 875257" d="M612.684,710.31a.353.353,0,0,1-.211.427.31.31,0,0,1-.366-.264.353.353,0,0,1,.211-.427.31.31,0,0,1,.366.264" transform="translate(-494.999 -561.715)" fill="#222221"/>
        <path id="Path_875258" data-name="Path 875258" d="M606.913,709.3a.321.321,0,0,1-.192.389.282.282,0,0,1-.333-.24.321.321,0,0,1,.192-.389.282.282,0,0,1,.333.24" transform="translate(-490.375 -560.935)" fill="#222221"/>
        <path id="Path_875259" data-name="Path 875259" d="M619.634,715.72a.214.214,0,0,1-.128.259.187.187,0,0,1-.222-.16.214.214,0,0,1,.128-.259.187.187,0,0,1,.222.16" transform="translate(-500.807 -566.081)" fill="#222221"/>
        <path id="Path_875260" data-name="Path 875260" d="M617.546,706.53a.275.275,0,0,1-.164.333.241.241,0,0,1-.285-.206.275.275,0,0,1,.164-.333.241.241,0,0,1,.285.206" transform="translate(-499.036 -558.773)" fill="#222221"/>
        <path id="Path_875261" data-name="Path 875261" d="M601.977,711.953a.332.332,0,0,1-.2.4.291.291,0,0,1-.344-.248.332.332,0,0,1,.2-.4.291.291,0,0,1,.344.248" transform="translate(-486.369 -563.028)" fill="#222221"/>
        <path id="Path_875262" data-name="Path 875262" d="M628.756,710.414a.3.3,0,0,1-.177.359.26.26,0,0,1-.308-.222.3.3,0,0,1,.177-.359.26.26,0,0,1,.308.222" transform="translate(-508.072 -561.833)" fill="#222221"/>
        <path id="Path_875263" data-name="Path 875263" d="M608.054,715.753a.16.16,0,0,1-.1.194.141.141,0,0,1-.167-.12.161.161,0,0,1,.1-.195.141.141,0,0,1,.167.12" transform="translate(-491.514 -566.139)" fill="#222221"/>
        <path id="Path_875264" data-name="Path 875264" d="M603.871,714.1a2.3,2.3,0,0,0,1.87.857" transform="translate(-488.347 -564.932)" fill="none" stroke="#222221" stroke-linecap="round" stroke-miterlimit="10" stroke-width="1"/>
        <path id="Path_875265" data-name="Path 875265" d="M623.817,713.049a1.574,1.574,0,0,1-1.2.62" transform="translate(-503.506 -564.099)" fill="none" stroke="#222221" stroke-linecap="round" stroke-miterlimit="10" stroke-width="1"/>
        <path id="Path_875266" data-name="Path 875266" d="M596.365,742.124c.449.8,2.882,3.244,3.927,2.283-.158-2.359-3.948-2.32-3.927-2.283" transform="translate(-482.277 -587.093)" fill="#457889"/>
        <path id="Path_875267" data-name="Path 875267" d="M620.835,725.9c-.663.2-2.941,1.686-2.5,2.783,1.7.4,2.531-2.792,2.5-2.783" transform="translate(-499.998 -574.268)" fill="#457889"/>
        <path id="Path_875268" data-name="Path 875268" d="M346.268,427.262a4.99,4.99,0,0,0,.614-2.021,6.26,6.26,0,0,0-1.254-3.839c-.757-1.115-1.688-2.08-2.432-3.206a2.45,2.45,0,0,1-.524-1.524c.079-.849.859-1.363,1.4-1.973a4.282,4.282,0,0,0-.983-6.3,2.485,2.485,0,0,0-1.616-.506c-.823.075-2.559.769-2.9,1.685a16.239,16.239,0,0,0,1.312-5.179c.058-1.824-.632-3.8-1.921-4.324a3.5,3.5,0,0,0-2.173.068c-.526.132-.98.01-1.308.586a13.713,13.713,0,0,0,1.885-4.808,2.033,2.033,0,0,0-.31-1.647.936.936,0,0,0-1.033-.065,4.12,4.12,0,0,0-1.7,1.371c-.092.123-.147.075-.065.2a11.352,11.352,0,0,0,1.428-7.238,5.76,5.76,0,0,0-.778-2.376c-.192-.289-.456-.546-.747-.5-.39.061-.627.612-.776,1.1a38.415,38.415,0,0,0-1.123,5.829,4.386,4.386,0,0,0-1.4-2.828c-.105-.081-.231-.156-.346-.094a.607.607,0,0,0-.21.388,8.893,8.893,0,0,0,.116,4.8c-.031.062.106.223.123.152a.225.225,0,0,0-.068-.187,8.774,8.774,0,0,0-3.051-2.7,1.456,1.456,0,0,0-1.609.164,3.068,3.068,0,0,0-.688,1.91,13,13,0,0,0,.581,4.749,18.048,18.048,0,0,0,4.286,7.6c.152-.06.067-.17-.043-.317-1.773-2.36-4.732-1.584-6.11,1.313-2.3,4.845,3.012,6.982,3.6,8.859-5.421.9-5.525,7.011-1.236,11.8a10.964,10.964,0,0,0,7.157,3.432,23.7,23.7,0,0,0,8.949-.67,8.325,8.325,0,0,0,4.658-3.232c.1-.157.2-.32.293-.487" transform="translate(-260.538 -305.104)" fill="#62ac91"/>
        <path id="Path_875269" data-name="Path 875269" d="M374.51,437.262c-.117,10.736.668,30.439.665,41.934" transform="translate(-302.855 -345.922)" fill="none" stroke="#453426" stroke-linecap="round" stroke-miterlimit="10" stroke-width="2"/>
        <path id="Path_875270" data-name="Path 875270" d="M358.926,451.828c.669,2.209,2.258,8.237,3.118,10.365" transform="translate(-290.262 -357.445)" fill="none" stroke="#453426" stroke-linecap="round" stroke-miterlimit="10" stroke-width="2"/>
        <path id="Path_875271" data-name="Path 875271" d="M357.173,562.3a49.471,49.471,0,0,0-4.517-4.724" transform="translate(-285.191 -441.099)" fill="none" stroke="#453426" stroke-linecap="round" stroke-miterlimit="10" stroke-width="2"/>
        <line id="Line_3212" data-name="Line 3212" x1="5.554" y2="5.422" transform="translate(71.982 106.886)" fill="none" stroke="#453426" stroke-linecap="round" stroke-miterlimit="10" stroke-width="2"/>
        <path id="Path_875272" data-name="Path 875272" d="M320.656,114.8a15.06,15.06,0,0,0,.4-2.938,5.367,5.367,0,0,0,3.88-.621.33.33,0,0,0,.146-.338,26.589,26.589,0,0,0-1-4.216c-.05-.146-.084-.291.041-.367a11.631,11.631,0,0,0,1.3-.606c.175-.15.191-.479-.248-.64a2.591,2.591,0,0,1-1.412-1.6,26.759,26.759,0,0,1-.419-2.688c-.032-.17-.114-.379-.273-.372-2.961,1.917-6.208,4.185-9.076,6.3-.124.091-.386.466-.311.607a17.135,17.135,0,0,1,1.6,5.513Z" transform="translate(-253.663 -79.444)" fill="#f8e8dd"/>
        <path id="Path_875273" data-name="Path 875273" d="M352.981,121.043a.842.842,0,0,1-.833.854.853.853,0,0,1-.782-.909.842.842,0,0,1,.833-.854.853.853,0,0,1,.782.909" transform="translate(-284.148 -95.039)" fill="#f1d2c9"/>
        <path id="Path_875274" data-name="Path 875274" d="M316.312,114.1c-.251,4.093,4.214,3.741,5.23,3.218a28.625,28.625,0,0,1,1.165,4.312c.047,1.458-3.664,2.534-5.647.7a14.372,14.372,0,0,1-2.084-4.1c-.057.779-.169,1.561-.212,2.343a1.135,1.135,0,0,1-.941,1.089c-.482.066-.935.1-1.468.222a.23.23,0,0,1-.274-.2c-.165-1.1-.676-3.542-1.505-4.022Z" transform="translate(-251.161 -90.261)" fill="#49163a"/>
        <path id="Path_875275" data-name="Path 875275" d="M357.707,133.872s1.369,1.724,1.936.575c.023.332-.073,1.315-.573,1.331-1.354-.046-1.364-1.906-1.364-1.906" transform="translate(-289.276 -105.907)" fill="#fff"/>
        <path id="Path_875276" data-name="Path 875276" d="M359.719,115.991c.034.184-.007.348-.092.366s-.18-.116-.213-.3.007-.348.091-.366.18.116.214.3" transform="translate(-290.647 -91.523)"/>
        <path id="Path_875277" data-name="Path 875277" d="M357.709,110.676c.063.9-.268,1.659-.739,1.7s-.9-.657-.967-1.556.268-1.659.739-1.7S357.646,109.778,357.709,110.676Z" transform="translate(-287.892 -86.325)" fill="none" stroke="#000" stroke-miterlimit="10" stroke-width="0.8"/>
        <path id="Path_875278" data-name="Path 875278" d="M367.7,106.508c.055.793-.165,1.457-.492,1.485s-.637-.593-.693-1.386.165-1.457.492-1.485S367.648,105.715,367.7,106.508Z" transform="translate(-296.395 -83.162)" fill="none" stroke="#000" stroke-miterlimit="10" stroke-width="0.8"/>
        <line id="Line_3213" data-name="Line 3213" x1="0.394" y2="0.214" transform="translate(69.77 23.778)" fill="none" stroke="#000" stroke-miterlimit="10" stroke-width="0.8"/>
        <line id="Line_3214" data-name="Line 3214" x1="3.647" y2="0.559" transform="translate(64.477 24.615)" fill="none" stroke="#000" stroke-miterlimit="10" stroke-width="0.8"/>
        <path id="Path_875279" data-name="Path 875279" d="M326.192,121.425a2.6,2.6,0,0,0,.125,1.668,2.3,2.3,0,0,0,1.1,1.165,1.153,1.153,0,0,0,.861.1.738.738,0,0,0,.495-.714,22.644,22.644,0,0,1-1.054-2.531Z" transform="translate(-263.723 -95.811)" fill="#f8e8dd"/>
        <path id="Path_875280" data-name="Path 875280" d="M330.873,125.457c-.438.479.076,1.768.911,1.35" transform="translate(-267.446 -99.25)" fill="none" stroke="#e5bdb8" stroke-linecap="round" stroke-miterlimit="10" stroke-width="1"/>
        <path id="Path_875281" data-name="Path 875281" d="M294.432,78.189c-1.184,1.367-3.31,4.21-2.309,4.948,1.78,1.312,14.332-7.916,16.248-10.826.86-1.305.4-2.094-1.039-1.734a31.355,31.355,0,0,0-3.248,1.046c-1.725.007-2.77-3.737-3.432-4.118-.853-.49-2.677-.162-3.612,2.331-.7,1.86-2.69,0-3.758.065-1.665.094-1.27,1.945-1.114,2.413a53.3,53.3,0,0,0,2.264,5.875" transform="translate(-236.028 -53.251)" fill="#ecb52d"/>
        <path id="Path_875282" data-name="Path 875282" d="M304.346,85.447a2.5,2.5,0,0,0,2.741.068" transform="translate(-246.123 -67.598)" fill="none" stroke="#cf8b21" stroke-linecap="round" stroke-miterlimit="10" stroke-width="1"/>
        <path id="Path_875283" data-name="Path 875283" d="M294.214,131.825a1.909,1.909,0,0,0-.43.651.691.691,0,0,0,.157.735.577.577,0,0,0,.3.112,1.794,1.794,0,0,0,.782-.151,25.744,25.744,0,0,0,3.994-1.929" transform="translate(-237.549 -103.827)" fill="none" stroke="#cf8b21" stroke-linecap="round" stroke-miterlimit="10" stroke-width="1"/>
        <path id="Path_875284" data-name="Path 875284" d="M341.218,90.738a9.6,9.6,0,0,1-3.169,2.861" transform="translate(-273.379 -71.784)" fill="none" stroke="#cf8b21" stroke-linecap="round" stroke-miterlimit="10" stroke-width="1"/>
        <path id="Path_875285" data-name="Path 875285" d="M310.428,84.227a2.169,2.169,0,0,1-1.38-.97,24.037,24.037,0,0,1-4.312,3.086,17.416,17.416,0,0,1-2.919,1.376c-.514.176-1.033.338-1.547.515-.134.046-.269.093-.4.142.328.85.675,1.683,1.017,2.382.062-.035,6.718-2.853,9.545-6.532" transform="translate(-242.5 -65.865)" fill="#da381e"/>
        <path id="Path_875286" data-name="Path 875286" d="M435.777,527.175c-1.665-2.962-1.009-4.425-1.229-5.337a3.692,3.692,0,0,0-1.42-2.279c1.353-.978,2.652-1.943,4-2.92.242,1.048.531,2.1.862,3.114a6.361,6.361,0,0,1,2.368-3.222c3.517-2,5.011,3.058,4.606,4.638Z" transform="translate(-350.268 -408.268)" fill="#70123f"/>
        <path id="Path_875287" data-name="Path 875287" d="M448.734,536.548c-1.311.944-2.639,1.854-3.982,2.741.123.266.26.542.425.836l9.191-6.006a4.04,4.04,0,0,0-.056-1.679c-1.86,1.368-3.706,2.759-5.578,4.107" transform="translate(-359.669 -421.218)" fill="#49163a"/>
        <path id="Path_875288" data-name="Path 875288" d="M456.433,532.044a1.883,1.883,0,0,1,.193-1.695" transform="translate(-369.02 -419.563)" fill="none" stroke="#e7b7b5" stroke-linecap="round" stroke-miterlimit="10" stroke-width="1"/>
        <path id="Path_875289" data-name="Path 875289" d="M460.387,524.367a2.955,2.955,0,0,0-.516,2.631" transform="translate(-371.805 -414.831)" fill="none" stroke="#e7b7b5" stroke-linecap="round" stroke-miterlimit="10" stroke-width="1"/>
        <path id="Path_875290" data-name="Path 875290" d="M465.218,519.812a1.3,1.3,0,0,0-.392.966,5.349,5.349,0,0,0,.218,1.971" transform="translate(-375.889 -411.227)" fill="none" stroke="#e7b7b5" stroke-linecap="round" stroke-miterlimit="10" stroke-width="1"/>
        <path id="Path_875291" data-name="Path 875291" d="M352.073,325.7c1.622,2.414,4.642,9.118,6.8,13.831a166.649,166.649,0,0,1,8.041,21.767l5.793-3.827c-1.956-9.74-6.568-23.475-14.153-44.762Z" transform="translate(-284.72 -247.389)" fill="#c1554e"/>
        <path id="Path_875292" data-name="Path 875292" d="M377.1,366.937c4.583,11.7,8.808,22.754,13.2,34.539" transform="translate(-304.962 -290.287)" fill="none" stroke="#a64340" stroke-linecap="round" stroke-miterlimit="10" stroke-width="1"/>
        <path id="Path_875293" data-name="Path 875293" d="M427.93,524.138l5.3-3.381-.118.087" transform="translate(-346.065 -411.975)" fill="none" stroke="#a64340" stroke-linecap="round" stroke-miterlimit="10" stroke-width="1"/>
        <path id="Path_875294" data-name="Path 875294" d="M213.182,500.189c2.43-2.245,3.854-1.757,4.646-2.133a3.5,3.5,0,0,0,1.849-1.876c1.089,1.312,1.634,1.938,2.722,3.251-.912.419-1.292,1.52-2.164,2.031a5.808,5.808,0,0,1,3.274,2.07c2.34,3.495-2.012,5.87-3.5,5.672Z" transform="translate(-172.399 -392.532)" fill="#70123f"/>
        <path id="Path_875295" data-name="Path 875295" d="M218.409,518.143q-1.319-1.566-2.609-3.158c-.424-.523-.848-1.045-1.28-1.56-.208-.249-.413-.5-.636-.737l-.032-.033c-.215.169-.437.352-.671.568l6.825,9.014a3.213,3.213,0,0,0,1.567-.339q-1.58-1.88-3.164-3.754" transform="translate(-172.398 -405.565)" fill="#49163a"/>
        <path id="Path_875296" data-name="Path 875296" d="M243.667,520.514a2.3,2.3,0,0,0-2.034.729" transform="translate(-195.407 -411.761)" fill="none" stroke="#e7b7b5" stroke-linecap="round" stroke-miterlimit="10" stroke-width="1"/>
        <path id="Path_875297" data-name="Path 875297" d="M247.765,522.751a.907.907,0,0,0-.551.016,5.25,5.25,0,0,0-1.457.63" transform="translate(-198.742 -413.523)" fill="none" stroke="#e7b7b5" stroke-linecap="round" stroke-miterlimit="10" stroke-width="1"/>
        <path id="Path_875298" data-name="Path 875298" d="M250.373,524.68a.6.6,0,0,0-.5-.154,1.417,1.417,0,0,0-.5.187,4.718,4.718,0,0,0-1.135.875" transform="translate(-200.746 -414.952)" fill="none" stroke="#e7b7b5" stroke-linecap="round" stroke-miterlimit="10" stroke-width="1"/>
        <path id="Path_875299" data-name="Path 875299" d="M240.893,354.544a76.217,76.217,0,0,0,14.769-18.616,93.266,93.266,0,0,0,9.364-26.01c-4.83-.071-13.735.109-13.735.109s-1.693,18.4-3.959,22.621c-4.48,8.343-9.805,14.817-11.265,17.368Z" transform="translate(-190.906 -245.166)" fill="#dd7d52"/>
        <path id="Path_875300" data-name="Path 875300" d="M327.27,328.271c-.674,3.042-4.543,3.156-5.924,2.4" transform="translate(-259.871 -259.698)" fill="none" stroke="#c1554e" stroke-linecap="round" stroke-miterlimit="10" stroke-width="1"/>
        <path id="Path_875301" data-name="Path 875301" d="M295.43,421.211a5.816,5.816,0,0,1,2.524,1.141" transform="translate(-238.913 -333.223)" fill="none" stroke="#c1554e" stroke-linecap="round" stroke-miterlimit="10" stroke-width="1"/>
        <path id="Path_875302" data-name="Path 875302" d="M293.4,425.83a7.218,7.218,0,0,1,2.041,2.313" transform="translate(-237.272 -336.878)" fill="none" stroke="#c1554e" stroke-linecap="round" stroke-miterlimit="10" stroke-width="1"/>
        <path id="Path_875303" data-name="Path 875303" d="M278.42,347.7l-1.938,10.972a20.162,20.162,0,0,1-.829,3.478,19.44,19.44,0,0,1-1.1,2.331c-2.921,5.535-5.872,11.116-9.787,15.863" transform="translate(-214.115 -275.066)" fill="none" stroke="#c1554e" stroke-linecap="round" stroke-miterlimit="10" stroke-width="1"/>
        <path id="Path_875304" data-name="Path 875304" d="M240.7,496.483a27.62,27.62,0,0,1,4.928,4.647" transform="translate(-194.651 -392.772)" fill="none" stroke="#c1554e" stroke-linecap="round" stroke-miterlimit="10" stroke-width="1"/>
        <path id="Path_875305" data-name="Path 875305" d="M322.645,153.552l.173-1.419c.007-.056-5.678-1.211-8.121-3.333a28.682,28.682,0,0,1,.391,3.909c.2-.112,6.95.34,7.557.843" transform="translate(-254.494 -117.717)" fill="#da1763"/>
        <path id="Path_875306" data-name="Path 875306" d="M309.427,180.469c2.945,12,.5,18.212.919,18.226.285.01,10.185,2.348,14.786,1.212a70.548,70.548,0,0,0-.785-19.357,29.124,29.124,0,0,0-5.977-13.164,9.03,9.03,0,0,0-4.406-1.091,11.665,11.665,0,0,0-3.151.248c-.773.336-1.512,9.871-1.388,13.925" transform="translate(-250.221 -131.551)" fill="#bd0f4d"/>
        <path id="Path_875307" data-name="Path 875307" d="M319.954,314.562a68.33,68.33,0,0,0,13.213,1.261" transform="translate(-258.745 -248.853)" fill="none" stroke="#94005b" stroke-linecap="round" stroke-miterlimit="10" stroke-width="1"/>
        <path id="Path_875308" data-name="Path 875308" d="M276.446,298.412c.751,2.787-.438,5.613-2.99,6.433a4.983,4.983,0,0,1-6.253-3.464c-.751-2.787.486-6.2,3.9-6.131,2.063.04,4.591.376,5.341,3.162" transform="translate(-215.915 -233.573)" fill="#ecb52d"/>
        <path id="Path_875309" data-name="Path 875309" d="M278.762,300.5c-1.608-.542-3.787-.721-5.181.512-1.786,1.58-1.194,4.874.54,6.2a4.076,4.076,0,0,0,3.429.694,2.666,2.666,0,0,0,1.57-.959c1.325-1.827.166-4.876-1.843-5.313a2.408,2.408,0,0,0-2.618,1.222,2.573,2.573,0,0,0-.149,1.931,2.3,2.3,0,0,0,1.233,1.393,1.626,1.626,0,0,0,1.756-.254,1.463,1.463,0,0,0,.209-1.825,1.28,1.28,0,0,0-1.089-.482.926.926,0,0,0-.815.464c-.15.31.017.785.337.8a.271.271,0,0,0,.269-.158c.043-.108-.023-.261-.132-.265" transform="translate(-220.368 -237.398)" fill="none" stroke="#cf8b21" stroke-linecap="round" stroke-miterlimit="10" stroke-width="1"/>
        <path id="Path_875310" data-name="Path 875310" d="M252.515,315.659c-.748-1.148-3.192-2.712-3.544-1.293s2.677,1.28,3.544,1.293" transform="translate(-201.319 -248.25)" fill="none" stroke="#94005b" stroke-linecap="round" stroke-miterlimit="10" stroke-width="1"/>
        <path id="Path_875311" data-name="Path 875311" d="M256.375,322.7c-2.014.417-3.245,3.431-2.377,4.213,1.256.717,2.377-3.175,2.377-4.213" transform="translate(-205.179 -255.287)" fill="none" stroke="#94005b" stroke-linecap="round" stroke-miterlimit="10" stroke-width="1"/>
        <path id="Path_875312" data-name="Path 875312" d="M264.681,332.208c.565-.476,2.459-2.727,1.388-5.189a10.1,10.1,0,0,1-.827-4.323" transform="translate(-214.046 -255.287)" fill="none" stroke="#94005b" stroke-linecap="round" stroke-miterlimit="10" stroke-width="1"/>
        <path id="Path_875313" data-name="Path 875313" d="M323.135,257.278s7.354-.193,7.829-6.187c.017-.217,1.909.163,1.856,2.005-.075,2.619-3.6,7.692-9.569,6.225-.811-.2-.116-2.043-.116-2.043" transform="translate(-261.093 -198.596)" fill="#dd7d52"/>
        <path id="Path_875314" data-name="Path 875314" d="M313.579,171.028c.9-3.072,8.25-4.726,10.728-.008,2.558,4.869,1.812,14.264,1.812,14.264s-1.269-10.485-3.763-13.3-5.291-2.675-7.525.8c-.149.231-1.426-1.111-1.253-1.754" transform="translate(-253.577 -132.961)" fill="#dd7d52"/>
        <path id="Path_875315" data-name="Path 875315" d="M276.208,173.656c-1.219,5.052.551,16.4,2.156,20.243.869,2.08-2.313,3.367-6.038,3.434-2.355.042-4.67-.006-5.184-.59-2.591-1.885-1.76-21.286,2.644-25.275,1.664-1.508,7.2-1.043,6.423,2.188" transform="translate(-214.853 -134.997)" fill="#dd7d52"/>
        <path id="Path_875316" data-name="Path 875316" d="M268.489,176.231a10.275,10.275,0,0,1,1.119.161c.093.019.186.04.278.063.072.018.24.1.312.081.051-.012.035-.051.04-.114,0-.044.007-.089.011-.133q.013-.166.027-.332a21.611,21.611,0,0,1,.724-4.249,2.56,2.56,0,0,1,.746-1.329,2.3,2.3,0,0,1,1.408-.385,6.854,6.854,0,0,1,2.921.674A4.155,4.155,0,0,1,278,172.249c.022-.108.044-.217.069-.319.78-3.232-5.59-4.3-7.255-2.8-1.33,1.205-2.258,3.873-2.834,7.061.169.01.339.022.508.038" transform="translate(-216.715 -133.271)" fill="#c1554e"/>
        <path id="Path_875317" data-name="Path 875317" d="M262.287,240.829c.007-.054.009-.1.014-.15a3.342,3.342,0,0,0-1.272-.466,2.255,2.255,0,0,0-.358-.021c0,.034-.012.067-.013.1-.04,2.645-.119,10.886.444,11.231l2.234.077s-1.354-8.519-1.049-10.772" transform="translate(-210.769 -190.017)" fill="#c1554e"/>
        <path id="Path_875318" data-name="Path 875318" d="M284.508,206.29c-.112-5.264-.382-12-.819-17.239a2.02,2.02,0,0,1,.656-.774,5.362,5.362,0,0,1,5.253-.44,40.486,40.486,0,0,0-.377,18.894,2.655,2.655,0,0,1-2.358.548,8.258,8.258,0,0,1-2.355-.99" transform="translate(-229.418 -148.212)" fill="#f9ecd3"/>
        <path id="Path_875319" data-name="Path 875319" d="M285.366,203.151a43.269,43.269,0,0,1,.586-6.4,25.3,25.3,0,0,1,.68-3.049c.142-.481.3-.955.489-1.418q.129-.32.274-.631a2.1,2.1,0,0,0,.158-.324c.014-.052.028-.035-.033-.033-.029,0-.058.006-.086.009a16.024,16.024,0,0,0-2.114.35,6.189,6.189,0,0,0-1.044.337,2.047,2.047,0,0,0-.531.315c.431,5.225.7,11.884.808,17.1.392.215.787.43,1.193.61a57.442,57.442,0,0,1-.381-6.866" transform="translate(-229.463 -151.33)" fill="#fff"/>
        <path id="Path_875320" data-name="Path 875320" d="M286.577,249.84c-.391-1.684-.658-3.391-1.019-5.08-.087-.407-.193-.831-.279-1.261-1.086.2-2.177.368-3.275.478a28.594,28.594,0,0,1-4.017.13c.216,2.524.543,5.042,1.006,7.523.207,1.109.441,2.213.654,3.321.8.038,1.714.035,2.633.019a10.168,10.168,0,0,0,5.233-1.254c-.313-1.291-.635-2.58-.935-3.875" transform="translate(-224.807 -192.635)" fill="#c1554e"/>
        <path id="Path_875321" data-name="Path 875321" d="M278.681,247.923a28.6,28.6,0,0,0,7.38-.384" transform="translate(-225.368 -195.83)" fill="none" stroke="#dd7d52" stroke-linecap="round" stroke-miterlimit="10" stroke-width="1"/>
        <path id="Path_875322" data-name="Path 875322" d="M432.963,313.7a10.736,10.736,0,0,1-2.154-1.729.589.589,0,0,1,.388-.508,3.292,3.292,0,0,1,1.2.522,2.95,2.95,0,0,1,.562,1.714" transform="translate(-348.393 -246.403)" fill="#d9b2a3"/>
        <path id="Path_875323" data-name="Path 875323" d="M417.754,317.148c.11.223.4.775.844.544.474-.248.266-.476.206-.973.5,1.034,1.35.18,1.158-.47.179.278.608.592.887.443s.252-.677.162-1a.555.555,0,0,0,.877.042c.343-.716-.206-1.086-.585-1.616a12.665,12.665,0,0,0-2.856-2.786c-.476-.248-2.813,1.51-2.68,2a27.009,27.009,0,0,0,1.987,3.823" transform="translate(-336.224 -246.277)" fill="#eed2c4"/>
        <path id="Path_875324" data-name="Path 875324" d="M348.2,204.4c-.417-.859-7.236-6.883-9.713-13.022-1-2.478-2.711-10.412-4.565-13.333-1.7-2.68-6.273-2.427-6.238,4.079.016,2.994,3.348,11.572,5.154,13.99,2.568,3.438,8.437,9.847,10.95,11.255A7.3,7.3,0,0,0,348.2,204.4" transform="translate(-264.999 -139.587)" fill="#da1763"/>
        <path id="Path_875325" data-name="Path 875325" d="M372.388,253.908a9.133,9.133,0,0,0-2.329,1.218" transform="translate(-299.265 -200.869)" fill="none" stroke="#b30063" stroke-linecap="round" stroke-miterlimit="10" stroke-width="1"/>
        <path id="Path_875326" data-name="Path 875326" d="M374.874,254.521c-.061-.062-.159-.017-.229.032a8.038,8.038,0,0,0-2.221,2.332" transform="translate(-301.177 -201.33)" fill="none" stroke="#b30063" stroke-linecap="round" stroke-miterlimit="10" stroke-width="1"/>
        <path id="Path_875327" data-name="Path 875327" d="M1165.491,36.09a5.613,5.613,0,0,1,3.043.2,3.3,3.3,0,0,1,1.974,2.571,1.5,1.5,0,0,1-.068.757,1.278,1.278,0,0,1-.511.553,3.282,3.282,0,0,1-3.211.172,5.376,5.376,0,0,1-2.421-2.594Z" transform="translate(-941.561 -28.463)" fill="#d03517"/>
        <path id="Path_875328" data-name="Path 875328" d="M1147.273,51.047a2.636,2.636,0,0,1,2.242,2.071c.082.3.288,1.756.31,2,.051.569,1.371,3.04,1.379,3.389.01.4-1.175.255-1.667.33-.05.008-.163,3.243-1.111,4.845a.667.667,0,0,1-.953.274,5.1,5.1,0,0,1-1.146-1.122,18.6,18.6,0,0,0-.837,5.033c-.016-.047-2.25-.057-3.543-.071.086-.028,1.481-6.221,1.334-7.053-.042-.239-1.121-1.957-1.338-2.66a15.99,15.99,0,0,0-1.053-2.789q2.261-1.6,4.391-3.447a3.178,3.178,0,0,1,1.99-.8" transform="translate(-922.633 -40.384)" fill="#f8e8dd"/>
        <path id="Path_875329" data-name="Path 875329" d="M1177.969,93.145a1.051,1.051,0,0,0,1.021.859" transform="translate(-952.618 -73.688)" fill="none" stroke="#c14646" stroke-linecap="round" stroke-miterlimit="10" stroke-width="1"/>
        <path id="Path_875330" data-name="Path 875330" d="M1167.287,79.856a.954.954,0,1,1-.955-1.032,1,1,0,0,1,.955,1.032" transform="translate(-942.442 -62.358)" fill="#f1d2c9"/>
        <path id="Path_875331" data-name="Path 875331" d="M1179.05,65.97a1.283,1.283,0,0,0-1.263.679" transform="translate(-952.47 -52.181)" fill="none" stroke="#973325" stroke-linecap="round" stroke-miterlimit="10" stroke-width="1"/>
        <path id="Path_875332" data-name="Path 875332" d="M1180.754,69.908c0-.235.1-.427.228-.428s.231.19.233.425-.1.427-.228.428-.231-.189-.233-.425" transform="translate(-954.87 -54.966)"/>
        <path id="Path_875333" data-name="Path 875333" d="M1162.369,96.272a10.028,10.028,0,0,1-1.451-2.71" transform="translate(-938.829 -74.018)" fill="none" stroke="#e8aea7" stroke-linecap="round" stroke-miterlimit="10" stroke-width="1"/>
        <path id="Path_875334" data-name="Path 875334" d="M1093.934,11.744a1.75,1.75,0,0,0-.48-1.188,1.817,1.817,0,0,0-1.1-.364,1.37,1.37,0,0,0-.55-1.061,1.953,1.953,0,0,0-1.018-.391,4.283,4.283,0,0,0-3.929,1.836,2.159,2.159,0,0,0-.482,1.234,4.405,4.405,0,0,0-.6.086,30.242,30.242,0,0,0-.351-5.938,4.611,4.611,0,0,0-1.337-2.563,2.482,2.482,0,0,0-1.969-.49,3.152,3.152,0,0,0-2.2,1.6,3.8,3.8,0,0,0-.391,2.5.935.935,0,0,0-.343-.223,3.856,3.856,0,0,0-1.71-.18A5.481,5.481,0,0,0,1073.3,9.81a7.583,7.583,0,0,0-.162,5.906,5.667,5.667,0,0,0,3.989,3.533,2.439,2.439,0,0,0,2.7-1.059,2.426,2.426,0,0,0,.027-2.148,1.288,1.288,0,0,0-.976-.774.8.8,0,0,0-.54.185c.015-.048.028-.091.035-.119a.518.518,0,0,1,.58-.367,1.424,1.424,0,0,1,.656.322,2.58,2.58,0,0,0,2.836.437,5.749,5.749,0,0,0,5.622,6.9,34.358,34.358,0,0,1,1.138-4.673c.546,0,2.7-.326,2.553-3.669a1.684,1.684,0,0,0,1.538-.66,2.62,2.62,0,0,0,.636-1.883" transform="translate(-867.42 -2.27)" fill="#d03517"/>
        <path id="Path_875335" data-name="Path 875335" d="M1081.44,32.844A3.633,3.633,0,0,0,1079,34.651a2.866,2.866,0,0,0,.255,3.086" transform="translate(-872.314 -25.983)" fill="none" stroke="#b42613" stroke-linecap="round" stroke-miterlimit="10" stroke-width="1"/>
        <path id="Path_875336" data-name="Path 875336" d="M1114.664,17.283a2.163,2.163,0,0,0-.787,1.936,4.186,4.186,0,0,0,.8,2.017" transform="translate(-900.78 -13.673)" fill="none" stroke="#b42613" stroke-linecap="round" stroke-miterlimit="10" stroke-width="1"/>
        <path id="Path_875337" data-name="Path 875337" d="M1159.5,47.891a1.332,1.332,0,0,1,1.13.895,2.254,2.254,0,0,1-.031,1.57,3.828,3.828,0,0,1-.857,1.3" transform="translate(-937.683 -37.887)" fill="none" stroke="#b42613" stroke-linecap="round" stroke-miterlimit="10" stroke-width="1"/>
        <path id="Path_875338" data-name="Path 875338" d="M1173.968,39.351a1.412,1.412,0,0,1,1.073.48,1.693,1.693,0,0,1,.409,1.184" transform="translate(-949.382 -31.13)" fill="none" stroke="#b42613" stroke-linecap="round" stroke-miterlimit="10" stroke-width="1"/>
        <path id="Path_875339" data-name="Path 875339" d="M1132.42,74.631a.966.966,0,0,1-.491.365,1.709,1.709,0,0,1-1.653-.314,2.449,2.449,0,0,1-.828-1.619" transform="translate(-913.378 -57.801)" fill="none" stroke="#b42613" stroke-linecap="round" stroke-miterlimit="10" stroke-width="1"/>
        <path id="Path_875340" data-name="Path 875340" d="M1135.373,22.74a12.486,12.486,0,0,1,.047,2.37" transform="translate(-918.17 -17.99)" fill="none" stroke="#b42613" stroke-linecap="round" stroke-miterlimit="10" stroke-width="1"/>
        <path id="Path_875341" data-name="Path 875341" d="M1122.405,47.458a31.623,31.623,0,0,1,3.688-4.653c-.1.015-.266-.476-.263-.8a7.449,7.449,0,0,0-.895.691c-.364.323-.727.655-1.068,1.006a7.138,7.138,0,0,0-1.174,1.565,6.359,6.359,0,0,0-.577,1.554c.124-.038.3.376.289.636" transform="translate(-907.45 -33.231)" fill="#e8a327"/>
        <path id="Path_875342" data-name="Path 875342" d="M1151.787,71.709a5.54,5.54,0,0,0-.535-.991,1.974,1.974,0,0,0-.5-.539.723.723,0,0,0-.65-.112.867.867,0,0,0-.477.571,1.721,1.721,0,0,0-.025.822,1.856,1.856,0,0,0,1.753,1.587Z" transform="translate(-929.649 -55.402)" fill="#f8e8dd"/>
        <path id="Path_875343" data-name="Path 875343" d="M1153.659,74.726a.482.482,0,0,0-.357-.216.4.4,0,0,0-.364.19.59.59,0,0,0-.078.273,1.681,1.681,0,0,0,.222.813" transform="translate(-932.311 -58.944)" fill="none" stroke="#dba89f" stroke-linecap="round" stroke-miterlimit="10" stroke-width="1"/>
        <path id="Path_875344" data-name="Path 875344" d="M1035.629,463.142c-.1.383,5.452,6.925,6.7,8.654,4.607-4.979-1.136-7.887-2.645-8.678.593-.8,3.816-3.142,4.428-4.438-.942-.965-2.962-3.4-2.962-3.4-1.143,1.309-5.519,7.866-5.519,7.866" transform="translate(-837.507 -360.173)" fill="#eec12d"/>
        <path id="Path_875345" data-name="Path 875345" d="M1035.974,490.469l-.345.514c-.1.383,5.452,6.925,6.7,8.654a9.317,9.317,0,0,0,.709-.861c-1.08-1.259-5.773-6.416-7.063-8.307" transform="translate(-837.507 -388.014)" fill="#59063d"/>
        <path id="Path_875346" data-name="Path 875346" d="M1062.373,481.078a2.479,2.479,0,0,1-1.368-1.468" transform="translate(-858.029 -379.423)" fill="none" stroke="#640e0e" stroke-linecap="round" stroke-miterlimit="10" stroke-width="1"/>
        <path id="Path_875347" data-name="Path 875347" d="M1059.375,485.339a2.24,2.24,0,0,1-1.088-1.024" transform="translate(-855.832 -383.146)" fill="none" stroke="#640e0e" stroke-linecap="round" stroke-miterlimit="10" stroke-width="1"/>
        <path id="Path_875348" data-name="Path 875348" d="M1054.595,491.027a1.738,1.738,0,0,0-1.2-.417" transform="translate(-851.877 -388.124)" fill="none" stroke="#640e0e" stroke-linecap="round" stroke-miterlimit="10" stroke-width="1"/>
        <path id="Path_875349" data-name="Path 875349" d="M1056.676,495.261a3.969,3.969,0,0,0-1.153.642" transform="translate(-853.596 -391.805)" fill="none" stroke="#640e0e" stroke-linecap="round" stroke-miterlimit="10" stroke-width="1"/>
        <path id="Path_875350" data-name="Path 875350" d="M1059.444,497.6a2.222,2.222,0,0,0-1.482.933" transform="translate(-855.569 -393.658)" fill="none" stroke="#640e0e" stroke-linecap="round" stroke-miterlimit="10" stroke-width="1"/>
        <path id="Path_875351" data-name="Path 875351" d="M1064.216,500.071a1.672,1.672,0,0,0-1.572.939" transform="translate(-859.355 -395.607)" fill="none" stroke="#640e0e" stroke-linecap="round" stroke-miterlimit="10" stroke-width="1"/>
        <path id="Path_875352" data-name="Path 875352" d="M1055.046,458.027a19.743,19.743,0,0,0,2.6,2.871,9.366,9.366,0,0,0,2.013-2.219c-.942-.965-2.962-3.4-2.962-3.4-.366.419-1.063,1.376-1.842,2.484.062.09.124.18.188.268" transform="translate(-853.058 -360.173)" fill="#edcfc7"/>
        <path id="Path_875353" data-name="Path 875353" d="M1073.733,294.021c-.1.467-7.582,2.784-13.972,21.9-.071.213,2.707,3.118,3.537,4.112,7.006-5.893,9.817-11.076,16.579-17.358,3.452-5.2-4.829-27.751-6.739-24.141-.893,1.688,1.024,13.555.595,15.49" transform="translate(-857.023 -220.04)" fill="#8c0944"/>
        <path id="Path_875354" data-name="Path 875354" d="M1065.355,448.931a7.88,7.88,0,0,1,1.072-2.789" transform="translate(-861.547 -352.947)" fill="none" stroke="#59063b" stroke-linecap="round" stroke-miterlimit="10" stroke-width="1"/>
        <path id="Path_875355" data-name="Path 875355" d="M1135.47,356.664a4.622,4.622,0,0,1,1.119,2.2" transform="translate(-918.249 -282.16)" fill="none" stroke="#59063b" stroke-linecap="round" stroke-miterlimit="10" stroke-width="1"/>
        <path id="Path_875356" data-name="Path 875356" d="M1136.963,353.669a3.928,3.928,0,0,1,2.126,1.943" transform="translate(-919.456 -279.79)" fill="none" stroke="#59063b" stroke-linecap="round" stroke-miterlimit="10" stroke-width="1"/>
        <path id="Path_875357" data-name="Path 875357" d="M1072.223,399.255a2.471,2.471,0,0,0,1.09-.76c1.7-1.731,3.3-3.587,4.89-5.441l9.258-10.78" transform="translate(-867.101 -302.42)" fill="none" stroke="#59063b" stroke-linecap="round" stroke-miterlimit="10" stroke-width="1"/>
        <path id="Path_875358" data-name="Path 875358" d="M1241.6,461.5c1.35,1.769,7.2,9.458,8.041,10.066a91.366,91.366,0,0,0,6.7-7.089c-3.86-6.431-5.711,2.872-6.434,2.254-2.149-3.011-5.761-9.569-5.835-9.583-.767,1.462-1.705,2.889-2.472,4.352" transform="translate(-1004.079 -361.656)" fill="#eec12d"/>
        <path id="Path_875359" data-name="Path 875359" d="M1284.519,494.566c-.5.545-.94,1.154-1.422,1.72a6.346,6.346,0,0,1-1.154,1.125,2.8,2.8,0,0,0,.324.307,91.377,91.377,0,0,0,6.7-7.09c-.091-.151-.179-.29-.268-.424-1.412,1.434-2.814,2.876-4.181,4.361" transform="translate(-1036.701 -387.805)" fill="#59063d"/>
        <path id="Path_875360" data-name="Path 875360" d="M1284.939,499.672a2.771,2.771,0,0,0-.4,2.1" transform="translate(-1038.749 -395.295)" fill="none" stroke="#640e0e" stroke-linecap="round" stroke-miterlimit="10" stroke-width="1"/>
        <path id="Path_875361" data-name="Path 875361" d="M1288.73,495.508a4.262,4.262,0,0,0,.2,2.254" transform="translate(-1042.133 -392)" fill="none" stroke="#640e0e" stroke-linecap="round" stroke-miterlimit="10" stroke-width="1"/>
        <path id="Path_875362" data-name="Path 875362" d="M1291.765,491.543a3.561,3.561,0,0,0,.25,1.934" transform="translate(-1044.612 -388.864)" fill="none" stroke="#640e0e" stroke-linecap="round" stroke-miterlimit="10" stroke-width="1"/>
        <path id="Path_875363" data-name="Path 875363" d="M1280.146,499.26a1.9,1.9,0,0,0-.975,1.126" transform="translate(-1034.459 -394.969)" fill="none" stroke="#640e0e" stroke-linecap="round" stroke-miterlimit="10" stroke-width="1"/>
        <path id="Path_875364" data-name="Path 875364" d="M1276.964,496.248a1.439,1.439,0,0,0-1.194,1.21" transform="translate(-1031.709 -392.586)" fill="none" stroke="#640e0e" stroke-linecap="round" stroke-miterlimit="10" stroke-width="1"/>
        <path id="Path_875365" data-name="Path 875365" d="M1273.5,492.5c-.778-.2-1.487.769-1.485,1.071" transform="translate(-1028.675 -389.598)" fill="none" stroke="#640e0e" stroke-linecap="round" stroke-miterlimit="10" stroke-width="1"/>
        <path id="Path_875366" data-name="Path 875366" d="M1245.3,464.711c.769-.515,1.518-1.066,2.254-1.636-1.748-2.886-3.431-5.914-3.481-5.923-.766,1.462-1.705,2.889-2.472,4.352.5.655,1.618,2.125,2.87,3.744.278-.175.555-.353.829-.536" transform="translate(-1004.079 -361.656)" fill="#f8e8df"/>
        <path id="Path_875367" data-name="Path 875367" d="M1123.121,271.761c4.755,17.269,10.651,30.3,22.4,41.929l4.763-4.638c-1.742-5.54-4.55-10.5-7.074-15.6a157.512,157.512,0,0,1-9.573-24.259Z" transform="translate(-908.262 -212.963)" fill="#bf094e"/>
        <path id="Path_875368" data-name="Path 875368" d="M1251.669,442.615a10.977,10.977,0,0,1,1.418,3.942" transform="translate(-1012.218 -350.156)" fill="none" stroke="#990c48" stroke-linecap="round" stroke-miterlimit="10" stroke-width="1"/>
        <path id="Path_875369" data-name="Path 875369" d="M1230.9,465.14a4.172,4.172,0,0,0,2.412,1.468" transform="translate(-995.419 -367.976)" fill="none" stroke="#990c48" stroke-linecap="round" stroke-miterlimit="10" stroke-width="1"/>
        <path id="Path_875370" data-name="Path 875370" d="M1135.472,292.187c1.162,3.879,2.327,7.764,3.8,11.517,3.372,8.608,10.668,18.924,16.867,25.392" transform="translate(-918.251 -231.152)" fill="none" stroke="#990c48" stroke-linecap="round" stroke-miterlimit="10" stroke-width="1"/>
        <path id="Path_875371" data-name="Path 875371" d="M1247.825,87.432a20.558,20.558,0,0,1,5.111-5.48c.072-.08.276,5.1.221,5.234a.988.988,0,0,1-.253.335,39.181,39.181,0,0,1-4.068,2.531,5,5,0,0,1-1.011-2.62" transform="translate(-1009.11 -64.833)" fill="#efcec7"/>
        <path id="Path_875372" data-name="Path 875372" d="M1260.94,94.919a3.051,3.051,0,0,0,.762-2.169" transform="translate(-1019.716 -73.375)" fill="none" stroke="#de92a8" stroke-linecap="round" stroke-miterlimit="10" stroke-width="1"/>
        <path id="Path_875373" data-name="Path 875373" d="M1269.838,69.925l1.141-9.124a.7.7,0,0,0-.7-.816l-2.931.233a.69.69,0,0,0-.608.645l-.85,9.007a.708.708,0,0,0,.58.789l2.172.279a1.1,1.1,0,0,0,1.2-1.013" transform="translate(-1023.714 -47.453)" fill="#bb2455"/>
        <path id="Path_875374" data-name="Path 875374" d="M1270.771,71.408c0,.02.878-8.9.878-8.9l-3.038.228-.8,9.175Z" transform="translate(-1025.269 -49.447)" fill="#e8fff6"/>
        <path id="Path_875375" data-name="Path 875375" d="M1261.482,83.159c-.59-.13-.588,1.884-.816,2.952-.7.36-1.649.832-2.346,1.193a7.309,7.309,0,0,0,1.054-2.093c.046-.145.059-.356-.076-.4a.239.239,0,0,0-.2.058c-1.183.822-2.223,3.89-2.587,4.716-.742,1.031-1.01,1.305-1.219,1.694a.34.34,0,0,0,.2.5c.691.144,2.014.1,2.316.773,1.143-.369,3.949-.993,4.094-1.057.289-.13.526-.866-.053-.968.385-.287.548-1.365.114-1.363.357-.984.087-1.877-.347-1.98.491-3.163-.13-4.026-.13-4.026" transform="translate(-1015.113 -65.783)" fill="#f8e8dd"/>
        <path id="Path_875376" data-name="Path 875376" d="M1280.8,103.133a5.44,5.44,0,0,1-1.65.779" transform="translate(-1034.443 -81.589)" fill="none" stroke="#e8aea7" stroke-linecap="round" stroke-miterlimit="10" stroke-width="1"/>
        <path id="Path_875377" data-name="Path 875377" d="M1258.074,77.691a5.134,5.134,0,0,0,1.736-3.751.272.272,0,0,0-.063-.222c-.069-.055-.222-.151-.555.509-.6,1.192-1.926,3.088-2.5,4.294Z" transform="translate(-1016.277 -58.288)" fill="#efcec7"/>
        <path id="Path_875378" data-name="Path 875378" d="M1159.523,114.5c5.36.749,12.222-2.658,16.893-6.868a11.294,11.294,0,0,0,1.248,2.608c-5.7,8.57-11.279,11.345-17.826,12.689Z" transform="translate(-937.7 -85.145)" fill="#da793e"/>
        <path id="Path_875379" data-name="Path 875379" d="M1197.541,138.757a11.317,11.317,0,0,0,.768,4.945" transform="translate(-968.424 -109.772)" fill="none" stroke="#b24a16" stroke-linecap="round" stroke-miterlimit="10" stroke-width="1"/>
        <path id="Path_875380" data-name="Path 875380" d="M1200.36,138.492a11.141,11.141,0,0,0,.48,3.839" transform="translate(-970.714 -109.562)" fill="none" stroke="#b24a16" stroke-linecap="round" stroke-miterlimit="10" stroke-width="1"/>
        <path id="Path_875381" data-name="Path 875381" d="M1067.342,121.347c-.131.183-.263.366-.4.545-.357.473-.724.936-1.082,1.407s-.72.968-1.045,1.48-.607,1.043-.893,1.575a41.883,41.883,0,0,0-2.832,6.368,32.876,32.876,0,0,0-1.514,7.142,51.67,51.67,0,0,0-.189,8.06c0,.093.014.186.019.279a1.6,1.6,0,0,0,.477.161,22.311,22.311,0,0,0,10.021-.829,97.042,97.042,0,0,1,.077-11.714,41.624,41.624,0,0,1,2.88-10.738c1.025-2.56-3.308-3.637-5.521-3.738" transform="translate(-856.661 -95.999)" fill="#8c0944"/>
        <path id="Path_875382" data-name="Path 875382" d="M1075.663,129.32c.811-.17,2.021-5.292,5.124-5.64a4.642,4.642,0,0,1,3.568,1.3c.975-2.667-3.908-3.7-5.931-3.676a1.636,1.636,0,0,0-.839.181,2.09,2.09,0,0,0-.616.692,45.1,45.1,0,0,0-3.475,6.533,3.193,3.193,0,0,0,2.168.607" transform="translate(-868.13 -95.967)" fill="#6a0c37"/>
        <path id="Path_875383" data-name="Path 875383" d="M1083.073,199.132a12.576,12.576,0,0,0-3.847-.885,7.167,7.167,0,0,0-2.095.121,1.145,1.145,0,0,0-.661.338,1.964,1.964,0,0,0-.364.692,7.214,7.214,0,0,0-.286,1.782c-.04.615-.071,1.233-.1,1.848a51.6,51.6,0,0,0,.223,6.393,24.1,24.1,0,0,0,7.208-1.068c-.1-2.944-.2-6.163-.08-9.22" transform="translate(-869.908 -156.814)" fill="#6a0c37"/>
        <path id="Path_875384" data-name="Path 875384" d="M1102.543,125.414c-1.734,1.89-2.814,5.175-3.8,13.591a54.042,54.042,0,0,0,.738,12.116c.741-.156,1.483-.34,2.225-.56a97.067,97.067,0,0,1,.077-11.714,41.633,41.633,0,0,1,2.88-10.738c.557-1.39-.468-2.343-1.875-2.939-.082.083-.169.159-.248.245" transform="translate(-888.464 -99.022)" fill="#6a0c37"/>
        <path id="Path_875385" data-name="Path 875385" d="M1055.846,166.214a.931.931,0,0,1-.347,1.131.783.783,0,0,1-1.05-.329,1.4,1.4,0,0,1-.13-.71,7.451,7.451,0,0,1,1.212-2.975,6.867,6.867,0,0,0,.711-3.281,9.409,9.409,0,0,0-5.157,2.332,1.826,1.826,0,0,0-.357.621.692.692,0,0,0,.8.938,4.073,4.073,0,0,0,2.344-1.35,14.01,14.01,0,0,0,2.366-2.541" transform="translate(-849.688 -126.612)" fill="none" stroke="#b56e1e" stroke-linecap="round" stroke-miterlimit="10" stroke-width="1"/>
        <path id="Path_875386" data-name="Path 875386" d="M1108.194,153.835c-1.215-4.265-8.089-25.6,4.713-35.11a9.379,9.379,0,0,0,4.38,1.84c-.618,4.952,1.466,8.428,3.425,11.328-2.82,7.044-1.969,12.13-.628,18.318-1.079,1.947-8.392,5.039-11.889,3.623" transform="translate(-893.822 -93.924)" fill="#e5923b"/>
        <path id="Path_875387" data-name="Path 875387" d="M1121.62,269.252c3.593.086,7.775-.608,10.96-3.073" transform="translate(-907.049 -210.576)" fill="none" stroke="#b56e1e" stroke-linecap="round" stroke-miterlimit="10" stroke-width="1"/>
        <path id="Path_875388" data-name="Path 875388" d="M1138.12,126.558a8.474,8.474,0,0,0,4.843,1.906" transform="translate(-920.392 -100.121)" fill="none" stroke="#b56e1e" stroke-linecap="round" stroke-miterlimit="10" stroke-width="1"/>
        <path id="Path_875389" data-name="Path 875389" d="M1163.692,128.35l-.161.9" transform="translate(-940.942 -101.539)" fill="none" stroke="#b56e1e" stroke-linecap="round" stroke-miterlimit="10" stroke-width="1"/>
        <path id="Path_875390" data-name="Path 875390" d="M1156.883,126.628a4.791,4.791,0,0,0-.437,1.211" transform="translate(-935.212 -100.176)" fill="none" stroke="#b56e1e" stroke-linecap="round" stroke-miterlimit="10" stroke-width="1"/>
        <path id="Path_875391" data-name="Path 875391" d="M1149.8,124.376a8.775,8.775,0,0,0-.493,1.061" transform="translate(-929.435 -98.395)" fill="none" stroke="#b56e1e" stroke-linecap="round" stroke-miterlimit="10" stroke-width="1"/>
        <path id="Path_875392" data-name="Path 875392" d="M1142.8,121.736q-.44.505-.853,1.038" transform="translate(-923.488 -96.306)" fill="none" stroke="#b56e1e" stroke-linecap="round" stroke-miterlimit="10" stroke-width="1"/>
        <path id="Path_875393" data-name="Path 875393" d="M1099.766,132.668c-.209.437,12.644-1.922,9.214,11.394-2.806,10.894-11.059,11.813-11.059,11.813l-.958-3.449s9.169-2.013,10.173-9.679c1.435-10.959-9.019-5.516-9.019-5.516Z" transform="translate(-887.109 -104.955)" fill="#8c0944"/>
        <path id="Path_875394" data-name="Path 875394" d="M1117.578,136.442c-3.758-.539-5.715-12.1,2.185-11.583,2.122.139,8.43,6,12.931,5.8,1.221-.054,7.319-9.458,8.92-12.1.952-.207,2.063.908,2.338,2.011-1.342,4.245-7.787,15.752-8.782,16-4.771,1.169-13.771.856-17.593-.122" transform="translate(-901.127 -93.772)" fill="#ecb52d"/>
        <path id="Path_875395" data-name="Path 875395" d="M1214.682,177.728a3.445,3.445,0,0,1,.982,1.615" transform="translate(-982.307 -140.602)" fill="none" stroke="#cf8b21" stroke-linecap="round" stroke-miterlimit="10" stroke-width="1"/>
        <path id="Path_875396" data-name="Path 875396" d="M1211.911,179.016a3.485,3.485,0,0,1,.755,2.455" transform="translate(-980.066 -141.621)" fill="none" stroke="#cf8b21" stroke-linecap="round" stroke-miterlimit="10" stroke-width="1"/>
        <path id="Path_875397" data-name="Path 875397" d="M1253.877,124.821a1.69,1.69,0,0,1,1.477.272,2.019,2.019,0,0,1,.77,1.4" transform="translate(-1014.004 -98.695)" fill="none" stroke="#cf8b21" stroke-linecap="round" stroke-miterlimit="10" stroke-width="1"/>
        <path id="Path_875398" data-name="Path 875398" d="M643.814,703.659a23.845,23.845,0,0,1,1.834,4.082c-.121-1.769-1.284-6.187-1.028-7.939.373.85,1.8,4.426,1.792,5.368a32.9,32.9,0,0,1,.588-7.276,1.43,1.43,0,0,1,.574-.87.788.788,0,0,1,1.209.367,3.825,3.825,0,0,1,.336,1.865,52.833,52.833,0,0,1-.469,7.294q-.243,1.811-.61,3.6a9.225,9.225,0,0,1-.84,3.156c-.9-.86-1.648-2.9-2.12-4.083a18.523,18.523,0,0,1-1.266-5.562" transform="translate(-520.649 -551.292)" fill="#d1f653"/>
        <path id="Path_875399" data-name="Path 875399" d="M674.95,736.117a42.468,42.468,0,0,0-.623-9.928c-.723-3.232-2.316-6.364-4.9-8.135a16.413,16.413,0,0,0-4.022-1.828,9.917,9.917,0,0,0-3.1-.7,8.671,8.671,0,0,0-3.983,1.2c-1.7.883-5.93.512-7.3,1.926-2.676,2.762-.425,8.344-2.944,11.771-.338.459.85,1.7,1.153,2a5.842,5.842,0,0,0,2.022,1.283,15.8,15.8,0,0,0,5.192.842c.869.029,1.738.037,2.607.047a3.794,3.794,0,0,1,2.3.339,6.343,6.343,0,0,1,1.068,1.325,4.528,4.528,0,0,0,2.741,1.561,14.109,14.109,0,0,0,5.225-.2,19.871,19.871,0,0,0,2.543-.655c.216-.072,2-.608,2.008-.853" transform="translate(-524.056 -566.057)" fill="#e0f3fa"/>
        <path id="Path_875400" data-name="Path 875400" d="M707.837,724.625a11.041,11.041,0,0,0-4.339-5.444,16.257,16.257,0,0,0-4.093-1.873,11.4,11.4,0,0,0-1.4-.308,3.9,3.9,0,0,0,.743-.274,8.672,8.672,0,0,1,3.983-1.2,9.916,9.916,0,0,1,3.1.7,16.4,16.4,0,0,1,4.022,1.828c2.579,1.771,4.172,4.9,4.9,8.135a42.469,42.469,0,0,1,.623,9.928c0,.246-1.792.781-2.008.853a19.882,19.882,0,0,1-2.543.655,19.6,19.6,0,0,1-2.766.349c.762-4.452,1.307-9.2-.214-13.349" transform="translate(-564.473 -566.057)" fill="#b9ceda"/>
        <path id="Path_875401" data-name="Path 875401" d="M672.262,736.65c-.9-4.871-5.516-6.429-9.43-7.612.056-.066.111-.132.172-.194a2.354,2.354,0,0,1,.611-.437.611.611,0,0,0,.076.037c3.554,1.265,8.3,1.228,10.586,5.008,1.511,2.5,1.1,5.733.694,8.526-.214,1.483-.44,2.981-.576,4.461a6.154,6.154,0,0,0-1.057-1.31,2.586,2.586,0,0,0-1.662-.352c.467-2.712,1.089-5.413.586-8.127" transform="translate(-536.029 -576.248)" fill="#b9ceda"/>
        <path id="Path_875402" data-name="Path 875402" d="M663.547,750.9c.193,1.063-.3,2.2,0,3.23a6.468,6.468,0,0,0,1.608,2.174,5.875,5.875,0,0,1,1.3,3.978" transform="translate(-536.528 -594.042)" fill="none" stroke="#a2b5bd" stroke-linecap="round" stroke-miterlimit="10" stroke-width="1"/>
        <path id="Path_875403" data-name="Path 875403" d="M700.5,765.511a3.409,3.409,0,0,0,.85-3.117,9.9,9.9,0,0,0-1.308-3.085" transform="translate(-566.118 -600.696)" fill="none" stroke="#a2b5bd" stroke-linecap="round" stroke-miterlimit="10" stroke-width="1"/>
        <path id="Path_875404" data-name="Path 875404" d="M735.638,773.9a14.256,14.256,0,0,0-1.738,3.117,5.1,5.1,0,0,0-.072,3.565" transform="translate(-593.209 -612.24)" fill="none" stroke="#a2b5bd" stroke-linecap="round" stroke-miterlimit="10" stroke-width="1"/>
        <path id="Path_875405" data-name="Path 875405" d="M752.766,787.308c.021-.315-.034-.736-.359-.741a.429.429,0,0,0-.383.286l-2.362,5.653a18.342,18.342,0,0,0-.213-4.471l-.921,6.936a11.252,11.252,0,0,0-1.435-4.65,6.357,6.357,0,0,0-.023,3.769c1.929,7.121,5.509-3.977,5.7-6.782" transform="translate(-603.93 -622.259)" fill="#d1f653"/>
        <path id="Path_875406" data-name="Path 875406" d="M821.439,795.636a80.629,80.629,0,0,0-1.287,8.893s-7.949-.244-9.239-.532c-1.719-5.907,3.38-4.607,3.38-4.607l-.81-3.59Z" transform="translate(-655.494 -629.434)" fill="#c1554e"/>
        <path id="Path_875407" data-name="Path 875407" d="M814.6,833.133c1.237.09,2.465.133,3.7.1.6-.016,1.209-.031,1.813,0,.313.014.625.069.937.081h.027c-.024.215-.049.438-.076.674,0,0-7.949-.244-9.239-.532-.059-.2-.109-.4-.152-.584.994.1,1.989.194,2.986.267" transform="translate(-656.347 -658.887)" fill="#49163a"/>
        <path id="Path_875408" data-name="Path 875408" d="M833.394,800.828a14.17,14.17,0,0,1,4.509.195" transform="translate(-673.962 -633.474)" fill="none" stroke="#6b2a26" stroke-linecap="round" stroke-miterlimit="10" stroke-width="1"/>
        <path id="Path_875409" data-name="Path 875409" d="M834.715,807.3a17.434,17.434,0,0,1,3.623.1" transform="translate(-675.03 -638.619)" fill="none" stroke="#6b2a26" stroke-linecap="round" stroke-miterlimit="10" stroke-width="1"/>
        <path id="Path_875410" data-name="Path 875410" d="M837.866,814.2a27.4,27.4,0,0,0-3.814-.157" transform="translate(-674.494 -643.97)" fill="none" stroke="#6b2a26" stroke-linecap="round" stroke-miterlimit="10" stroke-width="1"/>
        <path id="Path_875411" data-name="Path 875411" d="M708.588,685.808a35.236,35.236,0,0,1,1.7,9.334c0,.095-16.673.3-16.7.015-.936-8.771,5.259-4.947,6.528-5.63.865-.466,1.156-2.485,1.012-3.628Z" transform="translate(-560.817 -542.548)" fill="#c1554e"/>
        <path id="Path_875412" data-name="Path 875412" d="M700.71,726.367c3.212,0,6.417-.268,9.628-.283.02.3.039.605.051.92,0,.095-16.673.3-16.7.015-.033-.31-.055-.6-.071-.881,2.364.113,4.728.231,7.1.229" transform="translate(-560.923 -574.411)" fill="#49163a"/>
        <path id="Path_875413" data-name="Path 875413" d="M730.442,693.129a4.693,4.693,0,0,1,2.859.418" transform="translate(-590.705 -548.287)" fill="none" stroke="#6b2a26" stroke-linecap="round" stroke-miterlimit="10" stroke-width="1"/>
        <path id="Path_875414" data-name="Path 875414" d="M729.737,696.586a3.333,3.333,0,0,1,2.657.63" transform="translate(-590.135 -551.026)" fill="none" stroke="#6b2a26" stroke-linecap="round" stroke-miterlimit="10" stroke-width="1"/>
        <path id="Path_875415" data-name="Path 875415" d="M728.448,701.3a3.6,3.6,0,0,1,2.474.845" transform="translate(-589.092 -554.804)" fill="none" stroke="#6b2a26" stroke-linecap="round" stroke-miterlimit="10" stroke-width="1"/>
        <path id="Path_875416" data-name="Path 875416" d="M677.745,467.852c.418-.289,15.052-16.287,15.5-16.448,1.145-1.34,19.22-.555,19.22-.555-.27,11.549.869,24.034,1.335,37.3.381,10.842.626,24.154-1.144,34.809-.992-.042-7.618-.047-8.577,0-2.035-11.142-1.932-25.393-2.953-36.729-.315-3.495-1.275-17.417-1.177-21.726l-13.059,9.8a78.26,78.26,0,0,1,4.238,9.475c1.8,4.993,3.262,16.337,3.262,16.337l-8.323.382s-6.2-15.8-9.271-22.476.532-9.882.95-10.172" transform="translate(-546.329 -356.49)" fill="#49163a"/>
        <path id="Path_875417" data-name="Path 875417" d="M838.506,460.413a7.031,7.031,0,0,0,4.562,6.212" transform="translate(-678.096 -364.236)" fill="none" stroke="#6c1643" stroke-linecap="round" stroke-miterlimit="10" stroke-width="1"/>
        <path id="Path_875418" data-name="Path 875418" d="M712.941,556.854l-4.839-1.149" transform="translate(-572.639 -439.623)" fill="none" stroke="#6c1643" stroke-linecap="round" stroke-miterlimit="10" stroke-width="1"/>
        <path id="Path_875419" data-name="Path 875419" d="M713.53,563.239l-4-.346" transform="translate(-573.793 -445.309)" fill="none" stroke="#6c1643" stroke-linecap="round" stroke-miterlimit="10" stroke-width="1"/>
        <path id="Path_875420" data-name="Path 875420" d="M786.177,500.286a6.494,6.494,0,0,0-2.982-2.721" transform="translate(-633.366 -393.628)" fill="none" stroke="#6c1643" stroke-linecap="round" stroke-miterlimit="10" stroke-width="1"/>
        <path id="Path_875421" data-name="Path 875421" d="M856.793,498.619a232.83,232.83,0,0,1-.68,61.659" transform="translate(-692.334 -394.461)" fill="none" stroke="#6c1643" stroke-linecap="round" stroke-miterlimit="10" stroke-width="1"/>
        <path id="Path_875422" data-name="Path 875422" d="M728.394,508.308a20.216,20.216,0,0,0-8.861,5.942,9.15,9.15,0,0,0-2.483,4.957,11.733,11.733,0,0,0,.656,4.337q3.078,10.75,6.92,21.216" transform="translate(-579.85 -402.127)" fill="none" stroke="#6c1643" stroke-linecap="round" stroke-miterlimit="10" stroke-width="1"/>
        <path id="Path_875423" data-name="Path 875423" d="M762.559,222.014c.287-1.263,16.629-8.622,18.94-8.623s6.38,2.045,8.349,4.826c1.559,10.249,2.991,37.905,1.538,39.134a7.826,7.826,0,0,1-3,1.42,39.771,39.771,0,0,1-9.992,1.255c-2.576.057-11.064-8.264-11.508-10.218q-1.758-7.748-2.754-15.671c-.583-4.647-2.629-7.483-1.572-12.123" transform="translate(-616.436 -168.815)" fill="#dd7d52"/>
        <path id="Path_875424" data-name="Path 875424" d="M671.851,241.456s-11.349-.124-12.4-.05c-2.13.151-6.081-.774-5.072-6.538s5.16-21.209,5.16-21.209l3.5.578L661.5,233.022s10.47-2.72,10.351-2.461,0,10.9,0,10.9" transform="translate(-529.064 -169.027)" fill="#efcec7"/>
        <path id="Path_875425" data-name="Path 875425" d="M686.951,309.219a5.15,5.15,0,0,1-1.267,3.658" transform="translate(-554.509 -244.626)" fill="none" stroke="#de94a7" stroke-linecap="round" stroke-miterlimit="10" stroke-width="1"/>
        <path id="Path_875426" data-name="Path 875426" d="M744.841,285.249c-.939-10.744-4.852-17.358-5.443-28.528-.195-3.687.456-10.738,8.734-13.387,5.023-1.607,25.458-12.128,19.438,22.591-1.327,7.654-2.108,11.131-3.51,18.769,0,0-17.97.4-19.22.555" transform="translate(-597.925 -190.334)" fill="#efc100"/>
        <path id="Path_875427" data-name="Path 875427" d="M787.274,442.1a166.512,166.512,0,0,1-18.952.667" transform="translate(-621.338 -349.751)" fill="none" stroke="#e5a505" stroke-linecap="round" stroke-miterlimit="10" stroke-width="1"/>
        <path id="Path_875428" data-name="Path 875428" d="M787.537,243.133a5.544,5.544,0,0,1-2.841,3.23,5.918,5.918,0,0,1-2.686.793,3.588,3.588,0,0,1-2.589-.979" transform="translate(-630.313 -192.344)" fill="none" stroke="#e5a505" stroke-linecap="round" stroke-miterlimit="10" stroke-width="1"/>
        <path id="Path_875429" data-name="Path 875429" d="M739.285,196.182c-.755-1.555-1.432-2.8-2.082-4.153a8.254,8.254,0,0,1-5.785,2.635.8.8,0,0,1-.766-.752l-.47-4.8h-1.469a.134.134,0,0,1-.114-.185l1.6-4.335q.175-.475.306-.967l.727-2.734s10.07-.971,10.451,1.214.54,7.666.54,7.666l3.37,4.16s-2.862,3.957-6.308,2.248" transform="translate(-589.207 -142.937)" fill="#f8e8dd"/>
        <path id="Path_875430" data-name="Path 875430" d="M743.42,226.633a1.593,1.593,0,0,1-1.749.843" transform="translate(-599.786 -179.291)" fill="none" stroke="#b04f3a" stroke-linecap="round" stroke-miterlimit="10" stroke-width="1"/>
        <path id="Path_875431" data-name="Path 875431" d="M778.178,203.393c.361-.054.7.317.722.714a1.161,1.161,0,0,1-.519.986" transform="translate(-629.309 -160.902)" fill="none" stroke="#efc2c8" stroke-linecap="round" stroke-miterlimit="10" stroke-width="1"/>
        <path id="Path_875432" data-name="Path 875432" d="M749.343,212.513a.888.888,0,1,1,.884.966.928.928,0,0,1-.884-.966" transform="translate(-605.99 -167.357)" fill="#f2d2c9"/>
        <path id="Path_875433" data-name="Path 875433" d="M720.683,165.169c-3.522-1.111,3.07-8.083,6.437-3.782,5.718-5.064,8.072.989,7.831,2.22.406-.444,2-2.324,2.319-1.7s-1.843,1.551-2.24,1.838c.953-.305,3.532-1.25,3.065-.139-.318.694-2.263.981-3.161.728,1.843.676,3.621,5.186.286,8.152a18.68,18.68,0,0,0,1.048,1.561,9.126,9.126,0,0,1-3.129,1.353c-.826.017-2.753-3.382-2.589-4.267.573-.1,3.387-2.467,1.445-3.85-1.519-1.082-2.242,2.344-2.351,2.706a2.836,2.836,0,0,0-1.048-.156c1.207-6.83-4.393-3.554-7.914-4.665" transform="translate(-581.999 -126.1)" fill="#e59222"/>
        <path id="Path_875434" data-name="Path 875434" d="M777.551,170.637a2.929,2.929,0,0,0-3.049-1.493" transform="translate(-626.336 -133.773)" fill="none" stroke="#cc5714" stroke-linecap="round" stroke-miterlimit="10" stroke-width="1"/>
        <path id="Path_875435" data-name="Path 875435" d="M792.04,207.575a2.262,2.262,0,0,1-1.164,1.912,3.514,3.514,0,0,1-2.159.337" transform="translate(-637.832 -164.214)" fill="none" stroke="#cc5714" stroke-linecap="round" stroke-miterlimit="10" stroke-width="1"/>
        <path id="Path_875436" data-name="Path 875436" d="M782.77,183.065a2.549,2.549,0,0,0-1.066-1.833,2.136,2.136,0,0,0-1.979-.212" transform="translate(-630.56 -143.087)" fill="none" stroke="#cc5714" stroke-linecap="round" stroke-miterlimit="10" stroke-width="1"/>
        <path id="Path_875437" data-name="Path 875437" d="M751.349,168.361a3.227,3.227,0,0,1,1.846,2.419" transform="translate(-607.612 -133.192)" fill="none" stroke="#cc5714" stroke-linecap="round" stroke-miterlimit="10" stroke-width="1"/>
        <path id="Path_875438" data-name="Path 875438" d="M667.3,200.419l-12.117.9-.132-5.991h15.471l-2.061,4.212a1.561,1.561,0,0,1-1.161.881" transform="translate(-529.736 -154.524)" fill="#2a0e0e"/>
        <path id="Path_875439" data-name="Path 875439" d="M647.609,198.324c.073,1.659.768,2.97,1.551,2.929s1.359-1.419,1.286-3.078-.768-2.97-1.551-2.929-1.359,1.419-1.286,3.078" transform="translate(-523.713 -154.459)" fill="#def1f7"/>
        <path id="Path_875440" data-name="Path 875440" d="M672.822,184.214l11.372,1s.889.694.889,1.249l3.081.694s.6.208.6,1.318a1.906,1.906,0,0,1-.508,1.179h-3.177s-.286,1.041-.889,1.333c-1.492-.015-11.073,0-11.073,0Z" transform="translate(-544.108 -145.733)" fill="#4c1e1e"/>
        <path id="Path_875441" data-name="Path 875441" d="M664.142,187.692c.082,1.871.957,3.346,1.954,3.293s1.738-1.612,1.655-3.483-.958-3.346-1.954-3.293-1.738,1.612-1.655,3.483" transform="translate(-537.084 -145.728)" fill="#def1f7"/>
        <path id="Path_875442" data-name="Path 875442" d="M826.811,234.944a12.041,12.041,0,0,1,2.506-.153,5.818,5.818,0,0,1,1.57.256,3.042,3.042,0,0,1,.336.136,28.222,28.222,0,0,0-2.088,7.15,34.9,34.9,0,0,0,.092,13.586,20.932,20.932,0,0,0,7.136,11.39l-.474,2.64c-4.6-1.9-7.947-6.523-9.534-11.6s-1.6-10.6-1.083-15.935a28.345,28.345,0,0,1,1.541-7.465" transform="translate(-667.145 -185.736)" fill="#dd7d52"/>
        <path id="Path_875443" data-name="Path 875443" d="M707.51,201.251l-8.6,4.206-5.083-15.729-1.113-6.434a1.7,1.7,0,0,0-1.431-1.445c-2.041-.247-6.318-.7-4.286.8,2.864.281,1.112,7.874,3.272,8.741.013.484.514,20.6,2.224,22.339s16.582-.139,16.582-.139Z" transform="translate(-555.142 -143.653)" fill="#f8e8df"/>
        <path id="Path_875444" data-name="Path 875444" d="M750.38,298a7.562,7.562,0,0,1-.544,3.536" transform="translate(-606.388 -235.752)" fill="none" stroke="#efc2c8" stroke-linecap="round" stroke-miterlimit="10" stroke-width="1"/>
        <path id="Path_875445" data-name="Path 875445" d="M793.973,269.533s-.865-7.96-1.1-12.389a26.262,26.262,0,0,1,4.345-3.491,10.382,10.382,0,0,1,5.563-1.525,8.192,8.192,0,0,1,5.333,2.169c2.079,1.95,2.237,5.791,1.063,8.5a9.593,9.593,0,0,1-4.953,4.742c-2.074.941-10.251,2-10.251,2" transform="translate(-641.192 -199.457)" fill="#ffde00"/>
        <path id="Path_875446" data-name="Path 875446" d="M799.441,273.248a113.135,113.135,0,0,0,1.157,12.409" transform="translate(-646.504 -216.169)" fill="none" stroke="#e5a505" stroke-linecap="round" stroke-miterlimit="10" stroke-width="1"/>
      </g>
    </g>
  </g>
</svg>
