<svg xmlns="http://www.w3.org/2000/svg" xmlns:xlink="http://www.w3.org/1999/xlink" width="139" height="139" viewBox="0 0 139 139">
  <defs>
    <clipPath id="clip-path">
      <rect id="Rectangle_400938" data-name="Rectangle 400938" width="139" height="139" transform="translate(-0.043 -0.043)" fill="none"/>
    </clipPath>
    <clipPath id="clip-path-2">
      <rect id="Rectangle_401073" data-name="Rectangle 401073" width="105.872" height="47.68" fill="#7d3a1b"/>
    </clipPath>
    <clipPath id="clip-path-3">
      <rect id="Rectangle_401188" data-name="Rectangle 401188" width="78" height="79" fill="#6a4d23"/>
    </clipPath>
  </defs>
  <g id="Group_1100314" data-name="Group 1100314" transform="translate(-1150 -4198.881)">
    <g id="Group_1100274" data-name="Group 1100274">
      <g id="Group_1099576" data-name="Group 1099576" transform="translate(885.043 -1085.076)">
        <g id="Group_1099379" data-name="Group 1099379" transform="translate(265 5284)">
          <rect id="Rectangle_401103" data-name="Rectangle 401103" width="139" height="139" transform="translate(-0.043 -0.043)" fill="none"/>
          <g id="Group_1099348" data-name="Group 1099348" transform="translate(0)">
            <g id="Group_1099282" data-name="Group 1099282">
              <g id="Group_1099281" data-name="Group 1099281" clip-path="url(#clip-path-2)">
                <path id="Path_873375" data-name="Path 873375" d="M85.879,10.449c-4.752,0-7.21-2.33-9.379-4.386C74.371,4.047,72.538,2.3,68.7,2.3s-5.668,1.742-7.8,3.758c-2.17,2.056-4.624,4.386-9.379,4.386s-7.21-2.33-9.379-4.386C40.018,4.047,38.184,2.3,34.349,2.3s-5.668,1.742-7.794,3.758c-2.17,2.056-4.627,4.386-9.379,4.386S9.963,8.119,7.794,6.063C5.668,4.047,3.835,2.3,0,2.3V0C4.752,0,7.21,2.334,9.379,4.386c2.129,2.02,3.963,3.758,7.8,3.758s5.668-1.738,7.794-3.755C27.136,2.334,29.6,0,34.349,0s7.213,2.334,9.379,4.386c2.129,2.02,3.963,3.758,7.8,3.758s5.668-1.738,7.8-3.758C61.489,2.334,63.951,0,68.7,0s7.213,2.334,9.379,4.386c2.129,2.02,3.963,3.758,7.8,3.758s5.668-1.738,7.8-3.758C95.843,2.334,98.3,0,103.056,0V2.3c-3.835,0-5.668,1.742-7.8,3.758-2.169,2.056-4.627,4.386-9.379,4.386" transform="translate(2.816 37.231)" fill="#7d3a1b"/>
                <path id="Path_873376" data-name="Path 873376" d="M85.879,10.449c-4.752,0-7.213-2.33-9.379-4.39C74.371,4.043,72.538,2.3,68.7,2.3s-5.668,1.738-7.8,3.755c-2.166,2.06-4.624,4.39-9.379,4.39s-7.213-2.33-9.379-4.39C40.018,4.043,38.184,2.3,34.349,2.3s-5.668,1.742-7.794,3.755c-2.17,2.06-4.627,4.39-9.379,4.39s-7.213-2.33-9.383-4.39C5.668,4.043,3.835,2.3,0,2.3V0C4.752,0,7.213,2.33,9.379,4.386c2.129,2.02,3.963,3.758,7.8,3.758s5.668-1.738,7.794-3.758C27.136,2.33,29.6,0,34.349,0s7.213,2.33,9.383,4.386c2.126,2.02,3.959,3.758,7.794,3.758s5.668-1.738,7.8-3.758C61.489,2.33,63.951,0,68.7,0s7.213,2.33,9.379,4.386c2.129,2.02,3.963,3.758,7.8,3.758s5.668-1.738,7.8-3.758C95.846,2.33,98.3,0,103.059,0V2.3c-3.835,0-5.672,1.742-7.8,3.755-2.169,2.06-4.628,4.39-9.379,4.39" transform="translate(1.877 24.821)" fill="#7d3a1b"/>
                <path id="Path_873377" data-name="Path 873377" d="M85.879,10.449c-4.752,0-7.213-2.33-9.379-4.39C74.371,4.043,72.538,2.3,68.7,2.3s-5.668,1.738-7.8,3.755c-2.166,2.06-4.627,4.39-9.379,4.39s-7.213-2.33-9.379-4.39C40.018,4.043,38.184,2.3,34.349,2.3s-5.668,1.742-7.794,3.755c-2.169,2.06-4.627,4.39-9.379,4.39s-7.213-2.33-9.383-4.39C5.668,4.043,3.835,2.3,0,2.3V0C4.752,0,7.213,2.33,9.379,4.386c2.126,2.02,3.963,3.758,7.8,3.758s5.668-1.738,7.794-3.758C27.136,2.33,29.6,0,34.349,0s7.213,2.33,9.383,4.386c2.126,2.02,3.959,3.758,7.794,3.758s5.668-1.738,7.8-3.758C61.489,2.33,63.951,0,68.7,0s7.213,2.33,9.379,4.386c2.129,2.02,3.963,3.758,7.8,3.758s5.668-1.738,7.8-3.758C95.846,2.33,98.3,0,103.059,0V2.3c-3.835,0-5.672,1.742-7.8,3.755-2.169,2.06-4.627,4.39-9.379,4.39" transform="translate(0.939 12.41)" fill="#7d3a1b"/>
                <path id="Path_873378" data-name="Path 873378" d="M85.879,10.445c-4.752,0-7.21-2.33-9.379-4.386C74.371,4.043,72.538,2.3,68.7,2.3s-5.668,1.738-7.794,3.755c-2.169,2.056-4.627,4.386-9.383,4.386s-7.21-2.33-9.379-4.386C40.018,4.043,38.184,2.3,34.349,2.3s-5.668,1.738-7.794,3.751c-2.166,2.06-4.627,4.39-9.379,4.39S9.963,8.115,7.794,6.059C5.668,4.043,3.835,2.3,0,2.3V0C4.752,0,7.213,2.33,9.379,4.386c2.129,2.016,3.963,3.755,7.8,3.755S22.845,6.4,24.971,4.386C27.14,2.33,29.6,0,34.349,0s7.21,2.33,9.383,4.386c2.126,2.016,3.959,3.755,7.794,3.755s5.668-1.738,7.8-3.755C61.493,2.33,63.951,0,68.7,0s7.21,2.33,9.379,4.386c2.129,2.016,3.963,3.755,7.8,3.755s5.668-1.738,7.8-3.755C95.846,2.33,98.3,0,103.059,0V2.3c-3.839,0-5.672,1.738-7.8,3.755-2.169,2.056-4.627,4.386-9.379,4.386" transform="translate(0 0.004)" fill="#7d3a1b"/>
              </g>
            </g>
          </g>
          <path id="Path_873425" data-name="Path 873425" d="M57.977,0A57.977,57.977,0,1,1,0,57.977,57.977,57.977,0,0,1,57.977,0Z" transform="translate(17.221 20.665)" fill="#ffb937"/>
          <circle id="Ellipse_11503" data-name="Ellipse 11503" cx="60.5" cy="60.5" r="60.5" transform="translate(8.957 8.957)" fill="#fff"/>
        </g>
      </g>
      <g id="Group_1099582" data-name="Group 1099582" transform="translate(833 -2195.119)">
        <g id="Group_1099389" data-name="Group 1099389" transform="translate(347.893 6422.863)">
          <rect id="Rectangle_401104" data-name="Rectangle 401104" width="78" height="79" transform="translate(0.107 0.256)" fill="none"/>
        </g>
        <g id="Group_1099584" data-name="Group 1099584" transform="translate(348 6423.119)">
          <g id="Group_1099583" data-name="Group 1099583" clip-path="url(#clip-path-3)">
            <path id="Path_873798" data-name="Path 873798" d="M8.128,121.492C7.067,109.8,8.131,99,15.252,89.565a2.312,2.312,0,0,0-2.384.253,6.7,6.7,0,0,1-2.025.558,2.962,2.962,0,0,0-1.176.357q-2.428,2.145-4.759,4.4c-.518.5-.994.938-1.742.646-.8-.314-.765-1.027-.694-1.712a18.293,18.293,0,0,1,2.51-7.835c2.112-3.43,5.312-4.987,9.243-5.366a2.107,2.107,0,0,0-1.348-1.977,1.8,1.8,0,0,1-1.293-1.537,1.331,1.331,0,0,0-.751-.825q-2.985-1.233-6.017-2.351c-.664-.245-1.42-.468-1.239-1.291A2.025,2.025,0,0,1,4.685,71.6c3.436-1.176,6.946-1.746,10.5-.561a11.084,11.084,0,0,1,7.062,7c.078.207.153.416.237.621.011.025.062.034.16.082.4-.544.794-1.123,1.237-1.656,3.213-3.865,7.872-5.052,12.842-3.214a25.273,25.273,0,0,1,3.83,1.8,1.725,1.725,0,0,1,.742,1.407c-.071.392-.749.834-1.235.961-2.048.534-4.129.938-6.186,1.441-.36.088-.889.369-.948.646-.22,1.029-1.025,1.233-1.774,1.662A10.857,10.857,0,0,0,29.3,83.558c1.152.406,2.037.67,2.885,1.025a10.533,10.533,0,0,1,6.668,8.246,42.685,42.685,0,0,1,.276,6.349c.017.691-.262,1.4-1.022,1.334a2.4,2.4,0,0,1-1.46-.915c-1.3-1.68-2.5-3.437-3.76-5.15-.191-.26-.523-.656-.734-.623-1.364.21-2.139-.605-2.9-1.51a.61.61,0,0,0-.3-.13,1.8,1.8,0,0,0-.346,0c.084.478.174.926.241,1.378a9.935,9.935,0,0,1-2.924,8.924,41.964,41.964,0,0,1-5.376,4.14,1.526,1.526,0,0,1-1.487-.089,1.858,1.858,0,0,1-.231-1.562c.658-2.1,1.445-4.153,2.149-6.237a1.1,1.1,0,0,0-.056-.916c-.721-.715-.572-1.49-.49-2.384a7.541,7.541,0,0,0-.5-2.264l-.39.006c-.362,1.155-.769,2.3-1.078,3.468a43.388,43.388,0,0,0-.994,18.467,46.11,46.11,0,0,0,1.491,5.268c.221.751.667,1.012,1.43.647a9.743,9.743,0,0,1,8.107-.085,5.45,5.45,0,0,0,3.568-.012,11.06,11.06,0,0,1,7.937-.042,6.283,6.283,0,0,0,3.889-.036,10.079,10.079,0,0,1,7.6.058,5.086,5.086,0,0,0,4.033,0,9.321,9.321,0,0,1,7.585,0,5.21,5.21,0,0,0,4.14-.026,9.175,9.175,0,0,1,7.478.021,7.4,7.4,0,0,0,1.955.372c.774.1,1.3.472,1.278,1.274a1.1,1.1,0,0,1-1.339,1.151,14.821,14.821,0,0,1-3.14-.641,6.488,6.488,0,0,0-4.892-.037,8.777,8.777,0,0,1-6.95-.017,5.789,5.789,0,0,0-4.568-.018,8.987,8.987,0,0,1-7.163-.014,5.657,5.657,0,0,0-4.461.014,8.986,8.986,0,0,1-7.162-.015,5.62,5.62,0,0,0-4.461.016,8.772,8.772,0,0,1-7.15-.013,5.5,5.5,0,0,0-4.455,0,8.725,8.725,0,0,1-7.148.007,5.507,5.507,0,0,0-4.455-.013,8.814,8.814,0,0,1-7.256-.012,6.73,6.73,0,0,0-1.951-.4c-.808-.085-1.419-.406-1.4-1.271a1.2,1.2,0,0,1,1.537-1.2c.949.131,1.877.41,2.816.613,1.17.254,2.343.5,3.762.8M17.866,90.37c-7.187,8.764-8.31,19.045-7.4,29.627l5.774.478c-3.032-10.148-2.022-20.178,1.627-30.105m18.658,4.483c.072-.1.141-.155.142-.208.034-4.906-5.474-9.545-10.233-8.6a1.006,1.006,0,0,0-.7.535,1.137,1.137,0,0,0,.261.946c1.13.976,2.049,2.344,3.815,2.255a.842.842,0,0,1,.609.244,3.183,3.183,0,0,0,2.728,1.35c.247-.014.545.36.77.6.877.945,1.734,1.909,2.606,2.874m-13.856,7.283c4.46-2.881,5.119-9.539,1.289-13.029-.446.306-1.2.543-1.334.972a3.968,3.968,0,0,0,.049,3.351c.8,1.38.126,3.11.941,4.556.193.343-.151,1-.274,1.511-.207.858-.434,1.711-.672,2.64M35.761,76.268a8.322,8.322,0,0,0-10.6,3.208c-1.1,1.641-1.1,1.642.1,3.2.04.052.124.07.324.176.723-.408,1.751-.68,2.26-1.351.69-.908,1.227-1.832,2.432-2.1a.691.691,0,0,0,.419-.452c.188-.963.907-1.293,1.708-1.558,1.086-.358,2.168-.725,3.359-1.124M5.717,90.713c.769-.63,1.363-1.207,2.042-1.652C8.8,88.38,9.678,87.14,11.22,87.88c.106.05.357-.1.483-.217a3.6,3.6,0,0,1,2.883-.842,2.016,2.016,0,0,0,1.575-1,6.474,6.474,0,0,0,.068-2.314c-4.778-.888-9.3,2.113-10.512,7.2M9.522,73.107a5.131,5.131,0,0,0,.991.477c2.5.479,3.311,3.034,5.206,4.255.184.118.234.454.333.695a2.851,2.851,0,0,0,4.188,1.639A8.873,8.873,0,0,0,9.522,73.107M23.469,85.191a2.4,2.4,0,0,0-2.378-2.436,2.457,2.457,0,0,0-2.484,2.355,2.506,2.506,0,0,0,2.463,2.512,2.443,2.443,0,0,0,2.4-2.432" transform="translate(-0.011 -54.569)" fill="#6a4d23"/>
            <path id="Path_873799" data-name="Path 873799" d="M130.522,18.293h4.741c.189-.962-.209-2.341,1.279-2.373,1.529-.033,1.15,1.331,1.266,2.34h2.337c.112-.983-.161-2.311,1.281-2.34,1.545-.031,1.116,1.351,1.274,2.423.575,0,1.157-.013,1.739,0a3.011,3.011,0,0,1,3.1,3.122c.035,1.61.008,3.221.008,4.832q0,18.26,0,36.521c0,1.824-.231,2.053-2.067,2.053H92.063c-2.282,0-2.282,0-2.477-2.453h11.676V61.177c0-2.772-.009-5.544,0-8.315a2.342,2.342,0,0,1,2.609-2.637c2.72-.015,5.439,0,8.159,0h1.341V48.8q0-21.238,0-42.476c0-2.807,1.131-3.937,3.934-3.938q4.806,0,9.611,0c2.348.005,3.589,1.24,3.6,3.6.013,3.671,0,7.342,0,11.012,0,.406,0,.811,0,1.3m-2.5,44.057c.03-.245.055-.354.055-.465q0-27.912.018-55.824c0-.955-.4-1.221-1.283-1.212-3.127.033-6.256.012-9.383.013-1.6,0-1.6,0-1.6,1.648q0,27.294,0,54.588V62.35Zm17.026,0c.017-.268.038-.449.038-.63q0-19.89.017-39.781c0-.909-.334-1.15-1.184-1.143-3.949.032-7.9.014-11.847.014-1.546,0-1.548,0-1.548,1.525q0,19.385,0,38.769c0,.4,0,.8,0,1.244Zm-31.717-9.6h-9.557v9.559h9.557Z" transform="translate(-69.56 -1.846)" fill="#6a4d23"/>
            <path id="Path_873800" data-name="Path 873800" d="M76.088,316.9c-.851-.244-1.729-.421-2.548-.746a6.4,6.4,0,0,0-4.991-.045,8.852,8.852,0,0,1-6.952-.044,5.716,5.716,0,0,0-4.454-.025,9.2,9.2,0,0,1-7.27-.011,5.553,5.553,0,0,0-4.35.007,9.166,9.166,0,0,1-7.268-.006,5.52,5.52,0,0,0-4.35,0,9.028,9.028,0,0,1-7.357-.044,5.3,5.3,0,0,0-4.244.022,8.942,8.942,0,0,1-7.352-.014,5.3,5.3,0,0,0-4.245.006,8.954,8.954,0,0,1-7.357.012,7.1,7.1,0,0,0-1.951-.376c-.8-.1-1.4-.436-1.385-1.3a1.126,1.126,0,0,1,1.444-1.152,16.125,16.125,0,0,1,3.132.675,6.427,6.427,0,0,0,4.881-.033,8.269,8.269,0,0,1,6.618-.031,6.432,6.432,0,0,0,5.192-.031,7.929,7.929,0,0,1,6.3-.014,6.6,6.6,0,0,0,5.3.03,8.607,8.607,0,0,1,6.736.1,5.844,5.844,0,0,0,4.56,0,8.989,8.989,0,0,1,7.06,0,5.816,5.816,0,0,0,4.559,0,8.992,8.992,0,0,1,7.061,0,5.946,5.946,0,0,0,4.666-.028,8.986,8.986,0,0,1,6.957.015,6.552,6.552,0,0,0,1.714.429c1.248.128,1.885.554,1.779,1.375-.145,1.12-.98,1.163-1.886,1.229" transform="translate(-0.01 -242.731)" fill="#6a4d23"/>
            <path id="Path_873801" data-name="Path 873801" d="M24.483,337.272a26.644,26.644,0,0,0-2.676.741,8.2,8.2,0,0,1-6.408-.04,6.229,6.229,0,0,0-5.087-.024,8.388,8.388,0,0,1-6.622.02,10.867,10.867,0,0,0-2.371-.533C.5,337.314-.055,336.943,0,336.08A1.114,1.114,0,0,1,1.411,335a16.39,16.39,0,0,1,3.133.671,6.517,6.517,0,0,0,4.99-.051,8.129,8.129,0,0,1,6.515-.02,6.4,6.4,0,0,0,5.191-.011,8.114,8.114,0,0,1,6.515.04,6.05,6.05,0,0,0,4.878.049,8.518,8.518,0,0,1,6.734-.051,6.31,6.31,0,0,0,4.992.013,8.432,8.432,0,0,1,6.629-.014,6.439,6.439,0,0,0,5.1-.021,8.329,8.329,0,0,1,6.525.018,6.434,6.434,0,0,0,5.1-.019,8.7,8.7,0,0,1,6.431-.051,13.723,13.723,0,0,0,2.474.586c.806.126,1.391.464,1.345,1.329a1.18,1.18,0,0,1-1.48,1.147,10.556,10.556,0,0,1-2.708-.568,6.933,6.933,0,0,0-5.526-.039,7.887,7.887,0,0,1-6.2,0,6.822,6.822,0,0,0-5.421-.01,7.988,7.988,0,0,1-6.3-.021,6.548,6.548,0,0,0-5.208-.015,8.2,8.2,0,0,1-6.515-.014,6.494,6.494,0,0,0-5.2.055,8.189,8.189,0,0,1-6.409-.026,25.11,25.11,0,0,0-2.5-.708" transform="translate(0 -259.647)" fill="#6a4d23"/>
            <path id="Path_873802" data-name="Path 873802" d="M81.127,28.233A6.378,6.378,0,0,1,87.7,34.24c.083.861-.213,1.545-1.126,1.616-.844.065-1.206-.5-1.313-1.337-.313-2.445-1.778-3.811-4.011-3.819-2.21-.009-3.636,1.294-4.007,3.684-.128.827-.439,1.479-1.4,1.379-.982-.1-1.106-.828-1.054-1.653a6.392,6.392,0,0,1,6.34-5.876" transform="translate(-58.062 -21.887)" fill="#6a4d23"/>
            <path id="Path_873803" data-name="Path 873803" d="M5.533,269.349v2.444a42.765,42.765,0,0,1-4.294-.057c-.386-.039-1.045-.853-.971-1.167A1.793,1.793,0,0,1,1.449,269.4a35.059,35.059,0,0,1,4.084-.055" transform="translate(-0.204 -208.785)" fill="#6a4d23"/>
            <path id="Path_873804" data-name="Path 873804" d="M124.513,16.654a3.753,3.753,0,0,1,2.474-2.3,1.206,1.206,0,0,1,.922,1.88,6.978,6.978,0,0,1-1.63,1.5,1.156,1.156,0,0,1-1.766-1.078" transform="translate(-96.68 -11.13)" fill="#6a4d23"/>
            <path id="Path_873805" data-name="Path 873805" d="M96.014,3.856c-.545-.584-.477-3.035.1-3.551a1.276,1.276,0,0,1,2.082.733,7.387,7.387,0,0,1-.079,2.326,1.2,1.2,0,0,1-2.1.492" transform="translate(-74.262 0)" fill="#6a4d23"/>
            <path id="Path_873806" data-name="Path 873806" d="M142.121,44.142a3.714,3.714,0,0,1-3.354.215,1.224,1.224,0,0,1,.509-2.046,6.91,6.91,0,0,1,2.2-.127,1.15,1.15,0,0,1,.647,1.958" transform="translate(-107.466 -32.674)" fill="#6a4d23"/>
            <path id="Path_873807" data-name="Path 873807" d="M66.488,16.654a3.753,3.753,0,0,0-2.474-2.3,1.206,1.206,0,0,0-.922,1.88,6.979,6.979,0,0,0,1.63,1.5,1.156,1.156,0,0,0,1.766-1.078" transform="translate(-48.814 -11.13)" fill="#6a4d23"/>
            <path id="Path_873808" data-name="Path 873808" d="M47.407,44.142a3.714,3.714,0,0,0,3.354.215,1.224,1.224,0,0,0-.509-2.046,6.909,6.909,0,0,0-2.2-.127,1.15,1.15,0,0,0-.647,1.958" transform="translate(-36.554 -32.674)" fill="#6a4d23"/>
            <path id="Path_873809" data-name="Path 873809" d="M221.691,222.832c-.779,0-1.559.012-2.338,0a1.184,1.184,0,0,1-1.309-1.224,1.21,1.21,0,0,1,1.313-1.236q2.337-.047,4.676,0a1.214,1.214,0,0,1,1.312,1.24,1.19,1.19,0,0,1-1.316,1.22c-.779.014-1.559,0-2.338,0" transform="translate(-169.304 -170.82)" fill="#6a4d23"/>
            <path id="Path_873810" data-name="Path 873810" d="M221.691,244.577c-.779,0-1.559.012-2.338,0a1.184,1.184,0,0,1-1.309-1.224,1.21,1.21,0,0,1,1.313-1.236q2.337-.047,4.676,0a1.214,1.214,0,0,1,1.312,1.24,1.19,1.19,0,0,1-1.316,1.22c-.779.014-1.559,0-2.338,0" transform="translate(-169.304 -187.677)" fill="#6a4d23"/>
            <path id="Path_873811" data-name="Path 873811" d="M162.255,252.577c-.779,0-1.559.012-2.338,0a1.184,1.184,0,0,1-1.309-1.224,1.21,1.21,0,0,1,1.313-1.236q2.337-.046,4.676,0a1.214,1.214,0,0,1,1.312,1.24,1.19,1.19,0,0,1-1.316,1.22c-.779.014-1.559,0-2.338,0" transform="translate(-123.154 -193.879)" fill="#6a4d23"/>
            <path id="Path_873812" data-name="Path 873812" d="M162.255,237.355c-.779,0-1.559.012-2.338,0a1.184,1.184,0,0,1-1.309-1.224,1.21,1.21,0,0,1,1.313-1.236q2.337-.047,4.676,0a1.214,1.214,0,0,1,1.312,1.24,1.19,1.19,0,0,1-1.316,1.22c-.779.014-1.559,0-2.338,0" transform="translate(-123.154 -182.079)" fill="#6a4d23"/>
            <path id="Path_873813" data-name="Path 873813" d="M221.691,199.637c-.779,0-1.559.012-2.338,0a1.184,1.184,0,0,1-1.309-1.224,1.21,1.21,0,0,1,1.313-1.236q2.337-.046,4.676,0a1.214,1.214,0,0,1,1.312,1.24,1.19,1.19,0,0,1-1.316,1.22c-.779.014-1.559,0-2.338,0" transform="translate(-169.304 -152.838)" fill="#6a4d23"/>
            <path id="Path_873814" data-name="Path 873814" d="M221.691,175.718c-.779,0-1.559.012-2.338,0a1.184,1.184,0,0,1-1.309-1.224,1.21,1.21,0,0,1,1.313-1.236q2.337-.046,4.676,0a1.214,1.214,0,0,1,1.312,1.24,1.19,1.19,0,0,1-1.316,1.22c-.779.014-1.559,0-2.338,0" transform="translate(-169.304 -134.295)" fill="#6a4d23"/>
            <path id="Path_873815" data-name="Path 873815" d="M221.691,151.8c-.779,0-1.559.012-2.338,0a1.184,1.184,0,0,1-1.309-1.224,1.21,1.21,0,0,1,1.313-1.236q2.337-.047,4.676,0a1.214,1.214,0,0,1,1.312,1.24,1.19,1.19,0,0,1-1.316,1.22c-.779.014-1.559,0-2.338,0" transform="translate(-169.304 -115.751)" fill="#6a4d23"/>
            <path id="Path_873816" data-name="Path 873816" d="M221.691,127.879c-.779,0-1.559.012-2.338,0a1.184,1.184,0,0,1-1.309-1.224,1.21,1.21,0,0,1,1.313-1.236q2.337-.047,4.676,0a1.214,1.214,0,0,1,1.312,1.24,1.19,1.19,0,0,1-1.316,1.22c-.779.014-1.559,0-2.338,0" transform="translate(-169.304 -97.209)" fill="#6a4d23"/>
            <path id="Path_873817" data-name="Path 873817" d="M221.691,103.959c-.779,0-1.559.012-2.338,0a1.184,1.184,0,0,1-1.309-1.224,1.21,1.21,0,0,1,1.313-1.236q2.337-.047,4.676,0a1.214,1.214,0,0,1,1.312,1.24,1.19,1.19,0,0,1-1.316,1.22c-.779.014-1.559,0-2.338,0" transform="translate(-169.304 -78.665)" fill="#6a4d23"/>
            <path id="Path_873818" data-name="Path 873818" d="M221.691,80.04c-.779,0-1.559.012-2.338,0a1.184,1.184,0,0,1-1.309-1.224,1.21,1.21,0,0,1,1.313-1.236q2.337-.047,4.676,0a1.214,1.214,0,0,1,1.312,1.24,1.19,1.19,0,0,1-1.316,1.22c-.779.014-1.559,0-2.338,0" transform="translate(-169.304 -60.122)" fill="#6a4d23"/>
            <path id="Path_873819" data-name="Path 873819" d="M221.691,56.12c-.779,0-1.559.012-2.338,0a1.184,1.184,0,0,1-1.309-1.224,1.21,1.21,0,0,1,1.313-1.236q2.337-.047,4.676,0a1.214,1.214,0,0,1,1.312,1.24,1.19,1.19,0,0,1-1.316,1.22c-.779.014-1.559,0-2.338,0" transform="translate(-169.304 -41.578)" fill="#6a4d23"/>
            <path id="Path_873820" data-name="Path 873820" d="M221.691,32.2c-.779,0-1.559.012-2.338,0a1.184,1.184,0,0,1-1.309-1.224,1.21,1.21,0,0,1,1.313-1.236q2.337-.047,4.676,0a1.214,1.214,0,0,1,1.312,1.24,1.19,1.19,0,0,1-1.316,1.22c-.779.014-1.559,0-2.338,0" transform="translate(-169.304 -23.035)" fill="#6a4d23"/>
            <path id="Path_873821" data-name="Path 873821" d="M312.688,209.318c.852-.024,1.71-.039,1.788,1.134.058.88-.553,1.319-1.776,1.319s-1.836-.429-1.783-1.312c.071-1.173.925-1.168,1.771-1.141" transform="translate(-241.414 -162.266)" fill="#6a4d23"/>
            <path id="Path_873822" data-name="Path 873822" d="M312.688,189.848c.852-.024,1.71-.039,1.788,1.134.058.879-.553,1.319-1.776,1.319s-1.836-.429-1.783-1.312c.071-1.173.925-1.168,1.771-1.141" transform="translate(-241.414 -147.173)" fill="#6a4d23"/>
            <path id="Path_873823" data-name="Path 873823" d="M312.688,170.377c.852-.024,1.71-.039,1.788,1.134.058.88-.553,1.319-1.776,1.319s-1.836-.429-1.783-1.312c.071-1.173.925-1.168,1.771-1.141" transform="translate(-241.414 -132.078)" fill="#6a4d23"/>
            <path id="Path_873824" data-name="Path 873824" d="M312.688,150.906c.852-.024,1.71-.039,1.788,1.134.058.88-.553,1.319-1.776,1.319s-1.836-.429-1.783-1.312c.071-1.173.925-1.168,1.771-1.141" transform="translate(-241.414 -116.983)" fill="#6a4d23"/>
            <path id="Path_873825" data-name="Path 873825" d="M312.688,131.435c.852-.024,1.71-.039,1.788,1.134.058.879-.553,1.319-1.776,1.319s-1.836-.429-1.783-1.312c.071-1.173.925-1.168,1.771-1.141" transform="translate(-241.414 -101.889)" fill="#6a4d23"/>
            <path id="Path_873826" data-name="Path 873826" d="M312.688,111.965c.852-.024,1.71-.039,1.788,1.134.058.879-.553,1.319-1.776,1.319s-1.836-.429-1.783-1.312c.071-1.173.925-1.168,1.771-1.141" transform="translate(-241.414 -86.794)" fill="#6a4d23"/>
            <path id="Path_873827" data-name="Path 873827" d="M312.688,92.493c.852-.024,1.71-.039,1.788,1.134.058.879-.553,1.319-1.776,1.319s-1.836-.429-1.783-1.312c.071-1.173.925-1.168,1.771-1.141" transform="translate(-241.414 -71.699)" fill="#6a4d23"/>
            <path id="Path_873828" data-name="Path 873828" d="M284.421,209.318c.852-.024,1.71-.039,1.788,1.134.058.88-.553,1.319-1.776,1.319s-1.836-.429-1.783-1.312c.071-1.173.925-1.168,1.771-1.141" transform="translate(-219.465 -162.266)" fill="#6a4d23"/>
            <path id="Path_873829" data-name="Path 873829" d="M284.421,189.848c.852-.024,1.71-.039,1.788,1.134.058.879-.553,1.319-1.776,1.319s-1.836-.429-1.783-1.312c.071-1.173.925-1.168,1.771-1.141" transform="translate(-219.465 -147.173)" fill="#6a4d23"/>
            <path id="Path_873830" data-name="Path 873830" d="M284.421,170.377c.852-.024,1.71-.039,1.788,1.134.058.88-.553,1.319-1.776,1.319s-1.836-.429-1.783-1.312c.071-1.173.925-1.168,1.771-1.141" transform="translate(-219.465 -132.078)" fill="#6a4d23"/>
            <path id="Path_873831" data-name="Path 873831" d="M284.421,150.906c.852-.024,1.71-.039,1.788,1.134.058.88-.553,1.319-1.776,1.319s-1.836-.429-1.783-1.312c.071-1.173.925-1.168,1.771-1.141" transform="translate(-219.465 -116.983)" fill="#6a4d23"/>
            <path id="Path_873832" data-name="Path 873832" d="M284.421,131.435c.852-.024,1.71-.039,1.788,1.134.058.879-.553,1.319-1.776,1.319s-1.836-.429-1.783-1.312c.071-1.173.925-1.168,1.771-1.141" transform="translate(-219.465 -101.889)" fill="#6a4d23"/>
            <path id="Path_873833" data-name="Path 873833" d="M284.421,111.965c.852-.024,1.71-.039,1.788,1.134.058.879-.553,1.319-1.776,1.319s-1.836-.429-1.783-1.312c.071-1.173.925-1.168,1.771-1.141" transform="translate(-219.465 -86.794)" fill="#6a4d23"/>
            <path id="Path_873834" data-name="Path 873834" d="M284.421,92.493c.852-.024,1.71-.039,1.788,1.134.058.879-.553,1.319-1.776,1.319s-1.836-.429-1.783-1.312c.071-1.173.925-1.168,1.771-1.141" transform="translate(-219.465 -71.699)" fill="#6a4d23"/>
          </g>
        </g>
      </g>
    </g>
  </g>
</svg>
