<svg xmlns="http://www.w3.org/2000/svg" xmlns:xlink="http://www.w3.org/1999/xlink" width="129" height="129" viewBox="0 0 129 129">
  <defs>
    <clipPath id="clip-path">
      <rect id="Rectangle_401136" data-name="Rectangle 401136" width="129" height="129" transform="translate(1151 5873)" fill="#fff" stroke="#707070" stroke-width="1"/>
    </clipPath>
    <clipPath id="clip-path-2">
      <rect id="Rectangle_401135" data-name="Rectangle 401135" width="120.356" height="100.625" fill="none"/>
    </clipPath>
  </defs>
  <g id="Mask_Group_1098689" data-name="Mask Group 1098689" transform="translate(-1151 -5873)" clip-path="url(#clip-path)">
    <g id="Group_1099484" data-name="Group 1099484" transform="translate(1155 5887)">
      <g id="Group_1099483" data-name="Group 1099483" transform="translate(0 0)" clip-path="url(#clip-path-2)">
        <path id="Path_873590" data-name="Path 873590" d="M118.5,59.7c-4.278,2.244-14.209,3.3-24.655,4.847-10.665,1.427-21.843,3.34-33.671,4.551a112.191,112.191,0,0,1-33.673-1.226C16.059,65.852,6.128,61.983,1.85,58.782c-4.278-3.4-1.153-4.812,9.512-6.12,10.446-1.226,28.431-2.349,48.816-3.277s38.369.157,48.815,2.5c10.665,2.261,13.79,5.778,9.512,7.822" transform="translate(0 22.906)" fill="#32d4c5"/>
        <path id="Path_873591" data-name="Path 873591" d="M100.7,66.236a4.357,4.357,0,0,1-2.387.4c-5.922-1.577-40.38-45.932-46.3-45.932S10.937,69.684,10.937,69.684H100.7Z" transform="translate(5.107 9.669)" fill="#ffac12"/>
        <path id="Path_873592" data-name="Path 873592" d="M5.945,64.2a1.858,1.858,0,0,1-1.486-2.974c5.874-7.82,21.6-28.362,24.752-28.362,3.887,0,26.514,28.378,30.4,29.388s30.58-21.171,33.409-20.9c2.239.217,14.328,14.4,19.274,20.309A1.546,1.546,0,0,1,111.11,64.2Z" transform="translate(1.906 15.349)" fill="#ffca00"/>
        <path id="Path_873593" data-name="Path 873593" d="M23.347,8.806l7.806,69.367H48V3.375s-16.432.591-24.648,5.431" transform="translate(10.902 1.576)" fill="#4d4f4e"/>
        <path id="Path_873594" data-name="Path 873594" d="M64.8,8.806,56.991,78.173H40.149V3.375S56.581,3.966,64.8,8.806" transform="translate(18.748 1.576)" fill="#383838"/>
        <path id="Path_873595" data-name="Path 873595" d="M68.611,1.848Q67.55,7.919,66.492,13.989a111.87,111.87,0,0,0-38.458,0Q26.976,7.918,25.916,1.848a124.2,124.2,0,0,1,42.695,0" transform="translate(12.102 0)" fill="#ef3f0f"/>
        <path id="Path_873596" data-name="Path 873596" d="M61.815,1.848Q60.755,7.919,59.7,13.989a111.822,111.822,0,0,0-19.229-1.665V0A124.177,124.177,0,0,1,61.815,1.848" transform="translate(18.897 0)" fill="#cc2a05"/>
        <path id="Path_873597" data-name="Path 873597" d="M36.277,8.62l-1.209.151L34.758,6.3l-2.266.283.31,2.47-1.213.151-.717-5.721,1.213-.153.282,2.243,2.265-.283-.28-2.243L35.559,2.9Z" transform="translate(14.416 1.353)" fill="#fff"/>
        <path id="Path_873598" data-name="Path 873598" d="M41,5.37a3.134,3.134,0,0,1-.568,2.243,3.08,3.08,0,0,1-4.063.258,3.138,3.138,0,0,1-.848-2.159,3.09,3.09,0,0,1,.571-2.24,2.66,2.66,0,0,1,1.988-.888,2.629,2.629,0,0,1,2.079.635A3.132,3.132,0,0,1,41,5.37m-4.2.268a2.4,2.4,0,0,0,.459,1.429,1.279,1.279,0,0,0,1.125.418q1.461-.092,1.336-2.033T38.145,3.6a1.3,1.3,0,0,0-1.066.56A2.4,2.4,0,0,0,36.8,5.638" transform="translate(16.582 1.202)" fill="#fff"/>
        <path id="Path_873599" data-name="Path 873599" d="M42.87,8.266H41.648l-.007-4.749H40.074V2.5L44.428,2.5V3.515l-1.567,0Z" transform="translate(18.713 1.166)" fill="#fff"/>
        <path id="Path_873600" data-name="Path 873600" d="M47.238,8.505,43.923,8.3l.362-5.755L47.6,2.75l-.062,1-2.095-.131-.079,1.263L47.311,5l-.063,1L45.3,5.882l-.094,1.483L47.3,7.5Z" transform="translate(20.51 1.187)" fill="#fff"/>
        <path id="Path_873601" data-name="Path 873601" d="M47.251,8.535l.823-5.708L49.284,3,48.6,7.71l2.315.333-.144,1Z" transform="translate(22.064 1.32)" fill="#fff"/>
        <path id="Path_873602" data-name="Path 873602" d="M45.944,25.357H29.107L27.739,14.472H45.944Z" transform="translate(12.953 6.758)" fill="#63c4ee"/>
        <path id="Path_873603" data-name="Path 873603" d="M56.985,25.357H40.148V14.472H58.353Z" transform="translate(18.748 6.758)" fill="#2daad6"/>
        <path id="Path_873604" data-name="Path 873604" d="M45.639,36.044H29.762l-1.37-10.885H45.639Z" transform="translate(13.258 11.748)" fill="#63c4ee"/>
        <path id="Path_873605" data-name="Path 873605" d="M56.026,36.044H40.149V25.159H57.395Z" transform="translate(18.748 11.748)" fill="#2daad6"/>
        <path id="Path_873606" data-name="Path 873606" d="M45.2,46.964H30.694L29.326,36.079H45.2Z" transform="translate(13.694 16.848)" fill="#63c4ee"/>
        <path id="Path_873607" data-name="Path 873607" d="M54.657,46.964H40.149V36.079H56.026Z" transform="translate(18.748 16.848)" fill="#2daad6"/>
        <path id="Path_873608" data-name="Path 873608" d="M94.334,63.3v7.817H38.661v-3.3a6.686,6.686,0,0,1,4.14-6.186l7.892-4.886,8.046-5.84a8.409,8.409,0,0,1,6.238-2.77H82.212a8.4,8.4,0,0,1,6.524,3.107l3.15,5.847,1.938,3.6a6.956,6.956,0,0,1,.51,2.616" transform="translate(18.053 22.474)" fill="#ef3f0f"/>
        <path id="Path_873609" data-name="Path 873609" d="M40.91,65.241a3.272,3.272,0,0,1,.065-.577,3.309,3.309,0,0,1,1.982-2.4l7.084-4.553a8.29,8.29,0,0,1,3.155-.625H87.4a1.669,1.669,0,0,1,1.521.983l.631,1.4a3.533,3.533,0,0,1,.263,1.341v4.436Z" transform="translate(19.104 26.655)" fill="#cc2a05"/>
        <path id="Path_873610" data-name="Path 873610" d="M95.263,65H39.115a1.222,1.222,0,1,1,0-2.444H95.263a1.222,1.222,0,1,1,0,2.444" transform="translate(17.695 29.212)" fill="#ef3f0f"/>
        <path id="Path_873611" data-name="Path 873611" d="M56.668,51.141a3.047,3.047,0,0,1,2.272-1.018H77.308a3.1,3.1,0,0,1,2.82,1.807l2.564,4.22H49.458Z" transform="translate(23.095 23.406)" fill="#63c4ee"/>
        <path id="Path_873612" data-name="Path 873612" d="M37.893,63.39a1.222,1.222,0,0,0,1.222,1.222H95.263a1.222,1.222,0,0,0,1.222-1.222Z" transform="translate(17.695 29.601)" fill="#cc2a05"/>
        <path id="Path_873613" data-name="Path 873613" d="M54.908,66.406a6.02,6.02,0,1,1-6.02-6.02,6.021,6.021,0,0,1,6.02,6.02" transform="translate(20.018 28.198)" fill="#161616"/>
        <path id="Path_873614" data-name="Path 873614" d="M51.551,65.6a3.474,3.474,0,1,1-3.474-3.474A3.473,3.473,0,0,1,51.551,65.6" transform="translate(20.828 29.009)" fill="#424242"/>
        <path id="Path_873615" data-name="Path 873615" d="M78.1,66.406a6.02,6.02,0,1,1-6.02-6.02,6.02,6.02,0,0,1,6.02,6.02" transform="translate(30.848 28.198)" fill="#161616"/>
        <path id="Path_873616" data-name="Path 873616" d="M74.745,65.6a3.475,3.475,0,1,1-3.474-3.474A3.473,3.473,0,0,1,74.745,65.6" transform="translate(31.659 29.009)" fill="#424242"/>
        <path id="Path_873617" data-name="Path 873617" d="M41.77,59.765a2.221,2.221,0,0,1-2.221,2.221,2.172,2.172,0,0,1-.8-.148,6.687,6.687,0,0,1,2.227-3.772,2.213,2.213,0,0,1,.791,1.7" transform="translate(18.096 27.115)" fill="#fcd203"/>
        <path id="Path_873618" data-name="Path 873618" d="M14.218,62.937a5.186,5.186,0,0,0,2.043.616,4.3,4.3,0,0,0,2.657-.616C17.233,56.455,23,46.083,23,46.083l-.895-.414-.789-.364c-8.816,9.205-7.1,17.631-7.1,17.631" transform="translate(6.576 21.156)" fill="#4d4f4e"/>
        <path id="Path_873619" data-name="Path 873619" d="M15.568,63.438a4.3,4.3,0,0,0,2.657-.616c-1.686-6.483,4.084-16.854,4.084-16.854l-.9-.414C16.35,50.983,15.6,62.919,15.568,63.438" transform="translate(7.27 21.272)" fill="#383838"/>
        <path id="Path_873620" data-name="Path 873620" d="M19.382,46.19s8.184-5.366,11.913,3.628-1.311,2.065-1.311,2.065-.924,3.173-1.54,1.887l-1.008-2.105s-.5,2.253-.893,1.435-.977-2.641-.977-2.641-.4,1.573-.682,1.278-1.194-4.93-5.5-5.547" transform="translate(9.051 20.827)" fill="#32d4c5"/>
        <path id="Path_873621" data-name="Path 873621" d="M24.417,47.415s-3.857-8.994-11.934-3.557-.048,2.445-.048,2.445-.981,3.155.242,2.423l2-1.2s-.826,2.155-.047,1.688S16.9,47.558,16.9,47.558s-.537,1.53-.136,1.442,3.719-3.45,7.65-1.584" transform="translate(4.147 19.665)" fill="#21c1ad"/>
        <path id="Path_873622" data-name="Path 873622" d="M22.88,49.468s3.632-9.088-5.924-10.954-1.763,1.7-1.763,1.7-2.925,1.536-1.543,1.884l2.264.569s-2.108.94-1.228,1.162,2.781.431,2.781.431-1.463.7-1.116.923,5.07.191,6.529,4.289" transform="translate(5.696 17.732)" fill="#32d4c5"/>
        <path id="Path_873623" data-name="Path 873623" d="M19.515,48.169s.16-9.785,9.7-7.816.971,2.244.971,2.244,2.105,2.548.7,2.335l-2.308-.351s1.581,1.683.684,1.546-2.731-.676-2.731-.676,1.077,1.213.673,1.282-4.75-1.782-7.68,1.435" transform="translate(9.113 18.721)" fill="#32d4c5"/>
        <path id="Path_873624" data-name="Path 873624" d="M19.94,50.053a17.434,17.434,0,0,0,2.667-5.224c.481-2.28-.469-5.665-1.744-7.706s-.83,1.762-.83,1.762-1.372-.6-1.355-.15a6.112,6.112,0,0,0,1.031,1.735s-1.646-.254-1.222.166,2.456,6.317,1.454,9.416" transform="translate(8.6 17.054)" fill="#21c1ad"/>
        <path id="Path_873625" data-name="Path 873625" d="M58.629,60.457H57.312a.175.175,0,0,1-.175-.176V58.965a.175.175,0,0,1,.175-.176h1.317a.177.177,0,0,1,.176.176v1.316a.177.177,0,0,1-.176.176" transform="translate(26.681 27.452)" fill="#fff"/>
        <path id="Path_873626" data-name="Path 873626" d="M60.416,60.457H59.1a.175.175,0,0,1-.175-.176V58.965a.175.175,0,0,1,.175-.176h1.317a.177.177,0,0,1,.176.176v1.316a.177.177,0,0,1-.176.176" transform="translate(27.516 27.452)" fill="#fff"/>
        <path id="Path_873627" data-name="Path 873627" d="M62.2,60.457H60.885a.175.175,0,0,1-.175-.176V58.965a.175.175,0,0,1,.175-.176H62.2a.177.177,0,0,1,.176.176v1.316a.177.177,0,0,1-.176.176" transform="translate(28.35 27.452)" fill="#fff"/>
        <path id="Path_873628" data-name="Path 873628" d="M59.525,62.027H58.208a.175.175,0,0,1-.175-.176V60.535a.175.175,0,0,1,.175-.176h1.317a.177.177,0,0,1,.176.176v1.316a.177.177,0,0,1-.176.176" transform="translate(27.1 28.186)" fill="#fff"/>
        <path id="Path_873629" data-name="Path 873629" d="M61.312,62.027H59.995a.175.175,0,0,1-.175-.176V60.535a.175.175,0,0,1,.175-.176h1.317a.177.177,0,0,1,.176.176v1.316a.177.177,0,0,1-.176.176" transform="translate(27.934 28.186)" fill="#fff"/>
        <path id="Path_873630" data-name="Path 873630" d="M57.756,58.913H57.11V56.4h-.827v-.538h2.3V56.4h-.827Z" transform="translate(26.282 26.088)" fill="#fff"/>
        <path id="Path_873631" data-name="Path 873631" d="M59.84,58.7l-.123-.317H59.7a.931.931,0,0,1-.33.28,1.061,1.061,0,0,1-.443.078.708.708,0,0,1-.528-.192A.733.733,0,0,1,58.206,58a.613.613,0,0,1,.26-.546,1.483,1.483,0,0,1,.782-.2l.4-.013v-.1a.317.317,0,0,0-.362-.355,1.651,1.651,0,0,0-.657.169l-.21-.43a1.9,1.9,0,0,1,.892-.21,1.11,1.11,0,0,1,.719.2.755.755,0,0,1,.251.622V58.7Zm-.188-1.08-.246.009a.772.772,0,0,0-.412.1.316.316,0,0,0-.135.279c0,.179.1.27.308.27a.489.489,0,0,0,.354-.128.449.449,0,0,0,.132-.337Z" transform="translate(27.18 26.301)" fill="#fff"/>
        <path id="Path_873632" data-name="Path 873632" d="M60.819,57.5l-.75-1.14h.72l.452.742.458-.742h.72l-.758,1.14.794,1.19h-.723l-.49-.8-.491.8h-.72Z" transform="translate(28.032 26.316)" fill="#fff"/>
        <path id="Path_873633" data-name="Path 873633" d="M62.081,56.044c0-.208.114-.311.346-.311s.346.1.346.311a.3.3,0,0,1-.087.229.364.364,0,0,1-.26.084c-.232,0-.346-.1-.346-.312m.663,2.931h-.635v-2.33h.635Z" transform="translate(28.99 26.025)" fill="#fff"/>
      </g>
    </g>
  </g>
</svg>
