<svg xmlns="http://www.w3.org/2000/svg" xmlns:xlink="http://www.w3.org/1999/xlink" width="70" height="70" viewBox="0 0 70 70">
  <defs>
    <clipPath id="clip-path">
      <rect id="Rectangle_401141" data-name="Rectangle 401141" width="46" height="48" transform="translate(275.75 971.833)" fill="#fff" stroke="#707070" stroke-width="1"/>
    </clipPath>
    <clipPath id="clip-path-2">
      <rect id="Rectangle_401142" data-name="Rectangle 401142" width="43.333" height="43.146" fill="#6a4d23"/>
    </clipPath>
  </defs>
  <g id="Group_1100314" data-name="Group 1100314" transform="translate(-920 -6501)">
    <g id="Group_1099488" data-name="Group 1099488" transform="translate(651 5543)">
      <circle id="Ellipse_5614" data-name="Ellipse 5614" cx="35" cy="35" r="35" transform="translate(269 958)" fill="#fff"/>
      <g id="Mask_Group_1098690" data-name="Mask Group 1098690" transform="translate(5.25 -2.833)" clip-path="url(#clip-path)">
        <g id="Group_1099491" data-name="Group 1099491" transform="translate(277.083 974.26)">
          <g id="Group_1099490" data-name="Group 1099490" clip-path="url(#clip-path-2)">
            <path id="Path_873634" data-name="Path 873634" d="M21.747,0c.817.524,1.639,1.039,2.448,1.575,1.5,1,3,2,4.5,3a.7.7,0,0,1,.389.733.654.654,0,0,1-.567.553,1.779,1.779,0,0,1-.27.012H22.326V7.063c.532.089,1.047.16,1.555.263a11.177,11.177,0,0,1,7.79,5.99.231.231,0,0,0,.255.139q2.852,0,5.7,0a1.551,1.551,0,0,1,1.676,1.676c0,.353,0,.705,0,1.08.18,0,.34.011.5,0a1.4,1.4,0,0,1,1.512,1.5c.007.379,0,.757,0,1.143a7.559,7.559,0,0,1,.761.045,1.329,1.329,0,0,1,1.231,1.3,8.977,8.977,0,0,1-.026,1.58,1.266,1.266,0,0,1-1.293,1.115H40.444c-.063,0-.126.006-.2.009V36.37c.173.015.338.021.5.045a1.373,1.373,0,0,1,1.078.785,1.1,1.1,0,0,1,.106.443c.014.425,0,.85.005,1.276,0,.063.005.126.008.2a1.332,1.332,0,0,1,1.116.568,1.506,1.506,0,0,1,.265.892c.008.593.005,1.185,0,1.778a.733.733,0,0,1-.766.789c-.064,0-.129,0-.193,0H.987c-.065,0-.129,0-.193,0a.737.737,0,0,1-.784-.811c0-.535,0-1.07,0-1.6A1.424,1.424,0,0,1,1.4,39.1c0-.44.033-.886-.008-1.326a1.377,1.377,0,0,1,1.18-1.36c.076-.011.153-.021.23-.027.279-.023.279-.023.279-.308q0-6.087,0-12.175V22.887H2.313c-.277,0-.556-.019-.831,0A1.332,1.332,0,0,1,.028,21.634a9.993,9.993,0,0,1,0-1.467,1.4,1.4,0,0,1,1.447-1.3c.173-.006.346,0,.545,0,0-.377-.008-.742,0-1.106a2.846,2.846,0,0,1,.077-.551,1.314,1.314,0,0,1,1.322-1c.192.014.386,0,.608,0,0-.3-.008-.6,0-.9a3.3,3.3,0,0,1,.064-.689,1.481,1.481,0,0,1,1.564-1.17c1.431,0,2.862,0,4.293,0,.5,0,1.005,0,1.508,0a.177.177,0,0,0,.195-.109,10.9,10.9,0,0,1,3.778-4.329A11.111,11.111,0,0,1,19.448,7.33c.509-.1,1.025-.174,1.567-.264,0-.045.014-.126.014-.207q0-3.025,0-6.049c0-.513.083-.62.641-.81ZM41.921,20.272H1.417v1.3h40.5ZM40.626,37.733H2.954a.323.323,0,0,0-.134,0c-.046.023-.11.073-.111.112-.008.417,0,.834,0,1.259H40.626ZM11.148,30.195c0-.483,0-.966,0-1.449a3.712,3.712,0,0,0-.021-.6,2.332,2.332,0,0,0-2.232-1.865,2.356,2.356,0,0,0-2.459,2.425c.03.442.008.888.009,1.332,0,.67-.005,1.339.013,2.009a.586.586,0,0,0,.638.624q1.72.012,3.44,0a.586.586,0,0,0,.613-.645q0-.917,0-1.835m21.042.019q0,.908,0,1.816a.566.566,0,0,0,.634.649c.4.008.8,0,1.2,0,.728,0,1.456,0,2.184,0a.615.615,0,0,0,.682-.666c0-.064,0-.129,0-.193,0-1.088.007-2.176,0-3.264a2.056,2.056,0,0,0-.053-.478,2.378,2.378,0,0,0-2.876-1.731,2.287,2.287,0,0,0-1.782,2.227c.037.545.007,1.094.007,1.641m-8.836,6.192a1.337,1.337,0,0,0,.015-.141c0-1.867.009-3.735,0-5.6a1.7,1.7,0,1,0-3.4.029q0,2.028,0,4.057c0,.5,0,.992,0,1.487,0,.113.012.174.155.173,1.075-.006,2.15,0,3.233,0m-8.8-13.513V36.183c0,.032-.012.073,0,.095.032.048.077.123.118.124.417.009.834.006,1.255.006V22.892ZM28.771,36.407V22.9H27.394V36.18c0,.032,0,.065,0,.1-.009.1.037.133.137.132.411,0,.822,0,1.241,0M24.01,13.729a2.3,2.3,0,0,0-2.3-2.285A2.344,2.344,0,0,0,20,12.125a2.435,2.435,0,0,0-.682,1.931A2.384,2.384,0,0,0,21.639,16.2a2.32,2.32,0,0,0,2.371-2.474m13.9,1.131H32.318c.1.391.2.763.273,1.139.032.154.084.206.249.206,1.572,0,3.144.011,4.716.018h.349ZM5.436,16.2a.762.762,0,0,0,.084.011q2.523,0,5.046,0c.109,0,.146-.047.164-.143.03-.158.068-.314.107-.47.059-.242.122-.483.186-.735H5.436ZM22.346,1.915a.533.533,0,0,0-.032.1c0,.8.005,1.6,0,2.393,0,.128.076.124.165.124l3.534,0a1.612,1.612,0,0,0,.192-.03L22.346,1.915" transform="translate(0)" fill="#6a4d23"/>
          </g>
        </g>
      </g>
    </g>
  </g>
</svg>
