<svg xmlns="http://www.w3.org/2000/svg" xmlns:xlink="http://www.w3.org/1999/xlink" width="70" height="70" viewBox="0 0 70 70">
  <defs>
    <clipPath id="clip-path">
      <rect id="Rectangle_401144" data-name="Rectangle 401144" width="46" height="48" transform="translate(275.75 971.833)" fill="#fff" stroke="#707070" stroke-width="1"/>
    </clipPath>
    <clipPath id="clip-path-2">
      <rect id="Rectangle_401145" data-name="Rectangle 401145" width="44" height="39.722" fill="#6a4d23"/>
    </clipPath>
  </defs>
  <g id="Group_1100315" data-name="Group 1100315" transform="translate(-1230 -6501)">
    <g id="Group_1100280" data-name="Group 1100280">
      <g id="Group_1099489" data-name="Group 1099489" transform="translate(961 5543)">
        <circle id="Ellipse_5614" data-name="Ellipse 5614" cx="35" cy="35" r="35" transform="translate(269 958)" fill="#fff"/>
      </g>
      <g id="Mask_Group_1098691" data-name="Mask Group 1098691" transform="translate(966.25 5540.167)" clip-path="url(#clip-path)">
        <g id="Group_1099494" data-name="Group 1099494" transform="translate(276.75 975.833)">
          <g id="Group_1099492" data-name="Group 1099492" clip-path="url(#clip-path-2)">
            <path id="Path_873635" data-name="Path 873635" d="M68.064,118.52q-2.987,0-5.974,0c-.92,0-1.347-.417-1.347-1.333q0-2.941,0-5.883a7.412,7.412,0,0,1,5.1-7.05,7.255,7.255,0,0,1,8.825,3.863,7.742,7.742,0,0,1,.738,3.394c-.016,1.891,0,3.782,0,5.672,0,.944-.429,1.353-1.394,1.345q-2.491-.021-4.983-.033c-.32,0-.64,0-.961,0v.023" transform="translate(-46.073 -78.808)" fill="#6a4d23"/>
            <path id="Path_873636" data-name="Path 873636" d="M6.32,131.726q-2.491,0-4.982,0a1.187,1.187,0,0,1-1.324-1.309c-.005-.97-.033-1.941,0-2.91a6.329,6.329,0,0,1,5.209-6.1,6.245,6.245,0,0,1,6.885,3.817,6.507,6.507,0,0,1,.43,2.525q.011,1.38,0,2.76a1.085,1.085,0,0,1-1.247,1.221q-2.491,0-4.981,0v0" transform="translate(0 -92.014)" fill="#6a4d23"/>
            <path id="Path_873637" data-name="Path 873637" d="M136.48,131.7q-2.492,0-4.984,0c-.8,0-1.216-.348-1.219-1.147-.005-1.309-.04-2.626.086-3.926a5.76,5.76,0,0,1,2.973-4.474,6.2,6.2,0,0,1,9.14,3.63,9.523,9.523,0,0,1,.3,2.035c.051.857.014,1.72.012,2.581a1.184,1.184,0,0,1-1.329,1.3c-1.661-.005-3.322,0-4.984,0" transform="translate(-98.808 -91.986)" fill="#6a4d23"/>
            <path id="Path_873638" data-name="Path 873638" d="M36.88,44.98a7.437,7.437,0,0,0-2.389,6.034,7.346,7.346,0,0,0,3.226,5.569,9.542,9.542,0,0,0-5.094,6.354,8,8,0,0,0-2.668-2.151,1.561,1.561,0,0,1,.17-.205,6.211,6.211,0,0,0,2.258-5.4,6.037,6.037,0,0,0-2.859-4.785,5.61,5.61,0,0,0-3.13-.991c-.238,0-.288-.093-.264-.308a6.321,6.321,0,0,1,3.718-5.378,5.705,5.705,0,0,1,4.231-.346,6.09,6.09,0,0,1,2.533,1.441,1.645,1.645,0,0,0,.267.168" transform="translate(-19.815 -32.703)" fill="#6a4d23"/>
            <path id="Path_873639" data-name="Path 873639" d="M108.033,56.525a7.332,7.332,0,0,0,3.231-5.574,7.43,7.43,0,0,0-2.386-6.037c.525-.368.984-.738,1.486-1.033a5.565,5.565,0,0,1,4.569-.6,6.349,6.349,0,0,1,4.562,4.842,5.42,5.42,0,0,1,.129.8c.036.4.027.418-.385.429a5.591,5.591,0,0,0-2.907.929,6.006,6.006,0,0,0-2.908,4.433,6.164,6.164,0,0,0,1.3,4.868c.231.286.509.535.768.8.11.112.227.217.355.339a7.926,7.926,0,0,0-2.712,2.16,9.5,9.5,0,0,0-1.827-3.75,9.747,9.747,0,0,0-3.271-2.6" transform="translate(-81.942 -32.64)" fill="#6a4d23"/>
            <path id="Path_873640" data-name="Path 873640" d="M79.917,57.224a5.215,5.215,0,1,1-5.011-5.344,5.283,5.283,0,0,1,5.011,5.344" transform="translate(-52.706 -39.349)" fill="#6a4d23"/>
            <path id="Path_873641" data-name="Path 873641" d="M143.043,77.984a4.17,4.17,0,0,1,4.164,4.1,4.159,4.159,0,1,1-8.318.032,4.17,4.17,0,0,1,4.154-4.135" transform="translate(-105.346 -59.149)" fill="#6a4d23"/>
            <path id="Path_873642" data-name="Path 873642" d="M13.022,77.973a4.168,4.168,0,1,1-4.145,4.18,4.169,4.169,0,0,1,4.145-4.18" transform="translate(-6.733 -59.138)" fill="#6a4d23"/>
            <path id="Path_873643" data-name="Path 873643" d="M43.092,4.181a4.141,4.141,0,0,1-4.124,4.145,4.244,4.244,0,0,1-4.2-4.175A4.169,4.169,0,0,1,39.022.008a4.105,4.105,0,0,1,4.07,4.174" transform="translate(-26.37 -0.006)" fill="#6a4d23"/>
            <path id="Path_873644" data-name="Path 873644" d="M112.932,4.122A4.11,4.11,0,0,1,117.056,0a4.172,4.172,0,0,1,4.185,4.186,4.2,4.2,0,0,1-4.2,4.134,4.152,4.152,0,0,1-4.107-4.2" transform="translate(-85.652 0)" fill="#6a4d23"/>
          </g>
        </g>
      </g>
    </g>
  </g>
</svg>
