<svg xmlns="http://www.w3.org/2000/svg" xmlns:xlink="http://www.w3.org/1999/xlink" width="400" height="295.303" viewBox="0 0 400 295.303">
  <defs>
    <clipPath id="clip-path">
      <rect id="Rectangle_402005" data-name="Rectangle 402005" width="247.366" height="265.817" fill="none"/>
    </clipPath>
  </defs>
  <g id="Group_1100315" data-name="Group 1100315" transform="translate(-180 -6006)">
    <g id="Group_1017008" data-name="Group 1017008" transform="translate(0 4281)">
      <g id="Image_Place_Holder" data-name="Image Place Holder" transform="translate(180 1749.534)">
        <rect id="Image_Place_Holder-2" data-name="Image Place Holder" width="400" height="270.769" rx="10" fill="#feebcf"/>
      </g>
      <g id="humaaans_sitting-1" data-name="humaaans/sitting-1" transform="translate(255.104 1725)">
        <g id="Group_1099878" data-name="Group 1099878" transform="translate(0.896)">
          <g id="Group_1099877" data-name="Group 1099877" clip-path="url(#clip-path)">
            <path id="Path_876764" data-name="Path 876764" d="M94.278,148.39a3.128,3.128,0,0,1,1.81-3.155c2.24-1,5.36,1.833,6.767,3.323A16.032,16.032,0,0,1,106.787,156c.244,1.082.6,2.793,1.389,3.609,1.64,1.692,2.339-1.564,2.467-2.925.387-4.1-1.855-7.844-3.908-11.215-3.327-5.461-13-9.808-7.359-17.3a4.9,4.9,0,0,1,2.975-2.093c4.239-.66,7.29,5.45,8.528,8.586.446,1.129.662,2.618,1.506,3.541,1.567,1.711,2.761-.392,3.032-2.054a11.988,11.988,0,0,0-.479-5.017,70.275,70.275,0,0,0-3.944-9.859c-1.252-2.819-2.925-5.913-1.366-8.972a4.1,4.1,0,0,1,4.19-2.342,5.447,5.447,0,0,1,3.4,2.334,12.3,12.3,0,0,1,1.852,4.343c.191.822.083,3.169.991,3.615a1,1,0,0,0,1.173-.387c2.079-2.815.52-6.905-.691-9.742a42.5,42.5,0,0,1-2.887-8.047c-.432-2.107-.885-7.291,2.178-7.8,1.5-.247,2.753,1.222,3.215,2.671a16.783,16.783,0,0,0,1.666,3.966c-.452-.732,1.035-3.955,1.339-4.717a24.706,24.706,0,0,1,2.569-4.8A23.773,23.773,0,0,1,136.67,84c1.394-.772,2.793-1.27,4.32-.493a8.495,8.495,0,0,1,3.169,3.375,5.618,5.618,0,0,1,.8,3.512c-.54,3.791-5.3,5.732-7.6,8.321a8.027,8.027,0,0,0-1.977,6.584c-.15-.9,4.206-2.972,4.928-3.16a4.867,4.867,0,0,1,4.58.918,4.16,4.16,0,0,1,1.14,3.2c-.228,3.98-4.114,5.867-7.165,7.548a55.971,55.971,0,0,0-9.358,6.477c.6.5,1.485.025,2.12-.427a35.1,35.1,0,0,1,5.955-3.405c1.455-.652,3.123-1.246,4.595-.28a3.423,3.423,0,0,1,1.448,3.4c-.315,1.7-1.846,3.015-2.853,4.338a20.805,20.805,0,0,1-3.805,3.839c-3.062,2.411-6.649,4.448-8.709,7.879a1.74,1.74,0,0,0-.307,1.567c.4.855,1.671.621,2.517.2,2.019-.994,3.947-2.27,6.151-2.728s4.853.167,5.911,2.153a5.032,5.032,0,0,1-.691,5.192,13.161,13.161,0,0,1-4.311,3.388c-5.229,2.949-11.1,5.688-13.812,11.041,5.144-2.829,11.175-5.086,16.8-3.4,1.479.446,3.075,1.433,3.164,2.975a3.859,3.859,0,0,1-1.95,3.078c-3.835,2.742-8.866,3.117-13.1,5.195a17.91,17.91,0,0,0-8.014,8.074c-1.137,2.282-1.158,7.223-3.716,8.444-2.764,1.32-5.228-3.013-6.22-4.968-1.646-3.242-2.531-6.926-4.7-9.873-2.443-3.312-5.844-6-8.369-9.321-1.126-1.481-3.311-5.349-3.325-8.265" transform="translate(54.219 47.8)" fill="#2c6109"/>
            <path id="Path_876765" data-name="Path 876765" d="M75.12,142A2.6,2.6,0,0,0,73,139.845c-2.011-.332-3.924,2.6-4.739,4.1a13.325,13.325,0,0,0-1.594,6.815,6.918,6.918,0,0,1-.358,3.193c-.961,1.707-2.21-.764-2.6-1.83-1.175-3.212-.162-6.7.78-9.841,1.523-5.092,8.384-10.626,2.268-15.464a4.079,4.079,0,0,0-2.832-1.057c-3.547.364-4.713,5.919-5.048,8.7a9.2,9.2,0,0,1-.465,3.164c-.9,1.706-2.3.268-2.87-1.011a9.945,9.945,0,0,1-.673-4.136,58.6,58.6,0,0,1,1.093-8.758c.414-2.53,1.106-5.37-.792-7.5a3.409,3.409,0,0,0-3.862-1,4.51,4.51,0,0,0-2.238,2.593,10.162,10.162,0,0,0-.575,3.883c.019.7.6,2.564-.036,3.114a.828.828,0,0,1-1.025-.063c-2.263-1.826-1.873-5.444-1.495-7.979a35.384,35.384,0,0,0,.624-7.078c-.1-1.785-.824-6.05-3.394-5.811-1.26.117-1.956,1.562-2.022,2.824a13.879,13.879,0,0,1-.5,3.541c.209-.685-1.665-2.961-2.071-3.511a20.435,20.435,0,0,0-3.078-3.322,19.776,19.776,0,0,0-8.028-4.246,3.618,3.618,0,0,0-3.577.515,7.056,7.056,0,0,0-1.837,3.382,4.661,4.661,0,0,0,.1,2.991c1.232,2.936,5.467,3.492,7.864,5.091a6.667,6.667,0,0,1,2.975,4.877c-.068-.754-4.007-1.5-4.628-1.5a4.045,4.045,0,0,0-3.49,1.7,3.465,3.465,0,0,0-.241,2.816c1.022,3.152,4.544,3.85,7.351,4.558a46.568,46.568,0,0,1,8.89,3.235c-.378.528-1.189.334-1.8.1a29.182,29.182,0,0,0-5.5-1.482c-1.309-.217-2.775-.345-3.753.743a2.844,2.844,0,0,0-.449,3.037c.613,1.3,2.12,2.035,3.208,2.887a17.3,17.3,0,0,0,3.868,2.284c2.971,1.295,6.283,2.175,8.663,4.5a1.443,1.443,0,0,1,.576,1.2c-.14.77-1.213.851-1.98.695a22.326,22.326,0,0,0-5.521-.9c-1.868.095-3.865,1.156-4.3,2.975a4.181,4.181,0,0,0,1.649,4.029,10.914,10.914,0,0,0,4.18,1.815c4.826,1.27,10.12,2.237,13.432,5.968-4.732-1.191-10.057-1.736-14.222.81-1.095.669-2.169,1.8-1.917,3.059a3.21,3.21,0,0,0,2.218,2.063c3.661,1.4,7.786.638,11.626,1.416a14.884,14.884,0,0,1,8.145,4.8c1.4,1.594,2.454,5.563,4.766,6.006,2.5.479,3.569-3.523,3.955-5.307.641-2.953.575-6.1,1.7-8.928,1.266-3.179,3.434-6.055,4.763-9.26.594-1.427,1.536-5,.932-7.345" transform="translate(12.569 56.895)" fill="#2c6109"/>
            <path id="Path_876766" data-name="Path 876766" d="M132.1,152.015c-3.484-3.144-7.8-7.371-7.743-12.44a4.633,4.633,0,0,1,.588-2.18,1.532,1.532,0,0,1,1.777-.828,2.077,2.077,0,0,1,.824.493c2.095,1.83,3.489,4.647,4.741,7.078,1.21,2.352,2.2,4.834,4.081,6.748.011.011.025.019.036.03q1.058-1.682,2.2-3.5a18.946,18.946,0,0,1-5.971-9.3,12.227,12.227,0,0,1-.206-6.545,5.31,5.31,0,0,1,1.551-2.686,2.454,2.454,0,0,1,1.249-.553c1.525-.2,2.522,1.3,2.738,2.634.643,3.977-1.178,8.047,1.495,11.64a8.813,8.813,0,0,0,1.34,1.408q1.956-2.946,3.827-5.344c-4.45-3.238-5.28-8.121-3.764-13.289a6.828,6.828,0,0,1,1.547-2.873,4.3,4.3,0,0,1,.446-.4c2.222-1.729,4.894-.254,4.969,2.463a10.057,10.057,0,0,1-.753,3.5c-.679,1.972-2.3,4.85-1.778,6.956a4.785,4.785,0,0,0,.876,1.707c1.465-1.763,2.87-3.275,4.2-4.587a4.513,4.513,0,0,1-.317-1.569c-.128-4.259,2.062-8.391,3.914-12.1a7.927,7.927,0,0,1,2.074-2.537,2.055,2.055,0,0,1,2.263-.361,2.178,2.178,0,0,1,.857,2.641,6.7,6.7,0,0,1-1.035,1.794c-1.444,2-5.469,6.157-4.527,9.2a31.878,31.878,0,0,1,6.308-4.161c-.428-1.819.529-3.739,1.643-5.433.5-.764,1.021-1.481,1.422-2.117a7.823,7.823,0,0,1,2.856-3.01c1.229-.6,3.955-.126,3.163,1.813a4.006,4.006,0,0,1-1.466,1.54,11.585,11.585,0,0,0-2.908,2.892,2.459,2.459,0,0,0-.476,1.37.537.537,0,0,0,.121.359c.23.235.619.006.858-.219,1.333-1.251,8.873-9.454,10.9-6.376a1.8,1.8,0,0,1-.265,1.977,19.322,19.322,0,0,1-4.645,4.4c-.324.225-5.292,3.114-4.677,3.672.422.383,1.085.079,1.559-.233,1.725-1.134,3.434-2.3,5.193-3.377,1.851-1.137,5.979-3.412,6.579.424a2.526,2.526,0,0,1-.178,1.413,3.628,3.628,0,0,1-1.9,1.706,29.307,29.307,0,0,1-11.577,2.405,9.2,9.2,0,0,1-4.5-.912A27.775,27.775,0,0,0,155.6,131.2a8.28,8.28,0,0,0,3.75-.134c2.145-.438,4.273-1,6.455-1.227,1.706-.178,5.042-.523,6.211,1.1a2.195,2.195,0,0,1,.087,2.222,4.864,4.864,0,0,1-2.9,2.1c-4.932,1.78-12.18,2-16.86-1.123a59.7,59.7,0,0,0-4.032,4.4,6.819,6.819,0,0,0,.988.46,24.892,24.892,0,0,0,4.4.956,17.557,17.557,0,0,0,7.652-.525c1.177-.354,2.312-.832,3.487-1.192a5.646,5.646,0,0,1,3.338-.214,2.421,2.421,0,0,1,1.769,2.553c-.269,1.37-1.9,1.93-3.281,2.148a34.093,34.093,0,0,1-10.824-.041c-.895-.15-1.785-.336-2.67-.54a29.045,29.045,0,0,1-6.119-2.022c-1.26,1.607-2.561,3.4-3.9,5.412a20.5,20.5,0,0,0,8.326,1.7,45.108,45.108,0,0,0,10.005-1.125,14.772,14.772,0,0,1,4.013-.493,2.126,2.126,0,0,1,1.967,1.1,1.841,1.841,0,0,1-.013,1.106c-1.216,4.431-8.238,5.236-11.994,5.141a34.526,34.526,0,0,1-13.371-3.345c-.4-.186-.78-.408-1.162-.624l-2.243,3.575a27.581,27.581,0,0,0,4.187,1.788A33.11,33.11,0,0,0,158.379,156a10.557,10.557,0,0,1,2.394-.169,2.919,2.919,0,0,1,2.092,1.04c.91,1.222.191,3.1-1.1,3.914a7.353,7.353,0,0,1-4.434.723,46.479,46.479,0,0,1-20.47-6.039q-1.451,2.32-2.73,4.371c.658.321,1.323.616,1.981.862a27.617,27.617,0,0,0,8.6,1.57c2.377.088,5.872-.75,7.729,1.189a2.211,2.211,0,0,1,.18,3.019,2.893,2.893,0,0,1-1.172.64c-2.876.9-6.776.227-9.668-.315a41.468,41.468,0,0,1-9.95-3.257c-.662,1.071-1.271,2.063-1.854,3.013.808.361,1.626.69,2.441.978,3.257,1.155,6.949,1.066,10.048,2.662a3.113,3.113,0,0,1,1.356,1.15,1.725,1.725,0,0,1-1.114,2.382c-2.487.9-6.144-.934-8.458-1.737-2.063-.715-4.1-1.542-6.1-2.426-2.248,3.733-3.755,6.378-4.717,8.312a1.515,1.515,0,1,1-2.7-1.364c.991-1.952,2.5-4.532,4.749-8.18-.28-.139-.575-.252-.854-.394a17.976,17.976,0,0,1-5.313-3.9c-.813-.909-2.252-2.7-1.712-4.015.439-1.069,1.977-1.136,3.03-.66,1.5.679,2.506,2.082,3.583,3.268a14.584,14.584,0,0,0,3.212,2.566c.586-.94,1.2-1.923,1.866-2.985-4.2-2.413-8.006-5.907-8.384-11.057-.019-.269-.027-.54-.022-.81a2.694,2.694,0,0,1,.9-2.226l.02-.014c1.7-1.133,3.44,1.23,4.229,2.413,1.511,2.259,2.574,4.9,4.5,6.86a10.4,10.4,0,0,0,1.167,1.006q1.311-2.084,2.805-4.456a29.218,29.218,0,0,1-2.4-1.922" transform="translate(67.562 65.708)" fill="#2c6109"/>
            <path id="Path_876767" data-name="Path 876767" d="M87.264,124.68c3.829-2.714,8.611-6.408,9.147-11.448A4.636,4.636,0,0,0,96.082,111a1.532,1.532,0,0,0-1.668-1.03,2.09,2.09,0,0,0-.874.392c-2.295,1.574-4.01,4.209-5.538,6.477-1.476,2.193-2.745,4.543-4.842,6.223-.013.009-.028.016-.041.025l-1.778-3.736a18.942,18.942,0,0,0,7.019-8.537,12.217,12.217,0,0,0,.97-6.474,5.287,5.287,0,0,0-1.227-2.849,2.439,2.439,0,0,0-1.173-.695c-1.493-.375-2.657.992-3.027,2.293-1.1,3.876.227,8.131-2.848,11.386a8.811,8.811,0,0,1-1.5,1.241q-1.6-3.154-3.175-5.755c4.8-2.695,6.193-7.447,5.294-12.757a6.818,6.818,0,0,0-1.2-3.034,4.281,4.281,0,0,0-.4-.449c-2.005-1.977-4.831-.824-5.223,1.865a10.055,10.055,0,0,0,.337,3.563c.444,2.038,1.718,5.086.953,7.116a4.776,4.776,0,0,1-1.069,1.592c-1.249-1.922-2.467-3.587-3.637-5.047a4.532,4.532,0,0,0,.5-1.52c.625-4.217-1.065-8.576-2.471-12.473A7.924,7.924,0,0,0,67.7,86.054a2.053,2.053,0,0,0-2.205-.622,2.176,2.176,0,0,0-1.161,2.522,6.715,6.715,0,0,0,.817,1.9c1.2,2.152,4.711,6.754,3.42,9.665a31.928,31.928,0,0,0-5.777-4.87c.636-1.756-.088-3.776-1-5.587-.41-.817-.84-1.589-1.166-2.27a7.811,7.811,0,0,0-2.484-3.323C57,82.735,54.239,82.885,54.8,84.9a4.017,4.017,0,0,0,1.276,1.7,11.553,11.553,0,0,1,2.549,3.212,2.438,2.438,0,0,1,.312,1.416.524.524,0,0,1-.162.342c-.255.206-.614-.065-.825-.317-1.177-1.4-7.707-10.427-10.079-7.608a1.8,1.8,0,0,0,.032,1.993A19.251,19.251,0,0,0,52,90.555c.3.261,4.891,3.711,4.213,4.195-.463.329-1.085-.05-1.52-.416-1.581-1.328-3.141-2.682-4.763-3.961-1.706-1.345-5.538-4.087-6.584-.35a2.559,2.559,0,0,0,.011,1.424,3.624,3.624,0,0,0,1.69,1.917,29.3,29.3,0,0,0,11.215,3.744,9.193,9.193,0,0,0,4.58-.378,27.812,27.812,0,0,1,5.516,4.533,8.314,8.314,0,0,1-3.709-.572C60.57,100,58.522,99.2,56.381,98.716c-1.673-.376-4.946-1.109-6.3.365a2.188,2.188,0,0,0-.345,2.2,4.856,4.856,0,0,0,2.637,2.424c4.691,2.345,11.864,3.412,16.876.858a59.659,59.659,0,0,1,3.49,4.845,7.164,7.164,0,0,1-1.035.342,25.091,25.091,0,0,1-4.478.433,17.566,17.566,0,0,1-7.538-1.416c-1.126-.49-2.2-1.1-3.323-1.592a5.638,5.638,0,0,0-3.29-.6,2.419,2.419,0,0,0-2.054,2.328c.107,1.392,1.662,2.139,3.005,2.517a34.09,34.09,0,0,0,10.755,1.227c.907-.044,1.813-.124,2.715-.224a29.08,29.08,0,0,0,6.315-1.292c1.063,1.742,2.144,3.679,3.234,5.829a20.453,20.453,0,0,1-8.468.715,44.944,44.944,0,0,1-9.8-2.289,14.816,14.816,0,0,0-3.928-.958,2.127,2.127,0,0,0-2.082.857,1.849,1.849,0,0,0-.118,1.1c.69,4.541,7.57,6.163,11.311,6.51a34.525,34.525,0,0,0,13.672-1.759c.422-.135.822-.312,1.225-.482q.94,1.98,1.81,3.813a27.548,27.548,0,0,1-4.366,1.285,33.125,33.125,0,0,1-15.6-.18,10.46,10.46,0,0,0-2.358-.449,2.915,2.915,0,0,0-2.2.788c-1.047,1.107-.551,3.06.635,4.017A7.352,7.352,0,0,0,61.1,131.16a46.486,46.486,0,0,0,21.035-3.6q1.17,2.471,2.2,4.659c-.691.241-1.386.457-2.068.624a27.614,27.614,0,0,1-8.724.554c-2.371-.191-5.743-1.432-7.816.276a2.213,2.213,0,0,0-.531,2.979,2.9,2.9,0,0,0,1.088.772c2.752,1.229,6.7,1.018,9.64.817a41.429,41.429,0,0,0,10.262-2.071c.532,1.142,1.022,2.2,1.488,3.212-.844.263-1.695.495-2.537.685-3.371.764-7.027.246-10.29,1.468a3.109,3.109,0,0,0-1.482.983,1.725,1.725,0,0,0,.827,2.495c2.366,1.184,6.211-.208,8.6-.734,2.134-.469,4.248-1.054,6.345-1.695,1.8,3.969,2.982,6.773,3.713,8.8a1.514,1.514,0,1,0,2.845-1.036c-.754-2.055-1.956-4.795-3.758-8.68.295-.1.6-.183.895-.291a17.953,17.953,0,0,0,5.732-3.254c.914-.806,2.553-2.419,2.171-3.788-.312-1.114-1.83-1.358-2.933-1.008-1.572.5-2.733,1.774-3.941,2.826a14.6,14.6,0,0,1-3.489,2.172c-.473-1-.967-2.049-1.506-3.183,4.458-1.9,8.644-4.928,9.621-10,.052-.265.091-.534.117-.8a2.692,2.692,0,0,0-.63-2.315l-.02-.017c-1.55-1.322-3.558.821-4.481,1.9-1.764,2.068-3.13,4.565-5.272,6.286a10.426,10.426,0,0,1-1.277.863q-1.058-2.223-2.265-4.752a29.314,29.314,0,0,0,2.61-1.629" transform="translate(24.873 47.771)" fill="#2c6109"/>
            <path id="Path_876768" data-name="Path 876768" d="M181.457,162.4c-1.47-3.821-4.947-7.049-9.032-7.324-4.565-.307-9.118,2.945-13.48,1.564-3.629-1.148-5.554-5.021-6.951-8.562-4.309-10.928-7.56-22.585-16.865-30.653-4.787-4.152-11.062-6.483-17.329-5.549-17.2,2.564-21.472,26.912-37.391,32.849a6.67,6.67,0,0,1-4.877.3c-1.772-.759-2.723-2.641-3.99-4.1-3.753-4.3-10.843-4.647-15.634-1.539s-7.348,8.936-7.576,14.642c-.246,6.11.887,14.113-4.7,16.591-3.769,1.671-8.7-.625-11.786,2.9a7.053,7.053,0,0,0-1.3,6.4,11.344,11.344,0,0,0,1.928,3.952,13.521,13.521,0,0,0,10.944,5.231L166.98,189a13.85,13.85,0,0,0,12.95-8.643,43.125,43.125,0,0,0,1.813-5.864c.931-3.985,1.183-8.272-.287-12.092" transform="translate(17.417 64.222)" fill="#666b39"/>
            <path id="Path_876769" data-name="Path 876769" d="M115.54,166.324c-1.123-2.92-3.78-5.387-6.9-5.6-3.49-.235-6.97,2.251-10.3,1.2-2.772-.879-4.243-3.837-5.311-6.545-3.294-8.351-5.777-17.262-12.889-23.428a16.688,16.688,0,0,0-13.245-4.24c-13.143,1.959-16.411,20.569-28.577,25.106a5.1,5.1,0,0,1-3.728.228c-1.355-.58-2.082-2.019-3.049-3.13-2.87-3.289-8.287-3.552-11.949-1.175s-5.617,6.828-5.792,11.189c-.187,4.67.679,10.786-3.593,12.68-2.882,1.277-6.65-.477-9.01,2.218a5.386,5.386,0,0,0-1,4.891,8.646,8.646,0,0,0,1.474,3.021,10.326,10.326,0,0,0,8.364,4l94.443-.08a10.588,10.588,0,0,0,9.9-6.606,32.758,32.758,0,0,0,1.386-4.481,15.85,15.85,0,0,0-.219-9.243" transform="translate(0 73.355)" fill="#788f55"/>
            <path id="Path_876770" data-name="Path 876770" d="M190.208,177.549c-1.276-.446-2.693-.129-4.016-.387-2.637-.515-4.322-3.161-5.034-5.749s-.788-5.351-1.8-7.838-3.426-4.744-6.077-4.317a20.718,20.718,0,0,0-3.517,1.385c-5.1,1.833-10.364-2.813-12.489-7.8-2.774-6.515-2.725-14.248-9.123-19a16.223,16.223,0,0,0-16.789-1.728c-5.8,2.89-9.084,8.909-12.487,14.368-3.3,5.3-7.575,10.734-13.689,11.977-5.16,1.047-11.1-1.029-15.444,1.945-4.656,3.186-4.447,10.159-2.665,15.512,1.4,4.217,4.3,8.791,8.747,8.921l92.542.282c3.678.011,5.664-4.68,2.823-7.014a3.182,3.182,0,0,0-.978-.559" transform="translate(49.403 75.066)" fill="#717944"/>
            <path id="Path_876771" data-name="Path 876771" d="M157.147,167.644a6.936,6.936,0,0,0-1.729-2.649c-3.771-4.141-8.46-8.241-14.061-8.252a19.509,19.509,0,0,0-7.379,1.835c-3.134,1.3-6.311,2.923-8.263,5.7s-2.23,6.99.221,9.337c2.7,2.582,6.9,2.018,10.3,1.986a79.094,79.094,0,0,0,13.124-1.074c3.177-.565,9.036-2.43,7.786-6.883" transform="translate(71.413 90.143)" fill="#c7b5ae"/>
            <path id="Path_876772" data-name="Path 876772" d="M123.138,17.372H100.446V14.53a3.249,3.249,0,0,1,3.248-3.249h16.2a3.249,3.249,0,0,1,3.249,3.249Z" transform="translate(57.767 6.488)" fill="#56241d"/>
            <path id="Path_876773" data-name="Path 876773" d="M143.673,22.73a8.936,8.936,0,0,0-8.937-8.936H89.217A8.936,8.936,0,0,0,80.28,22.73v98.349a8.936,8.936,0,0,0,8.937,8.936H125.8a8.936,8.936,0,0,0,8.937-8.936V63.855a8.936,8.936,0,0,0,8.937-8.936Z" transform="translate(46.169 7.933)" fill="#717944"/>
            <path id="Path_876774" data-name="Path 876774" d="M142.342,22.73a8.936,8.936,0,0,0-8.937-8.936H113.086a8.936,8.936,0,0,0-8.937,8.936v98.349a8.936,8.936,0,0,0,8.937,8.936h11.382a8.936,8.936,0,0,0,8.937-8.936V63.855a8.936,8.936,0,0,0,8.937-8.936Z" transform="translate(59.896 7.933)" fill="#788f55"/>
            <path id="Path_876775" data-name="Path 876775" d="M120.6,88.657h-8.734a4.427,4.427,0,0,1-4.428-4.428V65.2H125.03V84.23a4.427,4.427,0,0,1-4.428,4.428" transform="translate(61.789 37.499)" fill="#717944"/>
            <path id="Path_876776" data-name="Path 876776" d="M122.1,71.77H108.805V60.434a6.645,6.645,0,0,1,13.291,0Z" transform="translate(62.574 30.935)" fill="#dd5c66"/>
            <rect id="Rectangle_402003" data-name="Rectangle 402003" width="39.609" height="10.424" transform="translate(153.692 71.758)" fill="#56241d"/>
            <rect id="Rectangle_402004" data-name="Rectangle 402004" width="3.322" height="50.033" transform="translate(185.159 21.725)" fill="#717944"/>
            <path id="Path_876777" data-name="Path 876777" d="M86.933,120.17s-1.859,9.4,1.076,13.7,43.821,44.407,43.821,44.407l8.217-7.238s-8.413-8.413-9.978-12.325-18.192-24.063-25.039-26.605-1.344-14.069-1.344-14.069Z" transform="translate(49.661 67.888)" fill="#dd8f54"/>
            <path id="Path_876778" data-name="Path 876778" d="M100.282,49.725s1.271,1.465-.306,4.7c-4.226,8.66-15.022,25.972-20.717,31.27C71.439,92.968,43.148,97.8,43.148,97.8l-3.3-7.31s27.67-9.032,31.593-12.676S87.629,46.7,87.629,46.7Z" transform="translate(22.918 26.858)" fill="#f5ba87"/>
            <path id="Path_876779" data-name="Path 876779" d="M141.817,55.833s-14.672-22.889-20.834-24.943-23.477-2.347-30.519,0S76.085,37.16,74.326,42.536s-6.359,17.627-6.359,17.627l17.216,3.005L84.6,118.043l41.082,2.054L124.5,61.408Z" transform="translate(39.088 16.814)" fill="#ffb937"/>
            <path id="Path_876780" data-name="Path 876780" d="M118.344,46.7s16.329,23.444,19.262,33.715,7.044,37.854,7.044,37.854l-10.271,2.641s-5.869-31.956-7.335-37.106-23.182-32.441-23.182-32.441Z" transform="translate(59.731 26.858)" fill="#f5ba87"/>
            <path id="Path_876781" data-name="Path 876781" d="M79.111,56.315l2.249-15.162,1.566,64.754,36.681,7.337-41.083-2.056Z" transform="translate(45.159 23.667)" fill="#c98f23"/>
            <path id="Path_876782" data-name="Path 876782" d="M105.825,52.412l-5.379-7.532,5.833,30.176Z" transform="translate(57.767 25.81)" fill="#5d6169"/>
            <path id="Path_876783" data-name="Path 876783" d="M78.524,85.618l7.434,53.9,28.834-2.819s-1.792-15.631-.227-22.281,5.176-19.977,5.04-26.74Z" transform="translate(45.159 49.239)" fill="#412e11"/>
            <path id="Path_876784" data-name="Path 876784" d="M85.959,134.9,79.166,85.651l-.641-.033,7.434,53.9,28.832-2.821s-.213-1.862-.428-4.574Z" transform="translate(45.16 49.239)" fill="#ffb937"/>
            <path id="Path_876785" data-name="Path 876785" d="M125.177,87.539s-8.51,24.063-19.221,36.681-11.591,18.487-11.591,18.487L68.836,128.327S89.048,96.487,91.413,85.85Z" transform="translate(39.588 49.372)" fill="#6a4d23"/>
            <path id="Path_876786" data-name="Path 876786" d="M89.8,118.4l-9.537-6.1a1.948,1.948,0,0,1-.592-2.689l8.038-12.571,12.817,8.2-8.036,12.569a1.945,1.945,0,0,1-2.689.592" transform="translate(45.644 55.809)" fill="#946624"/>
            <path id="Path_876787" data-name="Path 876787" d="M97.371,108.19,83.859,99.552a1.251,1.251,0,0,1-.38-1.726l.989-1.548A1.25,1.25,0,0,1,86.2,95.9l13.511,8.638a1.25,1.25,0,0,1,.38,1.726L99.1,107.81a1.25,1.25,0,0,1-1.726.38" transform="translate(47.896 55.038)" fill="#ffb937"/>
            <path id="Path_876788" data-name="Path 876788" d="M71.636,109.962c-1.7,2.769-2.8,4.5-2.8,4.5l25.529,14.378a18.233,18.233,0,0,1,2.005-4.944Z" transform="translate(39.588 63.239)" fill="#ffb937"/>
            <path id="Path_876789" data-name="Path 876789" d="M80.99,113.447s-1.468,1.747-1.761,10.062-22.3,41.472-28.464,53.8l7.042,8.51s7.63-11.738,14.379-17.606,14.672-22.889,14.965-28.758,12.914-15.261,12.914-15.261Z" transform="translate(29.195 65.243)" fill="#f5ba87"/>
            <path id="Path_876790" data-name="Path 876790" d="M83.126,27.495s2.838,6.7,2.213,13.36c0,0,8.43,4.278,15.277-4.821a82.861,82.861,0,0,1-1.41-15.4c.208-7.079-16.08,6.863-16.08,6.863" transform="translate(47.806 10.713)" fill="#dd8f54"/>
            <path id="Path_876791" data-name="Path 876791" d="M76.929,9.638s-1.884,6.507-.513,10.788-2.868,5.974-2.482,8.132c.427,2.4,4.023,2.654,4.023,2.654s1.2,8.391,5.308,10.446c4.867,2.434,12.843,1.884,17.636-2.227s10.616-9.074,8.734-22.259S89.257-4.916,76.929,9.638" transform="translate(42.505 1.233)" fill="#f5ba87"/>
            <path id="Path_876792" data-name="Path 876792" d="M109.554,4.29a18.7,18.7,0,0,0-7.121-3.108C98.2.057,93.515-.783,89.6,1.169c-2.531,1.26-4.4,3.533-6.737,5.13a10.735,10.735,0,0,1-6.178,2.033,7.564,7.564,0,0,1-3.876-1.155,1.55,1.55,0,0,0-2.378.94,5.35,5.35,0,0,0,2.1,3c3.161,2.5,7.362,3.123,11.193,4.333a15.258,15.258,0,0,1,9.189,9.7,5.857,5.857,0,0,0,.88,2.062,1.437,1.437,0,0,0,.583.517c.942.386,1.77-.975,2.76-.736a10.849,10.849,0,0,1,.747-5.511,4.979,4.979,0,0,1,1.889-2.452,3.867,3.867,0,0,1,4.672.914,5.82,5.82,0,0,1,1.178,4.843c-.172.975-.665,3.709-1.236,6.124a3.753,3.753,0,0,0,3.744,4.624l.091,0A3.872,3.872,0,0,0,111.884,32c.291-3.947,1.356-7.9,1.918-11.849.8-5.674.2-12.253-4.248-15.86" transform="translate(40.503 0)" fill="#56241d"/>
            <path id="Path_876793" data-name="Path 876793" d="M106.183,30.981s-2.687-4.511-6.775-2.013c-8.619,5.267-19.459,48.215,12.8,57.664V77.351S96.8,70.626,97.025,57.424c.272-15.9,3.331-26.586,9.158-26.443" transform="translate(52.03 16.226)" fill="#56241d"/>
            <path id="Path_876794" data-name="Path 876794" d="M89.62,30.981s-2.687-4.511-6.775-2.013C75.864,33.234,67.428,62.214,81.61,78.1l.022-14.289a16.4,16.4,0,0,1-1.17-6.385c.272-15.9,3.331-26.586,9.158-26.443" transform="translate(42.504 16.226)" fill="#56241d"/>
            <path id="Path_876795" data-name="Path 876795" d="M49.781,154.254l12.508,7.888,1.249-1.981a.719.719,0,0,0-.224-.992l-11.292-7.119a.719.719,0,0,0-.992.224Z" transform="translate(28.629 87.379)" fill="#faedce"/>
            <path id="Path_876796" data-name="Path 876796" d="M36.168,153.871c1.739-1.783,6.189-5.174,11.642-.435a5.423,5.423,0,0,0,2.61,1.222l7.349.123,12.508,7.888s-3.294,3.413-2.41,5.84c.671,1.843-1.438,3.676-2.49,4.45a.986.986,0,0,1-1.11.036l-27.911-17.6a.988.988,0,0,1-.187-1.523" transform="translate(20.641 86.852)" fill="#7d3a1b"/>
            <path id="Path_876797" data-name="Path 876797" d="M47.81,153.436c.038.033.082.058.121.091a8.506,8.506,0,0,1-.528,8.11c-.11.175-.232.337-.353.5l-10.695-6.745a.988.988,0,0,1-.187-1.523c1.739-1.783,6.189-5.176,11.642-.435" transform="translate(20.641 86.852)" fill="#faedce"/>
            <path id="Path_876798" data-name="Path 876798" d="M65.377,172.114a.986.986,0,0,1-1.11.036l-27.911-17.6a.988.988,0,0,1-.187-1.523c.162-.167.35-.348.558-.536l29.71,18.736a10.846,10.846,0,0,1-1.058.888" transform="translate(20.641 87.697)" fill="#faedce"/>
            <path id="Path_876799" data-name="Path 876799" d="M36.589,152.49,66.3,171.224c-.162.154-.32.295-.474.425L36.131,152.925c.137-.139.288-.284.458-.435" transform="translate(20.779 87.697)" fill="#56241d"/>
            <path id="Path_876800" data-name="Path 876800" d="M51.445,158.615a3.036,3.036,0,1,0,4.188-.948,3.037,3.037,0,0,0-4.188.948" transform="translate(29.317 90.405)" fill="#faedce"/>
            <path id="Path_876801" data-name="Path 876801" d="M48.92,153.013a.564.564,0,0,1,.594.528l.28,4.84a.561.561,0,0,1-1.12.065l-.282-4.839a.563.563,0,0,1,.528-.594" transform="translate(27.83 87.998)" fill="#faedce"/>
            <path id="Path_876802" data-name="Path 876802" d="M47.545,152.953a.559.559,0,0,1,.592.528l.282,4.84a.561.561,0,1,1-1.12.065l-.282-4.84a.562.562,0,0,1,.528-.592" transform="translate(27.039 87.963)" fill="#faedce"/>
            <path id="Path_876803" data-name="Path 876803" d="M46.171,152.893a.561.561,0,0,1,.592.528l.282,4.84a.562.562,0,0,1-1.121.065l-.28-4.84a.559.559,0,0,1,.528-.592" transform="translate(26.249 87.929)" fill="#faedce"/>
            <path id="Path_876804" data-name="Path 876804" d="M115.091,162.115l10.819-10.081-1.6-1.714a.718.718,0,0,0-1.016-.036l-9.767,9.1a.721.721,0,0,0-.036,1.018Z" transform="translate(65.16 86.318)" fill="#faedce"/>
            <path id="Path_876805" data-name="Path 876805" d="M136.713,158.69c-.479-1.214-1.714-3.72-3.668-3.544-2.572.235-5.031-3.821-5.031-3.821l-10.819,10.082-1.994,7.074a5.413,5.413,0,0,1-1.848,2.211,8.662,8.662,0,0,0-3.706,4.626h10.133l16.685-15.546a.982.982,0,0,0,.249-1.082" transform="translate(63.058 87.027)" fill="#7d3a1b"/>
            <path id="Path_876806" data-name="Path 876806" d="M119.651,159.342a3.036,3.036,0,1,0,.151-4.292,3.037,3.037,0,0,0-.151,4.292" transform="translate(68.343 88.701)" fill="#faedce"/>
            <path id="Path_876807" data-name="Path 876807" d="M113.792,158.808a.561.561,0,0,1,.662-.438l4.752.962a.561.561,0,0,1-.224,1.1l-4.751-.962a.562.562,0,0,1-.439-.662" transform="translate(65.435 91.072)" fill="#faedce"/>
            <path id="Path_876808" data-name="Path 876808" d="M113.383,160.121a.561.561,0,0,1,.662-.438l4.751.962a.561.561,0,1,1-.222,1.1l-4.751-.962a.562.562,0,0,1-.439-.662" transform="translate(65.2 91.827)" fill="#faedce"/>
            <path id="Path_876809" data-name="Path 876809" d="M112.974,161.435a.559.559,0,0,1,.662-.438l4.751.962a.562.562,0,1,1-.222,1.1l-4.752-.964a.561.561,0,0,1-.438-.662" transform="translate(64.965 92.583)" fill="#faedce"/>
            <path id="Path_876810" data-name="Path 876810" d="M134.052,156.458a10.8,10.8,0,0,0-.589-1.251l-19.189,18,2.917-.043L133.8,157.54a.982.982,0,0,0,.249-1.082" transform="translate(65.718 89.26)" fill="#faedce"/>
            <path id="Path_876811" data-name="Path 876811" d="M115.172,173.086l18.58-17.312c-.087-.183-.181-.373-.29-.567l-19.188,17.879Z" transform="translate(65.719 89.26)" fill="#56241d"/>
            <path id="Path_876812" data-name="Path 876812" d="M116.5,161.771c.05.008.1,0,.15.009a8.514,8.514,0,0,1,3.99,7.082c0,.208-.011.411-.022.614l-12.643.192a.988.988,0,0,1-.989-1.175c.484-2.443,2.356-7.715,9.515-6.723" transform="translate(61.515 92.964)" fill="#faedce"/>
            <path id="Path_876813" data-name="Path 876813" d="M120.587,166.1c-.02-.206-.065-.543-.1-.745l-13.344.249c-.009.033-.019.068-.027.1-.043.161-.079.317-.11.463l-.011.05Z" transform="translate(61.533 95.098)" fill="#56241d"/>
            <path id="Path_876814" data-name="Path 876814" d="M60.529,74.065,57.685,72.41c-1.385.627-3.157.161-4.573-.422a9.56,9.56,0,0,0-4.494-1.147c-2.659.261-1.833,2.049-3.856,3.4-1.588,1.057-5.878,2.158-6.946,3.547-2.367,3.078,2.616,7.382,4.94,8.03,3.511.98,7.494-.586,10.986-1.855,3.171-1.155,5.431-4.032,7.324-6.682a3.425,3.425,0,0,0,.827-1.8,1.47,1.47,0,0,0-1.364-1.414" transform="translate(21.39 40.728)" fill="#f5ba87"/>
            <path id="Path_876815" data-name="Path 876815" d="M128.458,86.8l-2.486,2.158c.146,1.512-.866,3.04-1.876,4.191a9.561,9.561,0,0,0-2.536,3.883c-.611,2.6,1.348,2.4,1.97,4.747.488,1.843.145,6.259,1.115,7.72,2.148,3.234,7.831-.093,9.2-2.084,2.059-3.005,1.863-7.282,1.789-11-.068-3.372-2.062-6.442-3.958-9.088a3.422,3.422,0,0,0-1.436-1.364,1.47,1.47,0,0,0-1.778.835" transform="translate(69.843 49.398)" fill="#f5ba87"/>
            <path id="Path_876816" data-name="Path 876816" d="M54.864,81.089l-1.525.559a1,1,0,0,1-1.277-.592l-3.256-8.822a1,1,0,0,1,.592-1.277l1.525-.559a1,1,0,0,1,1.277.592l3.256,8.822a1,1,0,0,1-.592,1.277" transform="translate(28.033 40.45)" fill="#56241d"/>
            <path id="Path_876817" data-name="Path 876817" d="M50.3,72.124a.333.333,0,1,1,.2-.428.335.335,0,0,1-.2.428" transform="translate(28.671 41.107)" fill="#2b0104"/>
            <path id="Path_876818" data-name="Path 876818" d="M50.718,73.253a.333.333,0,1,1,.2-.428.336.336,0,0,1-.2.428" transform="translate(28.91 41.756)" fill="#2b0104"/>
            <path id="Path_876819" data-name="Path 876819" d="M51.132,74.381a.333.333,0,1,1,.2-.428.335.335,0,0,1-.2.428" transform="translate(29.148 42.405)" fill="#2b0104"/>
            <path id="Path_876820" data-name="Path 876820" d="M51.547,75.51a.333.333,0,1,1,.2-.428.335.335,0,0,1-.2.428" transform="translate(29.387 43.054)" fill="#2b0104"/>
            <path id="Path_876821" data-name="Path 876821" d="M51.962,76.639a.333.333,0,1,1,.2-.428.334.334,0,0,1-.2.428" transform="translate(29.625 43.703)" fill="#2b0104"/>
            <path id="Path_876822" data-name="Path 876822" d="M50.364,75.789l-.482-1.31a1.041,1.041,0,0,1,.617-1.336l.83-.3a1.041,1.041,0,0,1,1.336.617l.482,1.309A1.043,1.043,0,0,1,52.53,76.1l-.83.306a1.042,1.042,0,0,1-1.336-.617M52.014,73.7a.346.346,0,0,0-.443-.2l-.832.306a.346.346,0,0,0-.2.443l.482,1.309a.346.346,0,0,0,.443.206l.83-.306a.345.345,0,0,0,.2-.444Z" transform="translate(28.651 41.853)" fill="#5d6169"/>
            <path id="Path_876823" data-name="Path 876823" d="M50.913,74.687l-.588-1.6a.305.305,0,0,1,.573-.21l.588,1.6a.305.305,0,0,1-.573.211" transform="translate(28.932 41.798)" fill="#8696a2"/>
            <path id="Path_876824" data-name="Path 876824" d="M64.74,167.21c-.414-1.837-1.87-3.237-3.322-4.434a49.246,49.246,0,0,0-5.092-3.681c-3.769-2.377-8.792-4.2-12.5-1.726a22.436,22.436,0,0,0-2.9,2.693,18.833,18.833,0,0,1-8.507,4.539c-1.794.449-3.692.7-5.253,1.687S24.5,169.335,25.3,171c.866,1.8,3.256,2.1,5.251,2.166,4.9.151,36.564,4.577,34.188-5.955" transform="translate(14.396 89.824)" fill="#c7b5ae"/>
            <path id="Path_876825" data-name="Path 876825" d="M68.88,165.34a9.391,9.391,0,0,0-2.941-2.463c-2.315-1.448-4.881-2.953-7.587-2.588a11.863,11.863,0,0,0-3.667,1.367L51.818,163.1a10.627,10.627,0,0,0-3.142,2.09c-1.2,1.3-1.807,3.8.192,4.7a5.824,5.824,0,0,0,2.182.356c4.795.157,9.481.225,14.259.013,1.364-.06,2.912-.213,3.736-1.3a3.194,3.194,0,0,0-.165-3.615" transform="translate(27.357 92.15)" fill="#d8c8c3"/>
          </g>
        </g>
      </g>
    </g>
  </g>
</svg>
