<svg xmlns="http://www.w3.org/2000/svg" xmlns:xlink="http://www.w3.org/1999/xlink" width="190" height="134" viewBox="0 0 190 134">
  <defs>
    <clipPath id="clip-path">
      <rect id="Rectangle_402045" data-name="Rectangle 402045" width="62.853" height="77.358" fill="#7d3a1b"/>
    </clipPath>
  </defs>
  <g id="Group_1100289" data-name="Group 1100289" transform="translate(-390 -7530)">
    <rect id="Rectangle_402216" data-name="Rectangle 402216" width="190" height="134" transform="translate(390 7530)" fill="none"/>
    <g id="Group_1099980" data-name="Group 1099980" transform="translate(76 3)">
      <g id="Grupo_156312" data-name="Grupo 156312" transform="translate(344 7528)">
        <path id="Elipse_5845" data-name="Elipse 5845" d="M65.5,0A65.5,65.5,0,1,1,0,65.5,65.5,65.5,0,0,1,65.5,0Z" transform="translate(0 0)" fill="#ffce73"/>
      </g>
      <g id="Group_1099977" data-name="Group 1099977" transform="translate(370.935 7554.934)">
        <path id="Path_873216" data-name="Path 873216" d="M0,0H77.357V77.358H0Z" transform="translate(0 0)" fill="none"/>
        <g id="Group_1099986" data-name="Group 1099986" transform="translate(2.552)">
          <g id="Group_1099985" data-name="Group 1099985" clip-path="url(#clip-path)">
            <path id="Path_877082" data-name="Path 877082" d="M70.76,45.33a13.979,13.979,0,0,1,.984-5.2,32.632,32.632,0,0,1,1.6-3.087c.682-1.239,1.454-2.432,2.079-3.7a2.955,2.955,0,0,0-.138-3.126c-1.515-2.144-3.095-4.243-4.649-6.359q-1.507-2.054-3.018-4.105a11.8,11.8,0,0,1-1.561-3.384c-.427-1.285-.873-2.564-1.307-3.847-.571-1.689-1.146-3.377-1.7-5.071A22.027,22.027,0,0,1,62.4,5.267a4.037,4.037,0,0,1,.877-3.485,4.512,4.512,0,0,1,7.7.866,10.063,10.063,0,0,1,.485,1.316c.582,1.869,1.147,3.743,1.729,5.612.414,1.33.846,2.655,1.269,3.982a7.848,7.848,0,0,0,1.106,2.151c.767,1.084,1.557,2.151,2.3,3.25a1.9,1.9,0,0,0,1.771.846c2.245-.032,4.492-.041,6.737-.016a2.289,2.289,0,0,0,1.987-.943q4.492-5.764,9.016-11.5l3.8-4.838A4.325,4.325,0,0,1,104.6.746a4.234,4.234,0,0,1,3.672,1.9,4.2,4.2,0,0,1-.087,5.127c-1.411,1.883-2.866,3.732-4.3,5.6q-5.22,6.774-10.446,13.544a6.653,6.653,0,0,0-1.264,3.1c-.228,1.385-.484,2.766-.735,4.147-.336,1.851-.682,3.7-1.017,5.551a2.01,2.01,0,0,0,.413,1.485q1.123,1.714,2.245,3.429c1.388,2.135,2.8,4.253,4.148,6.416A8.031,8.031,0,0,1,98.3,56.358c-.107.911-.159,1.828-.25,2.741-.129,1.3-.283,2.6-.4,3.9-.2,2.128-.368,4.258-.57,6.385a35.01,35.01,0,0,1-.424,3.6,5.03,5.03,0,0,1-3.4,3.887,5.145,5.145,0,0,1-6.495-3.116,5.354,5.354,0,0,1-.252-2.511q.364-2.933.742-5.864c.133-1.025.291-2.047.429-3.071.252-1.865.495-3.732.749-5.6a1.475,1.475,0,0,0-.286-1.047c-.856-1.271-1.722-2.534-2.587-3.8q-1.181-1.729-2.367-3.453a2.619,2.619,0,0,0-.315-.384.956.956,0,0,0-1.129-.207,1.014,1.014,0,0,0-.622,1.059c.13,1,.285,1.989.415,2.985.245,1.876.475,3.755.722,5.631.224,1.7.472,3.4.691,5.1.234,1.818.437,3.64.668,5.459.129,1.015.28,2.028.434,3.041a5.214,5.214,0,0,1-.931,4.079A5.115,5.115,0,0,1,78.6,77.354a5.324,5.324,0,0,1-4.958-4.873c-.121-1.253-.289-2.5-.421-3.752-.1-.97-.168-1.944-.275-2.914-.241-2.191-.506-4.38-.745-6.571-.1-.931-.144-1.869-.246-2.8-.237-2.152-.5-4.3-.739-6.454-.177-1.629-.321-3.261-.458-4.659m2.225.089c.033.556.044,1.114.1,1.666.2,1.853.417,3.7.622,5.556.14,1.261.264,2.523.405,3.784.11.979.245,1.956.35,2.936.216,2.018.414,4.038.628,6.056.121,1.145.261,2.287.386,3.431.137,1.241.25,2.486.4,3.725a2.97,2.97,0,0,0,3.047,2.605,3.065,3.065,0,0,0,2.992-2.565,5.651,5.651,0,0,0-.125-1.828c-.229-1.79-.442-3.582-.677-5.37-.252-1.914-.534-3.825-.783-5.74-.275-2.119-.526-4.241-.793-6.36-.174-1.384-.369-2.765-.536-4.149a2.985,2.985,0,0,1,.461-2.1A3.159,3.159,0,0,1,82.988,45.7a3.333,3.333,0,0,1,1.976,1.507q2.465,3.582,4.923,7.168A3.734,3.734,0,0,1,90.6,57c-.095.754-.211,1.506-.3,2.26-.113.919-.2,1.843-.321,2.761-.215,1.584-.458,3.165-.68,4.749-.176,1.256-.348,2.512-.506,3.771a8.526,8.526,0,0,0-.152,1.831,2.9,2.9,0,0,0,3.143,2.575,2.925,2.925,0,0,0,2.8-2.546c.065-.611.082-1.227.143-1.838.135-1.35.3-2.7.425-4.047.2-2.1.377-4.2.572-6.3.142-1.545.3-3.089.445-4.633a5.522,5.522,0,0,0-.838-3.552c-.966-1.536-1.972-3.048-2.961-4.569-1.155-1.775-2.315-3.547-3.464-5.325a3.923,3.923,0,0,1-.641-2.928c.336-1.812.67-3.623,1.014-5.433.272-1.436.608-2.862.82-4.307a7.979,7.979,0,0,1,1.6-3.807q4.323-5.6,8.639-11.2,3-3.9,6.012-7.791a2.467,2.467,0,0,0,.511-1.285,2.142,2.142,0,0,0-2.194-2.449,2.449,2.449,0,0,0-1.98,1.117q-2.315,2.968-4.645,5.924C95.356,13.4,92.664,16.806,90,20.235a4.4,4.4,0,0,1-3.637,1.79c-2.295.009-4.59.02-6.885,0a3.836,3.836,0,0,1-3.245-1.684q-1.129-1.587-2.261-3.171a10.857,10.857,0,0,1-1.56-2.966c-.165-.509-.323-1.021-.485-1.531q-.629-1.978-1.258-3.955c-.526-1.663-1.056-3.325-1.571-4.992A2.389,2.389,0,0,0,64.546,5.17c.087.377.253.736.378,1.1q.743,2.2,1.483,4.4c.58,1.727,1.152,3.457,1.741,5.181a8.214,8.214,0,0,0,.686,1.733c.715,1.138,1.505,2.231,2.3,3.316,1.925,2.632,3.889,5.235,5.8,7.877a4.959,4.959,0,0,1,.318,5.718q-1.292,2.295-2.608,4.576a11.292,11.292,0,0,0-1.656,6.338" transform="translate(-47.662 -0.001)" fill="#7d3a1b"/>
            <path id="Path_877083" data-name="Path 877083" d="M4.933,108.687c-.259-.678-.515-1.35-.772-2.021l-2.294-5.973A2.257,2.257,0,0,1,1.8,98.876a2.126,2.126,0,0,1,1.268-1.1q2.311-.91,4.622-1.821c1.377-.545,2.746-1.11,4.128-1.641a1.917,1.917,0,0,1,2.522,1.118c.884,2.27,1.753,4.546,2.637,6.815q.86,2.206,1.748,4.4a4.12,4.12,0,0,1-.473,3.983,5.485,5.485,0,0,1-3.869,2.531,3.215,3.215,0,0,1-3.513-2.742,4.932,4.932,0,0,1,1.984-4.309,4.681,4.681,0,0,1,2.679-1.13c.047,0,.094-.016.189-.033l-1.582-4.121-8.547,3.494c.139.389.273.793.425,1.189.634,1.645,1.253,3.3,1.917,4.929a3.9,3.9,0,0,1-.176,3.388,5.423,5.423,0,0,1-3.191,2.848,3.309,3.309,0,0,1-3.446-.52,3.067,3.067,0,0,1-1.03-3.143,5.472,5.472,0,0,1,3.935-4.172,6.672,6.672,0,0,1,.9-.155M12.4,96.409,3.816,99.8l1.009,2.519c2.887-1.194,5.735-2.339,8.538-3.528L12.4,96.409m4.549,11.877-.077-.033a.986.986,0,0,0-.695-1.085,2.244,2.244,0,0,0-1.366.213,3.438,3.438,0,0,0-1.777,2.183,1.037,1.037,0,0,0,1.213,1.387,3,3,0,0,0,2.2-1.529,8.723,8.723,0,0,0,.5-1.135M2.259,113.666c0,.059,0,.117,0,.176.006.593.254.847.846.887a2.012,2.012,0,0,0,1.256-.3,2.893,2.893,0,0,0,1.647-2.573.9.9,0,0,0-1.176-.946,3.223,3.223,0,0,0-.939.308,2.864,2.864,0,0,0-1.634,2.451" transform="translate(0 -72.041)" fill="#7d3a1b"/>
            <path id="Path_877084" data-name="Path 877084" d="M222.3,109.808c.351.879.685,1.719,1.022,2.558q1.813,4.516,3.634,9.028c.131.322.342.611.5.923a3.563,3.563,0,0,1-.077,3.192,5.3,5.3,0,0,1-4.222,3.242,3.124,3.124,0,0,1-3.571-3.052,4.85,4.85,0,0,1,1.647-3.652,5.624,5.624,0,0,1,3.02-1.506c-.1-.268-.181-.523-.28-.771q-1.323-3.312-2.651-6.622c-.537-1.338-1.084-2.672-1.62-4.011a1.1,1.1,0,0,1,1.03-1.625,9.741,9.741,0,0,1,9.257,5.129,13.043,13.043,0,0,1,.769,1.766,1.031,1.031,0,0,1-.434,1.245,1,1,0,0,1-1.308-.15,2.133,2.133,0,0,1-.411-.728,7.362,7.362,0,0,0-3.809-4.316,5.744,5.744,0,0,0-2.082-.649c-.115-.011-.232,0-.411,0m.5,16.758a3.093,3.093,0,0,0,2.789-2.7.961.961,0,0,0-1.258-1.09,3.054,3.054,0,0,0-2.515,2.524c-.112.764.154,1.289.984,1.264" transform="translate(-167.97 -82.24)" fill="#7d3a1b"/>
            <path id="Path_877085" data-name="Path 877085" d="M123.288,20.92a6.722,6.722,0,1,1,6.7,6.726,6.722,6.722,0,0,1-6.7-6.726m6.741,4.558a4.5,4.5,0,0,0,4.51-4.55,4.533,4.533,0,1,0-9.066.041,4.468,4.468,0,0,0,4.556,4.51" transform="translate(-94.31 -10.893)" fill="#7d3a1b"/>
          </g>
        </g>
      </g>
    </g>
  </g>
</svg>
