<svg xmlns="http://www.w3.org/2000/svg" xmlns:xlink="http://www.w3.org/1999/xlink" width="190" height="134" viewBox="0 0 190 134">
  <defs>
    <clipPath id="clip-path">
      <rect id="Rectangle_402044" data-name="Rectangle 402044" width="77.357" height="72.498" fill="#7d3a1b"/>
    </clipPath>
  </defs>
  <g id="Group_1100290" data-name="Group 1100290" transform="translate(-390 -8594)">
    <rect id="Rectangle_402217" data-name="Rectangle 402217" width="190" height="134" transform="translate(390 8594)" fill="none"/>
    <g id="Group_1099981" data-name="Group 1099981" transform="translate(76 1068)">
      <g id="Grupo_156312" data-name="Grupo 156312" transform="translate(344 7528)">
        <path id="Elipse_5845" data-name="Elipse 5845" d="M65.5,0A65.5,65.5,0,1,1,0,65.5,65.5,65.5,0,0,1,65.5,0Z" transform="translate(0 0)" fill="#ffce73"/>
      </g>
      <g id="Group_1099977" data-name="Group 1099977" transform="translate(370.935 7554.934)">
        <path id="Path_873216" data-name="Path 873216" d="M0,0H77.357V77.358H0Z" transform="translate(0 0)" fill="none"/>
        <g id="Group_1099983" data-name="Group 1099983" transform="translate(0 3)">
          <g id="Group_1099982" data-name="Group 1099982" clip-path="url(#clip-path)">
            <path id="Path_877078" data-name="Path 877078" d="M47.791,25.369V8.732c-.369-.018-.756-.052-1.143-.053-2.955,0-5.91,0-8.866,0a3.111,3.111,0,0,1-3.389-3.022c-.008-1.773,1.357-3.006,3.366-3.032.776-.01,1.552,0,2.327,0s1.353.275,1.355,1.109c0,.885-.611,1.178-1.419,1.172a17.216,17.216,0,0,0-2.433.04c-.314.043-.575.485-.859.745.276.236.549.673.828.676,3.389.047,6.779.031,10.231.031V4.9c-.705,0-1.361.01-2.016,0-.729-.015-1.227-.364-1.246-1.119s.455-1.127,1.2-1.148A7.353,7.353,0,0,0,47.05,2.6a1.713,1.713,0,0,0,.92-.529,1.165,1.165,0,0,1,2.07.05c.168.222.493.493.722.473,1.077-.1,2.353.553,3.142-.852a1.676,1.676,0,0,1,1.4.089c.448.967,1.22.792,1.969.789.807,0,1.581.173,2.142-.831.349-.625,1.136-.4,1.686.2a2.005,2.005,0,0,0,1.1.6,17.65,17.65,0,0,0,1.99.031A5.226,5.226,0,0,0,68.45,1.271c2.2-2.079,5.775-1.483,7.678.887a5.563,5.563,0,0,1-8.457,7.221,1.851,1.851,0,0,0-1.6-.715c-1.548.043-3.1.014-4.824.014V68.442c0,.332,0,.665,0,1-.033,2.081-.993,3.05-3.072,3.054q-8.755.013-17.509,0-11.414,0-22.829,0c-2.419,0-3.371-.939-3.372-3.327q-.005-6.318,0-12.636c0-.111,0-.222,0-.332-.035-.842.227-1.543,1.178-1.523s1.155.757,1.147,1.576c-.009.924.061,1.853-.018,2.77a2.786,2.786,0,0,0,1.064,2.607,12.413,12.413,0,0,1,1.425,1.728c.944-1.025,1.638-1.83,2.387-2.58.993-.994,1.755-.987,2.768-.025.749.711,1.48,1.44,2.222,2.159a2.687,2.687,0,0,0,.417.135c.63-.709,1.328-1.569,2.1-2.349a1.574,1.574,0,0,1,2.588.006c.779.776,1.487,1.623,2.4,2.634.913-1,1.6-1.82,2.351-2.571.994-.993,1.756-.994,2.755.012.748.754,1.416,1.586,2.337,2.63.711-.849,1.17-1.479,1.711-2.029,1.822-1.855,2.152-1.847,4.014.032.518.523,1,1.086,1.592,1.741.888-.877,1.657-1.654,2.445-2.41.974-.934,1.723-.957,2.683-.027.767.744,1.476,1.548,2.453,2.582.824-.934,1.57-1.734,2.253-2.584a1.568,1.568,0,0,0,.239-.919c.015-4.544.024-9.089-.013-13.633a2.229,2.229,0,0,0-.516-1.244c-.57-.72-1.234-1.365-2.075-2.276-.823.918-1.5,1.734-2.24,2.484-1.022,1.033-1.839,1.034-2.851.023-.729-.728-1.405-1.51-2.372-2.557-.8.931-1.427,1.743-2.138,2.476-1.1,1.131-1.865,1.1-3-.024-.656-.648-1.307-1.3-1.964-1.95a3.612,3.612,0,0,1-.43-.324c-.492.589-.947,1.214-1.482,1.76-1.814,1.85-2.24,1.853-4.024.033-.537-.548-1-1.172-1.605-1.894-.951.989-1.671,1.772-2.428,2.517a1.7,1.7,0,0,1-2.776-.017c-.717-.692-1.42-1.4-2.134-2.093a2.627,2.627,0,0,0-.5-.192c-.357.438-.758,1.019-1.246,1.515-2.011,2.045-2.274,2.039-4.328-.031-.467-.47-.877-1-1.523-1.738-.878.973-1.637,1.764-2.327,2.611a1.625,1.625,0,0,0-.2.932c-.022,1.182-.006,2.365-.01,3.547,0,1.3-.4,1.941-1.2,1.86-1.12-.111-1.124-.963-1.123-1.817q.008-14.3,0-28.6V19.7c-1.363,0-2.642-.041-3.915.031-.288.016-.582.394-.826.651A5.584,5.584,0,0,1,.008,16.342a5.514,5.514,0,0,1,4.11-5.067A5.2,5.2,0,0,1,9.577,12.81a2.132,2.132,0,0,0,1.91.784,15.331,15.331,0,0,1,1.662-.005c.664.019,1.228.031,1.653-.713.385-.675,1.239-.55,1.762.111a2.889,2.889,0,0,0,3.678-.017,1.1,1.1,0,0,1,1.86-.012,2.838,2.838,0,0,0,3.739-.041,1.025,1.025,0,0,1,1.7-.064c.405.75.957.774,1.633.737.9-.049,1.823.235,2.479-.858.344-.574,1.125-.343,1.6.248a2.881,2.881,0,0,0,3.667,0,1.135,1.135,0,0,1,1.938.046,1.59,1.59,0,0,0,.92.539c1.956.213,3.234,1.447,3.187,3.159-.046,1.685-1.3,2.832-3.232,2.962-.182.012-.364.031-.624.053v5.626c.488,0,.957-.021,1.424,0,.729.04,1.214.417,1.2,1.171s-.518,1.1-1.241,1.139c-.295.016-.591.007-.886.007h-22.8c0,1.515-.06,2.911.038,4.3.027.391.5.765.8,1.121.5.591,1.018,1.161,1.645,1.871.89-.926,1.609-1.7,2.36-2.448A1.681,1.681,0,0,1,24.4,32.5c.758.752,1.465,1.554,2.389,2.54.829-.928,1.511-1.753,2.26-2.512a1.675,1.675,0,0,1,2.767-.033c.758.75,1.458,1.556,2.286,2.447.881-.905,1.607-1.678,2.363-2.42.991-.972,1.8-.988,2.769-.02.757.753,1.457,1.565,2.369,2.554.878-.974,1.587-1.824,2.364-2.605a1.613,1.613,0,0,1,2.6-.026c.783.771,1.5,1.613,2.417,2.617.869-.953,1.535-1.737,2.257-2.465,1.054-1.064,1.861-1.055,2.933.018.729.73,1.418,1.5,2,2.121,3.19-1.5,3.058-4.143,2.685-7.028H46.885A8.08,8.08,0,0,1,46,27.674c-.71-.079-1.307-.465-1.137-1.187A1.919,1.919,0,0,1,46,25.412a5.708,5.708,0,0,1,1.793-.043M17.225,63.8l-.441.325q0,2.322,0,4.645c0,1.474,0,1.477,1.435,1.477H57.554a3.144,3.144,0,0,0,.88-.038c.205-.061.51-.289.513-.447.035-1.926.023-3.853.023-5.975-.405.385-.621.583-.829.789-1.462,1.446-2.026,1.461-3.469-.035-.633-.656-1.166-1.408-1.829-2.219-1.009,1.06-1.7,1.829-2.437,2.552-1.065,1.048-1.755,1.034-2.835-.013-.755-.732-1.5-1.475-2.415-2.379-.5.6-.879,1.1-1.317,1.546-2.152,2.178-2.355,2.172-4.493.047-.484-.481-.984-.945-1.62-1.555-.416.5-.734.909-1.083,1.289s-.722.74-1.1,1.095c-1.05.992-1.745,1.011-2.754,0-.754-.754-1.448-1.569-2.384-2.592-.78.9-1.374,1.654-2.041,2.338-1.325,1.358-1.953,1.346-3.3-.034-.639-.654-1.227-1.358-2.072-2.3-.91,1.032-1.6,1.9-2.374,2.67a1.572,1.572,0,0,1-2.588-.016,7.1,7.1,0,0,1-.8-1.173m-.353-28.035v6.252c.368-.33.613-.536.842-.759,1.3-1.262,1.969-1.271,3.252.041.663.679,1.261,1.422,2.025,2.292.912-.984,1.59-1.759,2.315-2.487,1.027-1.031,1.844-1.048,2.847-.026.742.756,1.413,1.582,2.223,2.5.927-.988,1.614-1.761,2.344-2.489a1.731,1.731,0,0,1,2.862-.016c.75.747,1.455,1.539,2.1,2.229a1.952,1.952,0,0,0,.333-.114c.71-.7,1.413-1.4,2.127-2.1,1.045-1.015,1.833-1.041,2.85,0,.739.756,1.393,1.594,2.2,2.523.991-1.058,1.7-1.863,2.46-2.613a1.675,1.675,0,0,1,2.7.013c.778.763,1.511,1.573,2.391,2.5.876-.943,1.578-1.751,2.337-2.5a1.676,1.676,0,0,1,2.7.006c.351.329.693.667,1.118,1.077V35.611c-.4.377-.663.625-.924.879-1.178,1.144-1.95,1.155-3.1-.006-.7-.7-1.356-1.446-1.952-2.086a1.616,1.616,0,0,0-.318.085c-.738.722-1.468,1.453-2.212,2.169a1.73,1.73,0,0,1-2.783-.019c-.746-.754-1.435-1.564-2.33-2.548-.7.809-1.207,1.448-1.773,2.024-1.659,1.689-2.165,1.693-3.792.036-.588-.6-1.116-1.258-1.851-2.095-.509.639-.813,1.059-1.157,1.442-.369.411-.768.8-1.169,1.179a1.706,1.706,0,0,1-2.7.019c-.774-.773-1.482-1.613-2.331-2.545-.921.978-1.63,1.779-2.39,2.528a1.675,1.675,0,0,1-2.695,0c-.763-.787-1.448-1.648-2.3-2.631-.666.761-1.075,1.235-1.491,1.7-1.8,2.022-2.761,2.193-4.444.161-.04-.048-.123-.061-.3-.143m36.45-27H50.2V25.309h3.12Zm5.574.006H55.756V25.286H58.9ZM8.862,16.592A3.24,3.24,0,0,0,5.52,13.351a3.373,3.373,0,0,0-3.282,3.358,3.442,3.442,0,0,0,3.4,3.272,3.326,3.326,0,0,0,3.229-3.389M71.746,8.916a3.324,3.324,0,0,0,3.373-3.248,3.424,3.424,0,0,0-3.312-3.351,3.305,3.305,0,0,0-3.315,3.29,3.211,3.211,0,0,0,3.254,3.309M25.539,19.76H22.424v5.5h3.115Zm7.981,5.532h3.147v-5.56H33.52Zm-5.563-.016H31.1v-5.52H27.957Zm-7.981-5.512h-3.1V25.3h3.1ZM66.164,4.981H60.97c.344.617.54,1.338.79,1.356,1.451.109,2.915.053,4.4.053Zm-12.807,0H50.2V6.331h3.159Zm2.389,1.337h3.16V4.977h-3.16ZM33.521,17.274h3.164V15.967H33.521Zm-5.539.008h3.112V15.969H27.982Zm-2.479.033V16H22.34c.022.49.039.877.058,1.31Zm-11.038,0c-.023-.52-.041-.908-.058-1.3h-3.19v1.3Zm5.509-1.333h-3.1v1.3h3.1Zm19.1,1.575a10.29,10.29,0,0,0,1.463-.6.788.788,0,0,0-.042-.681,8.989,8.989,0,0,0-1.421-.452Z" transform="translate(0 0)" fill="#7d3a1b"/>
            <path id="Path_877079" data-name="Path 877079" d="M214.258,228.739a6.851,6.851,0,0,1-1.213-.732c-.917-.851-1.8-1.743-2.662-2.646a1.641,1.641,0,0,1-.051-2.534q1.326-1.4,2.729-2.734a1.593,1.593,0,0,1,2.521-.012c.935.885,1.836,1.807,2.735,2.73a1.547,1.547,0,0,1,.13,2.353c-.978,1.049-2,2.058-3.05,3.038a4.354,4.354,0,0,1-1.138.538m.123-6.49-1.892,1.681,1.789,2,1.919-1.8-1.816-1.881" transform="translate(-163.27 -170.827)" fill="#7d3a1b"/>
            <path id="Path_877080" data-name="Path 877080" d="M99.985,224.158a7.429,7.429,0,0,1-.756,1.2c-.853.914-1.743,1.8-2.648,2.659a1.665,1.665,0,0,1-2.611-.023c-.9-.866-1.791-1.747-2.655-2.651a1.638,1.638,0,0,1-.007-2.532c.887-.933,1.808-1.835,2.73-2.733a1.544,1.544,0,0,1,2.352-.117c1.046.981,2.051,2.008,3.031,3.056a4.693,4.693,0,0,1,.563,1.141m-4.54-1.859-2.126,1.731,1.863,1.952,2.028-2L95.445,222.3" transform="translate(-70.609 -170.83)" fill="#7d3a1b"/>
            <path id="Path_877081" data-name="Path 877081" d="M159.5,224.032a6.365,6.365,0,0,1-.713,1.271c-.9.97-1.84,1.907-2.8,2.813a1.606,1.606,0,0,1-2.445-.05q-1.4-1.334-2.73-2.734a1.6,1.6,0,0,1,.018-2.516c.863-.905,1.751-1.788,2.651-2.657a1.607,1.607,0,0,1,2.593-.028c.9.864,1.794,1.745,2.648,2.658a7.9,7.9,0,0,1,.782,1.242m-4.693,2.1,1.812-1.9-1.748-1.954-2.014,1.867,1.951,1.982" transform="translate(-116.92 -170.844)" fill="#7d3a1b"/>
          </g>
        </g>
      </g>
    </g>
  </g>
</svg>
